<?xml version="1.0" encoding="utf-8"?>
<!-- Generator: Adobe Illustrator 18.1.1, SVG Export Plug-In . SVG Version: 6.00 Build 0)  -->
<svg version="1.1" id="Layer_1" xmlns="http://www.w3.org/2000/svg" xmlns:xlink="http://www.w3.org/1999/xlink" x="0px" y="0px"
	 viewBox="0 0 300 170" enable-background="new 0 0 300 170" xml:space="preserve">
<circle fill="#F8993C" cx="205.4" cy="122.8" r="3.1"/>
<circle fill="#F8993C" cx="211.3" cy="111.8" r="2.4"/>
<circle fill="#F8993C" cx="212.4" cy="130.3" r="1.4"/>
<circle fill="#F8993C" cx="218.8" cy="119.7" r="1.6"/>
<circle fill="#F8993C" cx="203.8" cy="104.3" r="1.3"/>
<path fill="#F8993C" d="M159.8,77.6l-50.1,22.8c-4.5,1.9-9.5,7-9.3,15.3s6.3,16.7,11.2,14.7l90.8-41.2
	C203.6,88.6,159.8,77.6,159.8,77.6z"/>
<g>
	<path fill="#4A3E98" d="M106.9,130.2c-1.7,0-3.5-0.6-5.3-1.9c-4.3-3.1-7.6-9.4-7.8-15c-0.3-9.4,5.5-15.2,10.6-17.3l50.1-22.8
		c1.1-0.5,2.4,0,2.9,1.1c0.5,1.1,0,2.4-1.1,2.9l-50.1,22.8c0,0,0,0-0.1,0c-3.8,1.6-8.2,6-7.9,13.2c0.1,4.3,2.7,9.4,6,11.7
		c0.9,0.7,2.3,1.4,3.6,1c1.1-0.3,2.3,0.3,2.7,1.4c0.3,1.1-0.3,2.3-1.4,2.7C108.3,130.1,107.6,130.2,106.9,130.2z"/>
</g>
<g>
	<path fill="#4A3E98" d="M144.9,112.4c-0.6,0-1.2-0.3-1.5-0.9c-0.4-0.8,0-1.8,0.8-2.1l52.3-23.7c0.8-0.4,1.8,0,2.1,0.8
		c0.4,0.8,0,1.8-0.8,2.1l-52.3,23.7C145.3,112.3,145.1,112.4,144.9,112.4z"/>
</g>
<g>
	<path fill="#4A3E98" d="M195.4,156.6c-0.2,0-0.4,0-0.6-0.1l-89-25.9c-1-0.3-1.6-1.2-1.5-2.2c0.1-1,0.8-1.8,1.9-2
		c0.2,0,0.3-0.1,0.4-0.1l37.6-17.1c0.5-0.2,1-0.3,1.5-0.1l50.5,14.7c0.9,0.3,1.8,1.1,1.8,2.1v28.7c0,0.7-0.5,1.3-1.1,1.7
		C196.6,156.4,195.9,156.6,195.4,156.6z M112.8,128.1l80.2,23.4v-24.2l-47.9-14L112.8,128.1z"/>
</g>
<g>
	<path fill="#4A3E98" d="M107.2,130c-0.8,0-1.6-0.5-2-1.3c-0.5-1.1,0-2.4,1.1-2.8l37.7-17.1c1.1-0.5,2.4,0,2.8,1.1
		c0.5,1.1,0,2.4-1.1,2.8l-37.7,17.1C107.8,130,107.5,130,107.2,130z"/>
</g>
<g>
	<g>
		<path fill="#4A3E98" d="M195.9,89h-0.3l-0.4,0L79,55V21.9l2.9,0.8c14.8,4.3,43.6,12.7,70,20.5c13.4,3.9,24.8,7.3,33,9.7
			c4.3,1.3,7.8,2.3,10.2,3c2.4,0.7,3.5,1,4,1.2l0,0c5,2,8.4,8.4,8.4,15.6C207.5,81.8,202.3,89,195.9,89z M84,51.8l112.4,33.1
			c3.4-0.3,7-5.1,7-12.1c0-6.2-2.7-10.6-5.5-11.8c-2.9-1-82.8-24.2-113.8-33.5V51.8z"/>
	</g>
	<g>
		<rect x="79" y="25" fill="#4A3E98" width="5" height="28"/>
	</g>
</g>
<g>
	<path fill="#4A3E98" d="M97.5,58.8c-0.6,0-1.5-0.5-1.5-1.1V46.6c0-0.6,0.9-1.1,1.5-1.1S99,46,99,46.6v11.1
		C99,58.3,98.1,58.8,97.5,58.8z"/>
</g>
<g>
	<path fill="#4A3E98" d="M145,73.2c-0.6,0-1-0.5-1-1.1V59.9c0-0.6,0.4-1.1,1-1.1s1,0.5,1,1.1v12.2C146,72.7,145.6,73.2,145,73.2z"/>
</g>
<g>
	<path fill="#4A3E98" d="M151,76c-0.6,0-1-0.5-1-1.1V54.1c0-0.6,0.4-1.1,1-1.1s1,0.5,1,1.1V75C152,75.5,151.6,76,151,76z"/>
</g>
<g>
	<path fill="#4A3E98" d="M158.5,62.8c-0.6,0-1.5-0.5-1.5-1.1V47.3c0-0.6,0.9-1.1,1.5-1.1s1.5,0.5,1.5,1.1v14.3
		C160,62.3,159.1,62.8,158.5,62.8z"/>
</g>
<g>
	<path fill="#4A3E98" d="M156,106.5c-0.6,0-1-0.5-1-1.1V92.5c0-0.6,0.4-1.1,1-1.1s1,0.5,1,1.1v12.9C157,106,156.6,106.5,156,106.5z"
		/>
</g>
<g>
	<path fill="#4A3E98" d="M151,92.9c-0.6,0-1-0.5-1-1.1V77.5c0-0.6,0.4-1.1,1-1.1s1,0.5,1,1.1v14.3C152,92.4,151.6,92.9,151,92.9z"/>
</g>
<g>
	<path fill="#4A3E98" d="M117,124.5c-0.6,0-1-0.5-1-1.1v-15.8c0-0.6,0.4-1.1,1-1.1s1,0.5,1,1.1v15.8C118,124,117.6,124.5,117,124.5z
		"/>
</g>
<g>
	<path fill="#4A3E98" d="M121,101.9c-0.6,0-1-0.5-1-1.1V90.4c0-0.6,0.4-1.1,1-1.1s1,0.5,1,1.1v10.4C122,101.4,121.6,101.9,121,101.9
		z"/>
</g>
<g>
	<path fill="#4A3E98" d="M121,110.5c-0.6,0-1-0.5-1-1.1v-5c0-0.6,0.4-1.1,1-1.1s1,0.5,1,1.1v5C122,110,121.6,110.5,121,110.5z"/>
</g>
<g>
	<path fill="#4A3E98" d="M128,111.9c-0.6,0-1-0.5-1-1.1v-23c0-0.6,0.4-1.1,1-1.1c0.6,0,1,0.5,1,1.1v23
		C129,111.4,128.6,111.9,128,111.9z"/>
</g>
<g>
	<path fill="#4A3E98" d="M159,144.9c-0.6,0-1-0.5-1-1.1v-18.7c0-0.6,0.4-1.1,1-1.1s1,0.5,1,1.1v18.7
		C160,144.4,159.6,144.9,159,144.9z"/>
</g>
<g>
	<path fill="#4A3E98" d="M165,126.3c-0.6,0-1-0.5-1-1.1v-7.9c0-0.6,0.4-1.1,1-1.1s1,0.5,1,1.1v7.9C166,125.8,165.6,126.3,165,126.3z
		"/>
</g>
<g>
	<path fill="#4A3E98" d="M171,141c-0.6,0-1-0.5-1-1.1v-21.2c0-0.6,0.4-1.1,1-1.1s1,0.5,1,1.1v21.2C172,140.5,171.6,141,171,141z"/>
</g>
<g>
	<path fill="#4A3E98" d="M81.5,66.3c-1.2,0-2.5-1-2.5-2.2v-57C79,6,80.3,5,81.5,5S84,6,84,7.2v57C84,65.4,82.7,66.3,81.5,66.3z"/>
</g>
<g>
	<path fill="#4A3E98" d="M195.5,165c-1.2,0-2.5-1-2.5-2.2v-45.6c0-1.2,1.3-2.2,2.5-2.2s2.5,1,2.5,2.2v45.6
		C198,164,196.7,165,195.5,165z"/>
</g>
<g>
	<path fill="#4A3E98" d="M102,47.7c-0.6,0-1-0.5-1-1.1v-4.3c0-0.6,0.4-1.1,1-1.1s1,0.5,1,1.1v4.3C103,47.2,102.6,47.7,102,47.7z"/>
</g>
<g>
	<path fill="#4A3E98" d="M165,131.6c-0.6,0-1-0.5-1-1.1v-2.2c0-0.6,0.4-1.1,1-1.1s1,0.5,1,1.1v2.2C166,131.2,165.6,131.6,165,131.6z
		"/>
</g>
<g>
	<path fill="#4A3E98" d="M165,138.8c-0.6,0-1-0.5-1-1.1v-3.9c0-0.6,0.4-1.1,1-1.1s1,0.5,1,1.1v3.9C166,138.3,165.6,138.8,165,138.8z
		"/>
</g>
</svg>
