<?xml version="1.0" encoding="utf-8"?>
<!-- Generator: Adobe Illustrator 18.1.1, SVG Export Plug-In . SVG Version: 6.00 Build 0)  -->
<svg version="1.1" id="Layer_1" xmlns="http://www.w3.org/2000/svg" xmlns:xlink="http://www.w3.org/1999/xlink" x="0px" y="0px"
	 viewBox="0 0 300 170" enable-background="new 0 0 300 170" xml:space="preserve">
<path fill="#F12E58" d="M214.9,157.1H99c-4,0-7.2-3.2-7.2-7.2V40.4c0-4,3.2-7.2,7.2-7.2h115.9c4,0,7.2,3.2,7.2,7.2v109.4
	C222.1,153.8,218.9,157.1,214.9,157.1z"/>
<g>
	<path fill="#4A3E98" d="M201.2,145.2H85.3c-5.2,0-9.4-4.2-9.4-9.4V26.4c0-5.2,4.2-9.4,9.4-9.4h115.9c5.2,0,9.4,4.2,9.4,9.4v109.4
		C210.6,141,206.4,145.2,201.2,145.2z M85.3,21.4c-2.8,0-5,2.3-5,5v109.4c0,2.8,2.3,5,5,5h115.9c2.8,0,5-2.3,5-5V26.4
		c0-2.8-2.3-5-5-5H85.3z"/>
</g>
<circle fill="#4A3E98" cx="89.2" cy="30.4" r="2.9"/>
<circle fill="#4A3E98" cx="199" cy="30.4" r="2.9"/>
<circle fill="#4A3E98" cx="88.5" cy="132.3" r="2.9"/>
<circle fill="#4A3E98" cx="198.3" cy="132.3" r="2.9"/>
<line fill="none" stroke="#4A3E98" stroke-width="2" stroke-linecap="round" stroke-linejoin="round" stroke-miterlimit="10" x1="103" y1="133" x2="143" y2="133"/>
<line fill="none" stroke="#4A3E98" stroke-width="2" stroke-linecap="round" stroke-linejoin="round" stroke-miterlimit="10" x1="199" y1="121" x2="199" y2="97"/>
<line fill="none" stroke="#4A3E98" stroke-width="2" stroke-linecap="round" stroke-linejoin="round" stroke-miterlimit="10" x1="199" y1="91" x2="199" y2="81"/>
<line fill="none" stroke="#4A3E98" stroke-width="2" stroke-linecap="round" stroke-linejoin="round" stroke-miterlimit="10" x1="100" y1="30" x2="129" y2="30"/>
<line fill="none" stroke="#4A3E98" stroke-width="2" stroke-linecap="round" stroke-linejoin="round" stroke-miterlimit="10" x1="88" y1="47" x2="88" y2="75"/>
<line fill="none" stroke="#4A3E98" stroke-width="2" stroke-linecap="round" stroke-linejoin="round" stroke-miterlimit="10" x1="88" y1="82" x2="88" y2="94"/>
</svg>
