<?xml version="1.0" encoding="utf-8"?>
<!-- Generator: Adobe Illustrator 18.1.1, SVG Export Plug-In . SVG Version: 6.00 Build 0)  -->
<svg version="1.1" id="Layer_1" xmlns="http://www.w3.org/2000/svg" xmlns:xlink="http://www.w3.org/1999/xlink" x="0px" y="0px"
	 viewBox="0 0 300 170" enable-background="new 0 0 300 170" xml:space="preserve">
<path fill="#F8993C" d="M184.1,127.2H96.3c-1.8,0-3.3-1.5-3.3-3.3V90.9c0-1.8,1.5-3.3,3.3-3.3h87.8c1.8,0,3.3,1.5,3.3,3.3V124
	C187.4,125.7,185.9,127.2,184.1,127.2z"/>
<g>
	<path fill="#4A3E98" d="M192.7,160H86.3c-3.2,0-5.9-2.6-5.9-5.9v-32.5c0-3.2,2.6-5.9,5.9-5.9h106.3c3.2,0,5.9,2.6,5.9,5.9v32.5
		C198.5,157.4,195.9,160,192.7,160z M86.3,120.4c-0.7,0-1.3,0.6-1.3,1.3v32.5c0,0.7,0.6,1.3,1.3,1.3h106.3c0.7,0,1.3-0.6,1.3-1.3
		v-32.5c0-0.7-0.6-1.3-1.3-1.3H86.3z"/>
</g>
<g>
	<path fill="#4A3E98" d="M192.5,80.8H86.1c-3.2,0-5.9-2.6-5.9-5.9V42.5c0-3.2,2.6-5.9,5.9-5.9h106.3c3.2,0,5.9,2.6,5.9,5.9V75
		C198.3,78.2,195.7,80.8,192.5,80.8z M86.1,41.2c-0.7,0-1.3,0.6-1.3,1.3V75c0,0.7,0.6,1.3,1.3,1.3h106.3c0.7,0,1.3-0.6,1.3-1.3V42.5
		c0-0.7-0.6-1.3-1.3-1.3H86.1z"/>
</g>
<g>
	<path fill="#4A3E98" d="M183.2,120.4H95.4c-3.1,0-5.5-2.5-5.5-5.5V81.8c0-3.1,2.5-5.5,5.5-5.5h87.8c3.1,0,5.5,2.5,5.5,5.5v33.1
		C188.8,117.9,186.3,120.4,183.2,120.4z M95.4,80.8c-0.5,0-1,0.4-1,1v33.1c0,0.5,0.4,1,1,1h87.8c0.5,0,1-0.4,1-1V81.8
		c0-0.5-0.4-1-1-1H95.4z"/>
</g>
<g>
	<path fill="#4A3E98" d="M181.2,41.2H166c-2.2,0-4.1-1.8-4.1-4.1v-14c0-2.2,1.8-4.1,4.1-4.1h15.1c2.2,0,4.1,1.8,4.1,4.1v14
		C185.2,39.4,183.4,41.2,181.2,41.2z M166.5,36.6h14.1v-13h-14.1V36.6z"/>
</g>
<g>
	<path fill="#4A3E98" d="M174.5,34h-9.9c-0.6,0-1.1-0.4-1.1-1s0.5-1,1.1-1h9.9c0.6,0,1.1,0.4,1.1,1S175.2,34,174.5,34z"/>
</g>
<g>
	<path fill="#4A3E98" d="M171.1,28h-6.5c-0.6,0-1.1-0.4-1.1-1s0.5-1,1.1-1h6.5c0.6,0,1.1,0.4,1.1,1S171.7,28,171.1,28z"/>
</g>
<g>
	<path fill="#4A3E98" d="M214.8,136.4h-18.5c-1.3,0-2.3-1-2.3-2.3s1-2.3,2.3-2.3h18V60.4h-18c-1.3,0-2.3-1-2.3-2.3
		c0-1.3,1-2.3,2.3-2.3h18.5c2.3,0,4.1,1.7,4.1,3.7v73.2C218.9,134.7,217.1,136.4,214.8,136.4z"/>
</g>
<g>
	<path fill="#4A3E98" d="M205.6,127.6h-9.3c-1.3,0-2.3-1-2.3-2.3c0-1.3,1-2.3,2.3-2.3h8.6V70h-9c-1.3,0-2.3-1-2.3-2.3s1-2.3,2.3-2.3
		h9.6c2.2,0,3.9,1.5,3.9,3.5v55.2C209.6,126.1,207.8,127.6,205.6,127.6z"/>
</g>
<circle fill="#F8993C" cx="161.1" cy="9.3" r="1.7"/>
<circle fill="#F8993C" cx="170.4" cy="4.1" r="2.5"/>
<circle fill="#F8993C" cx="180.8" cy="15" r="1"/>
<circle fill="#F8993C" cx="170.5" cy="13.3" r="0.6"/>
<circle fill="#F8993C" cx="180.5" cy="0.8" r="0.8"/>
</svg>
