<?xml version="1.0" encoding="utf-8"?>
<!-- Generator: Adobe Illustrator 18.1.1, SVG Export Plug-In . SVG Version: 6.00 Build 0)  -->
<svg version="1.1" id="Layer_1" xmlns="http://www.w3.org/2000/svg" xmlns:xlink="http://www.w3.org/1999/xlink" x="0px" y="0px"
	 viewBox="0 0 300 170" enable-background="new 0 0 300 170" xml:space="preserve">
<path fill="#F12E58" d="M200.1,142.6L169,113.3c-2-1.9-2.1-5.1-0.2-7.1l14-14.8c1.9-2,5.1-2.1,7.1-0.2l31.1,29.2
	c2,1.9,2.1,5.1,0.2,7.1l-14,14.8C205.3,144.4,202.1,144.5,200.1,142.6z"/>
<path fill="#F12E58" d="M136.9,91.3L118.3,75c-0.7-0.6-0.7-1.6-0.2-2.2l6.7-7.7c0.6-0.7,1.6-0.7,2.2-0.2l18.6,16.3
	c0.7,0.6,0.7,1.6,0.2,2.2l-6.7,7.7C138.6,91.8,137.6,91.9,136.9,91.3z"/>
<g>
	<path fill="#4A3E98" d="M185.3,120c-0.3,0-0.6-0.1-0.8-0.3c-0.5-0.4-0.5-1.2-0.1-1.7l7-7.5c0.4-0.5,1.2-0.5,1.7-0.1
		c0.5,0.4,0.5,1.2,0.1,1.7l-7,7.5C185.9,119.9,185.6,120,185.3,120z"/>
</g>
<g>
	<path fill="#4A3E98" d="M191.5,127.3c-0.3,0-0.6-0.1-0.8-0.3c-0.5-0.4-0.5-1.2-0.1-1.7l14.3-15.3c0.4-0.5,1.2-0.5,1.7-0.1
		c0.5,0.4,0.5,1.2,0.1,1.7l-14.3,15.3C192.1,127.1,191.8,127.3,191.5,127.3z"/>
</g>
<g>
	<path fill="#4A3E98" d="M207.5,124.3c-0.3,0-0.6-0.1-0.8-0.3c-0.5-0.4-0.5-1.2-0.1-1.7l11.9-12.7c0.4-0.5,1.2-0.5,1.7-0.1
		c0.5,0.4,0.5,1.2,0.1,1.7l-11.9,12.7C208.2,124.2,207.9,124.3,207.5,124.3z"/>
</g>
<g>
	<path fill="#4A3E98" d="M210.4,143.7c-0.1,0-0.2,0-0.4,0c-1.7-0.1-3.3-0.8-4.5-1.9l-2.2-2c-1-0.9-1-2.4-0.1-3.3
		c0.9-1,2.4-1,3.3-0.1l2.2,2c0.4,0.4,1,0.6,1.6,0.7c0.3,0,0.8,0,1.1-0.4l14.8-16.2c0.6-0.6,0.3-2.1-0.4-2.8l-32.5-29.8
		c-0.3-0.3-0.7-0.4-1.1-0.4c-0.5,0-0.9,0.3-1.2,0.7l-7.3,8c-0.9,1-2.4,1-3.3,0.1c-1-0.9-1-2.4-0.1-3.3l7.3-8c1.1-1.3,2.7-2,4.3-2.2
		c1.7-0.2,3.4,0.4,4.7,1.6l32.5,29.8c2.7,2.5,3,6.9,0.7,9.4l-14.8,16.2C213.7,143,212.1,143.7,210.4,143.7z"/>
</g>
<path fill="none" stroke="#000000" stroke-width="4.6962" stroke-linecap="round" stroke-linejoin="round" stroke-miterlimit="10" d="
	M181.9,96.6l-7.5,8.2c-1.5,1.7-1.5,4,0.2,5.5l30.3,27.8"/>
<g>
	<path fill="#4A3E98" d="M141.4,89.2c-1,0-1.9-0.4-2.6-1l-16.7-15.3c-1.6-1.4-1.7-3.9-0.2-5.5l7-7.6c0.7-0.8,1.8-1.3,2.9-1.3
		c1,0,1.9,0.4,2.6,1l16.7,15.3c0.8,0.7,1.2,1.7,1.3,2.7c0,1-0.3,2-1,2.8l-7,7.6C143.5,88.7,142.4,89.2,141.4,89.2z M125.9,70
		l15.4,14.1l5.9-6.4l-15.4-14.1L125.9,70z"/>
</g>
<path fill="#4A3E98" stroke="#4A3E98" stroke-width="3.3333" stroke-linecap="round" stroke-linejoin="round" stroke-miterlimit="10" d="
	M127,65.4c-7.8,8.5-15.4,14.1-17.2,12.4l28.1-30.7C139.7,48.8,134.8,56.9,127,65.4z"/>
<g>
	<g>
		<path fill="#4A3E98" d="M196.8,147.6c-1.4,0-2.8-0.5-4-1.6l-2.3-2.1c-1-0.9-1-2.4-0.1-3.3c0.9-1,2.4-1,3.3-0.1l2.3,2.1
			c0.3,0.3,0.6,0.4,0.9,0.4c0.3,0,0.6-0.2,0.9-0.5l3.8-4.2L173,112c-2.6-2.4-2.8-6.2-0.3-8.8l5.9-6.4l-22-20.1
			c-0.3-0.3-0.7-0.3-1-0.3c-0.4,0-0.8,0.2-1.1,0.6L141.6,91c-0.3,0.3-0.4,0.6-0.4,0.9c0,0.3,0.2,0.7,0.5,0.9l36.6,33.5
			c1,0.9,1,2.4,0.1,3.3c-0.9,1-2.4,1-3.3,0.1l-36.6-33.5c-1.2-1.1-1.9-2.6-2-4.2c-0.1-1.6,0.5-3.1,1.6-4.4L151,73.7
			c1.1-1.2,2.6-1.9,4.2-2.1c1.7-0.1,3.3,0.4,4.5,1.5l23.7,21.7c0.5,0.4,0.7,1,0.8,1.6c0,0.6-0.2,1.2-0.6,1.7l-7.5,8.2
			c-0.7,0.7-0.6,1.6,0.1,2.2l30.3,27.8c0.5,0.4,0.7,1,0.8,1.6c0,0.6-0.2,1.2-0.6,1.7l-5.4,5.9C200,146.9,198.4,147.6,196.8,147.6z"
			/>
	</g>
	<g>
		<path fill="#4A3E98" d="M182.3,165.5c-4.6,0-8.3-3.6-8.5-8.1l-1.1-25.2c-0.1-2.2,0.5-4,1.9-5.7c0.4-0.5,1-0.8,1.6-0.9
			c0.6,0,1.3,0.2,1.8,0.6l15.7,14.4c0.5,0.4,0.7,1,0.8,1.6l0.6,14.2c0.2,4.7-3.4,8.7-8.1,8.9l-4.3,0.2
			C182.6,165.5,182.5,165.5,182.3,165.5z M177,132C177,132,177,132,177,132l1.3,25.2c0.1,2.1,2,3.7,4.1,3.6l4.4-0.2
			c2.1-0.1,3.8-1.9,3.7-4l-0.8-13.2L177,132z"/>
	</g>
	<g>
		<path fill="#4A3E98" d="M192.1,144.5c-0.6,0-1.1-0.2-1.6-0.6l-15.4-14.1c-1-0.9-1-2.4-0.1-3.3c0.9-1,2.4-1,3.3-0.1l15.4,14.1
			c1,0.9,1,2.4,0.1,3.3C193.4,144.3,192.7,144.5,192.1,144.5z"/>
	</g>
</g>
<path fill="#4A3E98" d="M178.2,158.4L178.2,158.4l-1-23.3h0c1.8-0.1,3.4,1.3,3.5,3l0.8,17.1C181.4,156.8,180,158.3,178.2,158.4z"/>
<circle fill="#4A3E98" cx="154" cy="89.1" r="3.1"/>
<circle fill="#4A3E98" cx="164.5" cy="98.2" r="3.1"/>
<g>
	<path fill="#4A3E98" d="M116.4,55.4c-0.5,0-1-0.2-1.3-0.5l-49-45.9c-0.8-0.7-0.8-2-0.1-2.8c0.7-0.8,2-0.8,2.8-0.1l49,45.9
		c0.8,0.7,0.8,2,0.1,2.8C117.5,55.1,117,55.4,116.4,55.4z"/>
</g>
<g>
	<path fill="#4A3E98" d="M126.3,45.6c-0.5,0-1-0.2-1.4-0.5l-20.7-20c-0.8-0.8-0.8-2,0-2.8c0.8-0.8,2-0.8,2.8,0l20.7,20
		c0.8,0.8,0.8,2,0,2.8C127.3,45.4,126.8,45.6,126.3,45.6z"/>
</g>
<g>
	<path fill="#4A3E98" d="M107.3,65c-0.5,0-1-0.2-1.3-0.5L84.5,44.4c-0.8-0.7-0.8-2-0.1-2.8c0.7-0.8,2-0.8,2.8-0.1l21.4,20.1
		c0.8,0.7,0.8,2,0.1,2.8C108.3,64.8,107.8,65,107.3,65z"/>
</g>
</svg>
