<?xml version="1.0" encoding="utf-8"?>
<!-- Generator: Adobe Illustrator 18.1.1, SVG Export Plug-In . SVG Version: 6.00 Build 0)  -->
<svg version="1.1" id="Layer_1" xmlns="http://www.w3.org/2000/svg" xmlns:xlink="http://www.w3.org/1999/xlink" x="0px" y="0px"
	 viewBox="0 0 300 170" enable-background="new 0 0 300 170" xml:space="preserve">
<path fill="#F8993C" d="M180.7,141.6l-48.6,23.2c-0.9,0.4-2.1,0.1-2.5-0.9l-19.2-40.1c-0.4-0.9-0.1-2.1,0.9-2.5l48.6-23.2
	c0.9-0.4,2.1-0.1,2.5,0.9l19.2,40.1C182,140.1,181.6,141.2,180.7,141.6z"/>
<g>
	<g>
		<path fill="#4A3E98" d="M128.7,159.8L128.7,159.8c-1.7,0-3.4-1-4.1-2.6l-20-41.1c-0.3-0.5-0.3-1.2-0.1-1.7c0.2-0.6,0.6-1,1.1-1.3
			l50.8-24.7c1.1-0.5,2.5-0.1,3,1l20,41.1c1.1,2.3,0.2,5-2.1,6.1l-46.7,22.7C130,159.7,129.4,159.8,128.7,159.8z M109.6,116.2
			l19,39.1c0,0,0.1,0,0.1,0c0,0,0,0,0,0l46.7-22.7c0,0,0-0.1,0-0.1l-19-39.1L109.6,116.2z"/>
	</g>
	<g>
		<path fill="#4A3E98" d="M101.3,119.7c-0.5,0-1-0.1-1.5-0.2c-1.1-0.4-2-1.2-2.6-2.3l-6.3-13c-0.5-1.1-0.6-2.3-0.2-3.4
			c0.4-1.1,1.2-2,2.3-2.6l59.6-29c1.1-0.5,2.3-0.6,3.4-0.2c1.1,0.4,2,1.2,2.6,2.3l6.3,13c0.5,1.1,0.6,2.3,0.2,3.4
			c-0.4,1.1-1.2,2-2.3,2.6l-4.4,2.1c-1.1,0.5-2.5,0.1-3-1c-0.5-1.1-0.1-2.5,1-3l4.3-2.1l-6.3-12.9l-59.5,29l6.3,12.9l4.3-2.1
			c1.1-0.5,2.5-0.1,3,1c0.5,1.1,0.1,2.5-1,3l-4.4,2.1C102.6,119.6,101.9,119.7,101.3,119.7z"/>
	</g>
</g>
<circle fill="#4A3E98" cx="142.4" cy="127.8" r="4.5"/>
<g>
	<path fill="#4A3E98" d="M140.6,131.3c-0.4,0-0.9-0.1-1.3-0.4c-1-0.7-1.3-2.1-0.6-3.1l75.2-108.7c0.7-1,2.1-1.3,3.1-0.6
		c1,0.7,1.3,2.1,0.6,3.1l-75.2,108.7C142,131,141.3,131.3,140.6,131.3z"/>
</g>
<g>
	<path fill="#4A3E98" d="M80.1,109.7c-0.8,0-1.6-0.5-2-1.2c-0.6-1.1-0.1-2.5,1-3l84.4-42.4c1.1-0.6,2.5-0.1,3,1c0.6,1.1,0.1,2.5-1,3
		l-84.4,42.4C80.8,109.7,80.5,109.7,80.1,109.7z"/>
</g>
<g>
	<path fill="#4A3E98" d="M216,62.7c-1.2,0-2-1-2-2.2V7.2c0-1.2,0.8-2.2,2-2.2s2,1,2,2.2v53.2C218,61.7,217.2,62.7,216,62.7z"/>
</g>
<g>
	<path fill="#4A3E98" d="M216,88.6c-1.2,0-2-1-2-2.2V74.7c0-1.2,0.8-2.2,2-2.2s2,1,2,2.2v11.6C218,87.6,217.2,88.6,216,88.6z"/>
</g>
</svg>
