<?xml version="1.0" encoding="utf-8"?>
<!-- Generator: Adobe Illustrator 18.1.1, SVG Export Plug-In . SVG Version: 6.00 Build 0)  -->
<svg version="1.1" id="Layer_2" xmlns="http://www.w3.org/2000/svg" xmlns:xlink="http://www.w3.org/1999/xlink" x="0px" y="0px"
	 viewBox="-251 -126.2 932 432.2" enable-background="new -251 -126.2 932 432.2" xml:space="preserve">
<path fill="#F12E58" d="M-40.2,42L-133.4,95c-8.3,4.4-17.8,16.2-17.2,35.5c0.5,19.3,11.7,38.8,20.8,34L39.1,68.7
	C41.1,67.5-40.2,42-40.2,42z"/>
<path fill="#F8993C" d="M662.5,52.8c0-7.9-6.4-14.2-14.2-14.2c-0.5,0-1.1,0-1.6,0.1c-0.8-9.4-3.3-18.2-7.4-26.2
	c4.3-3.5,7.1-8.9,7.1-14.9c0-10.6-8.6-19.2-19.2-19.2c-5.3,0-10.2,2.2-13.6,5.7c-11.1-7.1-24.3-11.2-38.4-11.2
	c-28.4,0-52.9,16.5-64.5,40.4c-2.6-1.3-5.5-2.1-8.7-2.1c-10.6,0-19.1,8.6-19.1,19.1c0,7.8,4.7,14.5,11.4,17.5c-2,2-3.2,4.8-3.2,7.9
	c0,6.2,5,11.3,11.3,11.3c1.6,0,3.1-0.3,4.4-0.9c9.1,29.1,36.3,50.1,68.4,50.1c20.7,0,39.3-8.8,52.4-22.8c3.4,2.5,7.6,4,12.1,4
	c11.4,0,20.7-9.3,20.7-20.7c0-4.6-1.5-8.8-4.1-12.3C660.1,61.9,662.5,57.7,662.5,52.8z"/>
<path fill="#FFFFFF" d="M74.8-25c0-11-8.8-19.9-19.7-19.9c-5.1,0-9.8,1.8-13.3,5c-3.7-9-12.6-15.4-23-15.4c-6.7,0-12.7,2.6-17.2,6.8
	C-3.4-60.5-15.4-69-29.3-69C-47.9-69-63-53.9-63-35.3l27.5,9.4L74.8-25z"/>
<path fill="#FFCA45" d="M529.3,169.6l-10.5-21.7l2.3-1.1c0.6-0.3,0.8-1,0.5-1.6l-3.3-6.8c-0.3-0.6-1-0.8-1.6-0.5l-31.4,15.3
	c-0.6,0.3-0.8,1-0.5,1.6l3.3,6.8c0.3,0.6,1,0.8,1.6,0.5l2.3-1.1l10.5,21.7c0.3,0.6,1,0.9,1.6,0.6l24.6-12
	C529.3,170.9,529.6,170.2,529.3,169.6z"/>
<path fill="none" stroke="#4A3E98" stroke-width="8" stroke-linecap="round" stroke-linejoin="round" stroke-miterlimit="10" d="
	M-51.2,37L-144.4,90c-8.3,4.4-17.8,16.2-17.2,35.5c0.5,18,10.3,36.2,18.9,34.7"/>
<line fill="none" stroke="#4A3E98" stroke-width="8" stroke-linecap="round" stroke-linejoin="round" stroke-miterlimit="10" x1="-69.8" y1="119.8" x2="27.5" y2="64.6"/>
<path fill="none" stroke="#4A3E98" stroke-width="8" stroke-linecap="round" stroke-linejoin="round" stroke-miterlimit="10" d="
	M-142.1,160.2L23,220.4v-66.6l-93.2-34l-70.1,39.7C-140.8,159.9-141.5,160.1-142.1,160.2z"/>
<line fill="none" stroke="#4A3E98" stroke-width="4" stroke-linecap="round" stroke-linejoin="round" stroke-miterlimit="10" x1="-139.8" y1="159.6" x2="-69.8" y2="119.8"/>
<g>
	<path fill="none" stroke="#4A3E98" stroke-width="8" stroke-miterlimit="10" d="M29.5-0.2C29.2-0.6-131-59.2-188-80.1v66.6L25,64.9
		c9.5,0,17.7-14.8,17.7-33.1C42.7,16.5,37,3.6,29.5-0.2z"/>
	<line fill="none" stroke="#4A3E98" stroke-width="8" stroke-miterlimit="10" x1="-188" y1="-13" x2="-188" y2="-80"/>
</g>
<g>
	<path fill="none" stroke="#4A3E98" stroke-width="4" stroke-linecap="round" stroke-linejoin="round" stroke-miterlimit="10" d="
		M523.3,167.6l-10.5-21.7l-26.8,13l10.5,21.7c0.3,0.6,1,0.9,1.6,0.6l24.6-12C523.3,168.9,523.6,168.2,523.3,167.6z"/>
	<path fill="none" stroke="#4A3E98" stroke-width="4" stroke-linecap="round" stroke-linejoin="round" stroke-miterlimit="10" d="
		M512.7,145.9l2.3-1.1c0.6-0.3,0.8-1,0.5-1.6l-3.3-6.8c-0.3-0.6-1-0.8-1.6-0.5l-31.4,15.3c-0.6,0.3-0.8,1-0.5,1.6l3.3,6.8
		c0.3,0.6,1,0.8,1.6,0.5l2.3-1.1"/>
</g>
<circle fill="#4A3E98" cx="504.8" cy="165.6" r="2.4"/>
<line fill="none" stroke="#4A3E98" stroke-width="4" stroke-miterlimit="10" x1="503.9" y1="166.3" x2="543.5" y2="109"/>
<line fill="none" stroke="#4A3E98" stroke-width="4" stroke-linecap="round" stroke-linejoin="round" stroke-miterlimit="10" x1="-167" y1="-73" x2="-167" y2="-38"/>
<line fill="none" stroke="#4A3E98" stroke-width="4" stroke-linecap="round" stroke-linejoin="round" stroke-miterlimit="10" x1="-158" y1="-3" x2="-158" y2="-29"/>
<line fill="none" stroke="#4A3E98" stroke-width="4" stroke-linecap="round" stroke-linejoin="round" stroke-miterlimit="10" x1="-149" y1="-66" x2="-149" y2="-51"/>
<line fill="none" stroke="#4A3E98" stroke-width="4" stroke-linecap="round" stroke-linejoin="round" stroke-miterlimit="10" x1="-70" y1="30" x2="-70" y2="2"/>
<line fill="none" stroke="#4A3E98" stroke-width="4" stroke-linecap="round" stroke-linejoin="round" stroke-miterlimit="10" x1="-58" y1="37" x2="-58" y2="-12"/>
<line fill="none" stroke="#4A3E98" stroke-width="4" stroke-linecap="round" stroke-linejoin="round" stroke-miterlimit="10" x1="-45" y1="-28" x2="-45" y2="6"/>
<line fill="none" stroke="#4A3E98" stroke-width="4" stroke-linecap="round" stroke-linejoin="round" stroke-miterlimit="10" x1="-49" y1="107" x2="-49" y2="77"/>
<line fill="none" stroke="#4A3E98" stroke-width="4" stroke-linecap="round" stroke-linejoin="round" stroke-miterlimit="10" x1="-58" y1="42" x2="-58" y2="76"/>
<line fill="none" stroke="#4A3E98" stroke-width="4" stroke-linecap="round" stroke-linejoin="round" stroke-miterlimit="10" x1="-122" y1="149" x2="-122" y2="112"/>
<line fill="none" stroke="#4A3E98" stroke-width="4" stroke-linecap="round" stroke-linejoin="round" stroke-miterlimit="10" x1="-114" y1="72" x2="-114" y2="97"/>
<line fill="none" stroke="#4A3E98" stroke-width="4" stroke-linecap="round" stroke-linejoin="round" stroke-miterlimit="10" x1="-114" y1="105" x2="-114" y2="117"/>
<line fill="none" stroke="#4A3E98" stroke-width="4" stroke-linecap="round" stroke-linejoin="round" stroke-miterlimit="10" x1="-102" y1="67" x2="-102" y2="120"/>
<line fill="none" stroke="#4A3E98" stroke-width="4" stroke-linecap="round" stroke-linejoin="round" stroke-miterlimit="10" x1="-45" y1="196" x2="-45" y2="152"/>
<line fill="none" stroke="#4A3E98" stroke-width="4" stroke-linecap="round" stroke-linejoin="round" stroke-miterlimit="10" x1="-34" y1="134" x2="-34" y2="152"/>
<line fill="none" stroke="#4A3E98" stroke-width="4" stroke-linecap="round" stroke-linejoin="round" stroke-miterlimit="10" x1="-22" y1="137" x2="-22" y2="187"/>
<line fill="none" stroke="#4A3E98" stroke-width="8" stroke-linecap="round" stroke-linejoin="round" stroke-miterlimit="10" x1="107" y1="216" x2="107" y2="253"/>
<line fill="none" stroke="#4A3E98" stroke-width="8" stroke-linecap="round" stroke-linejoin="round" stroke-miterlimit="10" x1="168" y1="216" x2="168" y2="253"/>
<line fill="none" stroke="#4A3E98" stroke-width="8" stroke-linecap="round" stroke-linejoin="round" stroke-miterlimit="10" x1="107" y1="223" x2="168" y2="223"/>
<line fill="none" stroke="#4A3E98" stroke-width="8" stroke-linecap="round" stroke-linejoin="round" stroke-miterlimit="10" x1="107" y1="240" x2="168" y2="240"/>
<line fill="none" stroke="#4A3E98" stroke-width="8" stroke-linecap="round" stroke-linejoin="round" stroke-miterlimit="10" x1="-188" y1="-121" x2="-188" y2="12"/>
<line fill="none" stroke="#4A3E98" stroke-width="8" stroke-linecap="round" stroke-linejoin="round" stroke-miterlimit="10" x1="23" y1="134" x2="23" y2="240"/>
<line fill="none" stroke="#4A3E98" stroke-width="8" stroke-linecap="round" stroke-linejoin="round" stroke-miterlimit="10" x1="-85" y1="256" x2="261" y2="256"/>
<line fill="none" stroke="#4A3E98" stroke-width="8" stroke-linecap="round" stroke-linejoin="round" stroke-miterlimit="10" x1="-124" y1="256" x2="-188" y2="256"/>
<path fill="none" stroke="#4A3E98" stroke-width="4" stroke-linecap="round" stroke-linejoin="round" stroke-miterlimit="10" d="
	M71.8-30.5c0-10.9-8.8-19.7-19.7-19.7c-5.1,0-9.8,2-13.3,5.2c-3.7-9-12.6-15.3-23-15.3c-6.7,0-12.7,2.6-17.2,6.9
	C-6.4-65.5-18.4-74-32.3-74C-50.9-74-66-58.9-66-40.3"/>
<line fill="none" stroke="#4A3E98" stroke-width="4" stroke-linecap="round" stroke-linejoin="round" stroke-miterlimit="10" x1="121" y1="-29" x2="36" y2="-29"/>
<g>
	<path fill="#FFFFFF" d="M466,117c-0.5,0-1,0-1.5,0.1c0-0.5,0.1-1,0.1-1.5c0-11.2-9.1-20.3-20.3-20.3c-6,0-11.3,2.6-15,6.6
		c-2.4-1.4-5.2-2.3-8.2-2.3c-8.8,0-16,7.2-16,16v1.4C405,117,474.8,117,466,117z"/>
	<path fill="none" stroke="#4A3E98" stroke-width="4" stroke-linecap="round" stroke-linejoin="round" stroke-miterlimit="10" d="
		M480,128c0-8.8-7.2-16-16-16c-0.5,0-1,0-1.5,0.1c0-0.5,0.1-1,0.1-1.5c0-11.2-9.1-20.3-20.3-20.3c-6,0-11.3,2.6-15,6.6
		c-2.4-1.4-5.2-2.3-8.2-2.3c-8.8,0-16,7.2-16,16"/>
	
		<line fill="none" stroke="#4A3E98" stroke-width="4" stroke-linecap="round" stroke-linejoin="round" stroke-miterlimit="10" x1="363" y1="113" x2="414" y2="113"/>
	
		<line fill="none" stroke="#4A3E98" stroke-width="4" stroke-linecap="round" stroke-linejoin="round" stroke-miterlimit="10" x1="365" y1="122" x2="338" y2="122"/>
</g>
<line fill="none" stroke="#4A3E98" stroke-width="4" stroke-linecap="round" stroke-linejoin="round" stroke-miterlimit="10" x1="-149" y1="-44" x2="-149" y2="-40"/>
<line fill="none" stroke="#4A3E98" stroke-width="4" stroke-linecap="round" stroke-linejoin="round" stroke-miterlimit="10" x1="-149" y1="-34" x2="-149" y2="-24"/>
<line fill="none" stroke="#4A3E98" stroke-width="4" stroke-linecap="round" stroke-linejoin="round" stroke-miterlimit="10" x1="-34" y1="158" x2="-34" y2="163"/>
<line fill="none" stroke="#4A3E98" stroke-width="4" stroke-linecap="round" stroke-linejoin="round" stroke-miterlimit="10" x1="-34" y1="169" x2="-34" y2="179"/>
<line fill="none" stroke="#4A3E98" stroke-width="4" stroke-linecap="round" stroke-linejoin="round" stroke-miterlimit="10" x1="472" y1="154.9" x2="516.5" y2="132.6"/>
<path fill="none" stroke="#4A3E98" stroke-width="8" stroke-linecap="round" stroke-linejoin="round" stroke-miterlimit="10" d="
	M651.5,44.8c0-7.9-6.4-14.2-14.2-14.2c-0.5,0-1.1,0-1.6,0.1c-0.8-9.4-3.3-18.2-7.4-26.2c4.3-3.5,7.1-8.9,7.1-14.9
	c0-10.6-8.6-19.2-19.2-19.2c-5.3,0-10.2,2.2-13.6,5.7c-11.1-7.1-24.3-11.2-38.4-11.2c-28.4,0-52.9,16.5-64.5,40.4
	c-2.6-1.3-5.5-2.1-8.7-2.1c-10.6,0-19.1,8.6-19.1,19.1c0,7.8,4.7,14.5,11.4,17.5c-2,2-3.2,4.8-3.2,7.9c0,6.2,5,11.3,11.3,11.3
	c1.6,0,3.1-0.3,4.4-0.9c9.1,29.1,36.3,50.1,68.4,50.1c20.7,0,39.3-8.8,52.4-22.8c3.4,2.5,7.6,4,12.1,4c11.4,0,20.7-9.3,20.7-20.7
	c0-4.6-1.5-8.8-4.1-12.3C649.1,53.9,651.5,49.7,651.5,44.8z"/>
<path fill="none" stroke="#4A3E98" stroke-width="8" stroke-linecap="round" stroke-linejoin="round" stroke-miterlimit="10" d="
	M491,3.3c10.8,0,19.5,8.7,19.5,19.5"/>
<path fill="none" stroke="#4A3E98" stroke-width="4" stroke-linecap="round" stroke-linejoin="round" stroke-miterlimit="10" d="
	M532.5-1.1c0-4.4,3.6-8,8-8c4.4,0,8,3.6,8,8"/>
<path fill="none" stroke="#4A3E98" stroke-width="4" stroke-linecap="round" stroke-linejoin="round" stroke-miterlimit="10" d="
	M548.4-1.1c0-3,2.4-5.5,5.5-5.5s5.5,2.4,5.5,5.5"/>
<path fill="none" stroke="#4A3E98" stroke-width="4" stroke-linecap="round" stroke-linejoin="round" stroke-miterlimit="10" d="
	M572.8,48.5c0-2,1.6-3.6,3.6-3.6s3.6,1.6,3.6,3.6"/>
<path fill="none" stroke="#4A3E98" stroke-width="4" stroke-linecap="round" stroke-linejoin="round" stroke-miterlimit="10" d="
	M580.5,48.5c0-4.8,3.9-8.8,8.8-8.8s8.8,3.9,8.8,8.8"/>
<line fill="none" stroke="#4A3E98" stroke-width="8" stroke-linecap="round" stroke-linejoin="round" stroke-miterlimit="10" x1="548" y1="107" x2="548" y2="255"/>
<line fill="none" stroke="#4A3E98" stroke-width="8" stroke-linecap="round" stroke-linejoin="round" stroke-miterlimit="10" x1="579" y1="107" x2="579" y2="255"/>
<line fill="none" stroke="#4A3E98" stroke-width="4" stroke-linecap="round" stroke-linejoin="round" stroke-miterlimit="10" x1="548" y1="124" x2="557" y2="124"/>
<line fill="none" stroke="#4A3E98" stroke-width="4" stroke-linecap="round" stroke-linejoin="round" stroke-miterlimit="10" x1="548" y1="131" x2="566" y2="131"/>
<line fill="none" stroke="#4A3E98" stroke-width="4" stroke-linecap="round" stroke-linejoin="round" stroke-miterlimit="10" x1="579" y1="169" x2="562" y2="169"/>
<line fill="none" stroke="#4A3E98" stroke-width="4" stroke-linecap="round" stroke-linejoin="round" stroke-miterlimit="10" x1="548" y1="196" x2="562" y2="196"/>
<line fill="none" stroke="#4A3E98" stroke-width="4" stroke-linecap="round" stroke-linejoin="round" stroke-miterlimit="10" x1="548" y1="205" x2="557" y2="205"/>
<line fill="none" stroke="#4A3E98" stroke-width="4" stroke-linecap="round" stroke-linejoin="round" stroke-miterlimit="10" x1="576" y1="234" x2="559" y2="234"/>
<line fill="none" stroke="#4A3E98" stroke-width="4" stroke-linecap="round" stroke-linejoin="round" stroke-miterlimit="10" x1="579" y1="239" x2="566" y2="239"/>
<path fill="none" stroke="#4A3E98" stroke-width="8" stroke-linecap="round" stroke-linejoin="round" stroke-miterlimit="10" d="
	M599.7-19.5c2.8-5.9,8.8-10,15.8-10"/>
<path fill="none" stroke="#4A3E98" stroke-width="4" stroke-linecap="round" stroke-linejoin="round" stroke-miterlimit="10" d="
	M182.3,283.7c0-5.3-4.3-9.7-9.7-9.7c-5.3,0-9.7,4.3-9.7,9.7"/>
<path fill="none" stroke="#4A3E98" stroke-width="4" stroke-linecap="round" stroke-linejoin="round" stroke-miterlimit="10" d="
	M195.3,283.6c0-3.6-2.9-6.5-6.5-6.5c-3.6,0-6.5,2.9-6.5,6.5"/>
<path fill="none" stroke="#4A3E98" stroke-width="4" stroke-linecap="round" stroke-linejoin="round" stroke-miterlimit="10" d="
	M-36.7,277.1c0-2.8-2.2-5-5-5s-5,2.2-5,5"/>
<path fill="none" stroke="#4A3E98" stroke-width="4" stroke-linecap="round" stroke-linejoin="round" stroke-miterlimit="10" d="
	M-19.9,277.7c0-4.6-3.7-8.4-8.4-8.4s-8.4,3.7-8.4,8.4"/>
<path fill="none" stroke="#4A3E98" stroke-width="4" stroke-linecap="round" stroke-linejoin="round" stroke-miterlimit="10" d="
	M56.7,279.2c0-1.8,1.4-3.2,3.2-3.2c1.8,0,3.2,1.4,3.2,3.2"/>
<path fill="none" stroke="#4A3E98" stroke-width="4" stroke-linecap="round" stroke-linejoin="round" stroke-miterlimit="10" d="
	M63.3,279.3c0-3.5,2.9-6.4,6.4-6.4s6.4,2.9,6.4,6.4"/>
<path fill="none" stroke="#4A3E98" stroke-width="4" stroke-linecap="round" stroke-linejoin="round" stroke-miterlimit="10" d="
	M76.2,279.5c0-1.9,1.6-3.5,3.5-3.5c1.9,0,3.5,1.6,3.5,3.5"/>
<path fill="#7B4888" d="M406.9,244.3h-1.2c-7.4,0-13.5-6.1-13.5-13.5h28.3C420.5,238.2,414.4,244.3,406.9,244.3z"/>
<path fill="none" stroke="#4A3E98" stroke-width="4.8275" stroke-linecap="round" stroke-linejoin="round" stroke-miterlimit="10" d="
	M401.8,240.7h-1.2c-7.4,0-13.5-6.1-13.5-13.5v-28.6c0-7.4,6.1-13.5,13.5-13.5h1.2c7.4,0,13.5,6.1,13.5,13.5v28.6
	C415.3,234.6,409.2,240.7,401.8,240.7z"/>
<path fill="none" stroke="#4A3E98" stroke-width="4.8275" stroke-linecap="round" stroke-linejoin="round" stroke-miterlimit="10" d="
	M401.8,240.7h-1.2c-7.4,0-13.5-6.1-13.5-13.5h28.3C415.3,234.6,409.2,240.7,401.8,240.7z"/>
<circle fill="#4A3E98" cx="395.6" cy="198.8" r="1.8"/>
<circle fill="#4A3E98" cx="406.9" cy="198.8" r="1.8"/>
<line fill="none" stroke="#4A3E98" stroke-width="5" stroke-linecap="round" stroke-linejoin="round" stroke-miterlimit="10" x1="394.5" y1="239" x2="394.5" y2="253"/>
<line fill="none" stroke="#4A3E98" stroke-width="5" stroke-linecap="round" stroke-linejoin="round" stroke-miterlimit="10" x1="406.5" y1="241" x2="406.5" y2="253"/>
<line fill="none" stroke="#4A3E98" stroke-width="5" stroke-linecap="round" stroke-linejoin="round" stroke-miterlimit="10" x1="393" y1="255.5" x2="395" y2="255.5"/>
<line fill="none" stroke="#4A3E98" stroke-width="5" stroke-linecap="round" stroke-linejoin="round" stroke-miterlimit="10" x1="405" y1="255.5" x2="408" y2="255.5"/>
<path fill="#F12E58" d="M370.1,200.5l-14.9-14c-1-0.9-1-2.5-0.1-3.4l6.7-7.1c0.9-1,2.5-1,3.4-0.1l14.9,14c1,0.9,1,2.5,0.1,3.4
	l-6.7,7.1C372.6,201.4,371.1,201.4,370.1,200.5z"/>
<path fill="#F12E58" d="M339.8,175.9l-8.9-7.8c-0.3-0.3-0.3-0.8-0.1-1.1l3.2-3.7c0.3-0.3,0.8-0.3,1.1-0.1l8.9,7.8
	c0.3,0.3,0.3,0.8,0.1,1.1l-3.2,3.7C340.6,176.1,340.1,176.2,339.8,175.9z"/>
<g>
	<path fill="#4A3E98" d="M363,189.7c-0.1,0-0.3-0.1-0.4-0.2c-0.2-0.2-0.2-0.6,0-0.8l3.3-3.6c0.2-0.2,0.6-0.2,0.8,0
		c0.2,0.2,0.2,0.6,0,0.8l-3.3,3.6C363.3,189.6,363.2,189.7,363,189.7z"/>
</g>
<g>
	<path fill="#4A3E98" d="M366,193.2c-0.1,0-0.3-0.1-0.4-0.2c-0.2-0.2-0.2-0.6,0-0.8l6.9-7.4c0.2-0.2,0.6-0.2,0.8,0
		c0.2,0.2,0.2,0.6,0,0.8l-6.9,7.4C366.3,193.1,366.1,193.2,366,193.2z"/>
</g>
<g>
	<path fill="#4A3E98" d="M373.7,191.7c-0.1,0-0.3-0.1-0.4-0.2c-0.2-0.2-0.2-0.6,0-0.8l5.7-6.1c0.2-0.2,0.6-0.2,0.8,0
		c0.2,0.2,0.2,0.6,0,0.8l-5.7,6.1C374,191.7,373.8,191.7,373.7,191.7z"/>
</g>
<g>
	<path fill="#4A3E98" d="M375.1,201c-0.1,0-0.1,0-0.2,0c-0.8,0-1.6-0.4-2.2-0.9l-1-1c-0.5-0.4-0.5-1.1-0.1-1.6
		c0.4-0.5,1.1-0.5,1.6-0.1l1,1c0.2,0.2,0.5,0.3,0.8,0.3c0.1,0,0.4,0,0.5-0.2l7.1-7.8c0.3-0.3,0.2-1-0.2-1.3l-15.6-14.3
		c-0.1-0.1-0.3-0.2-0.5-0.2c-0.2,0-0.4,0.1-0.6,0.3l-3.5,3.8c-0.4,0.5-1.1,0.5-1.6,0.1c-0.5-0.4-0.5-1.1-0.1-1.6l3.5-3.8
		c0.5-0.6,1.3-1,2.1-1c0.8-0.1,1.6,0.2,2.2,0.8l15.6,14.3c1.3,1.2,1.5,3.3,0.3,4.5l-7.1,7.8C376.7,200.7,375.9,201,375.1,201z"/>
</g>
<path fill="none" stroke="#000000" stroke-width="2.2536" stroke-linecap="round" stroke-linejoin="round" stroke-miterlimit="10" d="
	M361.4,178.4l-3.6,3.9c-0.7,0.8-0.7,1.9,0.1,2.7l14.6,13.3"/>
<g>
	<path fill="#4A3E98" d="M341.9,174.9c-0.5,0-0.9-0.2-1.3-0.5l-8-7.3c-0.8-0.7-0.8-1.9-0.1-2.6l3.3-3.7c0.4-0.4,0.8-0.6,1.4-0.6
		c0.5,0,0.9,0.2,1.3,0.5l8,7.3c0.4,0.3,0.6,0.8,0.6,1.3c0,0.5-0.2,1-0.5,1.3l-3.3,3.7C343,174.7,342.5,174.9,341.9,174.9z
		 M334.5,165.7l7.4,6.8l2.8-3.1l-7.4-6.8L334.5,165.7z"/>
</g>
<path fill="#4A3E98" stroke="#4A3E98" stroke-width="1.5996" stroke-linecap="round" stroke-linejoin="round" stroke-miterlimit="10" d="
	M335.1,163.5c-3.7,4.1-7.4,6.8-8.3,6l13.5-14.7C341.1,155.5,338.8,159.4,335.1,163.5z"/>
<g>
	<g>
		<path fill="#4A3E98" d="M368.5,202.9c-0.7,0-1.3-0.3-1.9-0.8l-1.1-1c-0.5-0.4-0.5-1.1-0.1-1.6c0.4-0.5,1.1-0.5,1.6-0.1l1.1,1
			c0.1,0.1,0.3,0.2,0.4,0.2c0.1,0,0.3-0.1,0.4-0.2l1.8-2l-13.7-12.6c-1.3-1.2-1.3-3-0.2-4.2l2.8-3.1l-10.5-9.6
			c-0.2-0.1-0.3-0.2-0.5-0.2c-0.2,0-0.4,0.1-0.5,0.3l-6.2,6.8c-0.1,0.1-0.2,0.3-0.2,0.5c0,0.2,0.1,0.3,0.2,0.5l17.6,16.1
			c0.5,0.4,0.5,1.1,0.1,1.6c-0.4,0.5-1.1,0.5-1.6,0.1l-17.6-16.1c-0.6-0.5-0.9-1.2-1-2c0-0.8,0.2-1.5,0.8-2.1l6.2-6.8
			c0.5-0.6,1.2-0.9,2-1c0.8-0.1,1.6,0.2,2.2,0.7l11.4,10.4c0.2,0.2,0.4,0.5,0.4,0.8c0,0.3-0.1,0.6-0.3,0.8l-3.6,3.9
			c-0.3,0.3-0.3,0.8,0,1.1l14.6,13.3c0.2,0.2,0.4,0.5,0.4,0.8c0,0.3-0.1,0.6-0.3,0.8l-2.6,2.8C370.1,202.6,369.3,202.9,368.5,202.9z
			"/>
	</g>
	<g>
		<path fill="#4A3E98" d="M361.6,211.5c-2.2,0-4-1.7-4.1-3.9l-0.5-12.1c0-1,0.3-1.9,0.9-2.8c0.2-0.2,0.5-0.4,0.8-0.4
			c0.3,0,0.6,0.1,0.8,0.3l7.5,6.9c0.2,0.2,0.4,0.5,0.4,0.8l0.3,6.8c0.1,2.2-1.7,4.2-3.9,4.3l-2.1,0.1
			C361.7,211.5,361.7,211.5,361.6,211.5z M359,195.4C359,195.4,359,195.4,359,195.4l0.6,12.1c0,1,1,1.8,2,1.7l2.1-0.1
			c1,0,1.8-0.9,1.8-1.9l-0.4-6.4L359,195.4z"/>
	</g>
	<g>
		<path fill="#4A3E98" d="M366.3,201.4c-0.3,0-0.5-0.1-0.8-0.3l-7.4-6.8c-0.5-0.4-0.5-1.1-0.1-1.6c0.4-0.5,1.1-0.5,1.6-0.1l7.4,6.8
			c0.5,0.4,0.5,1.1,0.1,1.6C366.9,201.3,366.6,201.4,366.3,201.4z"/>
	</g>
</g>
<path fill="#4A3E98" d="M359.6,208.1L359.6,208.1l-0.5-11.2l0,0c0.9,0,1.6,0.6,1.7,1.4l0.4,8.2C361.2,207.3,360.5,208,359.6,208.1z"
	/>
<circle fill="#4A3E98" cx="348" cy="174.8" r="1.5"/>
<circle fill="#4A3E98" cx="353.1" cy="179.2" r="1.5"/>
<g>
	<path fill="#4A3E98" d="M330,158.6c-0.2,0-0.5-0.1-0.6-0.3l-23.5-22c-0.4-0.4-0.4-0.9,0-1.3c0.4-0.4,0.9-0.4,1.3,0l23.5,22
		c0.4,0.4,0.4,0.9,0,1.3C330.5,158.5,330.2,158.6,330,158.6z"/>
</g>
<g>
	<path fill="#4A3E98" d="M334.7,154c-0.2,0-0.5-0.1-0.7-0.3l-9.9-9.6c-0.4-0.4-0.4-1,0-1.3c0.4-0.4,1-0.4,1.3,0l9.9,9.6
		c0.4,0.4,0.4,1,0,1.3C335.2,153.9,335,154,334.7,154z"/>
</g>
<g>
	<path fill="#4A3E98" d="M325.6,163.3c-0.2,0-0.5-0.1-0.6-0.3l-10.3-9.6c-0.4-0.4-0.4-0.9,0-1.3c0.4-0.4,0.9-0.4,1.3,0l10.3,9.6
		c0.4,0.4,0.4,0.9,0,1.3C326.1,163.2,325.8,163.3,325.6,163.3z"/>
</g>
<line fill="none" stroke="#4A3E98" stroke-width="5" stroke-linecap="round" stroke-linejoin="round" stroke-miterlimit="10" x1="367.8" y1="208.1" x2="386" y2="214.8"/>
<line fill="none" stroke="#4A3E98" stroke-width="8" stroke-linecap="round" stroke-linejoin="round" stroke-miterlimit="10" x1="346.5" y1="256" x2="450.7" y2="256"/>
<line fill="none" stroke="#4A3E98" stroke-width="8" stroke-linecap="round" stroke-linejoin="round" stroke-miterlimit="10" x1="536" y1="255.5" x2="593.9" y2="255.5"/>
<line fill="none" stroke="#4A3E98" stroke-width="8" stroke-linecap="round" stroke-linejoin="round" stroke-miterlimit="10" x1="607.6" y1="255" x2="622.3" y2="255"/>
</svg>
