<?xml version="1.0" encoding="utf-8"?>
<!-- Generator: Adobe Illustrator 18.1.1, SVG Export Plug-In . SVG Version: 6.00 Build 0)  -->
<svg version="1.1" id="Layer_1" xmlns="http://www.w3.org/2000/svg" xmlns:xlink="http://www.w3.org/1999/xlink" x="0px" y="0px"
	 viewBox="0 0 424 290" enable-background="new 0 0 424 290" xml:space="preserve">
<g>
	<g>
		<defs>
			<polyline id="SVGID_1_" points="-131.1,307.5 -131.1,-36.1 556.1,-36.1 556.1,307.5 			"/>
		</defs>
		<clipPath id="SVGID_2_">
			<use xlink:href="#SVGID_1_"  overflow="visible"/>
		</clipPath>
		<g clip-path="url(#SVGID_2_)">
			<defs>
				<polyline id="SVGID_3_" points="-131.1,307.5 -131.1,-36.1 556.1,-36.1 556.1,307.5 				"/>
			</defs>
			<clipPath id="SVGID_4_">
				<use xlink:href="#SVGID_3_"  overflow="visible"/>
			</clipPath>
			<path clip-path="url(#SVGID_4_)" fill="#F12E58" d="M105.1,116.4l-64,36.5c-5.7,3-12.2,11.1-11.8,24.4c0.4,13.3,8,26.6,14.3,23.4
				l116-65.8C161.1,134,105.1,116.4,105.1,116.4"/>
			<path clip-path="url(#SVGID_4_)" fill="#F8993C" d="M421.8,126.6c0-5.4-4.4-9.8-9.8-9.8c-0.4,0-0.7,0-1.1,0.1
				c-0.5-6.4-2.3-12.5-5.1-18c3-2.4,4.9-6.1,4.9-10.2c0-7.3-5.9-13.2-13.2-13.2c-3.7,0-7,1.5-9.4,3.9c-7.6-4.8-16.7-7.7-26.4-7.7
				c-19.5,0-36.3,11.3-44.3,27.8c-1.8-0.9-3.8-1.4-6-1.4c-7.3,0-13.1,5.9-13.1,13.1c0,5.4,3.2,10,7.8,12c-1.4,1.4-2.2,3.3-2.2,5.4
				c0,4.3,3.5,7.7,7.7,7.7c1.1,0,2.1-0.2,3.1-0.6c6.3,20,24.9,34.5,47,34.5c14.2,0,27-6,36-15.6c2.3,1.7,5.2,2.7,8.3,2.7
				c7.8,0,14.2-6.4,14.2-14.2c0-3.2-1-6.1-2.8-8.4C420.1,132.9,421.8,130,421.8,126.6"/>
			<path clip-path="url(#SVGID_4_)" fill="#FFFFFF" d="M217.2,82.8c0-7.6-6-13.7-13.5-13.7c-3.5,0-6.7,1.3-9.1,3.5
				C192,66.4,185.9,62,178.7,62c-4.6,0-8.7,1.8-11.8,4.7c-3.5-8.3-11.7-14.1-21.3-14.1c-12.8,0-23.1,10.4-23.1,23.1l18.9,6.5
				L217.2,82.8z"/>
		</g>
		<g clip-path="url(#SVGID_2_)">
			<defs>
				<polyline id="SVGID_5_" points="-131.1,307.5 -131.1,-36.1 556.1,-36.1 556.1,307.5 				"/>
			</defs>
			<clipPath id="SVGID_6_">
				<use xlink:href="#SVGID_5_"  overflow="visible"/>
			</clipPath>
			
				<path clip-path="url(#SVGID_6_)" fill="none" stroke="#4A3E98" stroke-width="5.4976" stroke-linecap="round" stroke-linejoin="round" stroke-miterlimit="10" d="
				M97.6,113l-64,36.5c-5.7,3-12.2,11.1-11.8,24.4c0.3,12.4,7,24.8,13,23.8"/>
			
				<line clip-path="url(#SVGID_6_)" fill="none" stroke="#4A3E98" stroke-width="5.4976" stroke-linecap="round" stroke-linejoin="round" stroke-miterlimit="10" x1="84.9" y1="169.9" x2="151.7" y2="132"/>
			
				<path clip-path="url(#SVGID_6_)" fill="none" stroke="#4A3E98" stroke-width="5.4976" stroke-linecap="round" stroke-linejoin="round" stroke-miterlimit="10" d="
				M35.1,197.7l113.4,41.4v-45.8l-64-23.4l-48.1,27.3C36,197.5,35.6,197.6,35.1,197.7z"/>
			
				<line clip-path="url(#SVGID_6_)" fill="none" stroke="#4A3E98" stroke-width="2.7488" stroke-linecap="round" stroke-linejoin="round" stroke-miterlimit="10" x1="36.7" y1="197.3" x2="84.9" y2="169.9"/>
			<path clip-path="url(#SVGID_6_)" fill="none" stroke="#4A3E98" stroke-width="5.4976" stroke-miterlimit="10" d="M153.1,87.5
				C152.8,87.2,42.8,46.9,3.6,32.6v45.8L150,132.2c6.5,0,12.2-10.2,12.2-22.7C162.1,98.9,158.2,90.1,153.1,87.5z"/>
			
				<line clip-path="url(#SVGID_6_)" fill="none" stroke="#4A3E98" stroke-width="5.4976" stroke-miterlimit="10" x1="3.6" y1="78.7" x2="3.6" y2="32.6"/>
			<path clip-path="url(#SVGID_6_)" fill="#4A3E98" d="M313.9,204.7c0.2,0.9-0.2,1.8-1.1,2c-0.9,0.2-1.8-0.2-2-1.1
				c-0.2-0.9,0.2-1.8,1.1-2C312.8,203.4,313.7,203.9,313.9,204.7"/>
			
				<line clip-path="url(#SVGID_6_)" fill="none" stroke="#4A3E98" stroke-width="2.7488" stroke-miterlimit="10" x1="312.7" y1="204.6" x2="340" y2="165.3"/>
			
				<line clip-path="url(#SVGID_6_)" fill="none" stroke="#4A3E98" stroke-width="2.7488" stroke-linecap="round" stroke-linejoin="round" stroke-miterlimit="10" x1="18" y1="37.4" x2="18" y2="61.5"/>
			
				<line clip-path="url(#SVGID_6_)" fill="none" stroke="#4A3E98" stroke-width="2.7488" stroke-linecap="round" stroke-linejoin="round" stroke-miterlimit="10" x1="24.2" y1="85.5" x2="24.2" y2="67.7"/>
			
				<line clip-path="url(#SVGID_6_)" fill="none" stroke="#4A3E98" stroke-width="2.7488" stroke-linecap="round" stroke-linejoin="round" stroke-miterlimit="10" x1="30.4" y1="42.3" x2="30.4" y2="52.6"/>
			
				<line clip-path="url(#SVGID_6_)" fill="none" stroke="#4A3E98" stroke-width="2.7488" stroke-linecap="round" stroke-linejoin="round" stroke-miterlimit="10" x1="84.7" y1="108.2" x2="84.7" y2="89"/>
			
				<line clip-path="url(#SVGID_6_)" fill="none" stroke="#4A3E98" stroke-width="2.7488" stroke-linecap="round" stroke-linejoin="round" stroke-miterlimit="10" x1="92.9" y1="113" x2="92.9" y2="79.4"/>
			
				<line clip-path="url(#SVGID_6_)" fill="none" stroke="#4A3E98" stroke-width="2.7488" stroke-linecap="round" stroke-linejoin="round" stroke-miterlimit="10" x1="101.9" y1="68.4" x2="101.9" y2="91.7"/>
			
				<line clip-path="url(#SVGID_6_)" fill="none" stroke="#4A3E98" stroke-width="2.7488" stroke-linecap="round" stroke-linejoin="round" stroke-miterlimit="10" x1="99.1" y1="161.1" x2="99.1" y2="140.5"/>
			
				<line clip-path="url(#SVGID_6_)" fill="none" stroke="#4A3E98" stroke-width="2.7488" stroke-linecap="round" stroke-linejoin="round" stroke-miterlimit="10" x1="92.9" y1="116.5" x2="92.9" y2="139.8"/>
			
				<line clip-path="url(#SVGID_6_)" fill="none" stroke="#4A3E98" stroke-width="2.7488" stroke-linecap="round" stroke-linejoin="round" stroke-miterlimit="10" x1="48.9" y1="190" x2="48.9" y2="164.6"/>
			
				<line clip-path="url(#SVGID_6_)" fill="none" stroke="#4A3E98" stroke-width="2.7488" stroke-linecap="round" stroke-linejoin="round" stroke-miterlimit="10" x1="54.4" y1="137.1" x2="54.4" y2="154.3"/>
			
				<line clip-path="url(#SVGID_6_)" fill="none" stroke="#4A3E98" stroke-width="2.7488" stroke-linecap="round" stroke-linejoin="round" stroke-miterlimit="10" x1="54.4" y1="159.8" x2="54.4" y2="168"/>
			
				<line clip-path="url(#SVGID_6_)" fill="none" stroke="#4A3E98" stroke-width="2.7488" stroke-linecap="round" stroke-linejoin="round" stroke-miterlimit="10" x1="62.7" y1="133.6" x2="62.7" y2="170.1"/>
			
				<line clip-path="url(#SVGID_6_)" fill="none" stroke="#4A3E98" stroke-width="2.7488" stroke-linecap="round" stroke-linejoin="round" stroke-miterlimit="10" x1="101.9" y1="222.3" x2="101.9" y2="192.1"/>
			
				<line clip-path="url(#SVGID_6_)" fill="none" stroke="#4A3E98" stroke-width="2.7488" stroke-linecap="round" stroke-linejoin="round" stroke-miterlimit="10" x1="109.4" y1="179.7" x2="109.4" y2="192.1"/>
			
				<line clip-path="url(#SVGID_6_)" fill="none" stroke="#4A3E98" stroke-width="2.7488" stroke-linecap="round" stroke-linejoin="round" stroke-miterlimit="10" x1="117.7" y1="181.8" x2="117.7" y2="216.1"/>
			
				<line clip-path="url(#SVGID_6_)" fill="none" stroke="#4A3E98" stroke-width="5.4976" stroke-linecap="round" stroke-linejoin="round" stroke-miterlimit="10" x1="206.3" y1="238.1" x2="206.3" y2="263.5"/>
			
				<line clip-path="url(#SVGID_6_)" fill="none" stroke="#4A3E98" stroke-width="5.4976" stroke-linecap="round" stroke-linejoin="round" stroke-miterlimit="10" x1="248.2" y1="238.1" x2="248.2" y2="263.5"/>
			
				<line clip-path="url(#SVGID_6_)" fill="none" stroke="#4A3E98" stroke-width="5.4976" stroke-linecap="round" stroke-linejoin="round" stroke-miterlimit="10" x1="206.3" y1="242.9" x2="248.2" y2="242.9"/>
			
				<line clip-path="url(#SVGID_6_)" fill="none" stroke="#4A3E98" stroke-width="5.4976" stroke-linecap="round" stroke-linejoin="round" stroke-miterlimit="10" x1="206.3" y1="254.6" x2="248.2" y2="254.6"/>
			
				<line clip-path="url(#SVGID_6_)" fill="none" stroke="#4A3E98" stroke-width="5.4976" stroke-linecap="round" stroke-linejoin="round" stroke-miterlimit="10" x1="3.6" y1="4.5" x2="3.6" y2="95.9"/>
			
				<line clip-path="url(#SVGID_6_)" fill="none" stroke="#4A3E98" stroke-width="5.4976" stroke-linecap="round" stroke-linejoin="round" stroke-miterlimit="10" x1="148.6" y1="179.7" x2="148.6" y2="252.5"/>
			
				<line clip-path="url(#SVGID_6_)" fill="none" stroke="#4A3E98" stroke-width="5.4976" stroke-linecap="round" stroke-linejoin="round" stroke-miterlimit="10" x1="74.4" y1="265.6" x2="312.1" y2="265.6"/>
			
				<line clip-path="url(#SVGID_6_)" fill="none" stroke="#4A3E98" stroke-width="5.4976" stroke-linecap="round" stroke-linejoin="round" stroke-miterlimit="10" x1="47.6" y1="265.6" x2="3.6" y2="265.6"/>
			
				<line clip-path="url(#SVGID_6_)" fill="none" stroke="#4A3E98" stroke-width="5.4976" stroke-linecap="round" stroke-linejoin="round" stroke-miterlimit="10" x1="338.9" y1="265.6" x2="404.2" y2="265.6"/>
			
				<path clip-path="url(#SVGID_6_)" fill="none" stroke="#4A3E98" stroke-width="2.7488" stroke-linecap="round" stroke-linejoin="round" stroke-miterlimit="10" d="
				M215.1,79c0-7.5-6-13.5-13.5-13.5c-3.5,0-6.7,1.3-9.1,3.5c-2.6-6.2-8.7-10.5-15.8-10.5c-4.6,0-8.7,1.8-11.8,4.7
				c-3.5-8.3-11.7-14.1-21.3-14.1c-12.8,0-23.1,10.4-23.1,23.1"/>
			
				<line clip-path="url(#SVGID_6_)" fill="none" stroke="#4A3E98" stroke-width="2.7488" stroke-linecap="round" stroke-linejoin="round" stroke-miterlimit="10" x1="248.9" y1="80" x2="190.5" y2="80"/>
			<path clip-path="url(#SVGID_6_)" fill="#FFFFFF" d="M372.6,23c-0.4,0-0.7,0-1,0.1c0-0.3,0-0.7,0-1c0-7.7-6.3-14-14-14
				c-4.1,0-7.8,1.8-10.3,4.6c-1.7-1-3.6-1.6-5.6-1.6c-6.1,0-11,4.9-11,11v1C330.7,23,378.7,23,372.6,23"/>
			
				<path clip-path="url(#SVGID_6_)" fill="none" stroke="#4A3E98" stroke-width="2.7488" stroke-linecap="round" stroke-linejoin="round" stroke-miterlimit="10" d="
				M382.2,30.6c0-6.1-4.9-11-11-11c-0.4,0-0.7,0-1,0.1c0-0.3,0-0.7,0-1c0-7.7-6.3-14-14-14c-4.1,0-7.8,1.8-10.3,4.6
				c-1.7-1-3.6-1.6-5.6-1.6c-6.1,0-11,4.9-11,11"/>
			
				<line clip-path="url(#SVGID_6_)" fill="none" stroke="#4A3E98" stroke-width="2.7488" stroke-linecap="round" stroke-linejoin="round" stroke-miterlimit="10" x1="301.8" y1="20.3" x2="336.9" y2="20.3"/>
			
				<line clip-path="url(#SVGID_6_)" fill="none" stroke="#4A3E98" stroke-width="2.7488" stroke-linecap="round" stroke-linejoin="round" stroke-miterlimit="10" x1="303.2" y1="26.4" x2="284.7" y2="26.4"/>
			
				<line clip-path="url(#SVGID_6_)" fill="none" stroke="#4A3E98" stroke-width="2.7488" stroke-linecap="round" stroke-linejoin="round" stroke-miterlimit="10" x1="30.4" y1="57.4" x2="30.4" y2="60.1"/>
			
				<line clip-path="url(#SVGID_6_)" fill="none" stroke="#4A3E98" stroke-width="2.7488" stroke-linecap="round" stroke-linejoin="round" stroke-miterlimit="10" x1="30.4" y1="64.2" x2="30.4" y2="71.1"/>
			
				<line clip-path="url(#SVGID_6_)" fill="none" stroke="#4A3E98" stroke-width="2.7488" stroke-linecap="round" stroke-linejoin="round" stroke-miterlimit="10" x1="109.4" y1="196.2" x2="109.4" y2="199.6"/>
			
				<line clip-path="url(#SVGID_6_)" fill="none" stroke="#4A3E98" stroke-width="2.7488" stroke-linecap="round" stroke-linejoin="round" stroke-miterlimit="10" x1="109.4" y1="203.7" x2="109.4" y2="210.6"/>
			
				<path clip-path="url(#SVGID_6_)" fill="none" stroke="#4A3E98" stroke-width="5.4976" stroke-linecap="round" stroke-linejoin="round" stroke-miterlimit="10" d="
				M414.2,121.1c0-5.4-4.4-9.8-9.8-9.8c-0.4,0-0.7,0-1.1,0.1c-0.5-6.4-2.3-12.5-5.1-18c3-2.4,4.9-6.1,4.9-10.2
				c0-7.3-5.9-13.2-13.2-13.2c-3.7,0-7,1.5-9.4,3.9c-7.6-4.8-16.7-7.7-26.4-7.7c-19.5,0-36.3,11.3-44.3,27.8c-1.8-0.9-3.8-1.4-6-1.4
				c-7.3,0-13.1,5.9-13.1,13.1c0,5.4,3.2,10,7.8,12c-1.4,1.4-2.2,3.3-2.2,5.4c0,4.3,3.5,7.7,7.7,7.7c1.1,0,2.1-0.2,3.1-0.6
				c6.3,20,24.9,34.5,47,34.5c14.2,0,27-6,36-15.6c2.3,1.7,5.2,2.7,8.3,2.7c7.8,0,14.2-6.4,14.2-14.2c0-3.2-1-6.1-2.8-8.4
				C412.5,127.4,414.2,124.5,414.2,121.1z"/>
			
				<path clip-path="url(#SVGID_6_)" fill="none" stroke="#4A3E98" stroke-width="5.4976" stroke-linecap="round" stroke-linejoin="round" stroke-miterlimit="10" d="
				M303.9,92.6c7.4,0,13.4,6,13.4,13.4"/>
			
				<path clip-path="url(#SVGID_6_)" fill="none" stroke="#4A3E98" stroke-width="2.7488" stroke-linecap="round" stroke-linejoin="round" stroke-miterlimit="10" d="
				M332.4,89.6c0-3,2.4-5.5,5.5-5.5c3,0,5.5,2.4,5.5,5.5"/>
			
				<path clip-path="url(#SVGID_6_)" fill="none" stroke="#4A3E98" stroke-width="2.7488" stroke-linecap="round" stroke-linejoin="round" stroke-miterlimit="10" d="
				M343.4,89.6c0-2.1,1.7-3.8,3.8-3.8c2.1,0,3.8,1.7,3.8,3.8"/>
			
				<path clip-path="url(#SVGID_6_)" fill="none" stroke="#4A3E98" stroke-width="2.7488" stroke-linecap="round" stroke-linejoin="round" stroke-miterlimit="10" d="
				M360.1,123.7c0-1.4,1.1-2.5,2.5-2.5c1.4,0,2.5,1.1,2.5,2.5"/>
			
				<path clip-path="url(#SVGID_6_)" fill="none" stroke="#4A3E98" stroke-width="2.7488" stroke-linecap="round" stroke-linejoin="round" stroke-miterlimit="10" d="
				M365.4,123.7c0-3.3,2.7-6,6-6c3.3,0,6,2.7,6,6"/>
			
				<line clip-path="url(#SVGID_6_)" fill="none" stroke="#4A3E98" stroke-width="5.4976" stroke-linecap="round" stroke-linejoin="round" stroke-miterlimit="10" x1="343.1" y1="163.9" x2="343.1" y2="265.6"/>
			
				<line clip-path="url(#SVGID_6_)" fill="none" stroke="#4A3E98" stroke-width="5.4976" stroke-linecap="round" stroke-linejoin="round" stroke-miterlimit="10" x1="364.4" y1="163.9" x2="364.4" y2="265.6"/>
			
				<line clip-path="url(#SVGID_6_)" fill="none" stroke="#4A3E98" stroke-width="2.7488" stroke-linecap="round" stroke-linejoin="round" stroke-miterlimit="10" x1="343.1" y1="175.6" x2="349.3" y2="175.6"/>
			
				<line clip-path="url(#SVGID_6_)" fill="none" stroke="#4A3E98" stroke-width="2.7488" stroke-linecap="round" stroke-linejoin="round" stroke-miterlimit="10" x1="343.1" y1="180.4" x2="355.4" y2="180.4"/>
			
				<line clip-path="url(#SVGID_6_)" fill="none" stroke="#4A3E98" stroke-width="2.7488" stroke-linecap="round" stroke-linejoin="round" stroke-miterlimit="10" x1="364.4" y1="206.5" x2="352.7" y2="206.5"/>
			
				<line clip-path="url(#SVGID_6_)" fill="none" stroke="#4A3E98" stroke-width="2.7488" stroke-linecap="round" stroke-linejoin="round" stroke-miterlimit="10" x1="343.1" y1="225" x2="352.7" y2="225"/>
			
				<line clip-path="url(#SVGID_6_)" fill="none" stroke="#4A3E98" stroke-width="2.7488" stroke-linecap="round" stroke-linejoin="round" stroke-miterlimit="10" x1="343.1" y1="231.2" x2="349.3" y2="231.2"/>
			
				<line clip-path="url(#SVGID_6_)" fill="none" stroke="#4A3E98" stroke-width="2.7488" stroke-linecap="round" stroke-linejoin="round" stroke-miterlimit="10" x1="362.3" y1="251.2" x2="350.6" y2="251.2"/>
			
				<line clip-path="url(#SVGID_6_)" fill="none" stroke="#4A3E98" stroke-width="2.7488" stroke-linecap="round" stroke-linejoin="round" stroke-miterlimit="10" x1="364.4" y1="254.6" x2="355.4" y2="254.6"/>
			
				<path clip-path="url(#SVGID_6_)" fill="none" stroke="#4A3E98" stroke-width="5.4976" stroke-linecap="round" stroke-linejoin="round" stroke-miterlimit="10" d="
				M378.6,77c1.9-4.1,6.1-6.9,10.9-6.9"/>
		</g>
	</g>
</g>
</svg>
