<?xml version="1.0" encoding="utf-8"?>
<!-- Generator: Adobe Illustrator 18.1.1, SVG Export Plug-In . SVG Version: 6.00 Build 0)  -->
<svg version="1.1" id="Layer_1" xmlns="http://www.w3.org/2000/svg" xmlns:xlink="http://www.w3.org/1999/xlink" x="0px" y="0px"
	 viewBox="0 0 278.7 273.9" enable-background="new 0 0 278.7 273.9" xml:space="preserve">
<g>
	<path fill="#F12E58" d="M198.3,271c17.4-67.9,33.6-169.6-47.5-169.6c-91.5,0-44.9,144-35.6,169.6H198.3z"/>
	
		<line fill="none" stroke="#4A3E98" stroke-width="4" stroke-linecap="round" stroke-linejoin="round" stroke-miterlimit="10" x1="34" y1="259" x2="154" y2="259"/>
	
		<line fill="none" stroke="#4A3E98" stroke-width="4" stroke-linecap="round" stroke-linejoin="round" stroke-miterlimit="10" x1="176" y1="259" x2="220" y2="259"/>
	
		<line fill="none" stroke="#4A3E98" stroke-width="4" stroke-linecap="round" stroke-linejoin="round" stroke-miterlimit="10" x1="257" y1="259" x2="275" y2="259"/>
	
		<path fill="none" stroke="#4A3E98" stroke-width="6.9493" stroke-linecap="round" stroke-linejoin="round" stroke-miterlimit="10" d="
		M102.4,256.9C93.1,230.8,46.5,87.2,138,87.2c81.1,0,64.8,101.8,47.5,169.6"/>
	
		<path fill="none" stroke="#4A3E98" stroke-width="7.6838" stroke-linecap="round" stroke-linejoin="round" stroke-miterlimit="10" d="
		M103.5,96.4l-9.6-16.5c-0.8-1.5-2.7-2-4.2-1.1l27.6-16c1.5-0.9,2-2.9,1.2-4.4L88.3,6.4c-0.9-1.5-2.9-2-4.4-1.2L6.4,50.1
		c-1.5,0.9-2,2.9-1.2,4.4l30.2,52.1c0.9,1.5,2.9,2,4.4,1.2l27.6-16c-1.5,0.8-2,2.7-1.1,4.2l18.4,31.7"/>
	
		<line fill="none" stroke="#4A3E98" stroke-width="3.8419" stroke-linecap="round" stroke-linejoin="round" stroke-miterlimit="10" x1="36.9" y1="63.5" x2="48.5" y2="57.1"/>
	
		<line fill="none" stroke="#4A3E98" stroke-width="3.8419" stroke-linecap="round" stroke-linejoin="round" stroke-miterlimit="10" x1="68.3" y1="45" x2="80.5" y2="38.7"/>
	
		<line fill="none" stroke="#4A3E98" stroke-width="4" stroke-linecap="round" stroke-linejoin="round" stroke-miterlimit="10" x1="117" y1="143" x2="121" y2="143"/>
	
		<line fill="none" stroke="#4A3E98" stroke-width="4" stroke-linecap="round" stroke-linejoin="round" stroke-miterlimit="10" x1="162" y1="143" x2="166" y2="143"/>
	
		<path fill="none" stroke="#4A3E98" stroke-width="7.6838" stroke-linecap="round" stroke-linejoin="round" stroke-miterlimit="10" d="
		M133,85.3l38.1-57.2c0.4-0.7,0.8-1.3,1.4-1.8c2.6-2.1,6.1-1.4,7.2,1.1c1.3,2.8,83.9,229.5,83.9,229.5"/>
	
		<line fill="none" stroke="#4A3E98" stroke-width="4" stroke-linecap="round" stroke-linejoin="round" stroke-miterlimit="10" x1="166" y1="61" x2="166" y2="73"/>
	
		<line fill="none" stroke="#4A3E98" stroke-width="4" stroke-linecap="round" stroke-linejoin="round" stroke-miterlimit="10" x1="178" y1="61" x2="178" y2="73"/>
	
		<line fill="none" stroke="#4A3E98" stroke-width="4" stroke-linecap="round" stroke-linejoin="round" stroke-miterlimit="10" x1="96" y1="237" x2="131" y2="237"/>
	
		<line fill="none" stroke="#4A3E98" stroke-width="4" stroke-linecap="round" stroke-linejoin="round" stroke-miterlimit="10" x1="96" y1="226" x2="107" y2="226"/>
	
		<line fill="none" stroke="#4A3E98" stroke-width="4" stroke-linecap="round" stroke-linejoin="round" stroke-miterlimit="10" x1="198" y1="208" x2="162" y2="208"/>
	
		<line fill="none" stroke="#4A3E98" stroke-width="4" stroke-linecap="round" stroke-linejoin="round" stroke-miterlimit="10" x1="153" y1="208" x2="141" y2="208"/>
</g>
</svg>
