<?xml version="1.0" encoding="utf-8"?>
<!-- Generator: Adobe Illustrator 18.1.1, SVG Export Plug-In . SVG Version: 6.00 Build 0)  -->
<svg version="1.1" id="Layer_1" xmlns="http://www.w3.org/2000/svg" xmlns:xlink="http://www.w3.org/1999/xlink" x="0px" y="0px"
	 viewBox="0 0 300 170" enable-background="new 0 0 300 170" xml:space="preserve">
<g>
	<path fill="#F12E58" d="M249,166c-18.9,0-26.5-27.2-35.3-58.6c-10.8-38.5-23-82.2-56-82.2c-0.3,0-0.6,0-0.9,0
		c-14.6,0.3-25.8,8.3-35.1,25.1c-8.6,15.5-14.1,35.5-19.4,54.9c-4.2,15.4-8.2,29.9-13.4,40.8c-2.4,5-9.7,20.1-24.7,19.9
		c-2.8,0-5-2.3-5-5.1c0-2.8,2.3-4.9,5.1-4.9c0,0,0,0,0.1,0c0,0,0.1,0,0.1,0c13.5,0,20.6-25.9,28.1-53.3c5.5-20,11.1-40.7,20.3-57.2
		c11.1-20,25.4-29.9,43.7-30.3c10-0.2,19.1,2.6,27.1,8.4c6.9,5,12.9,12.2,18.3,21.8c9.7,17.1,15.9,39.5,21.5,59.3
		c7,25.2,14.3,51.2,25.5,51.2c0.1,0,0.1,0,0.2,0c2.8,0,5,2.2,5.1,5c0,2.8-2.2,5.1-5,5.1C249.2,166,249.1,166,249,166z"/>
</g>
<g>
	<path fill="#4A3E98" d="M242.9,163.5c-17,0-24.3-26.3-32.8-56.7c-5.4-19.4-11.6-41.3-20.8-57.6c-10-17.8-22.4-26.4-37.7-26.4
		c-0.3,0-0.6,0-0.9,0c-34.8,0.8-46.5,43.9-56.9,81.9c-4.2,15.3-8.1,29.7-13.3,40.4c-6,12.4-13.2,18.5-22.1,18.5c-0.1,0-0.2,0-0.3,0
		c-1.4,0-2.5-1.2-2.5-2.6c0-1.4,1.2-2.5,2.6-2.5c6.9,0.1,12.5-4.9,17.7-15.6c5-10.3,8.8-24.5,13-39.5c5.4-19.8,11-40.4,20.1-56.6
		c10.7-19.1,24.3-28.6,41.6-29c17.8-0.4,31.9,9.1,43.1,29c9.5,16.9,15.8,39.1,21.2,58.8c7.6,27.3,14.8,53,28,53c0,0,0.1,0,0.1,0
		c1.4,0,2.5,1.1,2.6,2.5c0,1.4-1.1,2.5-2.5,2.6C243,163.5,242.9,163.5,242.9,163.5z"/>
</g>
<g>
	<path fill="#4A3E98" d="M55.3,149c-0.7,0-1.3-0.6-1.3-1.3c0-0.7,0.6-1.3,1.3-1.3c3.4,0,9-4.2,16.5-24c5.3-14,10-31.3,13.4-43.9
		c1.8-6.8,3.3-12.2,4.4-15.5c5.3-15.6,12-28.3,20.1-37.6C120.9,12.6,134.6,6,150.6,6c0,0,0,0,0,0c12.6,0,26.3,6.1,38.7,17.1
		c10.8,9.6,19.6,22,23.4,33.1c2,5.7,4.5,14.6,7.5,25c4.1,14.3,8.7,30.4,13.3,43.2c6.9,19.2,10.3,21.3,11.4,21.3
		c0.7,0,1.3,0.6,1.3,1.3s-0.6,1.3-1.3,1.3c-7.6,0-16-27.5-27.1-66.3c-3-10.3-5.5-19.3-7.5-24.9c-3.8-10.8-12.2-22.5-22.7-31.8
		C175.7,14.6,162.5,9,150.6,9c0,0,0,0,0,0c-15.2,0-28.3,6-39,18.4c-7.9,9-14.5,21.3-19.6,36.6c-1.1,3.2-2.6,8.8-4.3,15.3
		C78.1,114.6,67.8,149,55.3,149z"/>
</g>
<g>
	<path fill="#4A3E98" d="M72,155c-0.4,0-0.8-0.2-1.1-0.6l-7.8-12.8c-0.4-0.6-0.2-1.4,0.4-1.7c0.6-0.4,1.4-0.2,1.7,0.4l7.8,12.8
		c0.4,0.6,0.2,1.4-0.4,1.7C72.5,155,72.3,155,72,155z"/>
</g>
<g>
	<path fill="#4A3E98" d="M82.6,134.3c-0.3,0-0.6-0.1-0.9-0.4l-9.8-9.6c-0.5-0.5-0.5-1.3,0-1.8c0.5-0.5,1.3-0.5,1.8,0l9.8,9.6
		c0.5,0.5,0.5,1.3,0,1.8C83.3,134.1,83,134.3,82.6,134.3z"/>
</g>
<g>
	<path fill="#4A3E98" d="M90.7,107.4c-0.1,0-0.2,0-0.3,0l-11.1-3c-0.7-0.2-1.1-0.9-0.9-1.6c0.2-0.7,0.9-1.1,1.6-0.9l11.1,3
		c0.7,0.2,1.1,0.9,0.9,1.6C91.7,107,91.2,107.4,90.7,107.4z"/>
</g>
<g>
	<path fill="#4A3E98" d="M97.4,78h-9.3c-0.7,0-1.3-0.3-1.3-1s0.6-1,1.3-1h9.3c0.7,0,1.3,0.3,1.3,1S98.1,78,97.4,78z"/>
</g>
<g>
	<path fill="#4A3E98" d="M105,56.2c-0.2,0-0.4,0-0.6-0.1l-9.2-4.7c-0.6-0.3-0.9-1.1-0.5-1.7c0.3-0.6,1.1-0.9,1.7-0.5l9.2,4.7
		c0.6,0.3,0.9,1.1,0.5,1.7C105.9,56,105.5,56.2,105,56.2z"/>
</g>
<g>
	<path fill="#4A3E98" d="M118.8,37.7c-0.3,0-0.6-0.1-0.8-0.3l-9.7-8.4c-0.5-0.5-0.6-1.3-0.1-1.8c0.5-0.5,1.3-0.6,1.8-0.1l9.7,8.4
		c0.5,0.5,0.6,1.3,0.1,1.8C119.5,37.6,119.2,37.7,118.8,37.7z"/>
</g>
<g>
	<path fill="#4A3E98" d="M139.3,23.3c-0.4,0-0.8-0.2-1.1-0.6l-7.3-11.3c-0.4-0.6-0.2-1.4,0.4-1.8c0.6-0.4,1.4-0.2,1.8,0.4l7.3,11.3
		c0.4,0.6,0.2,1.4-0.4,1.8C139.8,23.2,139.5,23.3,139.3,23.3z"/>
</g>
<g>
	<path fill="#4A3E98" d="M157.3,21c-0.7,0-1.2-0.3-1.3-1l-0.4-11.9c0-0.7,0.5-1.2,1.2-1.3c0.7,0,1.3,0.6,1.3,1.2l0.4,11.8
		C158.6,20.6,158,21,157.3,21C157.3,21,157.3,21,157.3,21z"/>
</g>
<g>
	<path fill="#4A3E98" d="M173.7,28.3c-0.3,0-0.5-0.1-0.7-0.2c-0.6-0.4-0.7-1.2-0.3-1.8l6.5-9.2c0.4-0.6,1.2-0.7,1.8-0.3
		c0.6,0.4,0.7,1.2,0.3,1.8l-6.5,9.2C174.5,28.1,174.1,28.3,173.7,28.3z"/>
</g>
<g>
	<path fill="#4A3E98" d="M188.4,44.1c-0.4,0-0.7-0.2-1-0.5c-0.4-0.5-0.4-1.3,0.2-1.8l9.7-8c0.5-0.4,1.3-0.4,1.8,0.2
		c0.4,0.5,0.4,1.3-0.2,1.8l-9.7,8C189,44,188.7,44.1,188.4,44.1z"/>
</g>
<g>
	<path fill="#4A3E98" d="M198.9,61.7c-0.4,0-0.9-0.2-1.1-0.6c-0.4-0.6-0.2-1.4,0.4-1.7l11.4-6.8c0.6-0.4,1.4-0.2,1.7,0.4
		c0.4,0.6,0.2,1.4-0.4,1.7l-11.4,6.8C199.4,61.7,199.2,61.7,198.9,61.7z"/>
</g>
<g>
	<path fill="#4A3E98" d="M205.7,84.1c-0.5,0-1-0.3-1.2-0.9c-0.2-0.7,0.1-1.4,0.8-1.6l12.4-4.1c0.7-0.2,1.4,0.1,1.6,0.8
		c0.2,0.7-0.1,1.4-0.8,1.6l-12.4,4.1C206,84.1,205.8,84.1,205.7,84.1z"/>
</g>
<g>
	<path fill="#4A3E98" d="M212.1,107.4c-0.6,0-1.1-0.4-1.2-1c-0.2-0.7,0.3-1.4,1-1.5l13.3-3c0.7-0.2,1.4,0.3,1.5,1
		c0.2,0.7-0.3,1.4-1,1.5l-13.3,3C212.2,107.4,212.2,107.4,212.1,107.4z"/>
</g>
<g>
	<path fill="#4A3E98" d="M220.5,134.3c-0.5,0-1-0.3-1.2-0.8c-0.3-0.7,0.1-1.4,0.7-1.6l12.2-4.8c0.7-0.3,1.4,0.1,1.6,0.7
		c0.3,0.7-0.1,1.4-0.7,1.6l-12.2,4.8C220.8,134.2,220.7,134.3,220.5,134.3z"/>
</g>
<g>
	<path fill="#4A3E98" d="M100.3,164H45.9c-1.4,0-2.5-1.1-2.5-2.5s1.1-2.5,2.5-2.5h54.5c1.4,0,2.5,1.1,2.5,2.5S101.7,164,100.3,164z"
		/>
</g>
<g>
	<path fill="#4A3E98" d="M185.2,164h-70.1c-1.4,0-2.5-1.1-2.5-2.5s1.1-2.5,2.5-2.5h70.1c1.4,0,2.5,1.1,2.5,2.5S186.6,164,185.2,164z
		"/>
</g>
<g>
	<path fill="#4A3E98" d="M248.5,164h-24.9c-1.4,0-2.5-1.1-2.5-2.5s1.1-2.5,2.5-2.5h24.9c1.4,0,2.5,1.1,2.5,2.5S249.9,164,248.5,164z
		"/>
</g>
<g>
	<path fill="#4A3E98" d="M216,164h-5.9c-1.4,0-2.5-1.1-2.5-2.5s1.1-2.5,2.5-2.5h5.9c1.4,0,2.5,1.1,2.5,2.5S217.4,164,216,164z"/>
</g>
<g>
	<path fill="#4A3E98" d="M126.5,162.2c-1.4,0-2.5-1.1-2.5-2.5V30.5c0-1.4,1.1-2.5,2.5-2.5s2.5,1.1,2.5,2.5v129.2
		C129,161.1,127.9,162.2,126.5,162.2z"/>
</g>
<g>
	<path fill="#4A3E98" d="M173.5,161.8c-1.4,0-2.5-1.1-2.5-2.5V27.1c0-1.4,1.1-2.5,2.5-2.5s2.5,1.1,2.5,2.5v132.1
		C176,160.6,174.9,161.8,173.5,161.8z"/>
</g>
</svg>
