<?xml version="1.0" encoding="utf-8"?>
<!-- Generator: Adobe Illustrator 18.1.1, SVG Export Plug-In . SVG Version: 6.00 Build 0)  -->
<svg version="1.1" id="Layer_1" xmlns="http://www.w3.org/2000/svg" xmlns:xlink="http://www.w3.org/1999/xlink" x="0px" y="0px"
	 viewBox="0 0 300 170" enable-background="new 0 0 300 170" xml:space="preserve">
<path fill="#F12E58" d="M192.2,151.5L109.9,166c-1.1,0.2-2.2-0.6-2.4-1.7L85,36.5c-0.2-1.1,0.6-2.2,1.7-2.4L169,19.6
	c1.1-0.2,2.2,0.6,2.4,1.7l22.5,127.8C194.1,150.2,193.3,151.3,192.2,151.5z"/>
<g>
	<path fill="#4A3E98" d="M95.3,157.2c-2.2,0-4-1.5-4.4-3.7L68.4,25.7C68,23.3,69.6,21,72,20.6l82.3-14.5c0.3,0,0.5-0.1,0.8-0.1
		c2.2,0,4,1.5,4.4,3.7L182,137.4c0.4,2.4-1.2,4.7-3.6,5.1l-82.3,14.5C95.9,157.1,95.6,157.2,95.3,157.2z M73.2,25.2l22.4,127.2
		l81.7-14.4L154.9,10.8L73.2,25.2z"/>
</g>
<g>
	<path fill="#4A3E98" d="M208.1,145c-0.2,0-0.3,0-0.5,0l-28.3-5c-0.6-0.1-1.1-0.7-1-1.4c0.1-0.6,0.7-1.1,1.4-1l28.3,5
		c0.3,0.1,0.6-0.2,0.6-0.4l18.8-106.6c0-0.2,0-0.3-0.1-0.4c0-0.1-0.2-0.2-0.3-0.2l-68.6-12.1c-0.6-0.1-1.1-0.7-1-1.4
		c0.1-0.6,0.7-1.1,1.4-1l68.6,12.1c0.8,0.1,1.4,0.6,1.9,1.2c0.4,0.6,0.6,1.4,0.5,2.2L211,142.6C210.7,144,209.5,145,208.1,145z"/>
</g>
<g>
	<path fill="#4A3E98" d="M74.3,46.6c-0.6,0-1.1-0.4-1.2-1c-0.1-0.6,0.3-1.3,1-1.4l27.1-4.9c0.6-0.1,1.3,0.3,1.4,1
		c0.1,0.6-0.3,1.3-1,1.4l-27.1,4.9C74.5,46.6,74.4,46.6,74.3,46.6z"/>
</g>
<g>
	<path fill="#4A3E98" d="M105.8,41.2c-0.6,0-1.1-0.4-1.2-1c-0.1-0.6,0.3-1.3,1-1.3l4-0.6c0.6-0.1,1.3,0.3,1.3,1
		c0.1,0.6-0.3,1.3-1,1.3l-4,0.6C105.9,41.2,105.9,41.2,105.8,41.2z"/>
</g>
<g>
	<path fill="#4A3E98" d="M140.2,44.2c-0.6,0-1.1-0.4-1.2-1c-0.1-0.6,0.3-1.3,1-1.4l22.2-3.6c0.6-0.1,1.3,0.3,1.4,1
		c0.1,0.6-0.3,1.3-1,1.4l-22.2,3.6C140.3,44.2,140.2,44.2,140.2,44.2z"/>
</g>
<g>
	<path fill="#4A3E98" d="M127.7,46.6c-0.6,0-1.1-0.4-1.2-1c-0.1-0.6,0.3-1.3,1-1.4l6.5-1.1c0.6-0.1,1.3,0.3,1.4,1
		c0.1,0.6-0.3,1.3-1,1.4l-6.5,1.1C127.8,46.6,127.8,46.6,127.7,46.6z"/>
</g>
<g>
	<path fill="#4A3E98" d="M86,113.1c-0.6,0-1.1-0.4-1.2-1c-0.1-0.6,0.3-1.3,1-1.4l30.6-5.6c0.6-0.1,1.3,0.3,1.4,1
		c0.1,0.6-0.3,1.3-1,1.4l-30.6,5.6C86.2,113.1,86.1,113.1,86,113.1z"/>
</g>
<g>
	<path fill="#4A3E98" d="M87.5,121.5c-0.6,0-1.1-0.4-1.2-1c-0.1-0.6,0.3-1.3,1-1.4l11-1.7c0.6-0.1,1.3,0.3,1.4,1
		c0.1,0.6-0.3,1.3-1,1.4l-11,1.7C87.6,121.5,87.6,121.5,87.5,121.5z"/>
</g>
<g>
	<path fill="#4A3E98" d="M148.7,106.5c-0.6,0-1.1-0.4-1.2-1c-0.1-0.6,0.3-1.3,1-1.4L173,100c0.6-0.1,1.3,0.3,1.4,1
		c0.1,0.6-0.3,1.3-1,1.4l-24.6,4.2C148.8,106.5,148.7,106.5,148.7,106.5z"/>
</g>
<g>
	<path fill="#4A3E98" d="M139.4,108.2c-0.6,0-1.1-0.4-1.2-1c-0.1-0.6,0.3-1.3,1-1.4l3.9-0.7c0.6-0.1,1.3,0.3,1.4,1
		c0.1,0.6-0.3,1.3-1,1.4l-3.9,0.7C139.6,108.2,139.5,108.2,139.4,108.2z"/>
</g>
<g>
	<path fill="#4A3E98" d="M224.4,60.8c-0.1,0-0.1,0-0.2,0l-22.8-4.4c-0.6-0.1-1.1-0.7-0.9-1.4c0.1-0.6,0.7-1.1,1.4-0.9l22.8,4.4
		c0.6,0.1,1.1,0.7,0.9,1.4C225.4,60.4,224.9,60.8,224.4,60.8z"/>
</g>
<g>
	<path fill="#4A3E98" d="M196.8,55.6c-0.1,0-0.1,0-0.2,0l-5.7-1c-0.6-0.1-1.1-0.7-1-1.4c0.1-0.6,0.7-1.1,1.4-1l5.7,1
		c0.6,0.1,1.1,0.7,1,1.4C197.9,55.2,197.4,55.6,196.8,55.6z"/>
</g>
<g>
	<path fill="#4A3E98" d="M214.8,110.3c-0.1,0-0.1,0-0.2,0l-9.3-1.4c-0.6-0.1-1.1-0.7-1-1.3s0.7-1.1,1.3-1l9.3,1.4
		c0.6,0.1,1.1,0.7,1,1.3C215.9,109.9,215.4,110.3,214.8,110.3z"/>
</g>
<g>
	<path fill="#4A3E98" d="M213,118c-0.1,0-0.1,0-0.2,0l-21.9-3.8c-0.6-0.1-1.1-0.7-1-1.4c0.1-0.6,0.7-1.1,1.4-1l21.9,3.8
		c0.6,0.1,1.1,0.7,1,1.4C214.1,117.6,213.6,118,213,118z"/>
</g>
</svg>
