<?xml version="1.0" encoding="utf-8"?>
<!-- Generator: Adobe Illustrator 18.1.1, SVG Export Plug-In . SVG Version: 6.00 Build 0)  -->
<svg version="1.1" id="Layer_1" xmlns="http://www.w3.org/2000/svg" xmlns:xlink="http://www.w3.org/1999/xlink" x="0px" y="0px"
	 viewBox="0 0 300 170" enable-background="new 0 0 300 170" xml:space="preserve">
<circle fill="#F8993C" cx="207.8" cy="142.6" r="22.4"/>
<g>
	<path fill="#4A3E98" d="M200.1,161.2c-6.6,0-12.8-2.6-17.4-7.2c-9.6-9.6-9.6-25.3,0-34.9c4.7-4.7,10.9-7.2,17.4-7.2
		c6.6,0,12.8,2.6,17.4,7.2c4.7,4.7,7.2,10.9,7.2,17.4c0,6.6-2.6,12.8-7.2,17.4C212.9,158.6,206.7,161.2,200.1,161.2z M200.1,116.4
		c-5.4,0-10.4,2.1-14.2,5.9c-7.8,7.8-7.8,20.6,0,28.4c3.8,3.8,8.8,5.9,14.2,5.9c5.4,0,10.4-2.1,14.2-5.9c3.8-3.8,5.9-8.8,5.9-14.2
		c0-5.4-2.1-10.4-5.9-14.2C210.5,118.5,205.5,116.4,200.1,116.4z"/>
</g>
<g>
	<path fill="#4A3E98" d="M179.4,134.8l-40.1-40.1c-5.9,3.2-12.2,4.8-18.8,4.8c0,0,0,0,0,0c-20.1,0-36.4-14.6-37.1-15.2l-1.8-1.6
		l64.8-64.8l1.6,1.8c0.3,0.3,6.6,7.5,11,18.1c5.6,13.6,5.4,26.7-0.8,38l39.8,39.8l-2.9,1.4c-7.1,3.4-12.2,8.5-14.5,14.4L179.4,134.8
		z M140,88.9l37.8,37.8c2.6-4.9,6.9-9.1,12.5-12.3l-37.9-37.9l0.9-1.5c6.3-10.4,6.8-22.4,1.4-35.4c-2.8-6.8-6.6-12.2-8.7-14.9
		L88.3,82.5c4.7,3.6,17.5,12.5,32.2,12.5c6.4,0,12.5-1.7,18-5.1L140,88.9z"/>
</g>
<g>
	<path fill="#4A3E98" d="M107.2,44.3c-0.3,0-0.6-0.1-0.8-0.3L76.8,14.4c-0.4-0.4-0.4-1.2,0-1.6c0.4-0.4,1.2-0.4,1.6,0L108,42.4
		c0.4,0.4,0.4,1.2,0,1.6C107.8,44.2,107.5,44.3,107.2,44.3z"/>
</g>
<g>
	<path fill="#4A3E98" d="M124,29.4c-0.6,0-1-0.5-1-1.1V6.1c0-0.6,0.4-1.1,1-1.1s1,0.5,1,1.1v22.2C125,28.9,124.6,29.4,124,29.4z"/>
</g>
<g>
	<path fill="#4A3E98" d="M90.1,60H69.8c-0.6,0-1.1-0.4-1.1-1s0.5-1,1.1-1h20.2c0.6,0,1.1,0.4,1.1,1S90.7,60,90.1,60z"/>
</g>
<g>
	<path fill="#4A3E98" d="M94.2,90.4c-0.3,0-0.6-0.1-0.8-0.3c-0.4-0.4-0.4-1.2,0-1.6l9.4-9.4c0.4-0.4,1.2-0.4,1.6,0
		c0.4,0.4,0.4,1.2,0,1.6L95,90C94.7,90.3,94.5,90.4,94.2,90.4z"/>
</g>
<g>
	<path fill="#4A3E98" d="M101.8,94.3c-0.3,0-0.6-0.1-0.8-0.3c-0.4-0.4-0.4-1.2,0-1.6l18.2-18.2c0.4-0.4,1.2-0.4,1.6,0
		c0.4,0.4,0.4,1.2,0,1.6l-18.2,18.2C102.4,94.2,102.1,94.3,101.8,94.3z"/>
</g>
<g>
	<path fill="#4A3E98" d="M141.1,47c-0.3,0-0.6-0.1-0.8-0.3c-0.4-0.4-0.4-1.2,0-1.6l11.8-11.8c0.4-0.4,1.2-0.4,1.6,0
		c0.4,0.4,0.4,1.2,0,1.6l-11.8,11.8C141.7,46.9,141.4,47,141.1,47z"/>
</g>
<g>
	<path fill="#4A3E98" d="M150.8,44.5c-0.3,0-0.6-0.1-0.8-0.3c-0.4-0.4-0.4-1.2,0-1.6l3.9-3.9c0.4-0.4,1.2-0.4,1.6,0
		c0.4,0.4,0.4,1.2,0,1.6l-3.9,3.9C151.4,44.4,151.1,44.5,150.8,44.5z"/>
</g>
<g>
	<path fill="#4A3E98" d="M136.9,57.5c-0.3,0-0.6-0.1-0.8-0.3c-0.4-0.4-0.4-1.2,0-1.6l10.1-10.1c0.4-0.4,1.2-0.4,1.6,0
		c0.4,0.4,0.4,1.2,0,1.6l-10.1,10.1C137.5,57.4,137.2,57.5,136.9,57.5z"/>
</g>
<g>
	<path fill="#4A3E98" d="M145.4,98.7c-0.3,0-0.6-0.1-0.8-0.3c-0.4-0.4-0.4-1.2,0-1.6l3.8-3.8c0.4-0.4,1.2-0.4,1.6,0
		c0.4,0.4,0.4,1.2,0,1.6l-3.8,3.8C146,98.6,145.7,98.7,145.4,98.7z"/>
</g>
<g>
	<path fill="#4A3E98" d="M148.2,101.5c-0.3,0-0.6-0.1-0.8-0.3c-0.4-0.4-0.4-1.2,0-1.6L155,92c0.4-0.4,1.2-0.4,1.6,0
		c0.4,0.4,0.4,1.2,0,1.6l-7.6,7.6C148.8,101.4,148.5,101.5,148.2,101.5z"/>
</g>
<g>
	<path fill="#4A3E98" d="M169.2,98.7c-0.3,0-0.6-0.1-0.8-0.3c-0.4-0.4-0.4-1.2,0-1.6l3.7-3.7c0.4-0.4,1.2-0.4,1.6,0
		c0.4,0.4,0.4,1.2,0,1.6l-3.7,3.7C169.7,98.5,169.5,98.7,169.2,98.7z"/>
</g>
<g>
	<path fill="#4A3E98" d="M168.5,105c-0.3,0-0.6-0.1-0.8-0.3c-0.4-0.4-0.4-1.2,0-1.6l7.2-7.2c0.4-0.4,1.2-0.4,1.6,0
		c0.4,0.4,0.4,1.2,0,1.6l-7.2,7.2C169.1,104.8,168.8,105,168.5,105z"/>
</g>
</svg>
