<?xml version="1.0" encoding="utf-8"?>
<!-- Generator: Adobe Illustrator 18.1.1, SVG Export Plug-In . SVG Version: 6.00 Build 0)  -->
<svg version="1.1" id="Layer_1" xmlns="http://www.w3.org/2000/svg" xmlns:xlink="http://www.w3.org/1999/xlink" x="0px" y="0px"
	 viewBox="0 0 300 170" enable-background="new 0 0 300 170" xml:space="preserve">
<path fill="#F12E58" d="M184.8,165c10.3-40,19.9-100.5-28.1-100.5c-54.2,0-26.6,85.5-21.1,100.5H184.8z"/>
<g>
	<path fill="#4A3E98" d="M159,159H87.3c-0.6,0-1.1-0.4-1.1-1s0.5-1,1.1-1H159c0.6,0,1.1,0.4,1.1,1S159.7,159,159,159z"/>
</g>
<g>
	<path fill="#4A3E98" d="M197.7,159h-26.2c-0.6,0-1.1-0.4-1.1-1s0.5-1,1.1-1h26.2c0.6,0,1.1,0.4,1.1,1S198.4,159,197.7,159z"/>
</g>
<g>
	<path fill="#4A3E98" d="M230.7,159h-11c-0.6,0-1.1-0.4-1.1-1s0.5-1,1.1-1h11c0.6,0,1.1,0.4,1.1,1S231.4,159,230.7,159z"/>
</g>
<g>
	<path fill="#4A3E98" d="M128,158.9c-0.8,0-1.6-0.5-1.9-1.4c-2.2-6.1-7.6-22.3-10.3-40.3c-3.5-22.9-1.5-39.8,5.9-50.4
		c5.9-8.4,15.1-12.6,27.4-12.6c12.9,0,22.7,4.2,29.2,12.6c12.2,15.7,12.5,45.3,0.9,90.5c-0.3,1.1-1.4,1.8-2.5,1.5
		c-1.1-0.3-1.8-1.4-1.5-2.5c4.8-18.8,7.5-34.4,8.2-47.6c0.9-17.8-1.9-31-8.4-39.3c-5.7-7.3-14.4-11-25.9-11
		c-10.9,0-19,3.7-24.1,10.9c-6.8,9.7-8.6,25.6-5.2,47.4c2.7,17.6,8,33.5,10.1,39.5c0.4,1.1-0.2,2.2-1.2,2.6
		C128.5,158.9,128.2,158.9,128,158.9z"/>
</g>
<g>
	<path fill="#4A3E98" d="M117.5,82.6c-0.8,0-1.5-0.4-2-1.1l-10.7-18.4L92,70.5c-2,1.2-4.5,0.5-5.7-1.5L68.5,38.1
		c-0.6-1-0.7-2.1-0.4-3.2c0.3-1.1,1-2,1.9-2.5l46-26.6c1-0.6,2.1-0.7,3.2-0.4c1.1,0.3,2,1,2.5,1.9l17.9,30.9c1.2,2,0.5,4.5-1.5,5.7
		l-12.8,7.4l5.4,9.4c0.6,1.1,0.3,2.5-0.8,3.1c-1.1,0.6-2.5,0.3-3.1-0.8l-5.5-9.4c-1,0.3-2.1-0.1-2.7-1c-0.6-1.1-0.3-2.5,0.8-3.1v0
		l16-9.3L117.9,9.9L72.6,36.1l17.5,30.2l16-9.3c0,0,0,0,0,0c1.1-0.6,2.5-0.3,3.1,0.8c0.6,1,0.3,2.1-0.5,2.8l10.7,18.4
		c0.6,1.1,0.3,2.5-0.8,3.1C118.3,82.5,117.9,82.6,117.5,82.6z"/>
</g>
<g>
	<path fill="#4A3E98" d="M89.2,43.4c-0.4,0-0.8-0.2-1-0.6c-0.3-0.5-0.1-1.2,0.4-1.5l6.8-3.8c0.5-0.3,1.2-0.1,1.5,0.4
		c0.3,0.5,0.1,1.2-0.4,1.5l-6.8,3.8C89.6,43.4,89.4,43.4,89.2,43.4z"/>
</g>
<g>
	<path fill="#4A3E98" d="M107.8,32.4c-0.4,0-0.8-0.2-1-0.6c-0.3-0.6-0.1-1.2,0.5-1.5l7.2-3.7c0.6-0.3,1.2-0.1,1.5,0.5
		c0.3,0.6,0.1,1.2-0.5,1.5l-7.2,3.7C108.2,32.4,108,32.4,107.8,32.4z"/>
</g>
<g>
	<path fill="#4A3E98" d="M138.9,90H137c-0.6,0-1.1-0.4-1.1-1s0.5-1,1.1-1h1.9c0.6,0,1.1,0.4,1.1,1S139.6,90,138.9,90z"/>
</g>
<g>
	<path fill="#4A3E98" d="M165.5,90h-1.9c-0.6,0-1.1-0.4-1.1-1s0.5-1,1.1-1h1.9c0.6,0,1.1,0.4,1.1,1S166.1,90,165.5,90z"/>
</g>
<g>
	<path fill="#4A3E98" d="M223.5,159.1c-0.9,0-1.8-0.6-2.1-1.5C204.7,111.9,173,25,171.8,21.8c-0.1-0.1-0.4-0.1-0.8,0.2
		c0,0-0.1,0.1-0.3,0.4c0,0.1-0.1,0.1-0.1,0.2L148,56.5c-0.7,1-2.1,1.3-3.2,0.6c-1-0.7-1.3-2.1-0.6-3.2l22.5-33.8
		c0.4-0.6,0.8-1.2,1.3-1.6c1.3-1.1,3-1.5,4.6-1.1c1.4,0.3,2.6,1.3,3.2,2.6c0.8,1.7,44.7,122.4,49.8,136.1c0.4,1.2-0.2,2.5-1.4,2.9
		C224,159.1,223.8,159.1,223.5,159.1z"/>
</g>
<g>
	<path fill="#4A3E98" d="M165.5,49.1c-0.6,0-1.5-0.5-1.5-1.1v-7.2c0-0.6,0.9-1.1,1.5-1.1s1.5,0.5,1.5,1.1V48
		C167,48.6,166.1,49.1,165.5,49.1z"/>
</g>
<g>
	<path fill="#4A3E98" d="M173,49.1c-0.6,0-1-0.5-1-1.1v-7.2c0-0.6,0.4-1.1,1-1.1s1,0.5,1,1.1V48C174,48.6,173.6,49.1,173,49.1z"/>
</g>
<g>
	<path fill="#4A3E98" d="M145.4,146h-21.2c-0.6,0-1.1-0.4-1.1-1s0.5-1,1.1-1h21.2c0.6,0,1.1,0.4,1.1,1S146,146,145.4,146z"/>
</g>
<g>
	<path fill="#4A3E98" d="M130.6,140h-6.4c-0.6,0-1.1-0.4-1.1-1s0.5-1,1.1-1h6.4c0.6,0,1.1,0.4,1.1,1S131.2,140,130.6,140z"/>
</g>
<g>
	<path fill="#4A3E98" d="M184.4,129h-20.9c-0.6,0-1.1-0.4-1.1-1s0.5-1,1.1-1h20.9c0.6,0,1.1,0.4,1.1,1S185.1,129,184.4,129z"/>
</g>
<g>
	<path fill="#4A3E98" d="M158.3,129h-7.6c-0.6,0-1.1-0.4-1.1-1s0.5-1,1.1-1h7.6c0.6,0,1.1,0.4,1.1,1S158.9,129,158.3,129z"/>
</g>
</svg>
