<?xml version="1.0" encoding="utf-8"?>
<!-- Generator: Adobe Illustrator 18.1.1, SVG Export Plug-In . SVG Version: 6.00 Build 0)  -->
<svg version="1.1" id="Layer_1" xmlns="http://www.w3.org/2000/svg" xmlns:xlink="http://www.w3.org/1999/xlink" x="0px" y="0px"
	 viewBox="0 0 300 170" enable-background="new 0 0 300 170" xml:space="preserve">
<path fill="#F8993C" d="M189.7,46.5c-1.3,1.3-2.4,2.7-3.3,4.2l-64,79.9c-0.3,0.3-0.6,0.5-0.9,0.8c-5.6,5.6-5.6,14.7,0,20.3
	c5.6,5.6,14.4,5.9,20,0.3L223,81l0,0c9.5-9.5,9.7-24.8,0.3-34.2C214,37.5,199.1,37.2,189.7,46.5z"/>
<g>
	<path fill="#4A3E98" d="M123.2,120C123.2,120,123.2,120,123.2,120c-0.7,0-1.2-0.4-1.2-1c0.2-14-0.6-28.6-6.9-40.9
		c-7-13.8-20.1-22.6-39.9-27c0,0-0.1,0-0.1,0c-6.5-2.3-11-7.9-11.9-14.7c-0.6-4.9,0.7-9.6,3.6-13.4c2.9-3.7,7-6,11.7-6.6
		c3-0.4,6.3,0.1,8.5,1.1c31.6,11.1,52.4,37.9,58.6,75.3c0.1,0.6-0.3,1.2-1,1.4c-0.6,0.1-1.2-0.3-1.4-1
		c-6.1-36.6-26.3-62.6-57.1-73.5c-0.1,0-0.1,0-0.2-0.1c-1.8-0.9-4.6-1.3-7.2-1c-4.1,0.5-7.7,2.6-10.2,5.7c-2.6,3.3-3.7,7.5-3.1,11.7
		c0.7,5.9,4.7,10.7,10.2,12.8c45.4,10.2,48.8,41.5,48.5,70.2C124.4,119.6,123.8,120,123.2,120z"/>
</g>
<g>
	<path fill="#4A3E98" d="M135.3,144C135.3,144,135.3,144,135.3,144c-4.5,0-8.7-1.8-12-5.1c-3.2-3.2-4.9-7.4-4.9-11.8
		c0-4.5,1.7-8.7,4.9-11.8c0.3-0.3,0.6-0.6,0.9-0.8L188,34.8c1-1.6,2.2-3.1,3.6-4.5c4.9-4.9,11.3-7.5,18.1-7.5c7,0,13.7,2.8,18.8,7.9
		c4.9,4.9,7.6,11.4,7.6,18.4c0,7.2-2.8,14-7.9,19.1c0,0-0.1,0.1-0.1,0.1l-81.5,71C143.6,142.3,139.6,144,135.3,144z M209.8,27.5
		c-5.6,0-10.8,2.2-14.8,6.2c-1.1,1.1-2.1,2.4-3,3.8c0,0.1-0.1,0.1-0.2,0.2l-64,79.9c-0.1,0.1-0.2,0.2-0.3,0.3
		c-0.2,0.2-0.5,0.4-0.8,0.7c-2.3,2.3-3.5,5.3-3.5,8.5c0,3.2,1.3,6.3,3.5,8.5c2.4,2.4,5.5,3.8,8.7,3.8c0,0,0,0,0,0c3,0,5.9-1.3,8-3.4
		c0,0,0.1-0.1,0.1-0.1l81.5-71c4.2-4.2,6.5-9.8,6.5-15.7c0-5.7-2.2-11.1-6.2-15.1C221,29.8,215.5,27.5,209.8,27.5z"/>
</g>
<circle fill="#4A3E98" cx="135.3" cy="126.2" r="3.9"/>
<g>
	<path fill="#4A3E98" d="M150.2,99.4c-0.3,0-0.5-0.1-0.7-0.3c-0.5-0.4-0.6-1.1-0.2-1.7l19.9-25.1c0.4-0.5,1.1-0.6,1.7-0.2
		c0.5,0.4,0.6,1.1,0.2,1.7L151.1,99C150.9,99.3,150.5,99.4,150.2,99.4z"/>
</g>
<g>
	<path fill="#4A3E98" d="M172.9,70.4c-0.3,0-0.5-0.1-0.7-0.2c-0.5-0.4-0.6-1.1-0.2-1.7l6.3-8.1c0.4-0.5,1.1-0.6,1.7-0.2
		c0.5,0.4,0.6,1.1,0.2,1.7l-6.3,8.1C173.6,70.3,173.3,70.4,172.9,70.4z"/>
</g>
<g>
	<path fill="#4A3E98" d="M181.7,59.3c-0.3,0-0.5-0.1-0.7-0.3c-0.5-0.4-0.6-1.1-0.2-1.7l2.6-3.3c0.4-0.5,1.1-0.6,1.7-0.2
		c0.5,0.4,0.6,1.1,0.2,1.7l-2.6,3.3C182.4,59.2,182,59.3,181.7,59.3z"/>
</g>
<g>
	<path fill="#4A3E98" d="M204.7,79.2c-0.3,0-0.6-0.1-0.8-0.4c-0.5-0.5-0.4-1.2,0-1.7l16.7-16.3c0.5-0.5,1.2-0.4,1.7,0
		c0.5,0.5,0.4,1.2,0,1.7l-16.7,16.3C205.3,79.1,205,79.2,204.7,79.2z"/>
</g>
<g>
	<path fill="#4A3E98" d="M195.5,86.9c-0.3,0-0.6-0.1-0.8-0.4c-0.5-0.5-0.4-1.2,0-1.7l5-4.8c0.5-0.5,1.2-0.4,1.7,0
		c0.5,0.5,0.4,1.2,0,1.7l-5,4.8C196.1,86.8,195.8,86.9,195.5,86.9z"/>
</g>
<g>
	<path fill="#4A3E98" d="M171.5,107.1c-0.3,0-0.7-0.1-0.9-0.4c-0.4-0.5-0.4-1.2,0.1-1.7l18.8-16.5c0.5-0.4,1.2-0.4,1.7,0.1
		c0.4,0.5,0.4,1.2-0.1,1.7l-18.8,16.5C172,107,171.8,107.1,171.5,107.1z"/>
</g>
<g>
	<path fill="#FFFFFF" d="M108.6,35.3c-5.9-4.3-16.9-10.6-20.4-12.2"/>
	<path fill="#4A3E98" d="M108.6,36.5c-0.2,0-0.5-0.1-0.7-0.2c-5.6-4.1-16.6-10.4-20.2-12c-0.6-0.3-0.9-1-0.6-1.6
		c0.3-0.6,1-0.9,1.6-0.6c3.8,1.7,14.7,8,20.6,12.3c0.5,0.4,0.6,1.1,0.3,1.6C109.3,36.3,109,36.5,108.6,36.5z"/>
</g>
<g>
	<path fill="#FFFFFF" d="M114.1,65.6c4.8,5,9,16.5,9.6,20.1"/>
	<path fill="#4A3E98" d="M123.7,86.9c-0.6,0-1.1-0.4-1.2-1c-0.6-3.5-4.8-14.8-9.3-19.5c-0.5-0.5-0.4-1.2,0-1.7
		c0.5-0.5,1.2-0.4,1.7,0c5.1,5.3,9.3,17.1,9.9,20.8c0.1,0.6-0.3,1.2-1,1.3C123.8,86.9,123.8,86.9,123.7,86.9z"/>
</g>
<g>
	<path fill="#FFFFFF" d="M110.2,62.5c-1.8-2-5.9-4.4-5.9-4.4"/>
	<path fill="#4A3E98" d="M110.2,63.7c-0.3,0-0.6-0.1-0.9-0.4c-1.6-1.8-5.6-4.1-5.6-4.2c-0.6-0.3-0.7-1-0.4-1.6
		c0.3-0.6,1-0.7,1.6-0.4c0.2,0.1,4.3,2.5,6.2,4.6c0.4,0.5,0.4,1.2-0.1,1.7C110.8,63.6,110.5,63.7,110.2,63.7z"/>
</g>
<g>
	<path fill="#FFFFFF" d="M112.7,38.4c2,1.8,4,3.3,5.5,5.5"/>
	<path fill="#4A3E98" d="M118.2,45.1c-0.4,0-0.7-0.2-1-0.5c-1.1-1.6-2.5-2.9-4.1-4.2c-0.4-0.4-0.8-0.7-1.2-1.1
		c-0.5-0.4-0.5-1.2-0.1-1.7c0.4-0.5,1.2-0.5,1.7-0.1c0.4,0.4,0.8,0.7,1.2,1c1.6,1.4,3.2,2.8,4.5,4.7c0.4,0.5,0.2,1.3-0.3,1.6
		C118.7,45,118.5,45.1,118.2,45.1z"/>
</g>
</svg>
