<?xml version="1.0" encoding="utf-8"?>
<!-- Generator: Adobe Illustrator 18.1.1, SVG Export Plug-In . SVG Version: 6.00 Build 0)  -->
<svg version="1.1" xmlns="http://www.w3.org/2000/svg" xmlns:xlink="http://www.w3.org/1999/xlink" x="0px" y="0px"
	 viewBox="-251 -52 932 358" enable-background="new -251 -52 932 358" xml:space="preserve">
<g id="Layer_1" display="none" opacity="0.2">
	<g display="inline">
		<path fill="#FFFFFF" d="M459,260h-30c-2.2,0-4-1.8-4-4s1.8-4,4-4h30c2.2,0,4,1.8,4,4S461.2,260,459,260z"/>
	</g>
	<g display="inline">
		<path fill="#FFFFFF" d="M459,271h-54c-2.2,0-4-1.8-4-4s1.8-4,4-4h54c2.2,0,4,1.8,4,4S461.2,271,459,271z"/>
	</g>
	
		<line display="inline" fill="none" stroke="#FFFFFF" stroke-width="8" stroke-linecap="round" stroke-linejoin="round" stroke-miterlimit="10" x1="390" y1="267" x2="381" y2="267"/>
	<g display="inline">
		<g>
			<defs>
				<rect id="SVGID_1_" x="-407.2" y="-126.2" width="1114" height="523.8"/>
			</defs>
			<clipPath id="SVGID_2_">
				<use xlink:href="#SVGID_1_"  overflow="visible"/>
			</clipPath>
			<g clip-path="url(#SVGID_2_)">
				<defs>
					<rect id="SVGID_3_" x="-407.2" y="-126.2" width="1114" height="523.8"/>
				</defs>
				<clipPath id="SVGID_4_">
					<use xlink:href="#SVGID_3_"  overflow="visible"/>
				</clipPath>
				<g clip-path="url(#SVGID_4_)">
					<defs>
						<rect id="SVGID_5_" x="-407.2" y="-126.2" width="1114" height="523.8"/>
					</defs>
					<clipPath id="SVGID_6_">
						<use xlink:href="#SVGID_5_"  overflow="visible"/>
					</clipPath>
					<path clip-path="url(#SVGID_6_)" fill="#F12E58" d="M-84.6,67.5c0,0-13.5,3.2-18.8,4.8c-3.7,1.1-10.9,4.2-13.2,5.2
						c-1.1-7.3-4.2-12.6-9.9-12.6v38.2c6.4,0,9.5-6.6,10.2-15.3c2.7,1.1,9.9,4,12.9,5.2c3.7,1.5,18.8,6.3,18.8,6.3
						c8.4,2.7,14.9-7.2,14.9-15.9S-76.7,66.3-84.6,67.5"/>
					<path clip-path="url(#SVGID_6_)" fill="#F12E58" d="M-20.7,217.1c-3.5-1.1-12.4-3.8-17-5.2c-6.8-2.1-24.4-6.3-24.4-6.3
						c-10.3-1.6-19.3,9.3-19.3,20.7c0,11.4,8.4,24.1,19.3,20.7c0,0,19.6-6.2,24.4-8.1c3.8-1.5,12.8-4.5,16.5-5.7
						c1,10.8,5.1,18.8,13.1,18.8v-49.6C-15,202.3-19,208.4-20.7,217.1"/>
					<path clip-path="url(#SVGID_6_)" fill="#FFCA45" d="M635,4.1c-10.1,0-18.3,8.2-18.3,18.3v151.8c0-10.1-8.2-18.3-18.3-18.3
						s-18.3,8.2-18.3,18.3c0-10.1-8.2-18.3-18.3-18.3s-18.3,8.2-18.3,18.3c0-10.1-8.2-18.3-18.3-18.3c-10.1,0-18.3,8.2-18.3,18.3
						V23.1c0-10.1-8.2-18.3-18.3-18.3S470,13,470,23.1v280.2h36.7h21v-65.2c0-14.7,12-27,26.6-27h16.4c14.7,0,26.1,12.3,26.1,27
						v65.2h19.9h36.7V22.4C653.3,12.4,645.1,4.1,635,4.1"/>
					<path clip-path="url(#SVGID_6_)" fill="#F8993C" d="M318.2,241.8l0.9-0.9c0-11.5-9.3-20.7-20.7-20.7
						c-11.5,0-20.7,9.1-20.7,20.6c0,0.3,0,0.7,0,0.7h-2.1H244c-11.4,0-20.7,9.5-20.7,21s2.4,21,13.8,21h79.3
						c11.4,0,20.7-9.4,20.7-20.8C337.1,251.8,328.8,242.8,318.2,241.8"/>
					<g clip-path="url(#SVGID_6_)">
						<path fill="#FFFFFF" d="M460.6,180.7H427c-2.3,0-4.2-1.9-4.2-4.2s1.9-4.2,4.2-4.2h33.5c2.3,0,4.2,1.9,4.2,4.2
							S462.9,180.7,460.6,180.7z"/>
					</g>
					
						<line clip-path="url(#SVGID_6_)" fill="none" stroke="#FFFFFF" stroke-width="8.3806" stroke-linecap="round" stroke-linejoin="round" stroke-miterlimit="10" x1="47.4" y1="234.1" x2="69.4" y2="234.1"/>
					
						<line clip-path="url(#SVGID_6_)" fill="none" stroke="#FFFFFF" stroke-width="8.3806" stroke-linecap="round" stroke-linejoin="round" stroke-miterlimit="10" x1="47.4" y1="247.7" x2="85.2" y2="247.7"/>
					<g clip-path="url(#SVGID_6_)">
						<path fill="#FFFFFF" d="M459.5,193.3h-63.9c-2.3,0-4.2-1.9-4.2-4.2s1.9-4.2,4.2-4.2h63.9c2.3,0,4.2,1.9,4.2,4.2
							S461.8,193.3,459.5,193.3z"/>
					</g>
					<g opacity="0.1" clip-path="url(#SVGID_6_)">
						<g>
							<defs>
								<rect id="SVGID_7_" x="-184.1" y="8.9" width="243" height="296.5"/>
							</defs>
							<clipPath id="SVGID_8_">
								<use xlink:href="#SVGID_7_"  overflow="visible"/>
							</clipPath>
							<path clip-path="url(#SVGID_8_)" fill="#4A3E98" d="M29,158.7H0.4c16.4,0,30.3-27.2,30.3-60V68c0-32.8-13.9-59.1-30.3-59.1
								h-126.5c-16.4,0-29.7,26.3-29.7,59.1v30.7c0,32.8,13.2,60,29.7,60h-28.6c-16.4,0-29.4,26.4-29.4,59.2v27.3
								c0,32.8,12.9,60.2,29.4,60.2H29c16.4,0,30-27.4,30-60.2v-27.3C59,185.1,45.4,158.7,29,158.7"/>
						</g>
					</g>
				</g>
				<g clip-path="url(#SVGID_4_)">
					<defs>
						<rect id="SVGID_9_" x="-407.2" y="-126.2" width="1114" height="523.8"/>
					</defs>
					<clipPath id="SVGID_10_">
						<use xlink:href="#SVGID_9_"  overflow="visible"/>
					</clipPath>
					<g clip-path="url(#SVGID_10_)">
						<path fill="#4A3E98" d="M-11.1,152.5c-2.3,0-4.2-1.9-4.2-4.2c0-2.3,1.9-4.2,4.2-4.2c13.7,0,25.7-25.9,25.7-55.4V58
							c0-29.5-12-55.4-25.7-55.4h-126.5c-13.7,0-25.7,25.9-25.7,55.4v30.7c0,29.5,12,55.4,25.7,55.4c2.3,0,4.2,1.9,4.2,4.2
							c0,2.3-1.9,4.2-4.2,4.2c-19.1,0-34.1-28-34.1-63.8V58c0-35.8,15-63.8,34.1-63.8h126.5C8-5.8,23,22.3,23,58v30.7
							C23,124.5,8,152.5-11.1,152.5z"/>
					</g>
					<g clip-path="url(#SVGID_10_)">
						<path fill="#4A3E98" d="M17.5,299.1h-183.7c-19.1,0-34.1-28-34.1-63.8V208c0-35.8,15-63.8,34.1-63.8h42.1
							c2.3,0,4.2,1.9,4.2,4.2c0,2.3-1.9,4.2-4.2,4.2h-42.1c-13.7,0-25.7,25.9-25.7,55.4v27.3c0,29.5,12,55.4,25.7,55.4H17.5
							c13.7,0,25.7-25.9,25.7-55.4V208c0-29.5-12-55.4-25.7-55.4h-39.2c-2.3,0-4.2-1.9-4.2-4.2c0-2.3,1.9-4.2,4.2-4.2h39.2
							c19.1,0,34.1,28,34.1,63.8v27.3C51.6,271,36.6,299.1,17.5,299.1z"/>
					</g>
					<g clip-path="url(#SVGID_10_)">
						<path fill="#4A3E98" d="M-29.7,0.7h-86.7c-4.8,0-8.7-3.9-8.7-8.7v-32.2c0-4.8,3.9-8.7,8.7-8.7h86.7c4.8,0,8.7,3.9,8.7,8.7V-8
							C-21-3.2-24.9,0.7-29.7,0.7z M-116.4-41.2c-0.5,0-1,0.4-1,1V-8c0,0.5,0.4,1,1,1h86.7c0.5,0,1-0.4,1-1v-32.2c0-0.5-0.4-1-1-1
							H-116.4z"/>
					</g>
					<g clip-path="url(#SVGID_10_)">
						<path fill="#4A3E98" d="M-82.5-32h-38.8c-1.2,0-2.1-0.9-2.1-2.1s0.9-2.1,2.1-2.1h38.8c1.2,0,2.1,0.9,2.1,2.1S-81.3-32-82.5-32
							z"/>
					</g>
					<g clip-path="url(#SVGID_10_)">
						<path fill="#4A3E98" d="M-104.5-23.6h-16.8c-1.2,0-2.1-0.9-2.1-2.1s0.9-2.1,2.1-2.1h16.8c1.2,0,2.1,0.9,2.1,2.1
							S-103.3-23.6-104.5-23.6z"/>
					</g>
					<g clip-path="url(#SVGID_10_)">
						<path fill="#4A3E98" d="M-24.8-12.1h-56.6c-1.2,0-2.1-0.9-2.1-2.1s0.9-2.1,2.1-2.1h56.6c1.2,0,2.1,0.9,2.1,2.1
							S-23.7-12.1-24.8-12.1z"/>
					</g>
					<g clip-path="url(#SVGID_10_)">
						<path fill="#4A3E98" d="M-24.8-19.4h-9.4c-1.2,0-2.1-0.9-2.1-2.1s0.9-2.1,2.1-2.1h9.4c1.2,0,2.1,0.9,2.1,2.1
							S-23.7-19.4-24.8-19.4z"/>
					</g>
					<g clip-path="url(#SVGID_10_)">
						<path fill="#4A3E98" d="M461.6,152.4H-1.8c-2.3,0-4.2-1.9-4.2-4.2s1.9-4.2,4.2-4.2h463.4c2.3,0,4.2,1.9,4.2,4.2
							S463.9,152.4,461.6,152.4z"/>
					</g>
					
						<path clip-path="url(#SVGID_10_)" fill="none" stroke="#4A3E98" stroke-width="8.3806" stroke-linecap="round" stroke-linejoin="round" stroke-miterlimit="10" d="
						M310.1,235.5c11.4,0,20.7,9.3,20.7,20.7c0,11.4-9.3,20.7-20.7,20.7h-72.4c-11.4,0-20.7-9.3-20.7-20.7
						c0-11.4,9.3-20.7,20.7-20.7h31.5"/>
					
						<path clip-path="url(#SVGID_10_)" fill="none" stroke="#4A3E98" stroke-width="4.1903" stroke-linecap="round" stroke-linejoin="round" stroke-miterlimit="10" d="
						M184.8,176c-7.2,2.8-10.8,10.8-8,18c2.8,7.2,10.8,10.8,18,8l4.5-1.7c6.3-2.4,13.3,0.7,15.8,7c2.4,6.3-0.7,13.3-7,15.8l-4.1,1.6
						c-9.5,3.7-14.3,14.4-10.7,23.9c3.7,9.5,14.4,14.3,23.9,10.7"/>
					
						<path clip-path="url(#SVGID_10_)" fill="none" stroke="#4A3E98" stroke-width="8.3806" stroke-linecap="round" stroke-linejoin="round" stroke-miterlimit="10" d="
						M292.1,255.4c-11.5,0-20.7-9.3-20.7-20.7c0-11.5,9.3-20.7,20.7-20.7c11.5,0,20.7,9.3,20.7,20.7"/>
					<path clip-path="url(#SVGID_10_)" fill="#4A3E98" d="M318.9,252.1c0,1.6-1.3,2.9-2.9,2.9c-1.6,0-2.9-1.3-2.9-2.9
						s1.3-2.9,2.9-2.9C317.6,249.2,318.9,250.5,318.9,252.1"/>
					<path clip-path="url(#SVGID_10_)" fill="#4A3E98" d="M-83.7,75.5c0,1.2-1,2.2-2.2,2.2c-1.2,0-2.2-1-2.2-2.2
						c0-1.2,1-2.2,2.2-2.2C-84.7,73.2-83.7,74.2-83.7,75.5"/>
					
						<line clip-path="url(#SVGID_10_)" fill="none" stroke="#4A3E98" stroke-width="4.1903" stroke-miterlimit="10" x1="240" y1="279.2" x2="240" y2="293.8"/>
					
						<line clip-path="url(#SVGID_10_)" fill="none" stroke="#4A3E98" stroke-width="4.1903" stroke-miterlimit="10" x1="300.8" y1="280.2" x2="300.8" y2="291.7"/>
					<g clip-path="url(#SVGID_10_)">
						<path fill="#4A3E98" d="M498.8,299.1h-36.7c-2.3,0-4.2-1.9-4.2-4.2V15.2c0-12.4,10.1-22.5,22.5-22.5S503,2.8,503,15.2v279.7
							C503,297.2,501.1,299.1,498.8,299.1z M466.3,290.7h28.3V15.2c0-7.8-6.3-14.1-14.1-14.1s-14.1,6.3-14.1,14.1V290.7z"/>
					</g>
					<g clip-path="url(#SVGID_10_)">
						<path fill="#4A3E98" d="M645.5,298.4h-36.7c-2.3,0-4.2-1.9-4.2-4.2V14.5C604.6,2.1,614.7-8,627.1-8s22.5,10.1,22.5,22.5v279.7
							C649.7,296.5,647.8,298.4,645.5,298.4z M613,290h28.3V14.5c0-7.8-6.3-14.1-14.1-14.1S613,6.7,613,14.5V290z"/>
					</g>
					<g clip-path="url(#SVGID_10_)">
						<path fill="#4A3E98" d="M519.8,299.1h-21c-2.3,0-4.2-1.9-4.2-4.2V166.3c0-12.4,10.1-22.5,22.5-22.5s22.5,10.1,22.5,22.5v39.1
							c0,2.3-1.9,4.2-4.2,4.2s-4.2-1.9-4.2-4.2v-39.1c0-7.8-6.3-14.1-14.1-14.1s-14.1,6.3-14.1,14.1v124.4h16.8
							c2.3,0,4.2,1.9,4.2,4.2S522.1,299.1,519.8,299.1z"/>
					</g>
					<g clip-path="url(#SVGID_10_)">
						<path fill="#4A3E98" d="M572.1,207.7c-2.3,0-4.2-1.9-4.2-4.2v-37.2c0-7.8-6.3-14.1-14.1-14.1s-14.1,6.3-14.1,14.1v37.2
							c0,2.3-1.9,4.2-4.2,4.2s-4.2-1.9-4.2-4.2v-37.2c0-12.4,10.1-22.5,22.5-22.5s22.5,10.1,22.5,22.5v37.2
							C576.3,205.8,574.4,207.7,572.1,207.7z"/>
					</g>
					<g clip-path="url(#SVGID_10_)">
						<path fill="#4A3E98" d="M584.1,298.4h-59c-5.4,0-9.9-4.4-9.9-9.9v-59.8c0-16.4,13.3-29.7,29.7-29.7h19.4
							c16.4,0,29.7,13.3,29.7,29.7v59.8C593.9,293.9,589.5,298.4,584.1,298.4z M544.9,208c-11.4,0-20.6,9.2-20.6,20.6v59.8
							c0,0.4,0.4,0.8,0.8,0.8h59c0.4,0,0.8-0.4,0.8-0.8v-59.8c0-11.4-9.2-20.6-20.6-20.6H544.9z"/>
					</g>
					<g clip-path="url(#SVGID_10_)">
						<path fill="#4A3E98" d="M608.8,299.1h-19.4c-2.3,0-4.2-1.9-4.2-4.2s1.9-4.2,4.2-4.2h15.2V166.3c0-7.8-6.3-14.1-14.1-14.1
							s-14.1,6.3-14.1,14.1v37.2c0,2.3-1.9,4.2-4.2,4.2s-4.2-1.9-4.2-4.2v-37.2c0-12.4,10.1-22.5,22.5-22.5s22.5,10.1,22.5,22.5
							v128.6C613,297.2,611.1,299.1,608.8,299.1z"/>
					</g>
					<g clip-path="url(#SVGID_10_)">
						<path fill="#4A3E98" d="M461.6,175.5h-33.5c-1.2,0-2.1-0.9-2.1-2.1s0.9-2.1,2.1-2.1h33.5c1.2,0,2.1,0.9,2.1,2.1
							S462.8,175.5,461.6,175.5z"/>
					</g>
					<g clip-path="url(#SVGID_10_)">
						<path fill="#4A3E98" d="M461.6,187h-63.9c-1.2,0-2.1-0.9-2.1-2.1s0.9-2.1,2.1-2.1h63.9c1.2,0,2.1,0.9,2.1,2.1
							S462.8,187,461.6,187z"/>
					</g>
					
						<line clip-path="url(#SVGID_10_)" fill="none" stroke="#4A3E98" stroke-width="4.1903" stroke-linecap="round" stroke-linejoin="round" stroke-miterlimit="10" x1="47.4" y1="231" x2="69.4" y2="231"/>
					
						<line clip-path="url(#SVGID_10_)" fill="none" stroke="#4A3E98" stroke-width="4.1903" stroke-linecap="round" stroke-linejoin="round" stroke-miterlimit="10" x1="47.4" y1="244.6" x2="85.2" y2="244.6"/>
					
						<path clip-path="url(#SVGID_10_)" fill="none" stroke="#4A3E98" stroke-width="6.4499" stroke-linecap="round" stroke-linejoin="round" stroke-miterlimit="10" d="
						M-119.4,71.4c0,0,7.3-3,11.8-4.3c5.3-1.6,18.8-4.8,18.8-4.8c7.9-1.2,14.9,7.2,14.9,15.9c0,8.7-6.5,18.6-14.9,15.9
						c0,0-15.1-4.8-18.8-6.3C-111.3,86.3-119,83-119,83"/>
					
						<path clip-path="url(#SVGID_10_)" fill="none" stroke="#4A3E98" stroke-width="6.2855" stroke-linecap="round" stroke-linejoin="round" stroke-miterlimit="10" d="
						M-120.3,78.9c0,10.5-3.1,19.1-10.3,19.1V59.8C-123.4,59.8-120.3,68.3-120.3,78.9z"/>
					
						<line clip-path="url(#SVGID_10_)" fill="none" stroke="#4A3E98" stroke-width="3.1427" stroke-miterlimit="10" x1="-130.7" y1="74.4" x2="-123.3" y2="74.4"/>
					
						<line clip-path="url(#SVGID_10_)" fill="none" stroke="#4A3E98" stroke-width="3.1427" stroke-miterlimit="10" x1="-130.7" y1="83.8" x2="-119.1" y2="83.8"/>
					<path clip-path="url(#SVGID_10_)" fill="#4A3E98" d="M-68.8,214.4c0,1.6,1.3,2.9,2.9,2.9c1.6,0,2.9-1.3,2.9-2.9
						c0-1.6-1.3-2.9-2.9-2.9C-67.5,211.5-68.8,212.8-68.8,214.4"/>
					
						<path clip-path="url(#SVGID_10_)" fill="none" stroke="#4A3E98" stroke-width="8.3806" stroke-linecap="round" stroke-linejoin="round" stroke-miterlimit="10" d="
						M-22.4,209.1c0,0-9.5-3.9-15.3-5.6c-6.8-2.1-24.4-6.3-24.4-6.3c-10.3-1.6-19.3,9.3-19.3,20.7c0,11.4,8.4,24.1,19.3,20.7
						c0,0,19.6-6.2,24.4-8.1c4.8-1.9,14.9-6.2,14.9-6.2"/>
					
						<path clip-path="url(#SVGID_10_)" fill="none" stroke="#4A3E98" stroke-width="8.3806" stroke-linecap="round" stroke-linejoin="round" stroke-miterlimit="10" d="
						M-21.5,218.8c0,13.7,4,24.8,13.4,24.8V194C-17.5,194-21.5,205.1-21.5,218.8z"/>
					
						<line clip-path="url(#SVGID_10_)" fill="none" stroke="#4A3E98" stroke-width="4.1903" stroke-miterlimit="10" x1="-8.1" y1="213.2" x2="-17.5" y2="213.2"/>
					
						<line clip-path="url(#SVGID_10_)" fill="none" stroke="#4A3E98" stroke-width="4.1903" stroke-miterlimit="10" x1="-8.1" y1="225.7" x2="-22.7" y2="225.7"/>
					
						<path clip-path="url(#SVGID_10_)" fill="none" stroke="#4A3E98" stroke-width="4.1903" stroke-linecap="round" stroke-linejoin="round" stroke-miterlimit="10" d="
						M-70.6,163.6c0-5.6-4.5-10.1-10.1-10.1c-5.6,0-10.1,4.5-10.1,10.1"/>
					
						<path clip-path="url(#SVGID_10_)" fill="none" stroke="#4A3E98" stroke-width="4.1903" stroke-linecap="round" stroke-linejoin="round" stroke-miterlimit="10" d="
						M-57,163.5c0-3.8-3.1-6.9-6.9-6.9c-3.8,0-6.9,3.1-6.9,6.9"/>
					
						<path clip-path="url(#SVGID_10_)" fill="none" stroke="#4A3E98" stroke-width="4.1903" stroke-linecap="round" stroke-linejoin="round" stroke-miterlimit="10" d="
						M-33.9,35.2c0-2.9-2.3-5.2-5.2-5.2c-2.9,0-5.2,2.3-5.2,5.2"/>
					
						<path clip-path="url(#SVGID_10_)" fill="none" stroke="#4A3E98" stroke-width="4.1903" stroke-linecap="round" stroke-linejoin="round" stroke-miterlimit="10" d="
						M-16.4,35.9c0-4.8-3.9-8.8-8.8-8.8s-8.8,3.9-8.8,8.8"/>
					
						<path clip-path="url(#SVGID_10_)" fill="none" stroke="#4A3E98" stroke-width="4.1903" stroke-linecap="round" stroke-linejoin="round" stroke-miterlimit="10" d="
						M-164.5,255.3c0-1.8,1.5-3.3,3.3-3.3c1.8,0,3.3,1.5,3.3,3.3"/>
					
						<path clip-path="url(#SVGID_10_)" fill="none" stroke="#4A3E98" stroke-width="4.1903" stroke-linecap="round" stroke-linejoin="round" stroke-miterlimit="10" d="
						M-157.6,255.4c0-3.7,3-6.7,6.7-6.7c3.7,0,6.7,3,6.7,6.7"/>
					
						<path clip-path="url(#SVGID_10_)" fill="none" stroke="#4A3E98" stroke-width="4.1903" stroke-linecap="round" stroke-linejoin="round" stroke-miterlimit="10" d="
						M-144.1,255.6c0-2,1.6-3.7,3.7-3.7c2,0,3.7,1.6,3.7,3.7"/>
				</g>
			</g>
		</g>
	</g>
	<g display="inline">
		<path fill="#4A3E98" d="M460,254h-30c-1.1,0-2-0.9-2-2s0.9-2,2-2h30c1.1,0,2,0.9,2,2S461.1,254,460,254z"/>
	</g>
	<g display="inline">
		<path fill="#4A3E98" d="M460,265h-54c-1.1,0-2-0.9-2-2s0.9-2,2-2h54c1.1,0,2,0.9,2,2S461.1,265,460,265z"/>
	</g>
	
		<line display="inline" fill="none" stroke="#4A3E98" stroke-width="4" stroke-linecap="round" stroke-linejoin="round" stroke-miterlimit="10" x1="391" y1="263" x2="382" y2="263"/>
	
		<line display="inline" fill="none" stroke="#FFFFFF" stroke-width="8" stroke-linecap="round" stroke-linejoin="round" stroke-miterlimit="10" x1="117" y1="188" x2="153" y2="188"/>
	
		<line display="inline" fill="none" stroke="#FFFFFF" stroke-width="8" stroke-linecap="round" stroke-linejoin="round" stroke-miterlimit="10" x1="104" y1="201" x2="129" y2="201"/>
	
		<line display="inline" fill="none" stroke="#4A3E98" stroke-width="4" stroke-linecap="round" stroke-linejoin="round" stroke-miterlimit="10" x1="117" y1="185" x2="153" y2="185"/>
	
		<line display="inline" fill="none" stroke="#4A3E98" stroke-width="4" stroke-linecap="round" stroke-linejoin="round" stroke-miterlimit="10" x1="104" y1="198" x2="129" y2="198"/>
	<g display="inline">
		<path fill="#4A3E98" d="M135.5,299H5.5c-2.2,0-4-1.8-4-4s1.8-4,4-4h130c2.2,0,4,1.8,4,4S137.7,299,135.5,299z"/>
	</g>
	<g display="inline">
		<path fill="#4A3E98" d="M332.5,299h-114c-2.2,0-4-1.8-4-4s1.8-4,4-4h114c2.2,0,4,1.8,4,4S334.7,299,332.5,299z"/>
	</g>
</g>
<g id="Layer_2">
	
		<path fill="#FFFFFF" stroke="#4A3E98" stroke-width="3" stroke-linecap="round" stroke-linejoin="round" stroke-miterlimit="10" d="
		M518.5,291.9l16.7,1.1c0.6,0.1,1.1-0.3,1.2-0.8l11.1-61.3c0.1-0.6-0.3-1.1-0.8-1.2l-40.6-7.2"/>
	<g>
		<g>
			<defs>
				<rect id="SVGID_11_" x="-541.5" y="-77.3" width="846" height="423"/>
			</defs>
			<clipPath id="SVGID_12_">
				<use xlink:href="#SVGID_11_"  overflow="visible"/>
			</clipPath>
			<g clip-path="url(#SVGID_12_)">
				<defs>
					<rect id="SVGID_13_" x="-541.5" y="-77.3" width="846" height="423"/>
				</defs>
				<clipPath id="SVGID_14_">
					<use xlink:href="#SVGID_13_"  overflow="visible"/>
				</clipPath>
				<path clip-path="url(#SVGID_14_)" fill="#F8993C" d="M17.7,206.4h-204.9c-2.2,0-4-1.8-4-4V-11.9c0-2.2,1.8-4,4-4H17.7
					c2.2,0,4,1.8,4,4v214.3C21.7,204.6,19.9,206.4,17.7,206.4"/>
				<path clip-path="url(#SVGID_14_)" fill="#F12E58" d="M-24.8,143.7c0,0-64.7,28.6-66.7,29.3c-1.2,0.5-2.9,0.5-3.9,0
					c-1.1-0.5-68.4-29.5-68.4-29.5c-2-1.2-4-1.8-4-4V11c0-2.2,1.8-4,4-4h139.6c2.2,0,4,1.8,4,4v128.3
					C-20.2,141.6-22.7,142.4-24.8,143.7"/>
				<path clip-path="url(#SVGID_14_)" fill="#FFFFFF" d="M61.4-5.5c0,9.3-7.5,16.8-16.8,16.8c-9.3,0-16.8-7.5-16.8-16.8
					c0-9.3,7.5-16.8,16.8-16.8C53.9-22.3,61.4-14.8,61.4-5.5"/>
				<path clip-path="url(#SVGID_14_)" fill="#FFFFFF" d="M62.3,89.2c0,9.3-7.5,16.8-16.8,16.8c-9.3,0-16.8-7.5-16.8-16.8
					c0-9.3,7.5-16.8,16.8-16.8C54.7,72.4,62.3,80,62.3,89.2"/>
				<path clip-path="url(#SVGID_14_)" fill="#FFFFFF" d="M-217.8-6.4c0,9.3-7.5,16.8-16.8,16.8c-9.3,0-16.8-7.5-16.8-16.8
					c0-9.3,7.5-16.8,16.8-16.8C-225.3-23.2-217.8-15.6-217.8-6.4"/>
				<path clip-path="url(#SVGID_14_)" fill="#FFFFFF" d="M-217.8,89.2c0,9.3-7.5,16.8-16.8,16.8c-9.3,0-16.8-7.5-16.8-16.8
					c0-9.3,7.5-16.8,16.8-16.8C-225.3,72.4-217.8,80-217.8,89.2"/>
				<path clip-path="url(#SVGID_14_)" fill="#FFFFFF" d="M-217.8,183.1c0,9.3-7.5,16.8-16.8,16.8c-9.3,0-16.8-7.5-16.8-16.8
					s7.5-16.8,16.8-16.8C-225.3,166.3-217.8,173.9-217.8,183.1"/>
				<path clip-path="url(#SVGID_14_)" fill="#FFFFFF" d="M61.4,183.1c0,9.3-7.5,16.8-16.8,16.8c-9.3,0-16.8-7.5-16.8-16.8
					s7.5-16.8,16.8-16.8C53.9,166.3,61.4,173.9,61.4,183.1"/>
				<path clip-path="url(#SVGID_14_)" fill="#7CDACC" d="M-106.8,141.9c-0.6-0.2-1.2-0.4-1.8-0.4c0,0-35.1-8.6-35.2-8.7
					c-2.6-1-5.5,0.4-6.4,3c-0.9,2.6,0.2,5.5,2.9,6.4l34.6,15.4c4.4,1.6,9.3-0.6,10.9-4.9C-100.4,148.3-102.5,143.5-106.8,141.9"/>
				<path clip-path="url(#SVGID_14_)" fill="#7CDACC" d="M-81.8,141.9c0.6-0.2,1.2-0.4,1.8-0.4c0,0,35.1-8.6,35.2-8.7
					c2.6-1,5.5,0.4,6.4,3c0.9,2.6-0.2,5.5-2.9,6.4l-34.6,15.4c-4.4,1.6-9.3-0.6-10.9-4.9C-88.2,148.3-86.1,143.5-81.8,141.9"/>
				<path clip-path="url(#SVGID_14_)" fill="#FFCA45" d="M-123.7,97.8c3.4-13.5,6.6-33.6-9.4-33.6c-18.1,0-8.9,28.5-7,33.6H-123.7z"
					/>
				<path clip-path="url(#SVGID_14_)" fill="#FFCA45" d="M-43.5,112.4l0.3-18.4c0-0.4-0.3-0.7-0.8-0.7l7.8,0c0.4,0,0.8-0.4,0.8-0.8
					l0-14.7c0-0.4-0.4-0.8-0.8-0.8l-21.8,0c-0.4,0-0.8,0.4-0.8,0.8l0,14.7c0,0.4,0.4,0.8,0.8,0.8l7.8,0c-0.4,0-0.7,0.3-0.7,0.8
					l-0.5,18.3L-43.5,112.4z"/>
				<path clip-path="url(#SVGID_14_)" fill="#FFCA45" d="M-68.6,52.3c0,0-13.4-26.9-13.6-27.2c-0.2-0.3-0.8-0.4-1.2-0.1
					c-0.1,0.1-0.2,0.1-0.2,0.2l-13.7,27.1H-68.6z"/>
				<path clip-path="url(#SVGID_14_)" fill="#F8993C" d="M-174.2,238.4c0,3.3-2.7,6-6,6c-3.3,0-6-2.7-6-6s2.7-6,6-6
					C-176.9,232.4-174.2,235.1-174.2,238.4"/>
				<path clip-path="url(#SVGID_14_)" fill="#F8993C" d="M-174.2,258.7c0,3.3-2.7,6-6,6c-3.3,0-6-2.7-6-6c0-3.3,2.7-6,6-6
					C-176.9,252.7-174.2,255.4-174.2,258.7"/>
				<path clip-path="url(#SVGID_14_)" fill="#F8993C" d="M2.6,238.4c0,3.3-2.7,6-6,6c-3.3,0-6-2.7-6-6s2.7-6,6-6
					C-0.1,232.4,2.6,235.1,2.6,238.4"/>
			</g>
			<g clip-path="url(#SVGID_12_)">
				<defs>
					<rect id="SVGID_15_" x="-541.5" y="-77.3" width="846" height="423"/>
				</defs>
				<clipPath id="SVGID_16_">
					<use xlink:href="#SVGID_15_"  overflow="visible"/>
				</clipPath>
				
					<path clip-path="url(#SVGID_16_)" fill="none" stroke="#4A3E98" stroke-width="6.768" stroke-linecap="round" stroke-linejoin="round" stroke-miterlimit="10" d="
					M7.9,195.8H-197c-2.2,0-4-1.8-4-4V-22.5c0-2.2,1.8-4,4-4H7.9c2.2,0,4,1.8,4,4v214.3C11.9,194,10.1,195.8,7.9,195.8z"/>
				
					<path clip-path="url(#SVGID_16_)" fill="none" stroke="#4A3E98" stroke-width="6.768" stroke-linecap="round" stroke-linejoin="round" stroke-miterlimit="10" d="
					M8.3,294.9h-204.9c-2.2,0-4-1.8-4-4v-70.4c0-2.2,1.8-4,4-4H8.3c2.2,0,4,1.8,4,4v70.4C12.3,293.1,10.5,294.9,8.3,294.9z"/>
				
					<path clip-path="url(#SVGID_16_)" fill="none" stroke="#4A3E98" stroke-width="3.384" stroke-linecap="round" stroke-linejoin="round" stroke-miterlimit="10" d="
					M-25.3,143.7c0,0-64.7,28.6-66.7,29.3c-1.2,0.5-2.9,0.5-3.9,0c-1.1-0.5-68.4-29.5-68.4-29.5c-2-1.2-4-1.8-4-4V11
					c0-2.2,1.8-4,4-4h139.6c2.2,0,4,1.8,4,4v128.3C-20.7,141.6-23.3,142.4-25.3,143.7z"/>
				
					<circle clip-path="url(#SVGID_16_)" fill="none" stroke="#4A3E98" stroke-width="3.384" stroke-linecap="round" stroke-linejoin="round" stroke-miterlimit="10" cx="-230.3" cy="-9.8" r="16.8"/>
				
					<circle clip-path="url(#SVGID_16_)" fill="none" stroke="#4A3E98" stroke-width="3.384" stroke-linecap="round" stroke-linejoin="round" stroke-miterlimit="10" cx="-230.3" cy="84.6" r="16.8"/>
				
					<circle clip-path="url(#SVGID_16_)" fill="none" stroke="#4A3E98" stroke-width="3.384" stroke-linecap="round" stroke-linejoin="round" stroke-miterlimit="10" cx="-230.3" cy="179" r="16.8"/>
				
					<circle clip-path="url(#SVGID_16_)" fill="none" stroke="#4A3E98" stroke-width="3.384" stroke-linecap="round" stroke-linejoin="round" stroke-miterlimit="10" cx="40.8" cy="-9.8" r="16.8"/>
				
					<circle clip-path="url(#SVGID_16_)" fill="none" stroke="#4A3E98" stroke-width="3.384" stroke-linecap="round" stroke-linejoin="round" stroke-miterlimit="10" cx="40.8" cy="84.6" r="16.8"/>
				
					<circle clip-path="url(#SVGID_16_)" fill="none" stroke="#4A3E98" stroke-width="3.384" stroke-linecap="round" stroke-linejoin="round" stroke-miterlimit="10" cx="40.8" cy="179" r="16.8"/>
				
					<circle clip-path="url(#SVGID_16_)" fill="none" stroke="#4A3E98" stroke-width="3.384" stroke-linecap="round" stroke-linejoin="round" stroke-miterlimit="10" cx="-182.7" cy="236.2" r="6"/>
				
					<circle clip-path="url(#SVGID_16_)" fill="none" stroke="#4A3E98" stroke-width="3.384" stroke-linecap="round" stroke-linejoin="round" stroke-miterlimit="10" cx="-5.2" cy="236.2" r="6"/>
				
					<circle clip-path="url(#SVGID_16_)" fill="none" stroke="#4A3E98" stroke-width="3.384" stroke-linecap="round" stroke-linejoin="round" stroke-miterlimit="10" cx="-182.7" cy="256.1" r="6"/>
				
					<line clip-path="url(#SVGID_16_)" fill="none" stroke="#4A3E98" stroke-width="3.384" stroke-linecap="round" stroke-linejoin="round" stroke-miterlimit="10" x1="-172.7" y1="283.1" x2="-109.2" y2="283.1"/>
				
					<line clip-path="url(#SVGID_16_)" fill="none" stroke="#4A3E98" stroke-width="3.384" stroke-linecap="round" stroke-linejoin="round" stroke-miterlimit="10" x1="-99.1" y1="283.1" x2="-94" y2="283.1"/>
				
					<line clip-path="url(#SVGID_16_)" fill="none" stroke="#4A3E98" stroke-width="3.384" stroke-linecap="round" stroke-linejoin="round" stroke-miterlimit="10" x1="-83.8" y1="283.1" x2="-58.5" y2="283.1"/>
				
					<line clip-path="url(#SVGID_16_)" fill="none" stroke="#4A3E98" stroke-width="3.384" stroke-linecap="round" stroke-linejoin="round" stroke-miterlimit="10" x1="-48.3" y1="283.1" x2="-43.2" y2="283.1"/>
				
					<line clip-path="url(#SVGID_16_)" fill="none" stroke="#4A3E98" stroke-width="3.384" stroke-linecap="round" stroke-linejoin="round" stroke-miterlimit="10" x1="-26.3" y1="227.3" x2="-62.7" y2="227.3"/>
				
					<line clip-path="url(#SVGID_16_)" fill="none" stroke="#4A3E98" stroke-width="3.384" stroke-linecap="round" stroke-linejoin="round" stroke-miterlimit="10" x1="-73.7" y1="227.3" x2="-79.6" y2="227.3"/>
				
					<line clip-path="url(#SVGID_16_)" fill="none" stroke="#4A3E98" stroke-width="3.384" stroke-linecap="round" stroke-linejoin="round" stroke-miterlimit="10" x1="-89.8" y1="227.3" x2="-94" y2="227.3"/>
				
					<line clip-path="url(#SVGID_16_)" fill="none" stroke="#4A3E98" stroke-width="3.384" stroke-linecap="round" stroke-linejoin="round" stroke-miterlimit="10" x1="-188.8" y1="-13" x2="-188.8" y2="7.3"/>
				
					<line clip-path="url(#SVGID_16_)" fill="none" stroke="#4A3E98" stroke-width="3.384" stroke-linecap="round" stroke-linejoin="round" stroke-miterlimit="10" x1="-188.8" y1="15.8" x2="-188.8" y2="20"/>
				
					<line clip-path="url(#SVGID_16_)" fill="none" stroke="#4A3E98" stroke-width="3.384" stroke-linecap="round" stroke-linejoin="round" stroke-miterlimit="10" x1="-188.8" y1="26.8" x2="-188.8" y2="101.2"/>
				
					<line clip-path="url(#SVGID_16_)" fill="none" stroke="#4A3E98" stroke-width="3.384" stroke-linecap="round" stroke-linejoin="round" stroke-miterlimit="10" x1="-188.8" y1="110.5" x2="-188.8" y2="114.7"/>
				
					<line clip-path="url(#SVGID_16_)" fill="none" stroke="#4A3E98" stroke-width="3.384" stroke-linecap="round" stroke-linejoin="round" stroke-miterlimit="10" x1="-188.8" y1="124.9" x2="-188.8" y2="130.8"/>
				
					<line clip-path="url(#SVGID_16_)" fill="none" stroke="#4A3E98" stroke-width="3.384" stroke-linecap="round" stroke-linejoin="round" stroke-miterlimit="10" x1="-0.1" y1="183.3" x2="-0.1" y2="133.3"/>
				
					<line clip-path="url(#SVGID_16_)" fill="none" stroke="#4A3E98" stroke-width="3.384" stroke-linecap="round" stroke-linejoin="round" stroke-miterlimit="10" x1="-0.1" y1="124.9" x2="-0.1" y2="114.7"/>
				
					<line clip-path="url(#SVGID_16_)" fill="none" stroke="#4A3E98" stroke-width="3.384" stroke-linecap="round" stroke-linejoin="round" stroke-miterlimit="10" x1="-0.1" y1="84.3" x2="-0.1" y2="42.8"/>
				
					<line clip-path="url(#SVGID_16_)" fill="none" stroke="#4A3E98" stroke-width="3.384" stroke-linecap="round" stroke-linejoin="round" stroke-miterlimit="10" x1="-0.1" y1="33.5" x2="-0.1" y2="23.4"/>
				
					<line clip-path="url(#SVGID_16_)" fill="none" stroke="#4A3E98" stroke-width="3.384" stroke-linecap="round" stroke-linejoin="round" stroke-miterlimit="10" x1="-0.1" y1="12.4" x2="-0.1" y2="7.3"/>
				
					<path clip-path="url(#SVGID_16_)" fill="none" stroke="#4A3E98" stroke-width="3.9161" stroke-linecap="round" stroke-linejoin="round" stroke-miterlimit="10" d="
					M-107.7,138.5c-0.6-0.2-1.2-0.4-1.8-0.4c0,0-35.1-8.6-35.2-8.7c-2.6-1-5.5,0.4-6.4,3c-0.9,2.6,0.2,5.5,2.9,6.4l34.6,15.4
					c4.4,1.6,9.3-0.6,10.9-4.9C-101.2,144.9-103.3,140.1-107.7,138.5z"/>
				<path clip-path="url(#SVGID_16_)" fill="#4A3E98" d="M-145.5,135.3c-0.7,0.3-1.5,0-1.8-0.7c-0.3-0.7,0-1.5,0.7-1.8
					c0.7-0.3,1.5,0,1.8,0.7C-144.6,134.2-144.9,135-145.5,135.3"/>
				
					<path clip-path="url(#SVGID_16_)" fill="none" stroke="#4A3E98" stroke-width="3.9161" stroke-linecap="round" stroke-linejoin="round" stroke-miterlimit="10" d="
					M-80.9,138.5c0.6-0.2,1.2-0.4,1.8-0.4c0,0,35.1-8.6,35.2-8.7c2.6-1,5.5,0.4,6.4,3c0.9,2.6-0.2,5.5-2.9,6.4l-34.6,15.4
					c-4.4,1.6-9.3-0.6-10.9-4.9C-87.4,144.9-85.3,140.1-80.9,138.5z"/>
				<path clip-path="url(#SVGID_16_)" fill="#4A3E98" d="M-43.1,135.3c0.7,0.3,1.5,0,1.8-0.7c0.3-0.7,0-1.5-0.7-1.8
					c-0.7-0.3-1.5,0-1.8,0.7C-44,134.2-43.7,135-43.1,135.3"/>
				
					<path clip-path="url(#SVGID_16_)" fill="none" stroke="#4A3E98" stroke-width="3.384" stroke-linecap="round" stroke-linejoin="round" stroke-miterlimit="10" d="
					M-142.6,95.2c-1.8-5.2-11.1-33.6,7-33.6c16,0,12.8,20.1,9.4,33.6"/>
				
					<path clip-path="url(#SVGID_16_)" fill="none" stroke="#4A3E98" stroke-width="3.384" stroke-linecap="round" stroke-linejoin="round" stroke-miterlimit="10" d="
					M-46.1,109l0.3-18.4c0-0.4-0.3-0.7-0.8-0.7l7.8,0c0.4,0,0.8-0.4,0.8-0.8l0-14.7c0-0.4-0.4-0.8-0.8-0.8l-21.8,0
					c-0.4,0-0.8,0.4-0.8,0.8l0,14.7c0,0.4,0.4,0.8,0.8,0.8l7.8,0c-0.4,0-0.7,0.3-0.7,0.8l-0.5,18.3"/>
				
					<line clip-path="url(#SVGID_16_)" fill="none" stroke="#4A3E98" stroke-width="1.692" stroke-linecap="round" stroke-linejoin="round" stroke-miterlimit="10" x1="-55.8" y1="80.2" x2="-52.6" y2="80.2"/>
				
					<line clip-path="url(#SVGID_16_)" fill="none" stroke="#4A3E98" stroke-width="1.692" stroke-linecap="round" stroke-linejoin="round" stroke-miterlimit="10" x1="-46.9" y1="80.1" x2="-43.6" y2="80.2"/>
				
					<line clip-path="url(#SVGID_16_)" fill="none" stroke="#4A3E98" stroke-width="1.692" stroke-linecap="round" stroke-linejoin="round" stroke-miterlimit="10" x1="-139.7" y1="75" x2="-138.8" y2="75"/>
				
					<line clip-path="url(#SVGID_16_)" fill="none" stroke="#4A3E98" stroke-width="1.692" stroke-linecap="round" stroke-linejoin="round" stroke-miterlimit="10" x1="-130.4" y1="75" x2="-129.5" y2="75"/>
				
					<path clip-path="url(#SVGID_16_)" fill="none" stroke="#4A3E98" stroke-width="3.384" stroke-linecap="round" stroke-linejoin="round" stroke-miterlimit="10" d="
					M-98.5,47.8l13.7-27.1c0.1-0.1,0.1-0.2,0.2-0.2c0.4-0.2,1-0.2,1.2,0.1c0.2,0.3,13.6,27.2,13.6,27.2"/>
				
					<line clip-path="url(#SVGID_16_)" fill="none" stroke="#4A3E98" stroke-width="1.692" stroke-linecap="round" stroke-linejoin="round" stroke-miterlimit="10" x1="-85.5" y1="29.3" x2="-85.5" y2="32.7"/>
				
					<line clip-path="url(#SVGID_16_)" fill="none" stroke="#4A3E98" stroke-width="1.692" stroke-linecap="round" stroke-linejoin="round" stroke-miterlimit="10" x1="-83" y1="29.3" x2="-83" y2="32.7"/>
				
					<line clip-path="url(#SVGID_16_)" fill="none" stroke="#4A3E98" stroke-width="1.692" stroke-linecap="round" stroke-linejoin="round" stroke-miterlimit="10" x1="-143.9" y1="91.9" x2="-137.1" y2="91.9"/>
				
					<line clip-path="url(#SVGID_16_)" fill="none" stroke="#4A3E98" stroke-width="1.692" stroke-linecap="round" stroke-linejoin="round" stroke-miterlimit="10" x1="-143.1" y1="89.4" x2="-140.5" y2="89.4"/>
				
					<line clip-path="url(#SVGID_16_)" fill="none" stroke="#4A3E98" stroke-width="1.692" stroke-linecap="round" stroke-linejoin="round" stroke-miterlimit="10" x1="-124.5" y1="86" x2="-130.4" y2="86"/>
				
					<line clip-path="url(#SVGID_16_)" fill="none" stroke="#4A3E98" stroke-width="1.692" stroke-linecap="round" stroke-linejoin="round" stroke-miterlimit="10" x1="-132.9" y1="86" x2="-136.3" y2="86"/>
				
					<line clip-path="url(#SVGID_16_)" fill="none" stroke="#4A3E98" stroke-width="3.384" stroke-linecap="round" stroke-linejoin="round" stroke-miterlimit="10" x1="-147.3" y1="95.3" x2="-118.5" y2="95.3"/>
				
					<line clip-path="url(#SVGID_16_)" fill="none" stroke="#4A3E98" stroke-width="3.384" stroke-linecap="round" stroke-linejoin="round" stroke-miterlimit="10" x1="-58.5" y1="109.7" x2="-33.1" y2="109.7"/>
				
					<line clip-path="url(#SVGID_16_)" fill="none" stroke="#4A3E98" stroke-width="3.384" stroke-linecap="round" stroke-linejoin="round" stroke-miterlimit="10" x1="-100.8" y1="48.7" x2="-65.2" y2="48.7"/>
				
					<line clip-path="url(#SVGID_16_)" fill="none" stroke="#4A3E98" stroke-width="2.538" stroke-linecap="round" stroke-linejoin="round" stroke-miterlimit="10" x1="-105" y1="49.2" x2="-108.4" y2="49.2"/>
			</g>
		</g>
	</g>
	
		<path fill="#FFFFFF" stroke="#4A3E98" stroke-width="6" stroke-linecap="round" stroke-linejoin="round" stroke-miterlimit="10" d="
		M466,292.2l-11.9-66.7c-0.1-0.7,0.3-1.3,1-1.4l48.7-8.6c0.7-0.1,1.3,0.3,1.4,1l13.3,75.6C518.7,292.8,466,292.2,466,292.2z"/>
	<path fill="#4A3E98" d="M487.1,262.3c-0.1,0-0.2,0-0.4-0.1l-5.6-3.6c-0.1,0-0.1-0.1-0.2-0.2c-0.1-0.1-0.3-0.2-0.5-0.4
		c-0.2-0.2-0.5-0.4-0.7-0.6c-0.2-0.2-0.4-0.5-0.6-0.8c-0.2-0.3-0.3-0.7-0.4-1c-0.2-1.1-0.1-2,0.4-2.8c0.5-0.7,1.3-1.2,2.5-1.4
		c0.3-0.1,0.6-0.1,1,0c0.3,0,0.7,0.1,1,0.3c0.3,0.1,0.6,0.3,0.8,0.4c0.2,0.1,0.5,0.3,0.7,0.4c0.1-0.2,0.3-0.4,0.5-0.6
		c0.2-0.2,0.4-0.4,0.6-0.7c0.2-0.2,0.5-0.4,0.8-0.6c0.3-0.2,0.6-0.3,0.9-0.3c1.1-0.2,2.1-0.1,2.8,0.4c0.8,0.5,1.2,1.3,1.5,2.4
		c0.2,1.1-0.1,2.3-1.1,3.7l-3.8,5.4C487.4,262.2,487.3,262.3,487.1,262.3"/>
	
		<rect x="515.4" y="250.3" transform="matrix(0.8192 -0.5736 0.5736 0.8192 -52.3008 344.6757)" fill="#4A3E98" width="10" height="10"/>
	<path fill="#F12E58" d="M273.7,283.1h-29.1c-2.2,0-4-1.8-4-4v-3.2c0-2.2,1.8-4,4-4h29.1c2.2,0,4,1.8,4,4v3.2
		C277.7,281.3,275.9,283.1,273.7,283.1"/>
	<path fill="#F12E58" d="M295.6,293.7l-20.1-21.1c-1.5-1.6-1.4-4.1,0.1-5.6l2.3-2.2c1.6-1.5,4.1-1.4,5.6,0.1l20.1,21.1
		c1.5,1.6,1.4,4.1-0.1,5.6l-2.3,2.2C299.7,295.4,297.1,295.3,295.6,293.7"/>
	<path fill="none" stroke="#4A3E98" stroke-width="3" stroke-miterlimit="10" d="M270.4,290.5h-29.1c-2.2,0-4-1.8-4-4v-3.2
		c0-2.2,1.8-4,4-4h29.1c2.2,0,4,1.8,4,4v3.2C274.3,288.7,272.6,290.5,270.4,290.5z"/>
	<path fill="none" stroke="#4A3E98" stroke-width="3" stroke-miterlimit="10" d="M270.4,279.4h-29.1c-2.2,0-4-1.8-4-4v-3.2
		c0-2.2,1.8-4,4-4h29.1c2.2,0,4,1.8,4,4v3.2C274.3,277.6,272.6,279.4,270.4,279.4z"/>
	<path fill="none" stroke="#4A3E98" stroke-width="3" stroke-miterlimit="10" d="M270.4,268.3h-29.1c-2.2,0-4-1.8-4-4v-3.2
		c0-2.2,1.8-4,4-4h29.1c2.2,0,4,1.8,4,4v3.2C274.3,266.5,272.6,268.3,270.4,268.3z"/>
	<path fill="none" stroke="#4A3E98" stroke-width="3" stroke-miterlimit="10" d="M295.9,288.1l-20.4-20.8c-1.5-1.6-1.5-4.1,0.1-5.6
		l2.3-2.2c1.6-1.5,4.1-1.5,5.6,0.1l20.4,20.8c1.5,1.6,1.5,4.1-0.1,5.6l-2.3,2.2C299.9,289.7,297.4,289.7,295.9,288.1z"/>
	<line fill="none" stroke="#4A3E98" stroke-width="3" stroke-miterlimit="10" x1="244.3" y1="280.6" x2="244.3" y2="289.2"/>
	<line fill="none" stroke="#4A3E98" stroke-width="3" stroke-miterlimit="10" x1="251.7" y1="280.6" x2="251.7" y2="290.5"/>
	<line fill="none" stroke="#4A3E98" stroke-width="3" stroke-miterlimit="10" x1="259.1" y1="280.6" x2="259.1" y2="290.5"/>
	<line fill="none" stroke="#4A3E98" stroke-width="3" stroke-miterlimit="10" x1="266.5" y1="280.6" x2="266.5" y2="290.5"/>
	<line fill="none" stroke="#4A3E98" stroke-width="3" stroke-miterlimit="10" x1="244.3" y1="257.2" x2="244.3" y2="266.8"/>
	<line fill="none" stroke="#4A3E98" stroke-width="3" stroke-miterlimit="10" x1="251.7" y1="257.2" x2="251.7" y2="267"/>
	<line fill="none" stroke="#4A3E98" stroke-width="3" stroke-miterlimit="10" x1="259.1" y1="257.2" x2="259.1" y2="267"/>
	<line fill="none" stroke="#4A3E98" stroke-width="3" stroke-miterlimit="10" x1="266.5" y1="257.2" x2="266.5" y2="267"/>
</g>
</svg>
