<?xml version="1.0" encoding="utf-8"?>
<!-- Generator: Adobe Illustrator 18.1.1, SVG Export Plug-In . SVG Version: 6.00 Build 0)  -->
<svg version="1.1" id="Layer_1" xmlns="http://www.w3.org/2000/svg" xmlns:xlink="http://www.w3.org/1999/xlink" x="0px" y="0px"
	 viewBox="0 0 424 284" enable-background="new 0 0 424 284" xml:space="preserve">
<g>
	<g>
		<defs>
			<rect id="SVGID_1_" x="-164" y="-38.2" width="721.8" height="360.9"/>
		</defs>
		<clipPath id="SVGID_2_">
			<use xlink:href="#SVGID_1_"  overflow="visible"/>
		</clipPath>
		<g clip-path="url(#SVGID_2_)">
			<defs>
				<rect id="SVGID_3_" x="-164" y="-38.2" width="721.8" height="360.9"/>
			</defs>
			<clipPath id="SVGID_4_">
				<use xlink:href="#SVGID_3_"  overflow="visible"/>
			</clipPath>
			<path clip-path="url(#SVGID_4_)" fill="#F8993C" d="M313.1,203.9H138.4c-1.9,0-3.4-1.5-3.4-3.4V17.6c0-1.9,1.5-3.4,3.4-3.4h174.8
				c1.9,0,3.4,1.5,3.4,3.4v182.8C316.6,202.4,315,203.9,313.1,203.9"/>
			<path clip-path="url(#SVGID_4_)" fill="#F12E58" d="M276.8,150.3c0,0-55.2,24.4-56.9,25c-1,0.4-2.5,0.4-3.4,0
				c-0.9-0.4-58.3-25.2-58.3-25.2c-1.7-1.1-3.4-1.5-3.4-3.4V37.2c0-1.9,1.5-3.4,3.4-3.4h119.1c1.9,0,3.4,1.5,3.4,3.4v109.5
				C280.8,148.6,278.6,149.3,276.8,150.3"/>
			<path clip-path="url(#SVGID_4_)" fill="#7CDACC" d="M206.9,148.8c-0.5-0.2-1-0.3-1.5-0.4c0,0-29.9-7.3-30-7.4
				c-2.2-0.8-4.7,0.3-5.5,2.6c-0.8,2.2,0.2,4.7,2.4,5.5l29.5,13.1c3.8,1.4,7.9-0.5,9.3-4.2S210.6,150.2,206.9,148.8"/>
			<path clip-path="url(#SVGID_4_)" fill="#7CDACC" d="M228.2,148.8c0.5-0.2,1-0.3,1.5-0.4c0,0,29.9-7.3,30-7.4
				c2.2-0.8,4.7,0.3,5.5,2.6c0.8,2.2-0.2,4.7-2.4,5.5l-29.5,13.1c-3.8,1.4-7.9-0.5-9.3-4.2S224.5,150.2,228.2,148.8"/>
			<path clip-path="url(#SVGID_4_)" fill="#FFCA45" d="M192.5,111.2c2.9-11.5,5.7-28.6-8-28.6c-15.4,0-7.6,24.3-6,28.6H192.5z"/>
			<path clip-path="url(#SVGID_4_)" fill="#FFCA45" d="M260.9,123.7l0.2-15.7c0-0.4-0.3-0.6-0.6-0.6l6.6,0c0.4,0,0.7-0.3,0.7-0.7
				l0-12.5c0-0.4-0.3-0.7-0.7-0.7l-18.6,0c-0.4,0-0.7,0.3-0.7,0.7l0,12.5c0,0.4,0.3,0.7,0.7,0.7l6.6,0c-0.4,0-0.6,0.3-0.6,0.6
				l-0.4,15.6L260.9,123.7z"/>
			<path clip-path="url(#SVGID_4_)" fill="#FFCA45" d="M239.4,72.4c0,0-11.4-22.9-11.6-23.2c-0.2-0.3-0.6-0.3-1-0.1
				c-0.1,0-0.1,0.1-0.2,0.2l-11.7,23.1H239.4z"/>
			<path clip-path="url(#SVGID_4_)" fill="#7CDACC" d="M354.1,275.1h-17c-1.3,0-2.3-1-2.3-2.3v-1.9c0-1.3,1-2.3,2.3-2.3h17
				c1.3,0,2.3,1,2.3,2.3v1.9C356.4,274,355.4,275.1,354.1,275.1"/>
			<path clip-path="url(#SVGID_4_)" fill="#7CDACC" d="M366.9,281.3L355.2,269c-0.9-0.9-0.8-2.4,0.1-3.3l1.3-1.3
				c0.9-0.9,2.4-0.8,3.3,0.1l11.7,12.4c0.9,0.9,0.8,2.4-0.1,3.3l-1.3,1.3C369.3,282.3,367.8,282.2,366.9,281.3"/>
			<path clip-path="url(#SVGID_4_)" fill="#F8993C" d="M149.4,231.1c0,2.8-2.3,5.1-5.1,5.1c-2.8,0-5.1-2.3-5.1-5.1
				c0-2.8,2.3-5.1,5.1-5.1C147.1,226,149.4,228.3,149.4,231.1"/>
			<path clip-path="url(#SVGID_4_)" fill="#F8993C" d="M149.4,248.5c0,2.8-2.3,5.1-5.1,5.1c-2.8,0-5.1-2.3-5.1-5.1
				c0-2.8,2.3-5.1,5.1-5.1C147.1,243.3,149.4,245.6,149.4,248.5"/>
			<path clip-path="url(#SVGID_4_)" fill="#F8993C" d="M300.2,231.1c0,2.8-2.3,5.1-5.1,5.1c-2.8,0-5.1-2.3-5.1-5.1
				c0-2.8,2.3-5.1,5.1-5.1C297.9,226,300.2,228.3,300.2,231.1"/>
		</g>
		<g clip-path="url(#SVGID_2_)">
			<defs>
				<rect id="SVGID_5_" x="-164" y="-38.2" width="721.8" height="360.9"/>
			</defs>
			<clipPath id="SVGID_6_">
				<use xlink:href="#SVGID_5_"  overflow="visible"/>
			</clipPath>
			
				<path clip-path="url(#SVGID_6_)" fill="none" stroke="#4A3E98" stroke-width="5.7741" stroke-linecap="round" stroke-linejoin="round" stroke-miterlimit="10" d="
				M304.8,194.8H130c-1.9,0-3.4-1.5-3.4-3.4V8.5c0-1.9,1.5-3.4,3.4-3.4h174.8c1.9,0,3.4,1.5,3.4,3.4v182.8
				C308.2,193.3,306.6,194.8,304.8,194.8z"/>
			
				<path clip-path="url(#SVGID_6_)" fill="none" stroke="#4A3E98" stroke-width="5.7741" stroke-linecap="round" stroke-linejoin="round" stroke-miterlimit="10" d="
				M305.1,279.4H130.3c-1.9,0-3.4-1.5-3.4-3.4v-60c0-1.9,1.5-3.4,3.4-3.4h174.8c1.9,0,3.4,1.5,3.4,3.4v60
				C308.5,277.9,307,279.4,305.1,279.4z"/>
			
				<path clip-path="url(#SVGID_6_)" fill="none" stroke="#4A3E98" stroke-width="2.887" stroke-linecap="round" stroke-linejoin="round" stroke-miterlimit="10" d="
				M276.4,150.3c0,0-55.2,24.4-56.9,25c-1,0.4-2.5,0.4-3.4,0c-0.9-0.4-58.3-25.2-58.3-25.2c-1.7-1.1-3.4-1.5-3.4-3.4V37.2
				c0-1.9,1.5-3.4,3.4-3.4h119.1c1.9,0,3.4,1.5,3.4,3.4v109.5C280.3,148.6,278.2,149.3,276.4,150.3z"/>
			
				<circle clip-path="url(#SVGID_6_)" fill="none" stroke="#4A3E98" stroke-width="2.887" stroke-linecap="round" stroke-linejoin="round" stroke-miterlimit="10" cx="101.5" cy="19.4" r="14.3"/>
			
				<circle clip-path="url(#SVGID_6_)" fill="none" stroke="#4A3E98" stroke-width="2.887" stroke-linecap="round" stroke-linejoin="round" stroke-miterlimit="10" cx="101.5" cy="100" r="14.3"/>
			
				<circle clip-path="url(#SVGID_6_)" fill="none" stroke="#4A3E98" stroke-width="2.887" stroke-linecap="round" stroke-linejoin="round" stroke-miterlimit="10" cx="101.5" cy="180.5" r="14.3"/>
			
				<circle clip-path="url(#SVGID_6_)" fill="none" stroke="#4A3E98" stroke-width="2.887" stroke-linecap="round" stroke-linejoin="round" stroke-miterlimit="10" cx="332.8" cy="19.4" r="14.3"/>
			
				<circle clip-path="url(#SVGID_6_)" fill="none" stroke="#4A3E98" stroke-width="2.887" stroke-linecap="round" stroke-linejoin="round" stroke-miterlimit="10" cx="332.8" cy="100" r="14.3"/>
			
				<circle clip-path="url(#SVGID_6_)" fill="none" stroke="#4A3E98" stroke-width="2.887" stroke-linecap="round" stroke-linejoin="round" stroke-miterlimit="10" cx="332.8" cy="180.5" r="14.3"/>
			
				<circle clip-path="url(#SVGID_6_)" fill="none" stroke="#4A3E98" stroke-width="2.887" stroke-linecap="round" stroke-linejoin="round" stroke-miterlimit="10" cx="142.1" cy="229.2" r="5.1"/>
			
				<circle clip-path="url(#SVGID_6_)" fill="none" stroke="#4A3E98" stroke-width="2.887" stroke-linecap="round" stroke-linejoin="round" stroke-miterlimit="10" cx="293.6" cy="229.2" r="5.1"/>
			
				<circle clip-path="url(#SVGID_6_)" fill="none" stroke="#4A3E98" stroke-width="2.887" stroke-linecap="round" stroke-linejoin="round" stroke-miterlimit="10" cx="142.1" cy="246.3" r="5.1"/>
			
				<line clip-path="url(#SVGID_6_)" fill="none" stroke="#4A3E98" stroke-width="2.887" stroke-linecap="round" stroke-linejoin="round" stroke-miterlimit="10" x1="150.7" y1="269.3" x2="204.8" y2="269.3"/>
			
				<line clip-path="url(#SVGID_6_)" fill="none" stroke="#4A3E98" stroke-width="2.887" stroke-linecap="round" stroke-linejoin="round" stroke-miterlimit="10" x1="213.5" y1="269.3" x2="217.8" y2="269.3"/>
			
				<line clip-path="url(#SVGID_6_)" fill="none" stroke="#4A3E98" stroke-width="2.887" stroke-linecap="round" stroke-linejoin="round" stroke-miterlimit="10" x1="226.5" y1="269.3" x2="248.1" y2="269.3"/>
			
				<line clip-path="url(#SVGID_6_)" fill="none" stroke="#4A3E98" stroke-width="2.887" stroke-linecap="round" stroke-linejoin="round" stroke-miterlimit="10" x1="256.8" y1="269.3" x2="261.1" y2="269.3"/>
			
				<line clip-path="url(#SVGID_6_)" fill="none" stroke="#4A3E98" stroke-width="2.887" stroke-linecap="round" stroke-linejoin="round" stroke-miterlimit="10" x1="275.6" y1="221.6" x2="244.5" y2="221.6"/>
			
				<line clip-path="url(#SVGID_6_)" fill="none" stroke="#4A3E98" stroke-width="2.887" stroke-linecap="round" stroke-linejoin="round" stroke-miterlimit="10" x1="235.1" y1="221.6" x2="230.1" y2="221.6"/>
			
				<line clip-path="url(#SVGID_6_)" fill="none" stroke="#4A3E98" stroke-width="2.887" stroke-linecap="round" stroke-linejoin="round" stroke-miterlimit="10" x1="221.4" y1="221.6" x2="217.8" y2="221.6"/>
			
				<line clip-path="url(#SVGID_6_)" fill="none" stroke="#4A3E98" stroke-width="2.887" stroke-linecap="round" stroke-linejoin="round" stroke-miterlimit="10" x1="137" y1="16.7" x2="137" y2="34"/>
			
				<line clip-path="url(#SVGID_6_)" fill="none" stroke="#4A3E98" stroke-width="2.887" stroke-linecap="round" stroke-linejoin="round" stroke-miterlimit="10" x1="137" y1="41.2" x2="137" y2="44.8"/>
			
				<line clip-path="url(#SVGID_6_)" fill="none" stroke="#4A3E98" stroke-width="2.887" stroke-linecap="round" stroke-linejoin="round" stroke-miterlimit="10" x1="137" y1="50.6" x2="137" y2="114.1"/>
			
				<line clip-path="url(#SVGID_6_)" fill="none" stroke="#4A3E98" stroke-width="2.887" stroke-linecap="round" stroke-linejoin="round" stroke-miterlimit="10" x1="137" y1="122" x2="137" y2="125.7"/>
			
				<line clip-path="url(#SVGID_6_)" fill="none" stroke="#4A3E98" stroke-width="2.887" stroke-linecap="round" stroke-linejoin="round" stroke-miterlimit="10" x1="137" y1="134.3" x2="137" y2="139.4"/>
			
				<line clip-path="url(#SVGID_6_)" fill="none" stroke="#4A3E98" stroke-width="2.887" stroke-linecap="round" stroke-linejoin="round" stroke-miterlimit="10" x1="297.9" y1="184.1" x2="297.9" y2="141.5"/>
			
				<line clip-path="url(#SVGID_6_)" fill="none" stroke="#4A3E98" stroke-width="2.887" stroke-linecap="round" stroke-linejoin="round" stroke-miterlimit="10" x1="297.9" y1="134.3" x2="297.9" y2="125.7"/>
			
				<line clip-path="url(#SVGID_6_)" fill="none" stroke="#4A3E98" stroke-width="2.887" stroke-linecap="round" stroke-linejoin="round" stroke-miterlimit="10" x1="297.9" y1="99.7" x2="297.9" y2="64.3"/>
			
				<line clip-path="url(#SVGID_6_)" fill="none" stroke="#4A3E98" stroke-width="2.887" stroke-linecap="round" stroke-linejoin="round" stroke-miterlimit="10" x1="297.9" y1="56.4" x2="297.9" y2="47.7"/>
			
				<line clip-path="url(#SVGID_6_)" fill="none" stroke="#4A3E98" stroke-width="2.887" stroke-linecap="round" stroke-linejoin="round" stroke-miterlimit="10" x1="297.9" y1="38.3" x2="297.9" y2="34"/>
			
				<path clip-path="url(#SVGID_6_)" fill="none" stroke="#4A3E98" stroke-width="3.341" stroke-linecap="round" stroke-linejoin="round" stroke-miterlimit="10" d="
				M206.1,146c-0.5-0.2-1-0.3-1.5-0.4c0,0-29.9-7.3-30-7.4c-2.2-0.8-4.7,0.3-5.5,2.6c-0.8,2.2,0.2,4.7,2.4,5.5l29.5,13.1
				c3.8,1.4,7.9-0.5,9.3-4.2S209.9,147.3,206.1,146z"/>
			<path clip-path="url(#SVGID_6_)" fill="#4A3E98" d="M173.8,143.2c-0.6,0.3-1.3,0-1.6-0.6c-0.3-0.6,0-1.3,0.6-1.6
				c0.6-0.3,1.3,0,1.6,0.6C174.7,142.3,174.4,143,173.8,143.2"/>
			
				<path clip-path="url(#SVGID_6_)" fill="none" stroke="#4A3E98" stroke-width="3.341" stroke-linecap="round" stroke-linejoin="round" stroke-miterlimit="10" d="
				M229,146c0.5-0.2,1-0.3,1.5-0.4c0,0,29.9-7.3,30-7.4c2.2-0.8,4.7,0.3,5.5,2.6c0.8,2.2-0.2,4.7-2.4,5.5l-29.5,13.1
				c-3.8,1.4-7.9-0.5-9.3-4.2C223.5,151.4,225.2,147.3,229,146z"/>
			<path clip-path="url(#SVGID_6_)" fill="#4A3E98" d="M261.3,143.2c0.6,0.3,1.3,0,1.6-0.6c0.3-0.6,0-1.3-0.6-1.6
				c-0.6-0.3-1.3,0-1.6,0.6C260.4,142.3,260.7,143,261.3,143.2"/>
			<line clip-path="url(#SVGID_6_)" fill="#4A3E98" x1="8.5" y1="280.1" x2="372.3" y2="280.1"/>
			
				<line clip-path="url(#SVGID_6_)" fill="none" stroke="#4A3E98" stroke-width="4.3305" stroke-linecap="round" stroke-linejoin="round" stroke-miterlimit="10" x1="8.5" y1="280.1" x2="372.3" y2="280.1"/>
			
				<line clip-path="url(#SVGID_6_)" fill="none" stroke="#4A3E98" stroke-width="4.3305" stroke-linecap="round" stroke-linejoin="round" stroke-miterlimit="10" x1="385.3" y1="280.1" x2="416.3" y2="280.1"/>
			
				<path clip-path="url(#SVGID_6_)" fill="none" stroke="#4A3E98" stroke-width="2.887" stroke-linecap="round" stroke-linejoin="round" stroke-miterlimit="10" d="
				M176.3,109c-1.6-4.4-9.4-28.6,6-28.6c13.7,0,10.9,17.2,8,28.6"/>
			
				<path clip-path="url(#SVGID_6_)" fill="none" stroke="#4A3E98" stroke-width="2.887" stroke-linecap="round" stroke-linejoin="round" stroke-miterlimit="10" d="
				M258.7,120.8l0.2-15.7c0-0.4-0.3-0.6-0.6-0.6l6.6,0c0.4,0,0.7-0.3,0.7-0.7l0-12.5c0-0.4-0.3-0.7-0.7-0.7l-18.6,0
				c-0.4,0-0.7,0.3-0.7,0.7l0,12.5c0,0.4,0.3,0.7,0.7,0.7l6.6,0c-0.4,0-0.6,0.3-0.6,0.6l-0.4,15.6"/>
			
				<line clip-path="url(#SVGID_6_)" fill="none" stroke="#4A3E98" stroke-width="1.4435" stroke-linecap="round" stroke-linejoin="round" stroke-miterlimit="10" x1="250.4" y1="96.2" x2="253.1" y2="96.2"/>
			
				<line clip-path="url(#SVGID_6_)" fill="none" stroke="#4A3E98" stroke-width="1.4435" stroke-linecap="round" stroke-linejoin="round" stroke-miterlimit="10" x1="258" y1="96.1" x2="260.8" y2="96.2"/>
			
				<line clip-path="url(#SVGID_6_)" fill="none" stroke="#4A3E98" stroke-width="1.4435" stroke-linecap="round" stroke-linejoin="round" stroke-miterlimit="10" x1="178.8" y1="91.7" x2="179.6" y2="91.7"/>
			
				<line clip-path="url(#SVGID_6_)" fill="none" stroke="#4A3E98" stroke-width="1.4435" stroke-linecap="round" stroke-linejoin="round" stroke-miterlimit="10" x1="186.8" y1="91.7" x2="187.5" y2="91.7"/>
			
				<path clip-path="url(#SVGID_6_)" fill="none" stroke="#4A3E98" stroke-width="2.887" stroke-linecap="round" stroke-linejoin="round" stroke-miterlimit="10" d="
				M214,68.6l11.7-23.1c0-0.1,0.1-0.1,0.2-0.2c0.4-0.2,0.8-0.1,1,0.1c0.2,0.3,11.6,23.2,11.6,23.2"/>
			
				<line clip-path="url(#SVGID_6_)" fill="none" stroke="#4A3E98" stroke-width="1.4435" stroke-linecap="round" stroke-linejoin="round" stroke-miterlimit="10" x1="225" y1="52.8" x2="225" y2="55.6"/>
			
				<line clip-path="url(#SVGID_6_)" fill="none" stroke="#4A3E98" stroke-width="1.4435" stroke-linecap="round" stroke-linejoin="round" stroke-miterlimit="10" x1="227.2" y1="52.8" x2="227.2" y2="55.6"/>
			
				<line clip-path="url(#SVGID_6_)" fill="none" stroke="#4A3E98" stroke-width="1.4435" stroke-linecap="round" stroke-linejoin="round" stroke-miterlimit="10" x1="175.2" y1="106.2" x2="181" y2="106.2"/>
			
				<line clip-path="url(#SVGID_6_)" fill="none" stroke="#4A3E98" stroke-width="1.4435" stroke-linecap="round" stroke-linejoin="round" stroke-miterlimit="10" x1="176" y1="104" x2="178.1" y2="104"/>
			
				<line clip-path="url(#SVGID_6_)" fill="none" stroke="#4A3E98" stroke-width="1.4435" stroke-linecap="round" stroke-linejoin="round" stroke-miterlimit="10" x1="191.8" y1="101.1" x2="186.8" y2="101.1"/>
			
				<line clip-path="url(#SVGID_6_)" fill="none" stroke="#4A3E98" stroke-width="1.4435" stroke-linecap="round" stroke-linejoin="round" stroke-miterlimit="10" x1="184.6" y1="101.1" x2="181.7" y2="101.1"/>
			
				<line clip-path="url(#SVGID_6_)" fill="none" stroke="#4A3E98" stroke-width="2.887" stroke-linecap="round" stroke-linejoin="round" stroke-miterlimit="10" x1="172.3" y1="109.1" x2="196.9" y2="109.1"/>
			
				<line clip-path="url(#SVGID_6_)" fill="none" stroke="#4A3E98" stroke-width="2.887" stroke-linecap="round" stroke-linejoin="round" stroke-miterlimit="10" x1="248.1" y1="121.3" x2="269.8" y2="121.3"/>
			
				<line clip-path="url(#SVGID_6_)" fill="none" stroke="#4A3E98" stroke-width="2.887" stroke-linecap="round" stroke-linejoin="round" stroke-miterlimit="10" x1="212" y1="69.4" x2="242.4" y2="69.4"/>
			
				<line clip-path="url(#SVGID_6_)" fill="none" stroke="#4A3E98" stroke-width="2.1653" stroke-linecap="round" stroke-linejoin="round" stroke-miterlimit="10" x1="208.4" y1="69.7" x2="205.5" y2="69.7"/>
			
				<path clip-path="url(#SVGID_6_)" fill="none" stroke="#4A3E98" stroke-width="5.7741" stroke-linecap="round" stroke-linejoin="round" stroke-miterlimit="10" d="
				M53.2,279.5l-7.1-39.7c-0.1-0.4,0.2-0.8,0.6-0.8l29-5.1c0.4-0.1,0.8,0.2,0.8,0.6l7.9,45C84.5,279.9,53.2,279.5,53.2,279.5z"/>
			
				<path clip-path="url(#SVGID_6_)" fill="none" stroke="#4A3E98" stroke-width="2.887" stroke-linecap="round" stroke-linejoin="round" stroke-miterlimit="10" d="
				M84.4,279.3l10,0.7c0.3,0.1,0.6-0.2,0.7-0.5l6.6-36.5c0.1-0.3-0.2-0.6-0.5-0.7L77,238.1"/>
			<path clip-path="url(#SVGID_6_)" fill="#4A3E98" d="M65.7,261.8c-0.1,0-0.1,0-0.2,0l-3.3-2.1c0,0-0.1,0-0.1-0.1s-0.2-0.1-0.3-0.2
				c-0.1-0.1-0.3-0.2-0.4-0.4s-0.2-0.3-0.3-0.5s-0.2-0.4-0.2-0.6c-0.1-0.7,0-1.2,0.3-1.6c0.3-0.4,0.8-0.7,1.5-0.9c0.2,0,0.4,0,0.6,0
				c0.2,0,0.4,0.1,0.6,0.2c0.2,0.1,0.3,0.2,0.5,0.2c0.1,0.1,0.3,0.2,0.4,0.2c0.1-0.1,0.2-0.3,0.3-0.4c0.1-0.1,0.2-0.2,0.4-0.4
				c0.1-0.1,0.3-0.3,0.5-0.4c0.2-0.1,0.4-0.2,0.5-0.2c0.7-0.1,1.2,0,1.7,0.2c0.4,0.3,0.7,0.8,0.9,1.4c0.1,0.7-0.1,1.4-0.6,2.2
				l-2.3,3.2C65.8,261.7,65.8,261.7,65.7,261.8"/>
			
				<rect x="82.6" y="254.6" transform="matrix(0.8192 -0.5736 0.5736 0.8192 -132.2647 95.6358)" clip-path="url(#SVGID_6_)" fill="#4A3E98" width="5.9" height="5.9"/>
			<path clip-path="url(#SVGID_6_)" fill="none" stroke="#4A3E98" stroke-width="2.887" stroke-miterlimit="10" d="M352.1,279.4h-17
				c-1.3,0-2.3-1-2.3-2.3v-1.9c0-1.3,1-2.3,2.3-2.3h17c1.3,0,2.3,1,2.3,2.3v1.9C354.5,278.3,353.4,279.4,352.1,279.4z"/>
			<path clip-path="url(#SVGID_6_)" fill="none" stroke="#4A3E98" stroke-width="2.887" stroke-miterlimit="10" d="M352.1,272.9h-17
				c-1.3,0-2.3-1-2.3-2.3v-1.9c0-1.3,1-2.3,2.3-2.3h17c1.3,0,2.3,1,2.3,2.3v1.9C354.5,271.8,353.4,272.9,352.1,272.9z"/>
			<path clip-path="url(#SVGID_6_)" fill="none" stroke="#4A3E98" stroke-width="2.887" stroke-miterlimit="10" d="M352.1,266.4h-17
				c-1.3,0-2.3-1-2.3-2.3v-1.9c0-1.3,1-2.3,2.3-2.3h17c1.3,0,2.3,1,2.3,2.3v1.9C354.5,265.3,353.4,266.4,352.1,266.4z"/>
			<path clip-path="url(#SVGID_6_)" fill="none" stroke="#4A3E98" stroke-width="2.887" stroke-miterlimit="10" d="M367.1,278
				l-11.9-12.2c-0.9-0.9-0.9-2.4,0-3.3l1.3-1.3c0.9-0.9,2.4-0.9,3.3,0l11.9,12.2c0.9,0.9,0.9,2.4,0,3.3l-1.3,1.3
				C369.4,278.9,368,278.9,367.1,278z"/>
			
				<line clip-path="url(#SVGID_6_)" fill="none" stroke="#4A3E98" stroke-width="1.4435" stroke-miterlimit="10" x1="336.9" y1="273.6" x2="336.9" y2="278.7"/>
			
				<line clip-path="url(#SVGID_6_)" fill="none" stroke="#4A3E98" stroke-width="1.4435" stroke-miterlimit="10" x1="341.2" y1="273.6" x2="341.2" y2="279.4"/>
			
				<line clip-path="url(#SVGID_6_)" fill="none" stroke="#4A3E98" stroke-width="1.4435" stroke-miterlimit="10" x1="345.6" y1="273.6" x2="345.6" y2="279.4"/>
			
				<line clip-path="url(#SVGID_6_)" fill="none" stroke="#4A3E98" stroke-width="1.4435" stroke-miterlimit="10" x1="349.9" y1="273.6" x2="349.9" y2="279.4"/>
			
				<line clip-path="url(#SVGID_6_)" fill="none" stroke="#4A3E98" stroke-width="1.4435" stroke-miterlimit="10" x1="336.9" y1="259.9" x2="336.9" y2="265"/>
			
				<line clip-path="url(#SVGID_6_)" fill="none" stroke="#4A3E98" stroke-width="1.4435" stroke-miterlimit="10" x1="341.2" y1="259.9" x2="341.2" y2="265.7"/>
			
				<line clip-path="url(#SVGID_6_)" fill="none" stroke="#4A3E98" stroke-width="1.4435" stroke-miterlimit="10" x1="345.6" y1="259.9" x2="345.6" y2="265.7"/>
			
				<line clip-path="url(#SVGID_6_)" fill="none" stroke="#4A3E98" stroke-width="1.4435" stroke-miterlimit="10" x1="349.9" y1="259.9" x2="349.9" y2="265.7"/>
		</g>
	</g>
</g>
</svg>
