<?xml version="1.0" encoding="utf-8"?>
<!-- Generator: Adobe Illustrator 18.1.1, SVG Export Plug-In . SVG Version: 6.00 Build 0)  -->
<svg version="1.1" id="Layer_1" xmlns="http://www.w3.org/2000/svg" xmlns:xlink="http://www.w3.org/1999/xlink" x="0px" y="0px"
	 viewBox="0 0 300 170" enable-background="new 0 0 300 170" xml:space="preserve">
<path fill="#F12E58" d="M207.7,36.4h-105c-1.3,0-2.4-1.1-2.4-2.4V19.3c0-1.3,1.1-2.4,2.4-2.4h105c1.3,0,2.4,1.1,2.4,2.4V34
	C210.1,35.3,209,36.4,207.7,36.4z"/>
<g>
	<g>
		<path fill="#4A3E98" d="M194.1,163.7l-92.7-0.6l-0.7-0.2c-21.4-7.9-33.7-21.8-33.7-38.1c0-9.4,5.1-18.5,14.5-26
			c-9.3-7.5-14.4-16.6-14.4-26C67.1,58.5,78,45.6,98,37v-5.3c0-2.6,1.8-5.7,6.4-5.7h88.2c4.8,0,6.4,3.1,6.4,5.7v4.1
			c21,8.7,33.9,22.4,33.9,37c0,9.4-5.1,18.5-14.4,26c9.4,7.6,14.5,16.6,14.5,26c0,15.9-14.3,30.3-38.1,38.7L194.1,163.7z
			 M102.9,155.2l89.9,0.6c20.1-7.2,32.1-18.7,32.1-30.9c0-10.3-8.4-18-15.4-22.7l-5-3.3l5-3.3c7-4.7,15.4-12.4,15.4-22.7
			c0-11.7-11.7-23.2-31.3-30.5l-2.7-1V34h-85v8.4l-2.4,1c-18.1,7.3-28.4,18-28.4,29.4c0,10.4,8.4,18.1,15.4,22.7l5,3.3l-5,3.3
			c-10,6.6-15.5,14.7-15.5,22.7C75.1,137.7,84.9,148.4,102.9,155.2z"/>
	</g>
	<g>
		<path fill="#4A3E98" d="M135.1,142h-60c-1.1,0-2-0.9-2-2s0.9-2,2-2h60c1.1,0,2,0.9,2,2S136.2,142,135.1,142z"/>
	</g>
	<g>
		<path fill="#4A3E98" d="M158.1,142h-16c-1.1,0-2-0.9-2-2s0.9-2,2-2h16c1.1,0,2,0.9,2,2S159.2,142,158.1,142z"/>
	</g>
	<g>
		<path fill="#4A3E98" d="M87.1,133h-15c-1.1,0-2-0.9-2-2s0.9-2,2-2h15c1.1,0,2,0.9,2,2S88.2,133,87.1,133z"/>
	</g>
	<g>
		<path fill="#4A3E98" d="M101.1,133h-7c-1.1,0-2-0.9-2-2s0.9-2,2-2h7c1.1,0,2,0.9,2,2S102.2,133,101.1,133z"/>
	</g>
	<g>
		<path fill="#4A3E98" d="M228.1,82h-53c-1.1,0-2-0.9-2-2s0.9-2,2-2h53c1.1,0,2,0.9,2,2S229.2,82,228.1,82z"/>
	</g>
	<g>
		<path fill="#4A3E98" d="M228.1,74h-18c-1.1,0-2-0.9-2-2s0.9-2,2-2h18c1.1,0,2,0.9,2,2S229.2,74,228.1,74z"/>
	</g>
	<g>
		<path fill="#4A3E98" d="M205.1,74h-17c-1.1,0-2-0.9-2-2s0.9-2,2-2h17c1.1,0,2,0.9,2,2S206.2,74,205.1,74z"/>
	</g>
	<g>
		<path fill="#4A3E98" d="M106.1,24h-10c-1.1,0-2-0.9-2-2s0.9-2,2-2h10c1.1,0,2,0.9,2,2S107.2,24,106.1,24z"/>
	</g>
	<g>
		<path fill="#4A3E98" d="M115.1,19h-20c-1.1,0-2-0.9-2-2s0.9-2,2-2h20c1.1,0,2,0.9,2,2S116.2,19,115.1,19z"/>
	</g>
	<g>
		<path fill="#4A3E98" d="M205.1,23h-15c-1.1,0-2-0.9-2-2s0.9-2,2-2h15c1.1,0,2,0.9,2,2S206.2,23,205.1,23z"/>
	</g>
	<g>
		<path fill="#4A3E98" d="M184.1,23h-7c-1.1,0-2-0.9-2-2s0.9-2,2-2h7c1.1,0,2,0.9,2,2S185.2,23,184.1,23z"/>
	</g>
	<g>
		<path fill="#4A3E98" d="M202.5,33.2h-105c-3.5,0-6.4-2.9-6.4-6.4V12.1c0-3.5,2.9-6.4,6.4-6.4h105c3.5,0,6.4,2.9,6.4,6.4v14.7
			C208.9,30.3,206.1,33.2,202.5,33.2z M99.2,25.2h101.8V13.7H99.2V25.2z"/>
	</g>
</g>
</svg>
