<?xml version="1.0" encoding="utf-8"?>
<!-- Generator: Adobe Illustrator 18.1.1, SVG Export Plug-In . SVG Version: 6.00 Build 0)  -->
<svg version="1.1" id="Layer_1" xmlns="http://www.w3.org/2000/svg" xmlns:xlink="http://www.w3.org/1999/xlink" x="0px" y="0px"
	 viewBox="0 0 300 170" enable-background="new 0 0 300 170" xml:space="preserve">
<path fill="#F8993C" d="M211.8,157h-109c-2.8,0-5-2.2-5-5V53c0-2.8,2.2-5,5-5h109c2.8,0,5,2.2,5,5v99
	C216.8,154.8,214.6,157,211.8,157z"/>
<g>
	<path fill="#4A3E98" d="M75.3,163.2c-2.2,0-4-1.8-4-4s1.8-4,4-4c6.7,0,11-3.3,11-5.5v-131c0-2.2-4.3-5.5-11-5.5c-2.2,0-4-1.8-4-4
		s1.8-4,4-4c10.6,0,19,5.9,19,13.5v131C94.3,157.3,85.9,163.2,75.3,163.2z"/>
</g>
<g>
	<path fill="#4A3E98" d="M224.7,163.2c-10.6,0-19-5.9-19-13.5v-131c0-7.6,8.3-13.5,19-13.5c2.2,0,4,1.8,4,4s-1.8,4-4,4
		c-6.7,0-11,3.3-11,5.5v131c0,2.2,4.3,5.5,11,5.5c2.2,0,4,1.8,4,4S226.9,163.2,224.7,163.2z"/>
</g>
<g>
	<path fill="#4A3E98" d="M210,43H91c-1.1,0-2-0.9-2-2s0.9-2,2-2h119c1.1,0,2,0.9,2,2S211.1,43,210,43z"/>
</g>
<g>
	<path fill="#4A3E98" d="M210,152H91c-1.1,0-2-0.9-2-2s0.9-2,2-2h119c1.1,0,2,0.9,2,2S211.1,152,210,152z"/>
</g>
<g>
	<path fill="#4A3E98" d="M127,60H91c-1.1,0-2-0.9-2-2s0.9-2,2-2h36c1.1,0,2,0.9,2,2S128.1,60,127,60z"/>
</g>
<g>
	<path fill="#4A3E98" d="M146,60h-12c-1.1,0-2-0.9-2-2s0.9-2,2-2h12c1.1,0,2,0.9,2,2S147.1,60,146,60z"/>
</g>
<g>
	<path fill="#4A3E98" d="M112,72H91c-1.1,0-2-0.9-2-2s0.9-2,2-2h21c1.1,0,2,0.9,2,2S113.1,72,112,72z"/>
</g>
<g>
	<path fill="#4A3E98" d="M210,110h-32c-1.1,0-2-0.9-2-2s0.9-2,2-2h32c1.1,0,2,0.9,2,2S211.1,110,210,110z"/>
</g>
<g>
	<path fill="#4A3E98" d="M210,121h-60c-1.1,0-2-0.9-2-2s0.9-2,2-2h60c1.1,0,2,0.9,2,2S211.1,121,210,121z"/>
</g>
<g>
	<path fill="#4A3E98" d="M140,121h-13c-1.1,0-2-0.9-2-2s0.9-2,2-2h13c1.1,0,2,0.9,2,2S141.1,121,140,121z"/>
</g>
</svg>
