<?xml version="1.0" encoding="utf-8"?>
<!-- Generator: Adobe Illustrator 18.1.1, SVG Export Plug-In . SVG Version: 6.00 Build 0)  -->
<svg version="1.1" id="Layer_1" xmlns="http://www.w3.org/2000/svg" xmlns:xlink="http://www.w3.org/1999/xlink" x="0px" y="0px"
	 viewBox="0 0 300 170" enable-background="new 0 0 300 170" xml:space="preserve">
<g>
	<g>
		<path fill="#4A3E98" d="M75.9,164.1c-2.2,0-4-1.8-4-4s1.8-4,4-4c6.7,0,11-3.3,11-5.5v-11.1c0-2.2,1.8-4,4-4s4,1.8,4,4v11.1
			C94.8,158.2,86.5,164.1,75.9,164.1z"/>
	</g>
	<g>
		<path fill="#4A3E98" d="M90.8,122.6c-1.3,0-2.4-1.1-2.4-2.4v-66c0-1.3,1.1-2.4,2.4-2.4s2.4,1.1,2.4,2.4v66
			C93.2,121.5,92.1,122.6,90.8,122.6z"/>
	</g>
	<g>
		<path fill="#4A3E98" d="M90.8,39.2c-2.2,0-4-1.8-4-4V19.6c0-2.2-4.3-5.5-11-5.5c-2.2,0-4-1.8-4-4s1.8-4,4-4c10.6,0,19,5.9,19,13.5
			v15.6C94.8,37.4,93,39.2,90.8,39.2z"/>
	</g>
	<path fill="#F12E58" d="M225.4,44.7L225.4,44.7c0,5.2-4.3,9.5-9.5,9.5H85c-5.2,0-9.5-4.3-9.5-9.5v0c0-5.2,4.3-9.5,9.5-9.5h131
		C221.2,35.2,225.4,39.5,225.4,44.7z"/>
	<path fill="#F12E58" d="M224.6,129.6L224.6,129.6c0,5.2-4.3,9.5-9.5,9.5h-131c-5.2,0-9.5-4.3-9.5-9.5v0c0-5.2,4.3-9.5,9.5-9.5h131
		C220.3,120.1,224.6,124.4,224.6,129.6z"/>
	<g>
		<path fill="#4A3E98" d="M108.8,164.1h-6c-8.8,0-15.9-7.1-15.9-15.9v-8.7c0-2.2,1.8-4,4-4s4,1.8,4,4v8.7c0,4.4,3.6,7.9,7.9,7.9h6
			c4.4,0,7.9-3.6,7.9-7.9v-9c0-2.2,1.8-4,4-4s4,1.8,4,4v9C124.7,157,117.6,164.1,108.8,164.1z"/>
	</g>
	<g>
		<path fill="#4A3E98" d="M120.7,122.5c-1.3,0-2.4-1.1-2.4-2.4V54.2c0-1.3,1.1-2.4,2.4-2.4s2.4,1.1,2.4,2.4v65.9
			C123.1,121.4,122,122.5,120.7,122.5z"/>
	</g>
	<g>
		<path fill="#4A3E98" d="M120.7,39.2c-2.2,0-4-1.8-4-4V22c0-4.4-3.6-7.9-7.9-7.9h-6c-4.4,0-7.9,3.6-7.9,7.9v13.1c0,2.2-1.8,4-4,4
			s-4-1.8-4-4V22c0-8.8,7.1-15.9,15.9-15.9h6c8.8,0,15.9,7.1,15.9,15.9v13.1C124.7,37.4,122.9,39.2,120.7,39.2z"/>
	</g>
	<g>
		<path fill="#4A3E98" d="M90.8,124.2c-2.2,0-4-1.8-4-4v-66c0-2.2,1.8-4,4-4s4,1.8,4,4v66C94.8,122.4,93,124.2,90.8,124.2z"/>
	</g>
	<g>
		<path fill="#4A3E98" d="M120.6,124.1c-2.2,0-4-1.8-4-4V54.2c0-2.2,1.8-4,4-4s4,1.8,4,4v65.9C124.6,122.3,122.8,124.1,120.6,124.1z
			"/>
	</g>
	<g>
		<path fill="#4A3E98" d="M138.6,164.1h-6c-8.8,0-15.9-7.1-15.9-15.9V141c0-2.2,1.8-4,4-4s4,1.8,4,4v7.2c0,4.4,3.6,7.9,7.9,7.9h6
			c4.4,0,7.9-3.6,7.9-7.9v-6.8c0-2.2,1.8-4,4-4c2.2,0,4,1.8,4,4v6.8C154.5,157,147.3,164.1,138.6,164.1z"/>
	</g>
	<g>
		<path fill="#4A3E98" d="M150.5,122.5c-1.3,0-2.4-1.1-2.4-2.4V56.3c0-1.3,1.1-2.4,2.4-2.4s2.4,1.1,2.4,2.4v63.8
			C152.8,121.4,151.8,122.5,150.5,122.5z"/>
	</g>
	<g>
		<path fill="#4A3E98" d="M120.6,39.2c-2.2,0-4-1.8-4-4V22c0-8.8,7.1-15.9,15.9-15.9h6c8.8,0,15.9,7.1,15.9,15.9v10.5
			c0,2.2-1.8,4-4,4c-2.2,0-4-1.8-4-4V22c0-4.4-3.6-7.9-7.9-7.9h-6c-4.4,0-7.9,3.6-7.9,7.9v13.1C124.6,37.4,122.8,39.2,120.6,39.2z"
			/>
	</g>
	<g>
		<path fill="#4A3E98" d="M150.5,124.1c-2.2,0-4-1.8-4-4V54.2c0-2.2,1.8-4,4-4c2.2,0,4,1.8,4,4v65.9
			C154.5,122.3,152.7,124.1,150.5,124.1z"/>
	</g>
	<g>
		<path fill="#4A3E98" d="M168.5,164.1h-6c-8.8,0-15.9-7.1-15.9-15.9v-9c0-2.2,1.8-4,4-4c2.2,0,4,1.8,4,4v9c0,4.4,3.6,7.9,7.9,7.9h6
			c4.4,0,7.9-3.6,7.9-7.9v-9c0-2.2,1.8-4,4-4s4,1.8,4,4v9C184.4,157,177.2,164.1,168.5,164.1z"/>
	</g>
	<g>
		<path fill="#4A3E98" d="M180.4,122.5c-1.3,0-2.4-1.1-2.4-2.4V54.2c0-1.3,1.1-2.4,2.4-2.4s2.4,1.1,2.4,2.4v65.9
			C182.7,121.4,181.7,122.5,180.4,122.5z"/>
	</g>
	<g>
		<path fill="#4A3E98" d="M180.4,39.2c-2.2,0-4-1.8-4-4V22c0-4.4-3.6-7.9-7.9-7.9h-6c-4.4,0-7.9,3.6-7.9,7.9v13.1c0,2.2-1.8,4-4,4
			c-2.2,0-4-1.8-4-4V22c0-8.8,7.1-15.9,15.9-15.9h6c8.8,0,15.9,7.1,15.9,15.9v13.1C184.4,37.4,182.6,39.2,180.4,39.2z"/>
	</g>
	<g>
		<path fill="#4A3E98" d="M198.4,164.1h-6c-8.8,0-15.9-7.1-15.9-15.9v-9c0-2.2,1.8-4,4-4s4,1.8,4,4v9c0,4.4,3.6,7.9,7.9,7.9h6
			c4.4,0,7.9-3.6,7.9-7.9v-9c0-2.2,1.8-4,4-4s4,1.8,4,4v9C214.3,157,207.1,164.1,198.4,164.1z"/>
	</g>
	<g>
		<path fill="#4A3E98" d="M210.3,123c-1.3,0-2.4-1.1-2.4-2.4V54.2c0-1.3,1.1-2.4,2.4-2.4s2.4,1.1,2.4,2.4v66.4
			C212.6,121.9,211.6,123,210.3,123z"/>
	</g>
	<g>
		<path fill="#4A3E98" d="M210.3,39.2c-2.2,0-4-1.8-4-4V22c0-4.4-3.6-7.9-7.9-7.9h-6c-4.4,0-7.9,3.6-7.9,7.9v13.1c0,2.2-1.8,4-4,4
			s-4-1.8-4-4V22c0-8.8,7.1-15.9,15.9-15.9h6c8.8,0,15.9,7.1,15.9,15.9v13.1C214.3,37.4,212.5,39.2,210.3,39.2z"/>
	</g>
	<g>
		<path fill="#4A3E98" d="M180.4,124.1c-2.2,0-4-1.8-4-4V54.2c0-2.2,1.8-4,4-4s4,1.8,4,4v65.9C184.4,122.3,182.6,124.1,180.4,124.1z
			"/>
	</g>
	<g>
		<path fill="#4A3E98" d="M210.3,39.2c-2.2,0-4-1.8-4-4V19.6c0-7.6,8.3-13.5,19-13.5c2.2,0,4,1.8,4,4s-1.8,4-4,4
			c-6.7,0-11,3.3-11,5.5v15.6C214.3,37.4,212.5,39.2,210.3,39.2z"/>
	</g>
	<g>
		<path fill="#4A3E98" d="M210.3,124.6c-2.2,0-4-1.8-4-4V54.2c0-2.2,1.8-4,4-4s4,1.8,4,4v66.4C214.3,122.8,212.5,124.6,210.3,124.6z
			"/>
	</g>
	<g>
		<path fill="#4A3E98" d="M225.2,164.1c-10.6,0-19-5.9-19-13.5v-11.4c0-2.2,1.8-4,4-4s4,1.8,4,4v11.4c0,2.2,4.3,5.5,11,5.5
			c2.2,0,4,1.8,4,4S227.5,164.1,225.2,164.1z"/>
	</g>
	<g>
		<path fill="#4A3E98" d="M98,89c-1.1,0-2-0.9-2-2V65c0-1.1,0.9-2,2-2s2,0.9,2,2v22C100,88.1,99.1,89,98,89z"/>
	</g>
	<g>
		<path fill="#4A3E98" d="M98,107c-1.1,0-2-0.9-2-2v-9c0-1.1,0.9-2,2-2s2,0.9,2,2v9C100,106.1,99.1,107,98,107z"/>
	</g>
	<g>
		<path fill="#4A3E98" d="M141,152c-1.1,0-2-0.9-2-2v-5c0-1.1,0.9-2,2-2s2,0.9,2,2v5C143,151.1,142.1,152,141,152z"/>
	</g>
	<g>
		<path fill="#4A3E98" d="M141,118c-1.1,0-2-0.9-2-2V87c0-1.1,0.9-2,2-2s2,0.9,2,2v29C143,117.1,142.1,118,141,118z"/>
	</g>
	<g>
		<path fill="#4A3E98" d="M141,82c-1.1,0-2-0.9-2-2v-6c0-1.1,0.9-2,2-2s2,0.9,2,2v6C143,81.1,142.1,82,141,82z"/>
	</g>
	<g>
		<path fill="#4A3E98" d="M158,107c-1.1,0-2-0.9-2-2V91c0-1.1,0.9-2,2-2s2,0.9,2,2v14C160,106.1,159.1,107,158,107z"/>
	</g>
	<g>
		<path fill="#4A3E98" d="M158,86c-1.1,0-2-0.9-2-2v-4c0-1.1,0.9-2,2-2s2,0.9,2,2v4C160,85.1,159.1,86,158,86z"/>
	</g>
	<g>
		<path fill="#4A3E98" d="M171,78c-1.1,0-2-0.9-2-2V59c0-1.1,0.9-2,2-2s2,0.9,2,2v17C173,77.1,172.1,78,171,78z"/>
	</g>
	<g>
		<path fill="#4A3E98" d="M171,93c-1.1,0-2-0.9-2-2v-9c0-1.1,0.9-2,2-2s2,0.9,2,2v9C173,92.1,172.1,93,171,93z"/>
	</g>
	<g>
		<path fill="#4A3E98" d="M188,67c-1.1,0-2-0.9-2-2v-6c0-1.1,0.9-2,2-2s2,0.9,2,2v6C190,66.1,189.1,67,188,67z"/>
	</g>
	<g>
		<path fill="#4A3E98" d="M188,93c-1.1,0-2-0.9-2-2V70c0-1.1,0.9-2,2-2s2,0.9,2,2v21C190,92.1,189.1,93,188,93z"/>
	</g>
	<g>
		<path fill="#4A3E98" d="M188,104c-1.1,0-2-0.9-2-2v-6c0-1.1,0.9-2,2-2s2,0.9,2,2v6C190,103.1,189.1,104,188,104z"/>
	</g>
	<g>
		<path fill="#4A3E98" d="M201,75c-1.1,0-2-0.9-2-2v-5c0-1.1,0.9-2,2-2s2,0.9,2,2v5C203,74.1,202.1,75,201,75z"/>
	</g>
	<g>
		<path fill="#4A3E98" d="M201,101c-1.1,0-2-0.9-2-2V81c0-1.1,0.9-2,2-2s2,0.9,2,2v18C203,100.1,202.1,101,201,101z"/>
	</g>
	<g>
		<path fill="#4A3E98" d="M188,32c-1.1,0-2-0.9-2-2v-7c0-1.1,0.9-2,2-2s2,0.9,2,2v7C190,31.1,189.1,32,188,32z"/>
	</g>
</g>
</svg>
