<?xml version="1.0" encoding="utf-8"?>
<!-- Generator: Adobe Illustrator 18.1.1, SVG Export Plug-In . SVG Version: 6.00 Build 0)  -->
<svg version="1.1" id="Layer_1" xmlns="http://www.w3.org/2000/svg" xmlns:xlink="http://www.w3.org/1999/xlink" x="0px" y="0px"
	 viewBox="0 0 300 170" enable-background="new 0 0 300 170" xml:space="preserve">
<g>
	<path fill="#F8993C" d="M224.5,81.3H82.3c-1.2,0-2.1-1-2.1-2.1v-8.2c0-1.2,1-2.1,2.1-2.1h142.1c1.2,0,2.1,1,2.1,2.1v8.2
		C226.6,80.3,225.6,81.3,224.5,81.3z"/>
	<g>
		<path fill="#4A3E98" d="M197.2,111.1h-95.6c-4.3,0-5.8-3.4-6.7-5.4c0-0.1-0.1-0.1-0.1-0.2L83.7,77.9c-0.2-0.5-0.3-1-0.3-1.5
			c0-2.5,1.6-5.3,6-5.3c0.3,0,0.7,0,1.1,0c0.2,0,0.5,0,0.7,0h117.2c2.3,0,7.6,0.6,7.6,5.8c0,0.5-0.1,1.1-0.3,1.6l-11.7,27.1
			C203.4,106.9,201.7,111.1,197.2,111.1z M102.5,103.1h93.8c0.1-0.2,0.2-0.4,0.3-0.6l10.1-23.4H92.8l9.4,23.3
			C102.3,102.7,102.4,102.9,102.5,103.1z"/>
	</g>
	<g>
		<path fill="#4A3E98" d="M122,90H91c-1.1,0-2-0.9-2-2s0.9-2,2-2h31c1.1,0,2,0.9,2,2S123.1,90,122,90z"/>
	</g>
	<g>
		<path fill="#4A3E98" d="M136,90h-7c-1.1,0-2-0.9-2-2s0.9-2,2-2h7c1.1,0,2,0.9,2,2S137.1,90,136,90z"/>
	</g>
	<g>
		<path fill="#4A3E98" d="M202,102h-19c-1.1,0-2-0.9-2-2s0.9-2,2-2h19c1.1,0,2,0.9,2,2S203.1,102,202,102z"/>
	</g>
	<g>
		<path fill="#4A3E98" d="M204,97h-31c-1.1,0-2-0.9-2-2s0.9-2,2-2h31c1.1,0,2,0.9,2,2S205.1,97,204,97z"/>
	</g>
	<g>
		<path fill="#4A3E98" d="M220.8,79.1H78.7c-3.4,0-6.1-2.7-6.1-6.1v-8.2c0-3.4,2.7-6.1,6.1-6.1h142.1c3.4,0,6.1,2.7,6.1,6.1V73
			C226.9,76.4,224.2,79.1,220.8,79.1z M80.6,71.1h138.4v-4.4H80.6V71.1z"/>
	</g>
</g>
</svg>
