<?xml version="1.0" encoding="utf-8"?>
<!-- Generator: Adobe Illustrator 18.1.1, SVG Export Plug-In . SVG Version: 6.00 Build 0)  -->
<svg version="1.1" id="Layer_1" xmlns="http://www.w3.org/2000/svg" xmlns:xlink="http://www.w3.org/1999/xlink" x="0px" y="0px"
	 viewBox="0 0 300 170" enable-background="new 0 0 300 170" xml:space="preserve">
<g>
	<path fill="#F12E58" d="M219.6,139.2c0-3.9-3.4-7-7.2-7c-0.4,0-0.4,0-1.4,0.1V44.9c6-0.1,10.9-5,10.9-10.9c0-6-4.8-10.6-10.8-10.6
		c-5.8,0-10.5,4.7-10.8,10.7h-84.9c0,0,0-0.7,0-0.9c0-3.4-2.7-6.2-6.1-6.2c-1.2,0-2.3,0.3-3.3,0.9c-1.7-1.4-3.9-2.3-6.2-2.3
		c-5.3,0-9.8,4.3-9.8,9.6c0,4.8,2.8,8.7,7.8,9.5v93.6c0,0,0.1,0,0.1,0c-6,0-10.8,4.9-10.8,10.9s4.9,11.2,10.9,11.2
		c5.9,0,10.8-5.3,10.9-10.3h93c0.2,5,4.3,8.6,9.3,8.6c5.2,0,9.3-4.3,9.3-9.5c0-2.3-0.8-4.5-2.2-6.1
		C219.3,141.9,219.6,140.6,219.6,139.2z"/>
	<g>
		<path fill="#4A3E98" d="M88.2,151.2c-8.1,0-15-7-15-15.2c0-6.8,4.5-12.5,10.7-14.3V34.3c-4.6-2.3-7.8-7.2-7.8-12.3
			c0-7.5,6.2-13.6,13.9-13.6c2.4,0,4.7,0.6,6.7,1.8c0.9-0.2,1.8-0.3,2.8-0.3c4.5,0,8.3,3,9.6,7.2h78c1.9-6.2,7.5-10.7,14.1-10.7
			c8.3,0,14.8,6.4,14.8,14.6c0,6.7-4.7,12.5-11,14.3v80.3c4.9,1.2,8.7,5.6,8.7,10.7c0,1.1-0.2,2.3-0.5,3.4c1.1,2,1.7,4.2,1.7,6.6
			c0,7.4-6,13.5-13.3,13.5c-5.9,0-10.8-3.5-12.6-8.6h-86.5C100.4,146.8,94.6,151.2,88.2,151.2z M92,124.2c0.1,0.3,0.1,0.6,0.1,0.9
			c0,1.9-1.5,4-4,4c-3.8,0-6.8,3.1-6.8,6.9c0,3.9,3.2,7.2,7,7.2c3.7,0,6.8-3.5,6.9-6.4c0.1-2.2,1.8-3.9,4-3.9h93
			c2.1,0,3.9,1.7,4,3.8c0.1,2.8,2.4,4.8,5.3,4.8c2.9,0,5.3-2.5,5.3-5.5c0-1.3-0.5-2.6-1.3-3.6c-1.1-1.3-1.3-3.2-0.3-4.7
			c0.3-0.5,0.5-1.1,0.5-1.7c0-1.6-1.6-3-3.3-3c-0.1,0-0.1,0-0.2,0c-0.2,0-0.5,0-1,0.1c-1.1,0.1-2.2-0.3-3-1.1
			c-0.8-0.8-1.3-1.8-1.3-2.9V31.8c0-2.2,1.7-4,3.9-4c3.9-0.1,7-3.2,7-6.9c0-3.7-2.9-6.6-6.8-6.6c-3.7,0-6.6,3-6.7,6.9
			c-0.1,2.1-1.9,3.8-4,3.8h-84.9c-2.2,0-4-1.8-4-4c0-0.1,0-0.3,0-0.4c0-0.2,0-0.4,0-0.5c0-1.2-1-2.2-2.1-2.2c-0.3,0-0.8,0-1.1,0.2
			C97,19,95,18.9,93.7,17.8c-1.1-0.9-2.3-1.4-3.6-1.4c-3.2,0-5.9,2.6-5.9,5.6c0,2.8,2.4,5.1,4.6,5.6c1.9,0.4,3.2,2,3.2,3.9V124.2z
			 M102.3,18.8c-0.3,0.5-0.6,1.1-0.6,1.7C101.7,19.9,101.9,19.3,102.3,18.8z M105.6,17c-1.4,0-2.5,0.7-3.2,1.6
			C103.2,17.6,104.3,17,105.6,17z"/>
	</g>
	<g>
		<path fill="#4A3E98" d="M98,79c-1.1,0-2-0.9-2-2V38c0-1.1,0.9-2,2-2s2,0.9,2,2v39C100,78.1,99.1,79,98,79z"/>
	</g>
	<g>
		<path fill="#4A3E98" d="M98,94c-1.1,0-2-0.9-2-2v-8c0-1.1,0.9-2,2-2s2,0.9,2,2v8C100,93.1,99.1,94,98,94z"/>
	</g>
	<g>
		<path fill="#4A3E98" d="M98,105c-1.1,0-2-0.9-2-2v-4c0-1.1,0.9-2,2-2s2,0.9,2,2v4C100,104.1,99.1,105,98,105z"/>
	</g>
	<g>
		<path fill="#4A3E98" d="M128,130h-28c-1.1,0-2-0.9-2-2s0.9-2,2-2h28c1.1,0,2,0.9,2,2S129.1,130,128,130z"/>
	</g>
	<g>
		<path fill="#4A3E98" d="M140,130h-6c-1.1,0-2-0.9-2-2s0.9-2,2-2h6c1.1,0,2,0.9,2,2S141.1,130,140,130z"/>
	</g>
	<g>
		<path fill="#4A3E98" d="M190,130h-43c-1.1,0-2-0.9-2-2s0.9-2,2-2h43c1.1,0,2,0.9,2,2S191.1,130,190,130z"/>
	</g>
	<g>
		<path fill="#4A3E98" d="M191,120c-1.1,0-2-0.9-2-2v-9c0-1.1,0.9-2,2-2s2,0.9,2,2v9C193,119.1,192.1,120,191,120z"/>
	</g>
	<g>
		<path fill="#4A3E98" d="M191,105c-1.1,0-2-0.9-2-2V74c0-1.1,0.9-2,2-2s2,0.9,2,2v29C193,104.1,192.1,105,191,105z"/>
	</g>
	<g>
		<path fill="#4A3E98" d="M191,66c-1.1,0-2-0.9-2-2v-5c0-1.1,0.9-2,2-2s2,0.9,2,2v5C193,65.1,192.1,66,191,66z"/>
	</g>
	<g>
		<path fill="#4A3E98" d="M128,32h-13c-1.1,0-2-0.9-2-2s0.9-2,2-2h13c1.1,0,2,0.9,2,2S129.1,32,128,32z"/>
	</g>
	<g>
		<path fill="#4A3E98" d="M167,32h-32c-1.1,0-2-0.9-2-2s0.9-2,2-2h32c1.1,0,2,0.9,2,2S168.1,32,167,32z"/>
	</g>
	<g>
		<path fill="#4A3E98" d="M179,32h-5c-1.1,0-2-0.9-2-2s0.9-2,2-2h5c1.1,0,2,0.9,2,2S180.1,32,179,32z"/>
	</g>
</g>
</svg>
