<?xml version="1.0" encoding="utf-8"?>
<!-- Generator: Adobe Illustrator 18.1.1, SVG Export Plug-In . SVG Version: 6.00 Build 0)  -->
<svg version="1.1" id="Layer_1" xmlns="http://www.w3.org/2000/svg" xmlns:xlink="http://www.w3.org/1999/xlink" x="0px" y="0px"
	 viewBox="0 0 300 170" enable-background="new 0 0 300 170" xml:space="preserve">
<path fill="#F8993C" d="M211.9,93.1l0.9-0.9c0-11.6-9.4-20.9-20.9-20.9c-11.6,0-20.9,9.2-20.9,20.8c0,0.3,0,0.7,0,0.7h-2.1H137
	c-11.5,0-20.9,9.6-20.9,21.1c0,11.5,2.4,21.1,13.9,21.1h80c11.5,0,20.9-9.5,20.9-21C231,103.1,222.6,94.1,211.9,93.1"/>
<g>
	<path fill="#4A3E98" d="M203.7,132.8h-73c-13.9,0-25.2-11.3-25.2-25.2c0-13.9,11.3-25.2,25.2-25.2h31.8c2.3,0,4.2,1.9,4.2,4.2
		s-1.9,4.2-4.2,4.2h-31.8c-9.2,0-16.7,7.5-16.7,16.7s7.5,16.7,16.7,16.7h73c9.2,0,16.7-7.5,16.7-16.7s-7.5-16.7-16.7-16.7
		c-2.3,0-4.2-1.9-4.2-4.2s1.9-4.2,4.2-4.2c13.9,0,25.2,11.3,25.2,25.2C228.9,121.5,217.6,132.8,203.7,132.8z"/>
</g>
<g>
	<path fill="#4A3E98" d="M103.3,114c-2.9,0-5.7-0.6-8.5-1.8c-5.1-2.3-9-6.4-10.9-11.5C79.8,90,85.2,78,95.9,73.9l4.1-1.6
		c5.2-2,7.9-7.9,5.9-13.2c-2-5.2-7.9-7.9-13.2-5.9L88.1,55c-8.3,3.2-17.7-1-20.9-9.3c-3.2-8.3,1-17.7,9.3-20.9
		c1.1-0.4,2.3,0.1,2.7,1.2c0.4,1.1-0.1,2.3-1.2,2.7c-6.1,2.4-9.2,9.3-6.9,15.4c2.4,6.1,9.3,9.2,15.4,6.9l4.6-1.7
		c7.4-2.8,15.8,0.9,18.6,8.3c2.8,7.4-0.9,15.8-8.3,18.6l-4.1,1.6c-8.5,3.3-12.8,12.9-9.5,21.4c1.6,4.1,4.7,7.4,8.7,9.2
		c4,1.8,8.5,1.9,12.7,0.3c1.1-0.4,2.3,0.1,2.7,1.2c0.4,1.1-0.1,2.3-1.2,2.7C108.3,113.6,105.8,114,103.3,114z"/>
</g>
<g>
	<path fill="#4A3E98" d="M185.5,111c-13.9,0-25.2-11.3-25.2-25.2c0-13.9,11.3-25.2,25.2-25.2c13.9,0,25.2,11.3,25.2,25.2
		c0,2.3-1.9,4.2-4.2,4.2s-4.2-1.9-4.2-4.2c0-9.2-7.5-16.7-16.7-16.7c-9.2,0-16.7,7.5-16.7,16.7s7.5,16.7,16.7,16.7
		c2.3,0,4.2,1.9,4.2,4.2S187.9,111,185.5,111z"/>
</g>
<path fill="#4A3E98" d="M212.5,103.5c0,1.6-1.3,2.9-2.9,2.9c-1.6,0-2.9-1.3-2.9-2.9c0-1.6,1.3-2.9,2.9-2.9
	C211.2,100.5,212.5,101.8,212.5,103.5"/>
<g>
	<path fill="#4A3E98" d="M133,145.7c-1.2,0-2.1-0.9-2.1-2.1v-12.8c0-1.2,0.9-2.1,2.1-2.1s2.1,0.9,2.1,2.1v12.8
		C135.1,144.7,134.2,145.7,133,145.7z"/>
</g>
<g>
	<path fill="#4A3E98" d="M194.3,145.6c-1.2,0-2.1-0.9-2.1-2.1v-11.6c0-1.2,0.9-2.1,2.1-2.1s2.1,0.9,2.1,2.1v11.6
		C196.4,144.6,195.5,145.6,194.3,145.6z"/>
</g>
</svg>
