<?xml version="1.0" encoding="utf-8"?>
<!-- Generator: Adobe Illustrator 18.1.1, SVG Export Plug-In . SVG Version: 6.00 Build 0)  -->
<svg version="1.1" id="Layer_1" xmlns="http://www.w3.org/2000/svg" xmlns:xlink="http://www.w3.org/1999/xlink" x="0px" y="0px"
	 viewBox="0 0 1000 500" enable-background="new 0 0 1000 500" xml:space="preserve">
<g>
	<g>
		<defs>
			<rect id="SVGID_1_" x="-179.3" y="-62.5" width="1364.2" height="682.1"/>
		</defs>
		<clipPath id="SVGID_2_">
			<use xlink:href="#SVGID_1_"  overflow="visible"/>
		</clipPath>
		<g clip-path="url(#SVGID_2_)">
			<defs>
				<rect id="SVGID_3_" x="-179.3" y="-62.5" width="1364.2" height="682.1"/>
			</defs>
			<clipPath id="SVGID_4_">
				<use xlink:href="#SVGID_3_"  overflow="visible"/>
			</clipPath>
			<g clip-path="url(#SVGID_4_)">
				<defs>
					<rect id="SVGID_5_" x="-179.3" y="-62.5" width="1364.2" height="682.1"/>
				</defs>
				<clipPath id="SVGID_6_">
					<use xlink:href="#SVGID_5_"  overflow="visible"/>
				</clipPath>
				<path clip-path="url(#SVGID_6_)" fill="#F12E58" d="M942.8,107.2c-13.1,0-23.9,10.7-23.9,23.9v197.6c0-13.1-10.7-23.9-23.9-23.9
					c-13.1,0-23.9,10.7-23.9,23.9c0-13.1-10.7-23.9-23.9-23.9c-13.1,0-23.9,10.7-23.9,23.9c0-13.1-10.7-23.9-23.9-23.9
					s-23.9,10.7-23.9,23.9V132c0-13.1-10.7-23.9-23.9-23.9s-23.9,10.7-23.9,23.9v364.8h47.7H803v-84.9c0-19.1,15.6-35.2,34.7-35.2
					H859c19.1,0,34,16.1,34,35.2v84.9h25.9h47.7V131.1C966.7,118,955.9,107.2,942.8,107.2"/>
				<path clip-path="url(#SVGID_6_)" fill="#F8993C" d="M661.9,416.8l1.2-1.2c0-14.9-12.1-27-27-27c-14.9,0-27,11.9-27,26.8
					c0,0.4,0,0.9,0.1,0.9h-2.8h-41.1c-14.9,0-27,12.4-27,27.3c0,14.9,12.2,27.3,27,27.3h94.3c14.9,0,27-12.2,27-27.1
					C686.6,429.7,675.7,418,661.9,416.8"/>
				
					<line clip-path="url(#SVGID_6_)" fill="none" stroke="#FFFFFF" stroke-width="10.9135" stroke-linecap="round" stroke-linejoin="round" stroke-miterlimit="10" x1="715.7" y1="331.7" x2="672" y2="331.7"/>
				
					<line clip-path="url(#SVGID_6_)" fill="none" stroke="#FFFFFF" stroke-width="10.9135" stroke-linecap="round" stroke-linejoin="round" stroke-miterlimit="10" x1="412.8" y1="406.8" x2="441.5" y2="406.8"/>
				
					<line clip-path="url(#SVGID_6_)" fill="none" stroke="#FFFFFF" stroke-width="10.9135" stroke-linecap="round" stroke-linejoin="round" stroke-miterlimit="10" x1="412.8" y1="424.5" x2="461.9" y2="424.5"/>
				
					<line clip-path="url(#SVGID_6_)" fill="none" stroke="#FFFFFF" stroke-width="10.9135" stroke-linecap="round" stroke-linejoin="round" stroke-miterlimit="10" x1="714.3" y1="348.1" x2="631.1" y2="348.1"/>
				<g opacity="0.1" clip-path="url(#SVGID_6_)">
					<g>
						<defs>
							<rect id="SVGID_7_" x="111.3" y="113.5" width="316.5" height="386.1"/>
						</defs>
						<clipPath id="SVGID_8_">
							<use xlink:href="#SVGID_7_"  overflow="visible"/>
						</clipPath>
						<path clip-path="url(#SVGID_8_)" fill="#4A3E98" d="M388.8,308.6h-37.2c21.4,0,39.4-35.5,39.4-78.2v-39.9
							c0-42.7-18-77-39.4-77H186.8c-21.4,0-38.6,34.3-38.6,77v39.9c0,42.7,17.2,78.2,38.6,78.2h-37.2c-21.4,0-38.2,34.4-38.2,77.1
							v35.5c0,42.7,16.8,78.3,38.2,78.3h239.2c21.4,0,39-35.6,39-78.3v-35.5C427.8,343,410.2,308.6,388.8,308.6"/>
					</g>
				</g>
			</g>
			<g clip-path="url(#SVGID_4_)">
				<defs>
					<rect id="SVGID_9_" x="-179.3" y="-62.5" width="1364.2" height="682.1"/>
				</defs>
				<clipPath id="SVGID_10_">
					<use xlink:href="#SVGID_9_"  overflow="visible"/>
				</clipPath>
				
					<path clip-path="url(#SVGID_10_)" fill="none" stroke="#4A3E98" stroke-width="10.9135" stroke-linecap="round" stroke-linejoin="round" stroke-miterlimit="10" d="
					M171.8,295.1c-21.4,0-38.9-34.9-38.9-77.7v-39.9c0-42.7,17.5-77.7,38.9-77.7h164.8c21.4,0,38.9,34.9,38.9,77.7v39.9
					c0,42.7-17.5,77.7-38.9,77.7"/>
				
					<path clip-path="url(#SVGID_10_)" fill="none" stroke="#4A3E98" stroke-width="10.9135" stroke-linecap="round" stroke-linejoin="round" stroke-miterlimit="10" d="
					M322.8,295.1h51.1c21.4,0,38.9,34.9,38.9,77.7v35.5c0,42.7-17.5,77.7-38.9,77.7H134.6c-21.4,0-38.9-34.9-38.9-77.7v-35.5
					c0-42.7,17.5-77.7,38.9-77.7h54.8"/>
				
					<path clip-path="url(#SVGID_10_)" fill="none" stroke="#4A3E98" stroke-width="10.0568" stroke-linecap="round" stroke-linejoin="round" stroke-miterlimit="10" d="
					M312.4,97.8H199.5c-3.5,0-6.3-2.8-6.3-6.3v-42c0-3.5,2.8-6.3,6.3-6.3h112.9c3.5,0,6.3,2.8,6.3,6.3v42
					C318.7,95,315.8,97.8,312.4,97.8z"/>
				
					<line clip-path="url(#SVGID_10_)" fill="none" stroke="#4A3E98" stroke-width="5.4568" stroke-linecap="round" stroke-linejoin="round" stroke-miterlimit="10" x1="193.2" y1="57.5" x2="243.6" y2="57.5"/>
				
					<line clip-path="url(#SVGID_10_)" fill="none" stroke="#4A3E98" stroke-width="5.4568" stroke-linecap="round" stroke-linejoin="round" stroke-miterlimit="10" x1="193.2" y1="68.5" x2="215" y2="68.5"/>
				
					<line clip-path="url(#SVGID_10_)" fill="none" stroke="#4A3E98" stroke-width="5.4568" stroke-linecap="round" stroke-linejoin="round" stroke-miterlimit="10" x1="318.7" y1="83.5" x2="245" y2="83.5"/>
				
					<line clip-path="url(#SVGID_10_)" fill="none" stroke="#4A3E98" stroke-width="5.4568" stroke-linecap="round" stroke-linejoin="round" stroke-miterlimit="10" x1="318.7" y1="73.9" x2="306.4" y2="73.9"/>
				
					<line clip-path="url(#SVGID_10_)" fill="none" stroke="#4A3E98" stroke-width="10.9135" stroke-linecap="round" stroke-linejoin="round" stroke-miterlimit="10" x1="348.7" y1="294.9" x2="717" y2="294.9"/>
				
					<line clip-path="url(#SVGID_10_)" fill="none" stroke="#4A3E98" stroke-width="10.9135" stroke-linecap="round" stroke-linejoin="round" stroke-miterlimit="10" x1="328.2" y1="485.9" x2="476.9" y2="485.9"/>
				
					<line clip-path="url(#SVGID_10_)" fill="none" stroke="#4A3E98" stroke-width="10.9135" stroke-linecap="round" stroke-linejoin="round" stroke-miterlimit="10" x1="532.9" y1="485.9" x2="992.6" y2="485.9"/>
				
					<line clip-path="url(#SVGID_10_)" fill="none" stroke="#4A3E98" stroke-width="10.9135" stroke-linecap="round" stroke-linejoin="round" stroke-miterlimit="10" x1="137.2" y1="485.9" x2="74.5" y2="485.9"/>
				
					<line clip-path="url(#SVGID_10_)" fill="none" stroke="#4A3E98" stroke-width="10.9135" stroke-linecap="round" stroke-linejoin="round" stroke-miterlimit="10" x1="56.8" y1="484.5" x2="6.3" y2="484.5"/>
				
					<path clip-path="url(#SVGID_10_)" fill="none" stroke="#4A3E98" stroke-width="10.9135" stroke-linecap="round" stroke-linejoin="round" stroke-miterlimit="10" d="
					M651.4,408.5c14.9,0,27,12.2,27,27s-12.2,27-27,27h-94.3c-14.9,0-27-12.2-27-27s12.2-27,27-27h41.1"/>
				
					<path clip-path="url(#SVGID_10_)" fill="none" stroke="#4A3E98" stroke-width="5.4568" stroke-linecap="round" stroke-linejoin="round" stroke-miterlimit="10" d="
					M488.2,331.1c-9.4,3.6-14,14.1-10.4,23.4c3.6,9.4,14.1,14,23.4,10.4l5.9-2.2c8.2-3.1,17.4,1,20.5,9.1c3.1,8.2-1,17.4-9.1,20.5
					l-5.3,2c-12.4,4.8-18.6,18.7-13.9,31.1c4.8,12.4,18.7,18.6,31.1,13.9"/>
				
					<path clip-path="url(#SVGID_10_)" fill="none" stroke="#4A3E98" stroke-width="10.9135" stroke-linecap="round" stroke-linejoin="round" stroke-miterlimit="10" d="
					M627.9,434.5c-14.9,0-27-12.1-27-27c0-14.9,12.1-27,27-27c14.9,0,27,12.1,27,27"/>
				<path clip-path="url(#SVGID_10_)" fill="#4A3E98" d="M662.8,430.2c0,2.1-1.7,3.8-3.8,3.8c-2.1,0-3.8-1.7-3.8-3.8
					c0-2.1,1.7-3.8,3.8-3.8C661.1,426.4,662.8,428.1,662.8,430.2"/>
				
					<line clip-path="url(#SVGID_10_)" fill="none" stroke="#4A3E98" stroke-width="5.4568" stroke-miterlimit="10" x1="560.1" y1="465.4" x2="560.1" y2="484.5"/>
				
					<line clip-path="url(#SVGID_10_)" fill="none" stroke="#4A3E98" stroke-width="5.4568" stroke-miterlimit="10" x1="639.3" y1="466.8" x2="639.3" y2="481.8"/>
				
					<path clip-path="url(#SVGID_10_)" fill="none" stroke="#4A3E98" stroke-width="10.9135" stroke-linecap="round" stroke-linejoin="round" stroke-miterlimit="10" d="
					M765.4,485.9h-47.7V121.7c0-13.1,10.7-23.9,23.9-23.9c13.1,0,23.9,10.7,23.9,23.9V485.9z"/>
				
					<path clip-path="url(#SVGID_10_)" fill="none" stroke="#4A3E98" stroke-width="10.9135" stroke-linecap="round" stroke-linejoin="round" stroke-miterlimit="10" d="
					M956.4,485h-47.7V120.8c0-13.1,10.7-23.9,23.9-23.9c13.1,0,23.9,10.7,23.9,23.9V485z"/>
				
					<path clip-path="url(#SVGID_10_)" fill="none" stroke="#4A3E98" stroke-width="10.9135" stroke-linecap="round" stroke-linejoin="round" stroke-miterlimit="10" d="
					M792.7,485.9h-27.3V318.4c0-13.1,10.7-23.9,23.9-23.9s23.9,10.7,23.9,23.9v50.9"/>
				
					<path clip-path="url(#SVGID_10_)" fill="none" stroke="#4A3E98" stroke-width="10.9135" stroke-linecap="round" stroke-linejoin="round" stroke-miterlimit="10" d="
					M813.2,366.9v-48.5c0-13.1,10.7-23.9,23.9-23.9s23.9,10.7,23.9,23.9v48.5"/>
				
					<path clip-path="url(#SVGID_10_)" fill="none" stroke="#4A3E98" stroke-width="11.7948" stroke-linecap="round" stroke-linejoin="round" stroke-miterlimit="10" d="
					M876.5,484.5h-76.8c-3.8,0-6.9-3.1-6.9-6.9v-77.9c0-18,14.7-32.7,32.7-32.7h25.2c18,0,32.7,14.7,32.7,32.7v77.9
					C883.5,481.4,880.3,484.5,876.5,484.5z"/>
				
					<path clip-path="url(#SVGID_10_)" fill="none" stroke="#4A3E98" stroke-width="10.9135" stroke-linecap="round" stroke-linejoin="round" stroke-miterlimit="10" d="
					M860.9,366.9v-48.5c0-13.1,10.7-23.9,23.9-23.9s23.9,10.7,23.9,23.9v167.5h-25.2"/>
				
					<line clip-path="url(#SVGID_10_)" fill="none" stroke="#4A3E98" stroke-width="5.4568" stroke-linecap="round" stroke-linejoin="round" stroke-miterlimit="10" x1="717" y1="327.7" x2="673.4" y2="327.7"/>
				
					<line clip-path="url(#SVGID_10_)" fill="none" stroke="#4A3E98" stroke-width="5.4568" stroke-linecap="round" stroke-linejoin="round" stroke-miterlimit="10" x1="717" y1="342.7" x2="633.8" y2="342.7"/>
				
					<line clip-path="url(#SVGID_10_)" fill="none" stroke="#4A3E98" stroke-width="5.4568" stroke-linecap="round" stroke-linejoin="round" stroke-miterlimit="10" x1="412.8" y1="402.7" x2="441.5" y2="402.7"/>
				
					<line clip-path="url(#SVGID_10_)" fill="none" stroke="#4A3E98" stroke-width="5.4568" stroke-linecap="round" stroke-linejoin="round" stroke-miterlimit="10" x1="412.8" y1="420.4" x2="461.9" y2="420.4"/>
				
					<path clip-path="url(#SVGID_10_)" fill="none" stroke="#4A3E98" stroke-width="5.4568" stroke-linecap="round" stroke-linejoin="round" stroke-miterlimit="10" d="
					M259.1,314.9c0-7.3-5.9-13.2-13.2-13.2c-7.3,0-13.2,5.9-13.2,13.2"/>
				
					<path clip-path="url(#SVGID_10_)" fill="none" stroke="#4A3E98" stroke-width="5.4568" stroke-linecap="round" stroke-linejoin="round" stroke-miterlimit="10" d="
					M276.8,314.8c0-4.9-4-8.9-8.9-8.9c-4.9,0-8.9,4-8.9,8.9"/>
				
					<path clip-path="url(#SVGID_10_)" fill="none" stroke="#4A3E98" stroke-width="5.4568" stroke-linecap="round" stroke-linejoin="round" stroke-miterlimit="10" d="
					M306.9,147.7c0-3.8-3.1-6.8-6.8-6.8c-3.8,0-6.8,3.1-6.8,6.8"/>
				
					<path clip-path="url(#SVGID_10_)" fill="none" stroke="#4A3E98" stroke-width="5.4568" stroke-linecap="round" stroke-linejoin="round" stroke-miterlimit="10" d="
					M329.7,148.6c0-6.3-5.1-11.4-11.4-11.4c-6.3,0-11.4,5.1-11.4,11.4"/>
				
					<path clip-path="url(#SVGID_10_)" fill="none" stroke="#4A3E98" stroke-width="5.4568" stroke-linecap="round" stroke-linejoin="round" stroke-miterlimit="10" d="
					M136.8,434.3c0-2.4,1.9-4.3,4.3-4.3c2.4,0,4.3,1.9,4.3,4.3"/>
				
					<path clip-path="url(#SVGID_10_)" fill="none" stroke="#4A3E98" stroke-width="5.4568" stroke-linecap="round" stroke-linejoin="round" stroke-miterlimit="10" d="
					M145.9,434.4c0-4.8,3.9-8.7,8.7-8.7c4.8,0,8.7,3.9,8.7,8.7"/>
				
					<path clip-path="url(#SVGID_10_)" fill="none" stroke="#4A3E98" stroke-width="5.4568" stroke-linecap="round" stroke-linejoin="round" stroke-miterlimit="10" d="
					M163.4,434.7c0-2.6,2.1-4.8,4.8-4.8c2.6,0,4.8,2.1,4.8,4.8"/>
			</g>
		</g>
	</g>
</g>
</svg>
