<?xml version="1.0" encoding="utf-8"?>
<!-- Generator: Adobe Illustrator 18.1.1, SVG Export Plug-In . SVG Version: 6.00 Build 0)  -->
<svg version="1.1" id="Layer_1" xmlns="http://www.w3.org/2000/svg" xmlns:xlink="http://www.w3.org/1999/xlink" x="0px" y="0px"
	 viewBox="0 0 300 170" enable-background="new 0 0 300 170" xml:space="preserve">
<g>
	<path fill="#4A3E98" d="M135,129.9c-2.9,0-5-2.3-5-5.2V93.9c0-2.9,2.1-5.2,5-5.2s5,2.3,5,5.2v30.7C140,127.5,137.9,129.9,135,129.9
		z"/>
</g>
<path fill="#F12E58" d="M192.1,142l12.7-80.1c0-5.2-5.7-9.4-12.7-9.4h-84.1c-7,0-12.7,4.2-12.7,9.4l12.7,79.9L192.1,142z"/>
<g>
	<path fill="#4A3E98" d="M181,138.4c-0.1,0-0.3,0-0.4,0c-1.4-0.2-2.4-1.5-2.2-3l12.7-81.6c-0.1-3.6-4.7-6.7-10.1-6.7H97
		c-5.4,0-10,3-10.1,6.7l12.7,79.7c0.2,1.4-0.7,2.7-2.2,3c-1.4,0.2-2.7-0.7-3-2.2L81.7,54.4c0-0.1,0-0.3,0-0.4c0-6.6,6.9-12,15.3-12
		H181c8.5,0,15.3,5.4,15.3,12c0,0.1,0,0.3,0,0.4l-12.7,81.8C183.4,137.5,182.3,138.4,181,138.4z"/>
</g>
<g>
	<path fill="#4A3E98" d="M122.6,70H89.7c-0.7,0-1.3-0.8-1.3-1.5S89,67,89.7,67h32.9c0.7,0,1.3,0.8,1.3,1.5S123.3,70,122.6,70z"/>
</g>
<g>
	<path fill="#4A3E98" d="M137.7,88H89.7c-0.7,0-1.3-0.8-1.3-1.5S89,85,89.7,85h48.1c0.7,0,1.3,0.8,1.3,1.5S138.5,88,137.7,88z"/>
</g>
<g>
	<path fill="#4A3E98" d="M181,108h-27.7c-0.7,0-1.3-0.8-1.3-1.5s0.6-1.5,1.3-1.5H181c0.7,0,1.3,0.8,1.3,1.5S181.8,108,181,108z"/>
</g>
<g>
	<path fill="#4A3E98" d="M204.8,138H73.7c-1.4,0-2.6-1.1-2.6-2.5s1.2-2.5,2.6-2.5h131.2c1.4,0,2.6,1.1,2.6,2.5S206.3,138,204.8,138z
		"/>
</g>
<g>
	<path fill="#4A3E98" d="M224.3,138h-12.6c-1.4,0-2.6-1.1-2.6-2.5s1.2-2.5,2.6-2.5h12.6c1.4,0,2.6,1.1,2.6,2.5S225.8,138,224.3,138z
		"/>
</g>
</svg>
