<?xml version="1.0" encoding="utf-8"?>
<!-- Generator: Adobe Illustrator 18.1.1, SVG Export Plug-In . SVG Version: 6.00 Build 0)  -->
<svg version="1.1" id="Layer_1" xmlns="http://www.w3.org/2000/svg" xmlns:xlink="http://www.w3.org/1999/xlink" x="0px" y="0px"
	 viewBox="0 0 300 170" enable-background="new 0 0 300 170" xml:space="preserve">
<g>
	<path fill="#F8993C" d="M106.4,165.8c-2.6,0-4.7-2.1-4.7-4.7c0-2.6,2.1-4.7,4.7-4.7c13.3,0,26.6-2.7,39.2-7.8
		c-13.9-5.1-24.4-12.7-31.7-19.5C99.3,115.4,89.6,97,87.9,80c-1.5-14.8,2.3-36.6,17.4-53.2c12.4-13.7,30.1-20.9,51.1-20.9
		c18.6,0,34.3,6.3,45.4,18.3c12.2,13.1,18.5,32.8,17.1,52.6c-0.7,9.5-4.3,19.9-10.3,30.2c-6,10.2-14.3,20.1-24.1,28.6
		c-3.8,3.3-7.8,6.4-11.9,9.2c2,0.1,4.1,0.2,6.3,0.2c26.3,0.1,31.7,0.2,31.9,0.2c2.6,0.1,4.7,2.2,4.6,4.8c-0.1,2.6-2.2,4.6-4.8,4.6
		c-0.1,0-5.6-0.1-31.8-0.2c-6.9,0-13.3-0.7-19.2-1.9C142.9,161.2,124.7,165.8,106.4,165.8z M156.3,15.2c-18.5,0-33.4,6-44.1,17.8
		c-13,14.3-16.3,33.2-15,46c1.5,14.8,10.1,31,23.1,43.2c8,7.6,20.5,16.2,37.8,20.3c7-3.9,13.8-8.6,20.1-14.1
		c18-15.7,30-35.8,31.2-52.4c1.3-17.3-4.2-34.4-14.6-45.6C185.4,20.4,172.4,15.2,156.3,15.2z"/>
</g>
<g>
	<path fill="#4A3E98" d="M102.8,164.1c-1.3,0-2.3-1.1-2.3-2.3c0-1.3,1.1-2.3,2.3-2.3c15.9,0,31.7-3.7,46.4-10.8
		c-16.9-4.7-29.1-13.4-37.3-21.1c-14.2-13.4-23.7-31.2-25.3-47.6c-1.4-14.3,2.2-35.3,16.8-51.4c11.9-13.2,29-20.2,49.3-20.2
		c17.9,0,33,6.1,43.6,17.6c11.8,12.6,17.9,31.7,16.5,51c-1.4,18.5-14.2,40.5-33.6,57.4c-5.3,4.6-10.8,8.7-16.6,12.3
		c4,0.5,8.1,0.8,12.5,0.9c26.3,0.1,35.4,0.2,35.5,0.2c1.3,0,2.3,1.1,2.3,2.4c0,1.3-1.1,2.3-2.4,2.3c-0.1,0-9.2-0.1-35.5-0.2
		c-6.8,0-13.1-0.7-18.9-1.9C139.5,159.3,121.2,164.1,102.8,164.1z M152.7,13c-19,0-34.8,6.4-45.9,18.6
		C93.3,46.5,89.9,66.1,91.2,79.4c1.5,15.4,10.4,32.1,23.9,44.7c8.5,8,21.8,17.2,40.4,21.2c7.2-4,14.2-8.9,20.6-14.6
		c18.5-16.1,30.7-36.9,32-54.2c1.3-18-4.4-35.8-15.3-47.5C182.9,18.4,169.4,13,152.7,13z"/>
</g>
<g>
	<path fill="#4A3E98" d="M89.1,165H70.3c-1.3,0-2.3-0.7-2.3-2s1.1-2,2.3-2h18.8c1.3,0,2.3,0.7,2.3,2S90.4,165,89.1,165z"/>
</g>
<g>
	<path fill="#4A3E98" d="M227.7,153h-5.9c-1.3,0-2.3-1.2-2.3-2.5s1.1-2.5,2.3-2.5h5.9c1.3,0,2.3,1.2,2.3,2.5S229,153,227.7,153z"/>
</g>
<g>
	<path fill="#4A3E98" d="M101.1,152c-0.6,0-1.2-0.6-1.2-1.2c0-0.6,0.5-1.2,1.1-1.2c14.4-0.5,29.6-4.3,43.9-11.1
		c1.8-0.8,3.5-1.7,5.2-2.6C127.1,127.3,99.1,108,98.6,77c-0.3-17.2,5.2-32.4,15.5-42.9c9.3-9.5,21.8-14.4,36.2-14.4
		c14,0,25.4,3.6,33.7,10.7c10.4,8.9,16.1,23.3,16.8,42.8c0.5,13.2-6.3,28-19,41.6c-7.3,7.8-16.1,14.7-25.8,20.5
		c6,1.9,11.9,3.2,17,3.3c19.6,0.5,35.4,0.1,35.6,0.1c0.6,0,1.2,0.5,1.2,1.1s-0.5,1.2-1.1,1.2c-0.2,0-16,0.4-35.7-0.1
		c-5-0.1-12-1.5-19.7-4.1c-2.3,1.3-4.7,2.6-7.2,3.8C131.4,147.6,115.9,151,101.1,152C101.1,152,101.1,152,101.1,152z M150.3,22
		c-13.8,0-25.7,4.8-34.6,13.7c-9.8,10-15.1,24.6-14.8,41.2c0.4,22.5,15.9,37.4,28.8,46c6.3,4.1,14.7,8.4,23.2,11.4
		c10.3-5.9,19.5-13.1,27.1-21.1c12.3-13.1,18.8-27.3,18.4-39.9c-0.7-18.8-6-32.7-15.9-41.1C174.6,25.4,163.8,22,150.3,22z"/>
</g>
<g>
	<path fill="#4A3E98" d="M112.3,160.9c-0.5,0-1-0.4-1.2-0.9l-1.8-9c-0.1-0.6,0.3-1.3,0.9-1.4c0.6-0.1,1.3,0.3,1.4,0.9l1.8,9
		c0.1,0.6-0.3,1.3-0.9,1.4C112.5,160.9,112.4,160.9,112.3,160.9z"/>
</g>
<g>
	<path fill="#4A3E98" d="M134.2,156.6c-0.3,0-0.7-0.1-0.9-0.4l-7.3-8.9c-0.4-0.5-0.3-1.2,0.2-1.7c0.5-0.4,1.2-0.3,1.7,0.2l7.3,8.9
		c0.4,0.5,0.3,1.2-0.2,1.7C134.8,156.5,134.5,156.6,134.2,156.6z"/>
</g>
<g>
	<path fill="#4A3E98" d="M177.1,133c-0.2,0-0.4,0-0.5-0.1l-10.4-5.2c-0.6-0.3-0.8-1-0.5-1.6c0.3-0.6,1-0.8,1.6-0.5l10.4,5.2
		c0.6,0.3,0.8,1,0.5,1.6C177.9,132.8,177.5,133,177.1,133z"/>
</g>
<g>
	<path fill="#4A3E98" d="M188.7,121.7c-0.2,0-0.4-0.1-0.6-0.2l-8.8-5.6c-0.5-0.3-0.7-1.1-0.4-1.6c0.3-0.5,1.1-0.7,1.6-0.4l8.8,5.6
		c0.5,0.3,0.7,1.1,0.4,1.6C189.4,121.5,189,121.7,188.7,121.7z"/>
</g>
<g>
	<path fill="#4A3E98" d="M199.4,107.5c-0.1,0-0.3,0-0.4-0.1l-9.8-3.3c-0.6-0.2-0.9-0.9-0.7-1.5c0.2-0.6,0.9-0.9,1.5-0.7l9.8,3.3
		c0.6,0.2,0.9,0.9,0.7,1.5C200.3,107.2,199.9,107.5,199.4,107.5z"/>
</g>
<g>
	<path fill="#4A3E98" d="M208.5,88h-10.6c-0.6,0-1.2-0.4-1.2-1s0.5-1,1.2-1h10.6c0.6,0,1.2,0.4,1.2,1S209.2,88,208.5,88z"/>
</g>
<g>
	<path fill="#4A3E98" d="M210.6,69.7C210.6,69.7,210.6,69.7,210.6,69.7l-11.2,0.1c-0.6,0-1.2-0.6-1.2-1.2c0-0.6,0.5-1.2,1.2-1.2
		c0,0,0,0,0,0l11.2,0.1c0.6,0,1.2,0.5,1.2,1.1C211.8,69.2,211.2,69.7,210.6,69.7z"/>
</g>
<g>
	<path fill="#4A3E98" d="M198,54.5c-0.5,0-1-0.3-1.1-0.8c-0.2-0.6,0.1-1.3,0.8-1.5l9.6-3c0.6-0.2,1.3,0.1,1.5,0.8
		c0.2,0.6-0.1,1.3-0.8,1.5l-9.6,3C198.2,54.4,198.1,54.5,198,54.5z"/>
</g>
<g>
	<path fill="#4A3E98" d="M188.7,38.1c-0.4,0-0.8-0.2-1-0.5c-0.3-0.5-0.2-1.3,0.4-1.6l9.3-5.9c0.5-0.3,1.3-0.2,1.6,0.4
		c0.3,0.5,0.2,1.3-0.4,1.6l-9.3,5.9C189.1,38.1,188.9,38.1,188.7,38.1z"/>
</g>
<g>
	<path fill="#4A3E98" d="M177.1,28.1c-0.2,0-0.4-0.1-0.6-0.2c-0.6-0.3-0.7-1.1-0.4-1.6l5.6-9.3c0.3-0.6,1.1-0.7,1.6-0.4
		c0.6,0.3,0.7,1.1,0.4,1.6l-5.6,9.3C177.8,27.9,177.5,28.1,177.1,28.1z"/>
</g>
<g>
	<path fill="#4A3E98" d="M159.8,22c-0.1,0-0.2,0-0.3,0c-0.6-0.2-1-0.8-0.8-1.4l2.6-9.9c0.2-0.6,0.8-1,1.4-0.8c0.6,0.2,1,0.8,0.8,1.4
		l-2.6,9.9C160.8,21.6,160.3,22,159.8,22z"/>
</g>
<g>
	<path fill="#4A3E98" d="M144.4,22c-0.6,0-1-0.4-1.2-1l-1.9-9.9c-0.1-0.6,0.3-1.3,0.9-1.4c0.6-0.1,1.3,0.3,1.4,0.9l1.9,9.9
		c0.1,0.6-0.3,1.3-0.9,1.4C144.5,22,144.5,22,144.4,22z"/>
</g>
<g>
	<path fill="#4A3E98" d="M128.5,26.5c-0.4,0-0.7-0.2-1-0.5l-5.9-8.7c-0.4-0.5-0.2-1.3,0.3-1.6c0.5-0.4,1.3-0.2,1.6,0.3l5.9,8.7
		c0.4,0.5,0.2,1.3-0.3,1.6C128.9,26.5,128.7,26.5,128.5,26.5z"/>
</g>
<g>
	<path fill="#4A3E98" d="M114.4,36.6c-0.2,0-0.4-0.1-0.6-0.2l-9.1-5.9c-0.5-0.4-0.7-1.1-0.3-1.6c0.4-0.5,1.1-0.7,1.6-0.3l9.1,5.9
		c0.5,0.4,0.7,1.1,0.3,1.6C115.1,36.5,114.7,36.6,114.4,36.6z"/>
</g>
<g>
	<path fill="#4A3E98" d="M104.7,51.4c-0.1,0-0.2,0-0.3,0l-10.8-2.8c-0.6-0.2-1-0.8-0.8-1.4c0.2-0.6,0.8-1,1.4-0.8l10.8,2.8
		c0.6,0.2,1,0.8,0.8,1.4C105.7,51.1,105.2,51.4,104.7,51.4z"/>
</g>
<g>
	<path fill="#4A3E98" d="M100.1,70h-11c-0.6,0-1.2-0.4-1.2-1s0.5-1,1.2-1h11c0.6,0,1.2,0.4,1.2,1S100.7,70,100.1,70z"/>
</g>
<g>
	<path fill="#4A3E98" d="M91.1,89.4c-0.5,0-1-0.4-1.2-0.9c-0.1-0.6,0.3-1.3,0.9-1.4l9.7-1.9c0.6-0.1,1.3,0.3,1.4,0.9
		c0.1,0.6-0.3,1.3-0.9,1.4l-9.7,1.9C91.3,89.4,91.2,89.4,91.1,89.4z"/>
</g>
<g>
	<path fill="#4A3E98" d="M100,107.5c-0.5,0-0.9-0.3-1.1-0.7c-0.3-0.6,0-1.3,0.6-1.5l7.7-3.3c0.6-0.3,1.3,0,1.5,0.6
		c0.3,0.6,0,1.3-0.6,1.5l-7.7,3.3C100.3,107.5,100.2,107.5,100,107.5z"/>
</g>
<g>
	<path fill="#4A3E98" d="M110.5,121.7c-0.4,0-0.7-0.2-0.9-0.5c-0.4-0.5-0.3-1.3,0.2-1.6l7.3-5.6c0.5-0.4,1.3-0.3,1.6,0.2
		c0.4,0.5,0.3,1.3-0.2,1.6l-7.3,5.6C111,121.6,110.8,121.7,110.5,121.7z"/>
</g>
<g>
	<path fill="#4A3E98" d="M125.5,133c-0.3,0-0.6-0.1-0.9-0.4c-0.4-0.5-0.4-1.2,0.1-1.7l6.5-6.1c0.5-0.4,1.2-0.4,1.7,0.1
		c0.4,0.5,0.4,1.2-0.1,1.7l-6.5,6.1C126.1,132.9,125.8,133,125.5,133z"/>
</g>
<g>
	<path fill="#4A3E98" d="M177,151.2c-0.6,0-1-0.5-1-1.2v-10.2c0-0.6,0.4-1.2,1-1.2s1,0.5,1,1.2V150C178,150.6,177.6,151.2,177,151.2
		z"/>
</g>
<g>
	<path fill="#4A3E98" d="M197,151.6c-0.6,0-1-0.5-1-1.2v-10.2c0-0.6,0.4-1.2,1-1.2s1,0.5,1,1.2v10.2C198,151,197.6,151.6,197,151.6z
		"/>
</g>
</svg>
