<?xml version="1.0" encoding="utf-8"?>
<!-- Generator: Adobe Illustrator 18.1.1, SVG Export Plug-In . SVG Version: 6.00 Build 0)  -->
<svg version="1.1" id="Layer_2" xmlns="http://www.w3.org/2000/svg" xmlns:xlink="http://www.w3.org/1999/xlink" x="0px" y="0px"
	 viewBox="-251 -194.4 932 500.4" enable-background="new -251 -194.4 932 500.4" xml:space="preserve">
<path fill="#FFFFFF" d="M115-57.4c0-11.4,9.5-20.7,20.9-20.7c3.9,0,7.6,1.1,10.7,2.9c4.8-5.3,11.8-8.6,19.5-8.6
	c14.5,0,26.3,11.8,26.3,26.3c0,0.7,0,1.3-0.1,2c0.6-0.1,1.1-0.1,1.8-0.1c11.4,0-79.1,0-79.1,0V-57.4z"/>
<path fill="#FFFFFF" d="M331.2,45.8c-0.9-2-1.3-4.4-1.3-6.8c0-8.9,7.3-16.2,16.2-16.2c3.1,0,6.1,0.9,8.5,2.4c4.1-13.9,16.8-24,32-24
	c18.6,0,33.4,15,33.4,33.6v10.3L331.2,45.8z"/>
<path fill="#F8993C" d="M-52.8,296c-0.5-1.6-0.8-3.2-0.8-5c0-3.4,1.1-6.6,3-9.1c-2.8-1.9-4.6-5.1-4.6-8.7c0-5.8,4.7-10.6,10.6-10.6
	c0.4,0,0.8,0,1.2,0.1c0.6-7,2.5-13.5,5.5-19.5c-3.2-2.6-5.3-6.6-5.3-11.1c0-7.9,6.4-14.2,14.2-14.2c4,0,7.5,1.6,10.1,4.2
	c8.2-5.2,18-8.3,28.5-8.3c21.1,0,39.3,12.3,47.9,30c1.9-1,4.1-1.6,6.4-1.6c7.8,0,14.2,6.4,14.2,14.2c0,5.8-3.5,10.8-8.5,13
	c1.5,1.5,2.4,3.6,2.4,5.9c0,4.6-3.7,8.4-8.4,8.4c-1.2,0-2.3-0.2-3.3-0.7c-1.5,4.7-3.5,9-6.2,13"/>
<path fill="#F8993C" d="M581.7,295c0.9-1.6,1.5-3.5,1.5-5.4c0-2.4-0.8-4.6-2.1-6.3c1.9-1.3,3.2-3.5,3.2-6c0-4.1-3.3-7.4-7.4-7.4
	c-0.3,0-0.6,0-0.8,0.1c-0.4-4.8-1.7-9.4-3.8-13.5c2.2-1.8,3.7-4.6,3.7-7.7c0-5.5-4.4-9.9-9.9-9.9c-2.8,0-5.2,1.1-7,2.9
	c-5.7-3.6-12.5-5.8-19.8-5.8c-14.7,0-27.3,8.5-33.3,20.9c-1.3-0.7-2.9-1.1-4.5-1.1c-5.5,0-9.9,4.4-9.9,9.9c0,4,2.4,7.5,5.9,9
	c-1,1.1-1.7,2.5-1.7,4.1c0,3.2,2.6,5.8,5.8,5.8c0.8,0,1.6-0.2,2.3-0.5c1.1,3.7,2.8,7.1,5,10.1"/>
<path fill="#FFFFFF" d="M601-138.7c0-7.4,6.2-13.4,13.5-13.4c5.4,0,10.2,3.2,12.3,7.9c1.8-1.4,4.1-2.3,6.6-2.3
	c5.8,0,10.4,4.7,10.4,10.6L601-137V-138.7z"/>
<path fill="none" stroke="#4A3E98" stroke-width="5.1696" stroke-linecap="round" stroke-linejoin="round" stroke-miterlimit="10" d="
	M-177.9,268.8c94.8-0.4,32.3-404.4,161.5-404.4c124.1,0,81.4,407,236.4,405.2c55-0.6,159-39.6,161.7-117.8
	c1-29.4-22.1-76.9-77.6-77.1c-58.2-0.2-81.1,49.6-80.1,77.1c2.5,72.4,112.4,117.7,162.9,117.7c100.9,0,67.8-135.8,149.3-135.1
	c67.2,0.5,64.6,137.7,104,137.7"/>
<path fill="none" stroke="#4A3E98" stroke-width="5.1696" stroke-linecap="round" stroke-linejoin="round" stroke-miterlimit="10" d="
	M211.1-41.4c0-11.4-9.2-20.7-20.7-20.7c-0.7,0-1.3,0-2,0.1c0-0.7,0.1-1.3,0.1-2c0-14.5-11.8-26.3-26.3-26.3
	c-7.7,0-14.6,3.3-19.4,8.6c-3.1-1.9-6.7-2.9-10.6-2.9c-11.4,0-20.7,9.2-20.7,20.7"/>
<line fill="none" stroke="#4A3E98" stroke-width="5" stroke-linecap="round" stroke-linejoin="round" stroke-miterlimit="10" x1="60" y1="-60.5" x2="126" y2="-60.5"/>
<line fill="none" stroke="#4A3E98" stroke-width="5" stroke-linecap="round" stroke-linejoin="round" stroke-miterlimit="10" x1="442" y1="32.5" x2="512" y2="32.5"/>
<line fill="none" stroke="#4A3E98" stroke-width="5" stroke-linecap="round" stroke-linejoin="round" stroke-miterlimit="10" x1="468" y1="21.5" x2="493" y2="21.5"/>
<line fill="none" stroke="#4A3E98" stroke-width="5" stroke-linecap="round" stroke-linejoin="round" stroke-miterlimit="10" x1="422" y1="32.5" x2="398" y2="32.5"/>
<path fill="none" stroke="#4A3E98" stroke-width="5.1696" stroke-linecap="round" stroke-linejoin="round" stroke-miterlimit="10" d="
	M415.3,29.7c0-18.6-15-33.6-33.6-33.6c-15.2,0-28.1,10.1-32.2,24c-2.5-1.5-5.4-2.4-8.5-2.4c-8.9,0-16.2,7.2-16.2,16.2
	c0,2.4,0.5,4.6,1.5,6.7c-3.9,1.5-6.6,5.3-6.6,9.8"/>
<path fill="none" stroke="#4A3E98" stroke-width="5.1696" stroke-linecap="round" stroke-linejoin="round" stroke-miterlimit="10" d="
	M400.1,21.8"/>
<line fill="none" stroke="#4A3E98" stroke-width="5" stroke-linecap="round" stroke-linejoin="round" stroke-miterlimit="10" x1="-168.5" y1="269" x2="-168.5" y2="289"/>
<line fill="none" stroke="#4A3E98" stroke-width="5.1696" stroke-linecap="round" stroke-linejoin="round" stroke-miterlimit="10" x1="-145.4" y1="246.7" x2="-131.4" y2="260.8"/>
<line fill="none" stroke="#4A3E98" stroke-width="5.1696" stroke-linecap="round" stroke-linejoin="round" stroke-miterlimit="10" x1="-129.5" y1="201" x2="-111.4" y2="209.6"/>
<line fill="none" stroke="#4A3E98" stroke-width="5.1696" stroke-linecap="round" stroke-linejoin="round" stroke-miterlimit="10" x1="-119.9" y1="154" x2="-102.1" y2="155.9"/>
<line fill="none" stroke="#4A3E98" stroke-width="5.1696" stroke-linecap="round" stroke-linejoin="round" stroke-miterlimit="10" x1="-108.1" y1="60.7" x2="-89.6" y2="60.7"/>
<line fill="none" stroke="#4A3E98" stroke-width="5" stroke-linecap="round" stroke-linejoin="round" stroke-miterlimit="10" x1="-102" y1="16.5" x2="-81" y2="16.5"/>
<line fill="none" stroke="#4A3E98" stroke-width="5.1696" stroke-linecap="round" stroke-linejoin="round" stroke-miterlimit="10" x1="-94" y1="-29.9" x2="-75.8" y2="-28"/>
<line fill="none" stroke="#4A3E98" stroke-width="5.1696" stroke-linecap="round" stroke-linejoin="round" stroke-miterlimit="10" x1="-82.3" y1="-72.6" x2="-65.9" y2="-66.2"/>
<line fill="none" stroke="#4A3E98" stroke-width="5.1696" stroke-linecap="round" stroke-linejoin="round" stroke-miterlimit="10" x1="-60.9" y1="-111.2" x2="-43.5" y2="-102.4"/>
<line fill="none" stroke="#4A3E98" stroke-width="5" stroke-linecap="round" stroke-linejoin="round" stroke-miterlimit="10" x1="-15.5" y1="-134" x2="-15.5" y2="-119"/>
<line fill="none" stroke="#4A3E98" stroke-width="5.1696" stroke-linecap="round" stroke-linejoin="round" stroke-miterlimit="10" x1="9.5" y1="-102.9" x2="24.5" y2="-112.7"/>
<line fill="none" stroke="#4A3E98" stroke-width="5.1696" stroke-linecap="round" stroke-linejoin="round" stroke-miterlimit="10" x1="27.8" y1="-70" x2="46.7" y2="-77.6"/>
<line fill="none" stroke="#4A3E98" stroke-width="5.1696" stroke-linecap="round" stroke-linejoin="round" stroke-miterlimit="10" x1="41.6" y1="-29.3" x2="62.5" y2="-34.9"/>
<line fill="none" stroke="#4A3E98" stroke-width="5.1696" stroke-linecap="round" stroke-linejoin="round" stroke-miterlimit="10" x1="51.4" y1="12.7" x2="74.5" y2="6.5"/>
<line fill="none" stroke="#4A3E98" stroke-width="5.1696" stroke-linecap="round" stroke-linejoin="round" stroke-miterlimit="10" x1="62.5" y1="60.7" x2="85.9" y2="54.7"/>
<line fill="none" stroke="#4A3E98" stroke-width="5.1696" stroke-linecap="round" stroke-linejoin="round" stroke-miterlimit="10" x1="76.5" y1="108.5" x2="98.6" y2="102.5"/>
<line fill="none" stroke="#4A3E98" stroke-width="5.1696" stroke-linecap="round" stroke-linejoin="round" stroke-miterlimit="10" x1="89.6" y1="155.5" x2="108.9" y2="148.4"/>
<line fill="none" stroke="#4A3E98" stroke-width="5.1696" stroke-linecap="round" stroke-linejoin="round" stroke-miterlimit="10" x1="128.1" y1="197" x2="110.7" y2="206.8"/>
<line fill="none" stroke="#4A3E98" stroke-width="5.1696" stroke-linecap="round" stroke-linejoin="round" stroke-miterlimit="10" x1="150.4" y1="237.7" x2="135.2" y2="248.6"/>
<line fill="none" stroke="#4A3E98" stroke-width="5.1696" stroke-linecap="round" stroke-linejoin="round" stroke-miterlimit="10" x1="189.1" y1="264.9" x2="181.3" y2="281.7"/>
<line fill="none" stroke="#4A3E98" stroke-width="5" stroke-linecap="round" stroke-linejoin="round" stroke-miterlimit="10" x1="230.5" y1="270" x2="230.5" y2="287"/>
<line fill="none" stroke="#4A3E98" stroke-width="5.1696" stroke-linecap="round" stroke-linejoin="round" stroke-miterlimit="10" x1="363.7" y1="204.2" x2="378.6" y2="211.9"/>
<line fill="none" stroke="#4A3E98" stroke-width="5.1696" stroke-linecap="round" stroke-linejoin="round" stroke-miterlimit="10" x1="379.1" y1="172.3" x2="398" y2="179"/>
<line fill="none" stroke="#4A3E98" stroke-width="5.1696" stroke-linecap="round" stroke-linejoin="round" stroke-miterlimit="10" x1="378.7" y1="130.8" x2="398.7" y2="130.6"/>
<line fill="none" stroke="#4A3E98" stroke-width="5.1696" stroke-linecap="round" stroke-linejoin="round" stroke-miterlimit="10" x1="304.1" y1="74.8" x2="303.7" y2="54.7"/>
<line fill="none" stroke="#4A3E98" stroke-width="5.1696" stroke-linecap="round" stroke-linejoin="round" stroke-miterlimit="10" x1="227.2" y1="130.5" x2="211.7" y2="130.1"/>
<line fill="none" stroke="#4A3E98" stroke-width="5.1696" stroke-linecap="round" stroke-linejoin="round" stroke-miterlimit="10" x1="227.2" y1="173.2" x2="209.4" y2="178.4"/>
<line fill="none" stroke="#4A3E98" stroke-width="5.1696" stroke-linecap="round" stroke-linejoin="round" stroke-miterlimit="10" x1="242.8" y1="201.3" x2="227.7" y2="209.6"/>
<line fill="none" stroke="#4A3E98" stroke-width="5.1696" stroke-linecap="round" stroke-linejoin="round" stroke-miterlimit="10" x1="362.1" y1="100" x2="376.4" y2="86.2"/>
<line fill="none" stroke="#4A3E98" stroke-width="5.1696" stroke-linecap="round" stroke-linejoin="round" stroke-miterlimit="10" x1="242.1" y1="100" x2="231.1" y2="88.5"/>
<line fill="none" stroke="#4A3E98" stroke-width="5.1696" stroke-linecap="round" stroke-linejoin="round" stroke-miterlimit="10" x1="270.8" y1="81.1" x2="262.3" y2="64.7"/>
<line fill="none" stroke="#4A3E98" stroke-width="5.1696" stroke-linecap="round" stroke-linejoin="round" stroke-miterlimit="10" x1="339" y1="81.1" x2="345.5" y2="64.7"/>
<line fill="none" stroke="#4A3E98" stroke-width="5.1696" stroke-linecap="round" stroke-linejoin="round" stroke-miterlimit="10" x1="276.5" y1="230.9" x2="262.3" y2="240.4"/>
<line fill="none" stroke="#4A3E98" stroke-width="5.1696" stroke-linecap="round" stroke-linejoin="round" stroke-miterlimit="10" x1="334.2" y1="230.9" x2="345.5" y2="240.4"/>
<line fill="none" stroke="#4A3E98" stroke-width="5.1696" stroke-linecap="round" stroke-linejoin="round" stroke-miterlimit="10" x1="359" y1="266.2" x2="353.9" y2="278.5"/>
<line fill="none" stroke="#4A3E98" stroke-width="5.1696" stroke-linecap="round" stroke-linejoin="round" stroke-miterlimit="10" x1="398" y1="268.9" x2="398.7" y2="289.4"/>
<line fill="none" stroke="#4A3E98" stroke-width="5.1696" stroke-linecap="round" stroke-linejoin="round" stroke-miterlimit="10" x1="431.1" y1="257" x2="446.3" y2="272.4"/>
<line fill="none" stroke="#4A3E98" stroke-width="5.1696" stroke-linecap="round" stroke-linejoin="round" stroke-miterlimit="10" x1="454.5" y1="230.9" x2="472.1" y2="235.6"/>
<line fill="none" stroke="#4A3E98" stroke-width="5.1696" stroke-linecap="round" stroke-linejoin="round" stroke-miterlimit="10" x1="471.1" y1="196.3" x2="490.8" y2="201.3"/>
<line fill="none" stroke="#4A3E98" stroke-width="5.1696" stroke-linecap="round" stroke-linejoin="round" stroke-miterlimit="10" x1="490.8" y1="157.6" x2="508.6" y2="168.6"/>
<line fill="none" stroke="#4A3E98" stroke-width="5.1696" stroke-linecap="round" stroke-linejoin="round" stroke-miterlimit="10" x1="536.1" y1="134.4" x2="535.5" y2="154"/>
<line fill="none" stroke="#4A3E98" stroke-width="5.1696" stroke-linecap="round" stroke-linejoin="round" stroke-miterlimit="10" x1="573.5" y1="154" x2="561.1" y2="168.6"/>
<line fill="none" stroke="#4A3E98" stroke-width="5.1696" stroke-linecap="round" stroke-linejoin="round" stroke-miterlimit="10" x1="592.3" y1="188.7" x2="578.8" y2="196.3"/>
<line fill="none" stroke="#4A3E98" stroke-width="5.1696" stroke-linecap="round" stroke-linejoin="round" stroke-miterlimit="10" x1="605.8" y1="226.2" x2="589.1" y2="235.6"/>
<line fill="none" stroke="#4A3E98" stroke-width="5.1696" stroke-linecap="round" stroke-linejoin="round" stroke-miterlimit="10" x1="621.7" y1="259.5" x2="608.4" y2="274.6"/>
<path fill="none" stroke="#4A3E98" stroke-width="10.3392" stroke-linecap="round" stroke-linejoin="round" stroke-miterlimit="10" d="
	M-61.9,287c-0.5-1.6-0.8-3.2-0.8-5c0-3.4,1.1-6.6,3-9.1c-2.8-1.9-4.6-5.1-4.6-8.7c0-5.8,4.7-10.6,10.6-10.6c0.4,0,0.8,0,1.2,0.1
	c0.6-7,2.5-13.5,5.5-19.5c-3.2-2.6-5.3-6.6-5.3-11.1c0-7.9,6.4-14.2,14.2-14.2c4,0,7.5,1.6,10.1,4.2c8.2-5.2,18-8.3,28.5-8.3
	c21.1,0,39.3,12.3,47.9,30c1.9-1,4.1-1.6,6.4-1.6c7.8,0,14.2,6.4,14.2,14.2c0,5.8-3.5,10.8-8.5,13c1.5,1.5,2.4,3.6,2.4,5.9
	c0,4.6-3.7,8.4-8.4,8.4c-1.2,0-2.3-0.2-3.3-0.7c-1.5,4.7-3.5,9-6.2,13"/>
<path fill="none" stroke="#4A3E98" stroke-width="10.3392" stroke-linecap="round" stroke-linejoin="round" stroke-miterlimit="10" d="
	M55,233.4c-8,0-14.5,6.5-14.5,14.5"/>
<path fill="none" stroke="#4A3E98" stroke-width="10.3392" stroke-linecap="round" stroke-linejoin="round" stroke-miterlimit="10" d="
	M-25.9,216.7c-2.1-4.5-6.8-7.7-12.1-7.7"/>
<path fill="none" stroke="#4A3E98" stroke-width="5.1696" stroke-linecap="round" stroke-linejoin="round" stroke-miterlimit="10" d="
	M-12.3,279.8c0-3.3-2.6-5.9-5.9-5.9s-5.9,2.6-5.9,5.9"/>
<path fill="none" stroke="#4A3E98" stroke-width="5.1696" stroke-linecap="round" stroke-linejoin="round" stroke-miterlimit="10" d="
	M-24.1,279.8c0-2.2-1.8-4.1-4.1-4.1s-4.1,1.8-4.1,4.1"/>
<path fill="none" stroke="#4A3E98" stroke-width="5.1696" stroke-linecap="round" stroke-linejoin="round" stroke-miterlimit="10" d="
	M26.7,239.6c0-1.5-1.2-2.7-2.7-2.7c-1.5,0-2.7,1.2-2.7,2.7"/>
<path fill="none" stroke="#4A3E98" stroke-width="5.1696" stroke-linecap="round" stroke-linejoin="round" stroke-miterlimit="10" d="
	M21,239.6c0-3.6-2.9-6.5-6.5-6.5S8,236,8,239.6"/>
<path fill="none" stroke="#4A3E98" stroke-width="5.1696" stroke-linecap="round" stroke-linejoin="round" stroke-miterlimit="10" d="
	M7.6,239.7c0-2-1.6-3.6-3.6-3.6s-3.6,1.6-3.6,3.6"/>
<path fill="none" stroke="#4A3E98" stroke-width="5.1696" stroke-linecap="round" stroke-linejoin="round" stroke-miterlimit="10" d="
	M576.5,288.6c0.9-1.6,1.5-3.5,1.5-5.4c0-2.4-0.8-4.6-2.1-6.3c1.9-1.3,3.2-3.5,3.2-6c0-4.1-3.3-7.4-7.4-7.4c-0.3,0-0.6,0-0.8,0.1
	c-0.4-4.8-1.7-9.4-3.8-13.5c2.2-1.8,3.7-4.6,3.7-7.7c0-5.5-4.4-9.9-9.9-9.9c-2.8,0-5.2,1.1-7,2.9c-5.7-3.6-12.5-5.8-19.8-5.8
	c-14.7,0-27.3,8.5-33.3,20.9c-1.3-0.7-2.9-1.1-4.5-1.1c-5.5,0-9.9,4.4-9.9,9.9c0,4,2.4,7.5,5.9,9c-1,1.1-1.7,2.5-1.7,4.1
	c0,3.2,2.6,5.8,5.8,5.8c0.8,0,1.6-0.2,2.3-0.5c1.1,3.7,2.8,7.1,5,10.1"/>
<path fill="none" stroke="#4A3E98" stroke-width="5.1696" stroke-linecap="round" stroke-linejoin="round" stroke-miterlimit="10" d="
	M496.1,249.3c5.6,0,10.1,4.5,10.1,10.1"/>
<path fill="none" stroke="#4A3E98" stroke-width="5.1696" stroke-linecap="round" stroke-linejoin="round" stroke-miterlimit="10" d="
	M552.4,237.7c1.5-3.2,4.7-5.4,8.4-5.4"/>
<path fill="none" stroke="#4A3E98" stroke-width="2.5848" stroke-linecap="round" stroke-linejoin="round" stroke-miterlimit="10" d="
	M518.9,258.7c0-2.3,1.8-4.1,4.1-4.1s4.1,1.8,4.1,4.1"/>
<path fill="none" stroke="#4A3E98" stroke-width="2.5848" stroke-linecap="round" stroke-linejoin="round" stroke-miterlimit="10" d="
	M527.1,258.7c0-1.6,1.3-2.8,2.8-2.8s2.8,1.3,2.8,2.8"/>
<path fill="none" stroke="#4A3E98" stroke-width="2.5848" stroke-linecap="round" stroke-linejoin="round" stroke-miterlimit="10" d="
	M539.7,277.8c0-1,0.8-1.9,1.9-1.9c1,0,1.9,0.8,1.9,1.9"/>
<path fill="none" stroke="#4A3E98" stroke-width="2.5848" stroke-linecap="round" stroke-linejoin="round" stroke-miterlimit="10" d="
	M543.7,277.8c0-2.5,2-4.5,4.5-4.5s4.5,2,4.5,4.5"/>
<path fill="none" stroke="#4A3E98" stroke-width="2.5848" stroke-linecap="round" stroke-linejoin="round" stroke-miterlimit="10" d="
	M553,277.9c0-1.4,1.1-2.5,2.5-2.5s2.5,1.1,2.5,2.5"/>
<line fill="none" stroke="#4A3E98" stroke-width="5" stroke-linecap="round" stroke-linejoin="round" stroke-miterlimit="10" x1="-99" y1="108.5" x2="-115" y2="108.5"/>
<line fill="none" stroke="#4A3E98" stroke-width="5" stroke-linecap="round" stroke-linejoin="round" stroke-miterlimit="10" x1="493" y1="-130.5" x2="586" y2="-130.5"/>
<line fill="none" stroke="#4A3E98" stroke-width="5" stroke-linecap="round" stroke-linejoin="round" stroke-miterlimit="10" x1="556" y1="-140.5" x2="597" y2="-140.5"/>
<path fill="none" stroke="#4A3E98" stroke-width="5.1696" stroke-linecap="round" stroke-linejoin="round" stroke-miterlimit="10" d="
	M640.1-139.8c0-5.8-4.7-10.6-10.6-10.6c-2.5,0-4.8,0.9-6.6,2.3c-2.1-4.7-6.8-7.9-12.2-7.9c-7.4,0-13.4,6-13.4,13.4"/>
<g>
	<path fill="#7CDACC" d="M7.5-113.1l6.5-41.5c0-2.6-2.9-4.8-6.5-4.8h-42.6c-3.6,0-6.5,2.2-6.5,4.8l6.5,40.6L7.5-113.1z"/>
	<path fill="#F12E58" d="M17.3-106.1l6.5-41.5c0-2.6-2.9-4.8-6.5-4.8h-42.6c-3.6,0-6.5,2.2-6.5,4.8l6.5,40.6L17.3-106.1z"/>
	<g>
		
			<path fill="none" stroke="#4A3E98" stroke-width="10.3392" stroke-linecap="round" stroke-linejoin="round" stroke-miterlimit="10" d="
			M-34.5-114.1l-6.5-40.6c0-2.6,2.9-4.8,6.5-4.8H8.2c3.6,0,6.5,2.2,6.5,4.8l-6.5,41.5"/>
		
			<path fill="none" stroke="#4A3E98" stroke-width="6.4014" stroke-linecap="round" stroke-linejoin="round" stroke-miterlimit="10" d="
			M3.4-158.8h-29.7v-15.5c0-8.2,6.7-14.9,14.9-14.9h0c8.2,0,14.9,6.7,14.9,14.9V-158.8z"/>
		<circle fill="#4A3E98" cx="-5.9" cy="-175.2" r="1.9"/>
		
			<line fill="none" stroke="#4A3E98" stroke-width="5" stroke-linecap="round" stroke-linejoin="round" stroke-miterlimit="10" x1="-38" y1="-147.5" x2="-22" y2="-147.5"/>
		
			<line fill="none" stroke="#4A3E98" stroke-width="5" stroke-linecap="round" stroke-linejoin="round" stroke-miterlimit="10" x1="-38" y1="-138.5" x2="-14" y2="-138.5"/>
		
			<line fill="none" stroke="#4A3E98" stroke-width="5" stroke-linecap="round" stroke-linejoin="round" stroke-miterlimit="10" x1="8" y1="-127.5" x2="-6" y2="-127.5"/>
	</g>
</g>
<line fill="none" stroke="#4A3E98" stroke-width="10" stroke-linecap="round" stroke-linejoin="round" stroke-miterlimit="10" x1="-44" y1="-103" x2="-44" y2="208"/>
<line fill="none" stroke="#4A3E98" stroke-width="10" stroke-linecap="round" stroke-linejoin="round" stroke-miterlimit="10" x1="7" y1="-105" x2="7" y2="204"/>
<path fill="none" stroke="#4A3E98" stroke-width="10.3392" stroke-linecap="round" stroke-linejoin="round" stroke-miterlimit="10" d="
	M-178.2,289.5c119.9,0,57.2-407,162-407c92.9,0,61.2,407,231.5,407c55,0,186.1-45.2,186.1-137c0-29.4-21.1-97.8-97.8-97.8
	c-60.3,0-97.8,46.1-97.8,97.8c0,102.1,152.4,137,188.3,137c100.9,0,85.4-135.4,141.4-135.4c52.6,0,44,135.4,100.7,135.4"/>
</svg>
