<?xml version="1.0" encoding="utf-8"?>
<!-- Generator: Adobe Illustrator 18.1.1, SVG Export Plug-In . SVG Version: 6.00 Build 0)  -->
<svg version="1.1" id="Layer_1" xmlns="http://www.w3.org/2000/svg" xmlns:xlink="http://www.w3.org/1999/xlink" x="0px" y="0px"
	 viewBox="0 0 415 245" enable-background="new 0 0 415 245" xml:space="preserve">
<g>
	<g>
		<defs>
			<rect id="SVGID_1_" x="-112.8" y="-30.6" width="643.6" height="321.8"/>
		</defs>
		<clipPath id="SVGID_2_">
			<use xlink:href="#SVGID_1_"  overflow="visible"/>
		</clipPath>
		<g clip-path="url(#SVGID_2_)">
			<defs>
				<rect id="SVGID_3_" x="-112.8" y="-30.6" width="643.6" height="321.8"/>
			</defs>
			<clipPath id="SVGID_4_">
				<use xlink:href="#SVGID_3_"  overflow="visible"/>
			</clipPath>
			<path clip-path="url(#SVGID_4_)" fill="#FFFFFF" d="M149.8,68.2c0-5.7,4.6-10.3,10.3-10.3c1.9,0,3.7,0.5,5.3,1.5
				c2.4-2.6,5.8-4.3,9.7-4.3c7.2,0,13.1,5.9,13.1,13.1c0,0.3,0,0.7,0,1c0.3,0,0.6,0,1,0c5.7,0-39.3,0-39.3,0V68.2z"/>
			<path clip-path="url(#SVGID_4_)" fill="#FFFFFF" d="M257.4,119.6c-0.5-1-0.7-2.2-0.7-3.4c0-4.4,3.6-8.1,8-8.1
				c1.6,0,3,0.4,4.2,1.2c2.1-6.9,8.5-11.9,16-11.9c9.2,0,16.7,7.5,16.7,16.7v5.1L257.4,119.6z"/>
			<path clip-path="url(#SVGID_4_)" fill="#F8993C" d="M66,244.2c-0.3-0.8-0.4-1.6-0.4-2.5c0-1.7,0.6-3.3,1.5-4.5
				c-1.4-0.9-2.3-2.5-2.3-4.3c0-2.9,2.4-5.3,5.3-5.3c0.2,0,0.4,0,0.6,0c0.3-3.5,1.2-6.7,2.7-9.7c-1.6-1.3-2.6-3.3-2.6-5.5
				c0-3.9,3.2-7.1,7.1-7.1c2,0,3.8,0.8,5,2.1c4.1-2.6,9-4.1,14.2-4.1c10.5,0,19.6,6.1,23.9,14.9c1-0.5,2.1-0.8,3.2-0.8
				c3.9,0,7.1,3.2,7.1,7.1c0,2.9-1.7,5.4-4.2,6.5c0.7,0.8,1.2,1.8,1.2,2.9c0,2.3-1.9,4.2-4.2,4.2c-0.6,0-1.1-0.1-1.6-0.3
				c-0.7,2.3-1.8,4.5-3.1,6.5"/>
			<path clip-path="url(#SVGID_4_)" fill="#F8993C" d="M382,244c0.5-0.8,0.7-1.7,0.7-2.7c0-1.2-0.4-2.3-1-3.2c1-0.7,1.6-1.8,1.6-3
				c0-2-1.6-3.7-3.7-3.7c-0.1,0-0.3,0-0.4,0c-0.2-2.4-0.9-4.7-1.9-6.7c1.1-0.9,1.8-2.3,1.8-3.8c0-2.7-2.2-4.9-4.9-4.9
				c-1.4,0-2.6,0.6-3.5,1.5c-2.9-1.8-6.2-2.9-9.9-2.9c-7.3,0-13.6,4.2-16.6,10.4c-0.7-0.3-1.4-0.5-2.2-0.5c-2.7,0-4.9,2.2-4.9,4.9
				c0,2,1.2,3.7,2.9,4.5c-0.5,0.5-0.8,1.2-0.8,2c0,1.6,1.3,2.9,2.9,2.9c0.4,0,0.8-0.1,1.1-0.2c0.6,1.8,1.4,3.5,2.5,5"/>
			<path clip-path="url(#SVGID_4_)" fill="#FFFFFF" d="M391.8,27.7c0-3.7,3-6.7,6.7-6.7c2.7,0,5,1.6,6.1,3.9c0.9-0.7,2-1.1,3.3-1.1
				c2.9,0,5.3,2.4,5.3,5.3l-21.2-0.5V27.7z"/>
		</g>
		<g clip-path="url(#SVGID_2_)">
			<defs>
				<rect id="SVGID_5_" x="-112.8" y="-30.6" width="643.6" height="321.8"/>
			</defs>
			<clipPath id="SVGID_6_">
				<use xlink:href="#SVGID_5_"  overflow="visible"/>
			</clipPath>
			
				<path clip-path="url(#SVGID_6_)" fill="none" stroke="#4A3E98" stroke-width="2.5744" stroke-linecap="round" stroke-linejoin="round" stroke-miterlimit="10" d="
				M3.7,230.7c47.2-0.2,16.1-201.4,80.5-201.4c61.8,0,40.5,202.7,117.7,201.8c27.4-0.3,79.2-19.7,80.5-58.7
				c0.5-14.6-11-38.3-38.7-38.4c-29-0.1-40.4,24.7-39.9,38.4c1.2,36,56,58.6,81.1,58.6c50.3,0,33.7-67.6,74.3-67.3
				c33.5,0.3,32.2,68.6,51.8,68.6"/>
			
				<path clip-path="url(#SVGID_6_)" fill="none" stroke="#4A3E98" stroke-width="2.5744" stroke-linecap="round" stroke-linejoin="round" stroke-miterlimit="10" d="
				M197.4,76.2c0-5.7-4.6-10.3-10.3-10.3c-0.3,0-0.7,0-1,0c0-0.3,0-0.7,0-1c0-7.2-5.9-13.1-13.1-13.1c-3.8,0-7.3,1.6-9.7,4.3
				c-1.5-0.9-3.4-1.5-5.3-1.5c-5.7,0-10.3,4.6-10.3,10.3"/>
			
				<line clip-path="url(#SVGID_6_)" fill="none" stroke="#4A3E98" stroke-width="2.5744" stroke-linecap="round" stroke-linejoin="round" stroke-miterlimit="10" x1="122.1" y1="66.5" x2="154.9" y2="66.5"/>
			
				<line clip-path="url(#SVGID_6_)" fill="none" stroke="#4A3E98" stroke-width="2.5744" stroke-linecap="round" stroke-linejoin="round" stroke-miterlimit="10" x1="312.6" y1="112.9" x2="347.4" y2="112.9"/>
			
				<line clip-path="url(#SVGID_6_)" fill="none" stroke="#4A3E98" stroke-width="2.5744" stroke-linecap="round" stroke-linejoin="round" stroke-miterlimit="10" x1="325.5" y1="107.7" x2="337.7" y2="107.7"/>
			
				<line clip-path="url(#SVGID_6_)" fill="none" stroke="#4A3E98" stroke-width="2.5744" stroke-linecap="round" stroke-linejoin="round" stroke-miterlimit="10" x1="302.3" y1="112.9" x2="290.7" y2="112.9"/>
			
				<path clip-path="url(#SVGID_6_)" fill="none" stroke="#4A3E98" stroke-width="2.5744" stroke-linecap="round" stroke-linejoin="round" stroke-miterlimit="10" d="
				M299.1,111.6c0-9.2-7.5-16.7-16.7-16.7c-7.6,0-14,5-16,11.9c-1.2-0.8-2.7-1.2-4.2-1.2c-4.4,0-8,3.6-8,8c0,1.2,0.3,2.3,0.7,3.3
				c-1.9,0.8-3.3,2.7-3.3,4.9"/>
			
				<line clip-path="url(#SVGID_6_)" fill="none" stroke="#4A3E98" stroke-width="5.1488" stroke-linecap="round" stroke-linejoin="round" stroke-miterlimit="10" x1="55.2" y1="241" x2="120.2" y2="241"/>
			
				<line clip-path="url(#SVGID_6_)" fill="none" stroke="#4A3E98" stroke-width="5.1488" stroke-linecap="round" stroke-linejoin="round" stroke-miterlimit="10" x1="131.1" y1="241" x2="143.4" y2="241"/>
			
				<line clip-path="url(#SVGID_6_)" fill="none" stroke="#4A3E98" stroke-width="2.5744" stroke-linecap="round" stroke-linejoin="round" stroke-miterlimit="10" x1="8.2" y1="230.7" x2="8.2" y2="241"/>
			
				<line clip-path="url(#SVGID_6_)" fill="none" stroke="#4A3E98" stroke-width="2.5744" stroke-linecap="round" stroke-linejoin="round" stroke-miterlimit="10" x1="19.9" y1="219.7" x2="26.9" y2="226.7"/>
			
				<line clip-path="url(#SVGID_6_)" fill="none" stroke="#4A3E98" stroke-width="2.5744" stroke-linecap="round" stroke-linejoin="round" stroke-miterlimit="10" x1="27.8" y1="196.9" x2="36.8" y2="201.2"/>
			
				<line clip-path="url(#SVGID_6_)" fill="none" stroke="#4A3E98" stroke-width="2.5744" stroke-linecap="round" stroke-linejoin="round" stroke-miterlimit="10" x1="32.6" y1="173.5" x2="41.4" y2="174.5"/>
			
				<line clip-path="url(#SVGID_6_)" fill="none" stroke="#4A3E98" stroke-width="2.5744" stroke-linecap="round" stroke-linejoin="round" stroke-miterlimit="10" x1="38.5" y1="127" x2="47.7" y2="127"/>
			
				<line clip-path="url(#SVGID_6_)" fill="none" stroke="#4A3E98" stroke-width="2.5744" stroke-linecap="round" stroke-linejoin="round" stroke-miterlimit="10" x1="41.7" y1="105.2" x2="52" y2="105.2"/>
			
				<line clip-path="url(#SVGID_6_)" fill="none" stroke="#4A3E98" stroke-width="2.5744" stroke-linecap="round" stroke-linejoin="round" stroke-miterlimit="10" x1="45.5" y1="81.9" x2="54.5" y2="82.8"/>
			
				<line clip-path="url(#SVGID_6_)" fill="none" stroke="#4A3E98" stroke-width="2.5744" stroke-linecap="round" stroke-linejoin="round" stroke-miterlimit="10" x1="51.3" y1="60.6" x2="59.5" y2="63.8"/>
			
				<line clip-path="url(#SVGID_6_)" fill="none" stroke="#4A3E98" stroke-width="2.5744" stroke-linecap="round" stroke-linejoin="round" stroke-miterlimit="10" x1="62" y1="41.4" x2="70.6" y2="45.8"/>
			
				<line clip-path="url(#SVGID_6_)" fill="none" stroke="#4A3E98" stroke-width="2.5744" stroke-linecap="round" stroke-linejoin="round" stroke-miterlimit="10" x1="84.8" y1="29.9" x2="84.8" y2="37.6"/>
			
				<line clip-path="url(#SVGID_6_)" fill="none" stroke="#4A3E98" stroke-width="2.5744" stroke-linecap="round" stroke-linejoin="round" stroke-miterlimit="10" x1="97" y1="45.6" x2="104.5" y2="40.7"/>
			
				<line clip-path="url(#SVGID_6_)" fill="none" stroke="#4A3E98" stroke-width="2.5744" stroke-linecap="round" stroke-linejoin="round" stroke-miterlimit="10" x1="106.1" y1="61.9" x2="115.5" y2="58.1"/>
			
				<line clip-path="url(#SVGID_6_)" fill="none" stroke="#4A3E98" stroke-width="2.5744" stroke-linecap="round" stroke-linejoin="round" stroke-miterlimit="10" x1="113" y1="82.2" x2="123.4" y2="79.4"/>
			
				<line clip-path="url(#SVGID_6_)" fill="none" stroke="#4A3E98" stroke-width="2.5744" stroke-linecap="round" stroke-linejoin="round" stroke-miterlimit="10" x1="117.9" y1="103.1" x2="129.4" y2="100"/>
			
				<line clip-path="url(#SVGID_6_)" fill="none" stroke="#4A3E98" stroke-width="2.5744" stroke-linecap="round" stroke-linejoin="round" stroke-miterlimit="10" x1="123.4" y1="127" x2="135.1" y2="124"/>
			
				<line clip-path="url(#SVGID_6_)" fill="none" stroke="#4A3E98" stroke-width="2.5744" stroke-linecap="round" stroke-linejoin="round" stroke-miterlimit="10" x1="130.4" y1="150.9" x2="141.4" y2="147.8"/>
			
				<line clip-path="url(#SVGID_6_)" fill="none" stroke="#4A3E98" stroke-width="2.5744" stroke-linecap="round" stroke-linejoin="round" stroke-miterlimit="10" x1="136.9" y1="174.2" x2="146.5" y2="170.7"/>
			
				<line clip-path="url(#SVGID_6_)" fill="none" stroke="#4A3E98" stroke-width="2.5744" stroke-linecap="round" stroke-linejoin="round" stroke-miterlimit="10" x1="156.1" y1="194.9" x2="147.4" y2="199.8"/>
			
				<line clip-path="url(#SVGID_6_)" fill="none" stroke="#4A3E98" stroke-width="2.5744" stroke-linecap="round" stroke-linejoin="round" stroke-miterlimit="10" x1="167.2" y1="215.2" x2="159.7" y2="220.6"/>
			
				<line clip-path="url(#SVGID_6_)" fill="none" stroke="#4A3E98" stroke-width="2.5744" stroke-linecap="round" stroke-linejoin="round" stroke-miterlimit="10" x1="186.5" y1="228.7" x2="182.6" y2="237.1"/>
			
				<line clip-path="url(#SVGID_6_)" fill="none" stroke="#4A3E98" stroke-width="2.5744" stroke-linecap="round" stroke-linejoin="round" stroke-miterlimit="10" x1="207.1" y1="231.3" x2="207.1" y2="239.7"/>
			
				<line clip-path="url(#SVGID_6_)" fill="none" stroke="#4A3E98" stroke-width="2.5744" stroke-linecap="round" stroke-linejoin="round" stroke-miterlimit="10" x1="273.4" y1="198.5" x2="280.9" y2="202.3"/>
			
				<line clip-path="url(#SVGID_6_)" fill="none" stroke="#4A3E98" stroke-width="2.5744" stroke-linecap="round" stroke-linejoin="round" stroke-miterlimit="10" x1="281.1" y1="182.6" x2="290.5" y2="186"/>
			
				<line clip-path="url(#SVGID_6_)" fill="none" stroke="#4A3E98" stroke-width="2.5744" stroke-linecap="round" stroke-linejoin="round" stroke-miterlimit="10" x1="280.9" y1="161.9" x2="290.9" y2="161.8"/>
			
				<line clip-path="url(#SVGID_6_)" fill="none" stroke="#4A3E98" stroke-width="2.5744" stroke-linecap="round" stroke-linejoin="round" stroke-miterlimit="10" x1="243.8" y1="134" x2="243.5" y2="124"/>
			
				<line clip-path="url(#SVGID_6_)" fill="none" stroke="#4A3E98" stroke-width="2.5744" stroke-linecap="round" stroke-linejoin="round" stroke-miterlimit="10" x1="205.4" y1="161.8" x2="197.7" y2="161.6"/>
			
				<line clip-path="url(#SVGID_6_)" fill="none" stroke="#4A3E98" stroke-width="2.5744" stroke-linecap="round" stroke-linejoin="round" stroke-miterlimit="10" x1="205.4" y1="183" x2="196.6" y2="185.7"/>
			
				<line clip-path="url(#SVGID_6_)" fill="none" stroke="#4A3E98" stroke-width="2.5744" stroke-linecap="round" stroke-linejoin="round" stroke-miterlimit="10" x1="213.2" y1="197" x2="205.7" y2="201.2"/>
			
				<line clip-path="url(#SVGID_6_)" fill="none" stroke="#4A3E98" stroke-width="2.5744" stroke-linecap="round" stroke-linejoin="round" stroke-miterlimit="10" x1="272.6" y1="146.6" x2="279.7" y2="139.7"/>
			
				<line clip-path="url(#SVGID_6_)" fill="none" stroke="#4A3E98" stroke-width="2.5744" stroke-linecap="round" stroke-linejoin="round" stroke-miterlimit="10" x1="212.9" y1="146.6" x2="207.4" y2="140.9"/>
			
				<line clip-path="url(#SVGID_6_)" fill="none" stroke="#4A3E98" stroke-width="2.5744" stroke-linecap="round" stroke-linejoin="round" stroke-miterlimit="10" x1="227.2" y1="137.2" x2="222.9" y2="129"/>
			
				<line clip-path="url(#SVGID_6_)" fill="none" stroke="#4A3E98" stroke-width="2.5744" stroke-linecap="round" stroke-linejoin="round" stroke-miterlimit="10" x1="261.1" y1="137.2" x2="264.4" y2="129"/>
			
				<line clip-path="url(#SVGID_6_)" fill="none" stroke="#4A3E98" stroke-width="2.5744" stroke-linecap="round" stroke-linejoin="round" stroke-miterlimit="10" x1="230" y1="211.8" x2="222.9" y2="216.5"/>
			
				<line clip-path="url(#SVGID_6_)" fill="none" stroke="#4A3E98" stroke-width="2.5744" stroke-linecap="round" stroke-linejoin="round" stroke-miterlimit="10" x1="258.8" y1="211.8" x2="264.4" y2="216.5"/>
			
				<line clip-path="url(#SVGID_6_)" fill="none" stroke="#4A3E98" stroke-width="2.5744" stroke-linecap="round" stroke-linejoin="round" stroke-miterlimit="10" x1="271.1" y1="229.4" x2="268.5" y2="235.5"/>
			
				<line clip-path="url(#SVGID_6_)" fill="none" stroke="#4A3E98" stroke-width="2.5744" stroke-linecap="round" stroke-linejoin="round" stroke-miterlimit="10" x1="290.5" y1="230.7" x2="290.9" y2="240.9"/>
			
				<line clip-path="url(#SVGID_6_)" fill="none" stroke="#4A3E98" stroke-width="2.5744" stroke-linecap="round" stroke-linejoin="round" stroke-miterlimit="10" x1="307" y1="224.8" x2="314.6" y2="232.4"/>
			
				<line clip-path="url(#SVGID_6_)" fill="none" stroke="#4A3E98" stroke-width="2.5744" stroke-linecap="round" stroke-linejoin="round" stroke-miterlimit="10" x1="318.6" y1="211.8" x2="327.4" y2="214.1"/>
			
				<line clip-path="url(#SVGID_6_)" fill="none" stroke="#4A3E98" stroke-width="2.5744" stroke-linecap="round" stroke-linejoin="round" stroke-miterlimit="10" x1="326.9" y1="194.5" x2="336.7" y2="197"/>
			
				<line clip-path="url(#SVGID_6_)" fill="none" stroke="#4A3E98" stroke-width="2.5744" stroke-linecap="round" stroke-linejoin="round" stroke-miterlimit="10" x1="336.7" y1="175.3" x2="345.6" y2="180.8"/>
			
				<line clip-path="url(#SVGID_6_)" fill="none" stroke="#4A3E98" stroke-width="2.5744" stroke-linecap="round" stroke-linejoin="round" stroke-miterlimit="10" x1="359.3" y1="163.7" x2="359" y2="173.5"/>
			
				<line clip-path="url(#SVGID_6_)" fill="none" stroke="#4A3E98" stroke-width="2.5744" stroke-linecap="round" stroke-linejoin="round" stroke-miterlimit="10" x1="377.9" y1="173.5" x2="371.7" y2="180.8"/>
			
				<line clip-path="url(#SVGID_6_)" fill="none" stroke="#4A3E98" stroke-width="2.5744" stroke-linecap="round" stroke-linejoin="round" stroke-miterlimit="10" x1="387.3" y1="190.8" x2="380.5" y2="194.5"/>
			
				<line clip-path="url(#SVGID_6_)" fill="none" stroke="#4A3E98" stroke-width="2.5744" stroke-linecap="round" stroke-linejoin="round" stroke-miterlimit="10" x1="394" y1="209.4" x2="385.7" y2="214.1"/>
			
				<line clip-path="url(#SVGID_6_)" fill="none" stroke="#4A3E98" stroke-width="2.5744" stroke-linecap="round" stroke-linejoin="round" stroke-miterlimit="10" x1="401.9" y1="226" x2="395.3" y2="233.6"/>
			
				<path clip-path="url(#SVGID_6_)" fill="none" stroke="#4A3E98" stroke-width="5.1488" stroke-linecap="round" stroke-linejoin="round" stroke-miterlimit="10" d="
				M61.5,239.7c-0.3-0.8-0.4-1.6-0.4-2.5c0-1.7,0.6-3.3,1.5-4.5c-1.4-0.9-2.3-2.5-2.3-4.3c0-2.9,2.4-5.3,5.3-5.3c0.2,0,0.4,0,0.6,0
				c0.3-3.5,1.2-6.7,2.7-9.7c-1.6-1.3-2.6-3.3-2.6-5.5c0-3.9,3.2-7.1,7.1-7.1c2,0,3.8,0.8,5,2.1c4.1-2.6,9-4.1,14.2-4.1
				c10.5,0,19.6,6.1,23.9,14.9c1-0.5,2.1-0.8,3.2-0.8c3.9,0,7.1,3.2,7.1,7.1c0,2.9-1.7,5.4-4.2,6.5c0.7,0.8,1.2,1.8,1.2,2.9
				c0,2.3-1.9,4.2-4.2,4.2c-0.6,0-1.1-0.1-1.6-0.3c-0.7,2.3-1.8,4.5-3.1,6.5"/>
			
				<path clip-path="url(#SVGID_6_)" fill="none" stroke="#4A3E98" stroke-width="5.1488" stroke-linecap="round" stroke-linejoin="round" stroke-miterlimit="10" d="
				M119.7,213c-4,0-7.2,3.2-7.2,7.2"/>
			
				<path clip-path="url(#SVGID_6_)" fill="none" stroke="#4A3E98" stroke-width="5.1488" stroke-linecap="round" stroke-linejoin="round" stroke-miterlimit="10" d="
				M79.4,204.7c-1.1-2.3-3.4-3.8-6-3.8"/>
			
				<path clip-path="url(#SVGID_6_)" fill="none" stroke="#4A3E98" stroke-width="2.5744" stroke-linecap="round" stroke-linejoin="round" stroke-miterlimit="10" d="
				M86.2,236.1c0-1.6-1.3-2.9-2.9-2.9s-2.9,1.3-2.9,2.9"/>
			
				<path clip-path="url(#SVGID_6_)" fill="none" stroke="#4A3E98" stroke-width="2.5744" stroke-linecap="round" stroke-linejoin="round" stroke-miterlimit="10" d="
				M80.3,236.1c0-1.1-0.9-2-2-2c-1.1,0-2,0.9-2,2"/>
			
				<path clip-path="url(#SVGID_6_)" fill="none" stroke="#4A3E98" stroke-width="2.5744" stroke-linecap="round" stroke-linejoin="round" stroke-miterlimit="10" d="
				M105.6,216.1c0-0.7-0.6-1.3-1.3-1.3c-0.7,0-1.3,0.6-1.3,1.3"/>
			
				<path clip-path="url(#SVGID_6_)" fill="none" stroke="#4A3E98" stroke-width="2.5744" stroke-linecap="round" stroke-linejoin="round" stroke-miterlimit="10" d="
				M102.8,216.1c0-1.8-1.5-3.2-3.2-3.2s-3.2,1.5-3.2,3.2"/>
			
				<path clip-path="url(#SVGID_6_)" fill="none" stroke="#4A3E98" stroke-width="2.5744" stroke-linecap="round" stroke-linejoin="round" stroke-miterlimit="10" d="
				M96.1,216.1c0-1-0.8-1.8-1.8-1.8c-1,0-1.8,0.8-1.8,1.8"/>
			
				<path clip-path="url(#SVGID_6_)" fill="none" stroke="#4A3E98" stroke-width="2.5744" stroke-linecap="round" stroke-linejoin="round" stroke-miterlimit="10" d="
				M379.4,240.8c0.5-0.8,0.7-1.7,0.7-2.7c0-1.2-0.4-2.3-1-3.2c1-0.7,1.6-1.8,1.6-3c0-2-1.6-3.7-3.7-3.7c-0.1,0-0.3,0-0.4,0
				c-0.2-2.4-0.9-4.7-1.9-6.7c1.1-0.9,1.8-2.3,1.8-3.8c0-2.7-2.2-4.9-4.9-4.9c-1.4,0-2.6,0.6-3.5,1.5c-2.9-1.8-6.2-2.9-9.9-2.9
				c-7.3,0-13.6,4.2-16.6,10.4c-0.7-0.3-1.4-0.5-2.2-0.5c-2.7,0-4.9,2.2-4.9,4.9c0,2,1.2,3.7,2.9,4.5c-0.5,0.5-0.8,1.2-0.8,2
				c0,1.6,1.3,2.9,2.9,2.9c0.4,0,0.8-0.1,1.1-0.2c0.6,1.8,1.4,3.5,2.5,5"/>
			
				<path clip-path="url(#SVGID_6_)" fill="none" stroke="#4A3E98" stroke-width="2.5744" stroke-linecap="round" stroke-linejoin="round" stroke-miterlimit="10" d="
				M339.4,221.2c2.8,0,5,2.2,5,5"/>
			
				<path clip-path="url(#SVGID_6_)" fill="none" stroke="#4A3E98" stroke-width="2.5744" stroke-linecap="round" stroke-linejoin="round" stroke-miterlimit="10" d="
				M367.4,215.5c0.7-1.6,2.3-2.7,4.2-2.7"/>
			
				<path clip-path="url(#SVGID_6_)" fill="none" stroke="#4A3E98" stroke-width="1.2872" stroke-linecap="round" stroke-linejoin="round" stroke-miterlimit="10" d="
				M350.7,225.9c0-1.1,0.9-2,2-2s2,0.9,2,2"/>
			
				<path clip-path="url(#SVGID_6_)" fill="none" stroke="#4A3E98" stroke-width="1.2872" stroke-linecap="round" stroke-linejoin="round" stroke-miterlimit="10" d="
				M354.8,225.9c0-0.8,0.6-1.4,1.4-1.4c0.8,0,1.4,0.6,1.4,1.4"/>
			
				<path clip-path="url(#SVGID_6_)" fill="none" stroke="#4A3E98" stroke-width="1.2872" stroke-linecap="round" stroke-linejoin="round" stroke-miterlimit="10" d="
				M361.1,235.4c0-0.5,0.4-0.9,0.9-0.9s0.9,0.4,0.9,0.9"/>
			
				<path clip-path="url(#SVGID_6_)" fill="none" stroke="#4A3E98" stroke-width="1.2872" stroke-linecap="round" stroke-linejoin="round" stroke-miterlimit="10" d="
				M363.1,235.4c0-1.2,1-2.3,2.3-2.3c1.2,0,2.3,1,2.3,2.3"/>
			
				<path clip-path="url(#SVGID_6_)" fill="none" stroke="#4A3E98" stroke-width="1.2872" stroke-linecap="round" stroke-linejoin="round" stroke-miterlimit="10" d="
				M367.7,235.5c0-0.7,0.6-1.3,1.3-1.3c0.7,0,1.3,0.6,1.3,1.3"/>
			
				<line clip-path="url(#SVGID_6_)" fill="none" stroke="#4A3E98" stroke-width="2.5744" stroke-linecap="round" stroke-linejoin="round" stroke-miterlimit="10" x1="43" y1="150.9" x2="35.2" y2="150.9"/>
			
				<line clip-path="url(#SVGID_6_)" fill="none" stroke="#4A3E98" stroke-width="2.5744" stroke-linecap="round" stroke-linejoin="round" stroke-miterlimit="10" x1="337.7" y1="31.8" x2="384.1" y2="31.8"/>
			
				<line clip-path="url(#SVGID_6_)" fill="none" stroke="#4A3E98" stroke-width="2.5744" stroke-linecap="round" stroke-linejoin="round" stroke-miterlimit="10" x1="369.3" y1="26.6" x2="389.9" y2="26.6"/>
			
				<path clip-path="url(#SVGID_6_)" fill="none" stroke="#4A3E98" stroke-width="2.5744" stroke-linecap="round" stroke-linejoin="round" stroke-miterlimit="10" d="
				M411.1,27.2c0-2.9-2.4-5.3-5.3-5.3c-1.2,0-2.4,0.4-3.3,1.1c-1-2.3-3.4-3.9-6.1-3.9c-3.7,0-6.7,3-6.7,6.7"/>
			
				<line clip-path="url(#SVGID_6_)" fill="none" stroke="#4A3E98" stroke-width="5.1488" stroke-linecap="round" stroke-linejoin="round" stroke-miterlimit="10" x1="336.4" y1="240.8" x2="389.9" y2="240.8"/>
			
				<line clip-path="url(#SVGID_6_)" fill="none" stroke="#4A3E98" stroke-width="5.1488" stroke-linecap="round" stroke-linejoin="round" stroke-miterlimit="10" x1="327.4" y1="240.8" x2="318.4" y2="240.8"/>
			<path clip-path="url(#SVGID_6_)" fill="#7CDACC" d="M96,40.5l3.2-20.7c0-1.3-1.4-2.4-3.2-2.4H74.8c-1.8,0-3.2,1.1-3.2,2.4
				L74.8,40L96,40.5z"/>
			<path clip-path="url(#SVGID_6_)" fill="#F12E58" d="M100.9,44l3.2-20.7c0-1.3-1.4-2.4-3.2-2.4H79.7c-1.8,0-3.2,1.1-3.2,2.4
				l3.2,20.2L100.9,44z"/>
			
				<path clip-path="url(#SVGID_6_)" fill="none" stroke="#4A3E98" stroke-width="5.1488" stroke-linecap="round" stroke-linejoin="round" stroke-miterlimit="10" d="
				M75.1,40l-3.2-20.2c0-1.3,1.4-2.4,3.2-2.4h21.2c1.8,0,3.2,1.1,3.2,2.4l-3.2,20.7"/>
			
				<path clip-path="url(#SVGID_6_)" fill="none" stroke="#4A3E98" stroke-width="3.1878" stroke-linecap="round" stroke-linejoin="round" stroke-miterlimit="10" d="
				M94,17.7H79.2V10c0-4.1,3.3-7.4,7.4-7.4c4.1,0,7.4,3.3,7.4,7.4V17.7z"/>
			<path clip-path="url(#SVGID_6_)" fill="#4A3E98" d="M90.3,9.5c0,0.5-0.4,1-1,1c-0.5,0-1-0.4-1-1c0-0.5,0.4-1,1-1
				C89.9,8.6,90.3,9,90.3,9.5"/>
			
				<line clip-path="url(#SVGID_6_)" fill="none" stroke="#4A3E98" stroke-width="2.5744" stroke-linecap="round" stroke-linejoin="round" stroke-miterlimit="10" x1="73.2" y1="23.4" x2="81.6" y2="23.4"/>
			
				<line clip-path="url(#SVGID_6_)" fill="none" stroke="#4A3E98" stroke-width="2.5744" stroke-linecap="round" stroke-linejoin="round" stroke-miterlimit="10" x1="73.2" y1="27.9" x2="85.4" y2="27.9"/>
			
				<line clip-path="url(#SVGID_6_)" fill="none" stroke="#4A3E98" stroke-width="2.5744" stroke-linecap="round" stroke-linejoin="round" stroke-miterlimit="10" x1="96.4" y1="33.1" x2="89.3" y2="33.1"/>
			
				<line clip-path="url(#SVGID_6_)" fill="none" stroke="#4A3E98" stroke-width="5.1488" stroke-linecap="round" stroke-linejoin="round" stroke-miterlimit="10" x1="70.6" y1="45.3" x2="70.6" y2="200.4"/>
			
				<line clip-path="url(#SVGID_6_)" fill="none" stroke="#4A3E98" stroke-width="5.1488" stroke-linecap="round" stroke-linejoin="round" stroke-miterlimit="10" x1="95.7" y1="44.7" x2="95.7" y2="198.5"/>
			
				<path clip-path="url(#SVGID_6_)" fill="none" stroke="#4A3E98" stroke-width="5.1488" stroke-linecap="round" stroke-linejoin="round" stroke-miterlimit="10" d="
				M3.6,241c59.7,0,28.5-202.7,80.7-202.7c46.3,0,30.5,202.7,115.3,202.7c27.4,0,92.7-22.5,92.7-68.2c0-14.7-10.5-48.7-48.7-48.7
				c-30,0-48.7,23-48.7,48.7c0,50.8,75.9,68.2,93.8,68.2c50.3,0,42.5-67.4,70.4-67.4c26.2,0,21.9,67.4,50.2,67.4"/>
		</g>
	</g>
</g>
</svg>
