<?xml version="1.0" encoding="utf-8"?>
<!-- Generator: Adobe Illustrator 18.1.1, SVG Export Plug-In . SVG Version: 6.00 Build 0)  -->
<svg version="1.1" id="Layer_1" xmlns="http://www.w3.org/2000/svg" xmlns:xlink="http://www.w3.org/1999/xlink" x="0px" y="0px"
	 viewBox="0 0 300 170" enable-background="new 0 0 300 170" xml:space="preserve">
<path fill="none" stroke="#FF931E" stroke-width="10.301" stroke-linecap="round" stroke-linejoin="round" stroke-miterlimit="10" d="
	M92.2,117.4c-6.2-7.5-10.1-16.8,1-25.5c15.6-12.4,25.9,11.5,39.5-2.6c15.5-16-14.4-41.2,9.6-61.3c17.4-14.6,41.3-11.6,55.9-1.3
	c15.1,10.7,24.7,34.4,15.3,49.1c-13.7,21.3-20.7,15.6-29.9,28.3c-9.4,13,8.8,35.1,1,49.8"/>
<path fill="none" stroke="#4A3E98" stroke-width="5.1505" stroke-linecap="round" stroke-linejoin="round" stroke-miterlimit="10" d="
	M86.6,115.2c-6.2-7.5-10.1-16.8,1-25.5c15.6-12.4,25.9,11.5,39.5-2.6c15.5-16-14.4-41.2,9.6-61.3c17.4-14.6,41.3-11.6,55.9-1.3
	c15.1,10.7,24.7,34.4,15.3,49.1c-13.7,21.3-20.7,15.6-29.9,28.3c-9.4,13,8.8,35.1,1,49.8"/>
<line fill="none" stroke="#4A3E98" stroke-width="5.1505" stroke-linecap="round" stroke-linejoin="round" stroke-miterlimit="10" x1="80.6" y1="121.9" x2="94.1" y2="108.2"/>
<line fill="none" stroke="#4A3E98" stroke-width="5.1505" stroke-linecap="round" stroke-linejoin="round" stroke-miterlimit="10" x1="171.3" y1="148.1" x2="188" y2="155.8"/>
<path fill="none" stroke="#4A3E98" stroke-width="2.5752" stroke-linecap="round" stroke-linejoin="round" stroke-miterlimit="10" d="
	M171.3,24.9c11.4,0.4,20.6,7.1,22.7,14.2"/>
<path fill="none" stroke="#4A3E98" stroke-width="2.5752" stroke-linecap="round" stroke-linejoin="round" stroke-miterlimit="10" d="
	M194,98.3c-4.3,2.1-9,5.2-11.4,9.9"/>
<path fill="none" stroke="#4A3E98" stroke-width="2.5752" stroke-linecap="round" stroke-linejoin="round" stroke-miterlimit="10" d="
	M113.7,85c7.3,2,12.9-6.7,11.6-13.8"/>
</svg>
