<?xml version="1.0" encoding="utf-8"?>
<!-- Generator: Adobe Illustrator 18.1.1, SVG Export Plug-In . SVG Version: 6.00 Build 0)  -->
<svg version="1.1" id="Layer_1" xmlns="http://www.w3.org/2000/svg" xmlns:xlink="http://www.w3.org/1999/xlink" x="0px" y="0px"
	 viewBox="0 0 300 170" enable-background="new 0 0 300 170" xml:space="preserve">
<path fill="#FF931E" d="M157.7,23h-5.8c-35.1,0-63.8,28.7-63.8,63.8h133.3C221.5,51.7,192.8,23,157.7,23z"/>
<path fill="none" stroke="#4A3E98" stroke-width="8" stroke-linecap="round" stroke-linejoin="round" stroke-miterlimit="10" d="
	M145.6,31.5h-5.8C104.7,31.5,76,60.2,76,95.3h133.3C209.3,60.2,180.6,31.5,145.6,31.5z"/>
<path fill="none" stroke="#4A3E98" stroke-width="4.6174" stroke-linecap="round" stroke-linejoin="round" stroke-miterlimit="10" d="
	M143.6,151.3h-3.8c-23.1,0-42.1-25.2-42.1-56.1h88C185.7,126.1,166.7,151.3,143.6,151.3z"/>
<line fill="none" stroke="#4A3E98" stroke-width="4" stroke-linecap="round" stroke-linejoin="round" stroke-miterlimit="10" x1="81" y1="80" x2="121" y2="80"/>
<line fill="none" stroke="#4A3E98" stroke-width="4" stroke-linecap="round" stroke-linejoin="round" stroke-miterlimit="10" x1="81" y1="71" x2="101" y2="71"/>
<line fill="none" stroke="#4A3E98" stroke-width="4" stroke-linecap="round" stroke-linejoin="round" stroke-miterlimit="10" x1="191" y1="51" x2="149" y2="51"/>
<line fill="none" stroke="#4A3E98" stroke-width="4" stroke-linecap="round" stroke-linejoin="round" stroke-miterlimit="10" x1="197" y1="58" x2="182" y2="58"/>
<line fill="none" stroke="#4A3E98" stroke-width="4" stroke-linecap="round" stroke-linejoin="round" stroke-miterlimit="10" x1="173" y1="58" x2="159" y2="58"/>
<line fill="none" stroke="#4A3E98" stroke-width="8" stroke-linecap="round" stroke-linejoin="round" stroke-miterlimit="10" x1="149" y1="151" x2="135" y2="151"/>
</svg>
