<?xml version="1.0" encoding="utf-8"?>
<!-- Generator: Adobe Illustrator 18.1.1, SVG Export Plug-In . SVG Version: 6.00 Build 0)  -->
<svg version="1.1" id="Layer_1" xmlns="http://www.w3.org/2000/svg" xmlns:xlink="http://www.w3.org/1999/xlink" x="0px" y="0px"
	 viewBox="0 0 300 170" enable-background="new 0 0 300 170" xml:space="preserve">
<path fill="#F12E58" d="M224.4,92c0-38-30.5-68.2-68.2-68.2S87.9,54,87.9,92H224.4z"/>
<path fill="none" stroke="#4A3E98" stroke-width="8" stroke-linecap="round" stroke-linejoin="round" stroke-miterlimit="10" d="
	M81.9,84.7c0-37.7,30.5-68.2,68.2-68.2s68.2,30.5,68.2,68.2"/>
<line fill="none" stroke="#4A3E98" stroke-width="8" stroke-linecap="round" stroke-linejoin="round" stroke-miterlimit="10" x1="66" y1="85" x2="230" y2="85"/>
<line fill="none" stroke="#4A3E98" stroke-width="4" stroke-linecap="round" stroke-linejoin="round" stroke-miterlimit="10" x1="119" y1="23" x2="119" y2="40"/>
<line fill="none" stroke="#4A3E98" stroke-width="4" stroke-linecap="round" stroke-linejoin="round" stroke-miterlimit="10" x1="128" y1="20" x2="128" y2="69"/>
<line fill="none" stroke="#4A3E98" stroke-width="4" stroke-linecap="round" stroke-linejoin="round" stroke-miterlimit="10" x1="169" y1="85" x2="169" y2="68"/>
<line fill="none" stroke="#4A3E98" stroke-width="4" stroke-linecap="round" stroke-linejoin="round" stroke-miterlimit="10" x1="180" y1="85" x2="180" y2="44"/>
<line fill="none" stroke="#4A3E98" stroke-width="4" stroke-linecap="round" stroke-linejoin="round" stroke-miterlimit="10" x1="169" y1="57" x2="169" y2="51"/>
<line fill="none" stroke="#4A3E98" stroke-width="4" stroke-linecap="round" stroke-linejoin="round" stroke-miterlimit="10" x1="98" y1="85" x2="126.2" y2="156"/>
<line fill="none" stroke="#4A3E98" stroke-width="4" stroke-linecap="round" stroke-linejoin="round" stroke-miterlimit="10" x1="205" y1="85" x2="177.6" y2="155.3"/>
<line fill="none" stroke="#4A3E98" stroke-width="4" stroke-linecap="round" stroke-linejoin="round" stroke-miterlimit="10" x1="152" y1="85" x2="152" y2="156"/>
<polyline fill="none" stroke="#4A3E98" stroke-width="4" stroke-linecap="round" stroke-linejoin="round" stroke-miterlimit="10" points="
	119,156 177.1,156 184,156 "/>
</svg>
