<?xml version="1.0" encoding="utf-8"?>
<!-- Generator: Adobe Illustrator 18.1.1, SVG Export Plug-In . SVG Version: 6.00 Build 0)  -->
<svg version="1.1" id="Layer_1" xmlns="http://www.w3.org/2000/svg" xmlns:xlink="http://www.w3.org/1999/xlink" x="0px" y="0px"
	 viewBox="0 0 300 170" enable-background="new 0 0 300 170" xml:space="preserve">
<path fill="#F12E58" d="M212.9,69c0-31-24.1-53.9-53.9-53.9S105,38,105,69H212.9z"/>
<path fill="#7B4888" d="M159.2,157.6h-0.8c-4.9,0-8.9-4-8.9-8.9h18.5C168.1,153.7,164.1,157.6,159.2,157.6z"/>
<path fill="none" stroke="#4A3E98" stroke-width="6.3232" stroke-linecap="round" stroke-linejoin="round" stroke-miterlimit="10" d="
	M100.3,61.8c0-29.8,24.1-53.9,53.9-53.9s53.9,24.1,53.9,53.9"/>
<line fill="none" stroke="#4A3E98" stroke-width="6" stroke-linecap="round" stroke-linejoin="round" stroke-miterlimit="10" x1="88" y1="62" x2="217" y2="62"/>
<line fill="none" stroke="#4A3E98" stroke-width="4" stroke-linecap="round" stroke-linejoin="round" stroke-miterlimit="10" x1="130" y1="14" x2="130" y2="27"/>
<line fill="none" stroke="#4A3E98" stroke-width="4" stroke-linecap="round" stroke-linejoin="round" stroke-miterlimit="10" x1="137" y1="11" x2="137" y2="50"/>
<line fill="none" stroke="#4A3E98" stroke-width="4" stroke-linecap="round" stroke-linejoin="round" stroke-miterlimit="10" x1="169" y1="62" x2="169" y2="49"/>
<line fill="none" stroke="#4A3E98" stroke-width="4" stroke-linecap="round" stroke-linejoin="round" stroke-miterlimit="10" x1="178" y1="62" x2="178" y2="31"/>
<line fill="none" stroke="#4A3E98" stroke-width="4" stroke-linecap="round" stroke-linejoin="round" stroke-miterlimit="10" x1="169" y1="40" x2="169" y2="36"/>
<line fill="none" stroke="#4A3E98" stroke-width="3.1616" stroke-linecap="round" stroke-linejoin="round" stroke-miterlimit="10" x1="113" y1="62.7" x2="146.2" y2="146.4"/>
<line fill="none" stroke="#4A3E98" stroke-width="3.1616" stroke-linecap="round" stroke-linejoin="round" stroke-miterlimit="10" x1="197.6" y1="62.7" x2="164.7" y2="146.4"/>
<line fill="none" stroke="#4A3E98" stroke-width="4" stroke-linecap="round" stroke-linejoin="round" stroke-miterlimit="10" x1="155" y1="62" x2="155" y2="118"/>
<path fill="none" stroke="#4A3E98" stroke-width="3.1616" stroke-linecap="round" stroke-linejoin="round" stroke-miterlimit="10" d="
	M155.9,155.3H155c-4.9,0-8.9-4-8.9-8.9v-18.7c0-4.9,4-8.9,8.9-8.9h0.8c4.9,0,8.9,4,8.9,8.9v18.7
	C164.7,151.3,160.7,155.3,155.9,155.3z"/>
<path fill="none" stroke="#4A3E98" stroke-width="3.1616" stroke-linecap="round" stroke-linejoin="round" stroke-miterlimit="10" d="
	M155.9,155.3H155c-4.9,0-8.9-4-8.9-8.9h18.5C164.7,151.3,160.7,155.3,155.9,155.3z"/>
<circle fill="#4A3E98" cx="151.8" cy="127.9" r="1.2"/>
<circle fill="#4A3E98" cx="159.2" cy="127.9" r="1.2"/>
<line fill="none" stroke="#4A3E98" stroke-width="4" stroke-linecap="round" stroke-linejoin="round" stroke-miterlimit="10" x1="151" y1="155" x2="151" y2="163"/>
<line fill="none" stroke="#4A3E98" stroke-width="4" stroke-linecap="round" stroke-linejoin="round" stroke-miterlimit="10" x1="160" y1="156" x2="160" y2="163"/>
<line fill="none" stroke="#4A3E98" stroke-width="4" stroke-linecap="round" stroke-linejoin="round" stroke-miterlimit="10" x1="150" y1="164" x2="151" y2="164"/>
<line fill="none" stroke="#4A3E98" stroke-width="4" stroke-linecap="round" stroke-linejoin="round" stroke-miterlimit="10" x1="159" y1="164" x2="160" y2="164"/>
</svg>
