<?xml version="1.0" encoding="utf-8"?>
<!-- Generator: Adobe Illustrator 18.1.1, SVG Export Plug-In . SVG Version: 6.00 Build 0)  -->
<svg version="1.1" id="Layer_2" xmlns="http://www.w3.org/2000/svg" xmlns:xlink="http://www.w3.org/1999/xlink" x="0px" y="0px"
	 viewBox="-251 -136 932 442" enable-background="new -251 -136 932 442" xml:space="preserve">
<line fill="none" stroke="#4A3E98" stroke-width="5.4022" stroke-miterlimit="10" x1="-53" y1="147" x2="234.4" y2="117"/>
<path fill="#F8993C" d="M34.5,138.2c0-7.8-6.3-14.1-14.1-14.1c-0.5,0-1.1,0-1.6,0.1c-0.8-9.3-3.3-18-7.3-25.9c4.3-3.5,7-8.8,7-14.7
	c0-10.5-8.5-19-19-19c-5.3,0-10,2.2-13.5,5.6c-11-7-24-11-38-11c-28.1,0-52.3,16.3-63.8,40c-2.6-1.3-5.5-2.1-8.6-2.1
	c-10.4,0-18.9,8.5-18.9,18.9c0,7.7,4.6,14.4,11.3,17.3c-2,2-3.2,4.8-3.2,7.8c0,6.2,5,11.2,11.2,11.2c1.6,0,3.1-0.3,4.4-0.9
	c9,28.8,35.9,49.6,67.6,49.6c20.4,0,38.9-8.7,51.8-22.5c3.4,2.5,7.5,3.9,12,3.9c11.3,0,20.5-9.2,20.5-20.5c0-4.6-1.5-8.8-4-12.2
	C32,147.2,34.5,143,34.5,138.2z"/>
<path fill="#F8993C" d="M444.3,87c0-9.3,7.5-16.8,16.8-16.8c0.6,0,1.3,0,1.9,0.1c0.9-11,3.9-21.4,8.7-30.9
	c-5.1-4.1-8.4-10.5-8.4-17.5c0-12.5,10.1-22.6,22.6-22.6c6.3,0,12,2.6,16,6.7C514.9-2.2,530.4-7,547.1-7c33.4,0,62.3,19.4,76,47.6
	c3.1-1.6,6.5-2.5,10.2-2.5c12.4,0,22.5,10.1,22.5,22.5c0,9.2-5.5,17.1-13.5,20.6c2.4,2.4,3.8,5.7,3.8,9.3c0,7.3-5.9,13.3-13.3,13.3
	c-1.9,0-3.6-0.4-5.2-1.1c-10.8,34.2-42.7,59.1-80.5,59.1c-24.3,0-46.3-10.3-61.7-26.8c-4,2.9-8.9,4.7-14.3,4.7
	c-13.5,0-24.4-10.9-24.4-24.4c0-5.4,1.8-10.4,4.8-14.5C447.2,97.8,444.3,92.7,444.3,87z"/>
<path fill="#FFFFFF" d="M-1,2.5c0-5.3-4.2-9.6-9.5-9.6c-3,0-5.6,1.4-7.4,3.5c-1.7-4.3-5.8-7.4-10.7-7.4c-5.2,0-9.6,3.5-11,8.2
	C-40.2-14-49.5-23-60.9-23c-11,0-20,8.3-21.2,19c-2.2-1.9-5.1-2.9-8.3-2.9c-7,0-12.7,5.9-12.7,12.9H-1V2.5z"/>
<path fill="#FFFFFF" d="M539-70.5c0-12.8-10.2-23.1-22.9-23.1c-10.8,0-19.8,7.5-22.3,17.6c-1.6-1.3-3.6-2.1-5.8-2.1
	c-4.7,0-8.6,3.6-9,8.2c-0.7-0.3-1.4-0.4-2.2-0.4c-2.9,0-5.3,2.4-5.3,5.4H539V-70.5z"/>
<path fill="#F12E58" d="M348.4-16c0-52-41.3-92.1-92.1-92.1S164.1-68,164.1-16H348.4z"/>
<path fill="#7B4888" d="M256.7,136.1h-1.4c-8.3,0-15.1-6.8-15.1-15.1h31.7C271.9,129.3,265,136.1,256.7,136.1z"/>
<line fill="none" stroke="#4A3E98" stroke-width="5.4022" stroke-miterlimit="10" x1="266.1" y1="117" x2="518.9" y2="156.9"/>
<path fill="none" stroke="#4A3E98" stroke-width="10" stroke-linecap="round" stroke-linejoin="round" stroke-miterlimit="10" d="
	M8,293"/>
<path fill="none" stroke="#4A3E98" stroke-width="10" stroke-linecap="round" stroke-linejoin="round" stroke-miterlimit="10" d="
	M-206,293"/>
<path fill="none" stroke="#4A3E98" stroke-width="10" stroke-linecap="round" stroke-linejoin="round" stroke-miterlimit="10" d="
	M82,293"/>
<path fill="none" stroke="#4A3E98" stroke-width="10" stroke-linecap="round" stroke-linejoin="round" stroke-miterlimit="10" d="
	M40,293"/>
<path fill="none" stroke="#4A3E98" stroke-width="10" stroke-linecap="round" stroke-linejoin="round" stroke-miterlimit="10" d="
	M587,293"/>
<path fill="none" stroke="#4A3E98" stroke-width="10" stroke-linecap="round" stroke-linejoin="round" stroke-miterlimit="10" d="
	M118,293"/>
<path fill="none" stroke="#4A3E98" stroke-width="10" stroke-linecap="round" stroke-linejoin="round" stroke-miterlimit="10" d="
	M647,293"/>
<path fill="none" stroke="#4A3E98" stroke-width="10" stroke-linecap="round" stroke-linejoin="round" stroke-miterlimit="10" d="
	M610,293"/>
<path fill="none" stroke="#4A3E98" stroke-width="10.8044" stroke-linecap="round" stroke-linejoin="round" stroke-miterlimit="10" d="
	M22.3,130.1c0-7.8-6.3-14.1-14.1-14.1c-0.5,0-1.1,0-1.6,0.1c-0.8-9.3-3.3-18-7.3-25.9c4.3-3.5,7-8.8,7-14.7c0-10.5-8.5-19-19-19
	c-5.3,0-10,2.2-13.5,5.6c-11-7-24-11-38-11c-28.1,0-52.3,16.3-63.8,40c-2.6-1.3-5.5-2.1-8.6-2.1c-10.4,0-18.9,8.5-18.9,18.9
	c0,7.7,4.6,14.4,11.3,17.3c-2,2-3.2,4.8-3.2,7.8c0,6.2,5,11.2,11.2,11.2c1.6,0,3.1-0.3,4.4-0.9c9,28.8,35.9,49.6,67.6,49.6
	c20.4,0,38.9-8.7,51.8-22.5c3.4,2.5,7.5,3.9,12,3.9c11.3,0,20.5-9.2,20.5-20.5c0-4.6-1.5-8.8-4-12.2
	C19.9,139.1,22.3,134.9,22.3,130.1z"/>
<path fill="none" stroke="#4A3E98" stroke-width="10.8044" stroke-linecap="round" stroke-linejoin="round" stroke-miterlimit="10" d="
	M-136.6,89c10.6,0,19.3,8.6,19.3,19.3"/>
<path fill="none" stroke="#4A3E98" stroke-width="10.8044" stroke-linecap="round" stroke-linejoin="round" stroke-miterlimit="10" d="
	M-28.8,66.8c2.8-6.1,9-10.3,16.1-10.3"/>
<path fill="none" stroke="#4A3E98" stroke-width="5.1335" stroke-linecap="round" stroke-linejoin="round" stroke-miterlimit="10" d="
	M-95.5,84.7c0-4.4,3.5-7.9,7.9-7.9s7.9,3.5,7.9,7.9"/>
<path fill="none" stroke="#4A3E98" stroke-width="5.1335" stroke-linecap="round" stroke-linejoin="round" stroke-miterlimit="10" d="
	M-79.7,84.7c0-3,2.4-5.4,5.4-5.4c3,0,5.4,2.4,5.4,5.4"/>
<path fill="none" stroke="#4A3E98" stroke-width="5.1335" stroke-linecap="round" stroke-linejoin="round" stroke-miterlimit="10" d="
	M-55.6,133.7c0-2,1.6-3.6,3.6-3.6c2,0,3.6,1.6,3.6,3.6"/>
<path fill="none" stroke="#4A3E98" stroke-width="5.1335" stroke-linecap="round" stroke-linejoin="round" stroke-miterlimit="10" d="
	M-48,133.7c0-4.8,3.9-8.7,8.7-8.7s8.7,3.9,8.7,8.7"/>
<path fill="none" stroke="#4A3E98" stroke-width="5.1335" stroke-linecap="round" stroke-linejoin="round" stroke-miterlimit="10" d="
	M-30.1,133.9c0-2.7,2.2-4.8,4.8-4.8s4.8,2.2,4.8,4.8"/>
<path fill="none" stroke="#4A3E98" stroke-width="10.8044" stroke-linecap="round" stroke-linejoin="round" stroke-miterlimit="10" d="
	M432.2,77.6c0-9.3,7.5-16.8,16.8-16.8c0.6,0,1.3,0,1.9,0.1c0.9-11,3.9-21.4,8.7-30.9c-5.1-4.1-8.4-10.5-8.4-17.5
	c0-12.5,10.1-22.6,22.6-22.6c6.3,0,12,2.6,16,6.7c13.1-8.3,28.6-13.1,45.2-13.1c33.4,0,62.3,19.4,76,47.6c3.1-1.6,6.5-2.5,10.2-2.5
	c12.4,0,22.5,10.1,22.5,22.5c0,9.2-5.5,17.1-13.5,20.6c2.4,2.4,3.8,5.7,3.8,9.3c0,7.3-5.9,13.3-13.3,13.3c-1.9,0-3.6-0.4-5.2-1.1
	c-10.8,34.2-42.7,59.1-80.5,59.1c-24.3,0-46.3-10.3-61.7-26.8c-4,2.9-8.9,4.7-14.3,4.7c-13.5,0-24.4-10.9-24.4-24.4
	c0-5.4,1.8-10.4,4.8-14.5C435,88.3,432.2,83.3,432.2,77.6z"/>
<path fill="none" stroke="#4A3E98" stroke-width="10.8044" stroke-linecap="round" stroke-linejoin="round" stroke-miterlimit="10" d="
	M621.3,28.7c-12.7,0-23,10.3-23,23"/>
<path fill="none" stroke="#4A3E98" stroke-width="10.8044" stroke-linecap="round" stroke-linejoin="round" stroke-miterlimit="10" d="
	M493,2.3c-3.4-7.2-10.7-12.2-19.2-12.2"/>
<path fill="none" stroke="#4A3E98" stroke-width="5.4022" stroke-linecap="round" stroke-linejoin="round" stroke-miterlimit="10" d="
	M514.5,102.3c0-5.2-4.2-9.4-9.4-9.4s-9.4,4.2-9.4,9.4"/>
<path fill="none" stroke="#4A3E98" stroke-width="5.4022" stroke-linecap="round" stroke-linejoin="round" stroke-miterlimit="10" d="
	M495.7,102.3c0-3.6-2.9-6.4-6.4-6.4s-6.4,2.9-6.4,6.4"/>
<path fill="none" stroke="#4A3E98" stroke-width="5.4022" stroke-linecap="round" stroke-linejoin="round" stroke-miterlimit="10" d="
	M576.4,38.6c0-2.4-1.9-4.3-4.3-4.3s-4.3,1.9-4.3,4.3"/>
<path fill="none" stroke="#4A3E98" stroke-width="5.4022" stroke-linecap="round" stroke-linejoin="round" stroke-miterlimit="10" d="
	M567.3,38.5c0-5.7-4.6-10.3-10.3-10.3c-5.7,0-10.3,4.6-10.3,10.3"/>
<path fill="none" stroke="#4A3E98" stroke-width="5.4022" stroke-linecap="round" stroke-linejoin="round" stroke-miterlimit="10" d="
	M546,38.7c0-3.2-2.6-5.8-5.8-5.8s-5.8,2.6-5.8,5.8"/>
<line fill="none" stroke="#4A3E98" stroke-width="10" stroke-linecap="round" stroke-linejoin="round" stroke-miterlimit="10" x1="-80" y1="192" x2="-80" y2="286"/>
<line fill="none" stroke="#4A3E98" stroke-width="10" stroke-linecap="round" stroke-linejoin="round" stroke-miterlimit="10" x1="-49" y1="192" x2="-49" y2="286"/>
<line fill="none" stroke="#4A3E98" stroke-width="10" stroke-linecap="round" stroke-linejoin="round" stroke-miterlimit="10" x1="521" y1="153" x2="521" y2="287"/>
<line fill="none" stroke="#4A3E98" stroke-width="10" stroke-linecap="round" stroke-linejoin="round" stroke-miterlimit="10" x1="552" y1="155" x2="552" y2="286"/>
<line fill="none" stroke="#4A3E98" stroke-width="6" stroke-linecap="round" stroke-linejoin="round" stroke-miterlimit="10" x1="-79" y1="209" x2="-72" y2="209"/>
<line fill="none" stroke="#4A3E98" stroke-width="6" stroke-linecap="round" stroke-linejoin="round" stroke-miterlimit="10" x1="-79" y1="215" x2="-61" y2="215"/>
<line fill="none" stroke="#4A3E98" stroke-width="6" stroke-linecap="round" stroke-linejoin="round" stroke-miterlimit="10" x1="-47" y1="253" x2="-66" y2="253"/>
<line fill="none" stroke="#4A3E98" stroke-width="6" stroke-linecap="round" stroke-linejoin="round" stroke-miterlimit="10" x1="-47" y1="263" x2="-59" y2="263"/>
<line fill="none" stroke="#4A3E98" stroke-width="6" stroke-linecap="round" stroke-linejoin="round" stroke-miterlimit="10" x1="521" y1="176" x2="537" y2="176"/>
<line fill="none" stroke="#4A3E98" stroke-width="6" stroke-linecap="round" stroke-linejoin="round" stroke-miterlimit="10" x1="521" y1="186" x2="530" y2="186"/>
<line fill="none" stroke="#4A3E98" stroke-width="6" stroke-linecap="round" stroke-linejoin="round" stroke-miterlimit="10" x1="551" y1="263" x2="537" y2="263"/>
<line fill="none" stroke="#4A3E98" stroke-width="6" stroke-linecap="round" stroke-linejoin="round" stroke-miterlimit="10" x1="551" y1="253" x2="540" y2="253"/>
<path fill="none" stroke="#4A3E98" stroke-width="5.4022" stroke-linecap="round" stroke-linejoin="round" stroke-miterlimit="10" d="
	M-0.8-4.2c0-5.3-4.3-9.6-9.6-9.6c-3,0-5.7,1.4-7.4,3.5c-1.7-4.3-5.8-7.4-10.7-7.4c-5.2,0-9.6,3.5-11,8.2
	c-0.6-11.3-9.9-20.3-21.3-20.3c-11,0-20,8.3-21.2,19c-2.2-1.9-5.1-3.1-8.3-3.1c-7,0-12.7,5.7-12.7,12.7"/>
<line fill="none" stroke="#4A3E98" stroke-width="6" stroke-linecap="round" stroke-linejoin="round" stroke-miterlimit="10" x1="-104" y1="0" x2="-121" y2="0"/>
<line fill="none" stroke="#4A3E98" stroke-width="6" stroke-linecap="round" stroke-linejoin="round" stroke-miterlimit="10" x1="-85" y1="12" x2="-199" y2="12"/>
<line fill="none" stroke="#4A3E98" stroke-width="6" stroke-linecap="round" stroke-linejoin="round" stroke-miterlimit="10" x1="75" y1="-3" x2="90" y2="-3"/>
<line fill="none" stroke="#4A3E98" stroke-width="6" stroke-linecap="round" stroke-linejoin="round" stroke-miterlimit="10" x1="-1" y1="-3" x2="63" y2="-3"/>
<path fill="none" stroke="#4A3E98" stroke-width="6" stroke-linecap="round" stroke-linejoin="round" stroke-miterlimit="10" d="
	M535.9-75c0-12.8-10.4-23.1-23.1-23.1c-10.8,0-19.9,7.5-22.4,17.6c-1.6-1.3-3.6-2.1-5.8-2.1c-4.7,0-8.6,3.6-9,8.2
	c-0.7-0.3-1.4-0.5-2.2-0.5c-2.9,0-5.3,2.4-5.3,5.3"/>
<line fill="none" stroke="#4A3E98" stroke-width="6" stroke-linecap="round" stroke-linejoin="round" stroke-miterlimit="10" x1="535" y1="-74" x2="564" y2="-74"/>
<line fill="none" stroke="#4A3E98" stroke-width="6" stroke-linecap="round" stroke-linejoin="round" stroke-miterlimit="10" x1="468" y1="-69" x2="460" y2="-69"/>
<line fill="none" stroke="#4A3E98" stroke-width="6" stroke-linecap="round" stroke-linejoin="round" stroke-miterlimit="10" x1="458" y1="-63" x2="435" y2="-63"/>
<line fill="none" stroke="#4A3E98" stroke-width="10" stroke-linecap="round" stroke-linejoin="round" stroke-miterlimit="10" x1="121" y1="193" x2="408" y2="193"/>
<path fill="none" stroke="#4A3E98" stroke-width="10.8044" stroke-linecap="round" stroke-linejoin="round" stroke-miterlimit="10" d="
	M385.4,194.1c0,10.8-54.7,31.1-121.1,31.1s-119.5-20.2-119.5-31.1"/>
<line fill="none" stroke="#4A3E98" stroke-width="10.8044" stroke-linecap="round" stroke-linejoin="round" stroke-miterlimit="10" x1="144.7" y1="193.4" x2="176.8" y2="290.6"/>
<line fill="none" stroke="#4A3E98" stroke-width="10.8044" stroke-linecap="round" stroke-linejoin="round" stroke-miterlimit="10" x1="385.4" y1="193.4" x2="353.3" y2="292"/>
<line fill="none" stroke="#4A3E98" stroke-width="6" stroke-linecap="round" stroke-linejoin="round" stroke-miterlimit="10" x1="162" y1="205" x2="221" y2="205"/>
<line fill="none" stroke="#4A3E98" stroke-width="6" stroke-linecap="round" stroke-linejoin="round" stroke-miterlimit="10" x1="180" y1="212" x2="244" y2="212"/>
<path fill="none" stroke="#4A3E98" stroke-width="10.8044" stroke-linecap="round" stroke-linejoin="round" stroke-miterlimit="10" d="
	M156-27.5c0-50.9,41.3-92.1,92.1-92.1s92.1,41.3,92.1,92.1"/>
<line fill="none" stroke="#4A3E98" stroke-width="10" stroke-linecap="round" stroke-linejoin="round" stroke-miterlimit="10" x1="135" y1="-27" x2="355" y2="-27"/>
<line fill="none" stroke="#4A3E98" stroke-width="6" stroke-linecap="round" stroke-linejoin="round" stroke-miterlimit="10" x1="206" y1="-110" x2="206" y2="-87"/>
<line fill="none" stroke="#4A3E98" stroke-width="6" stroke-linecap="round" stroke-linejoin="round" stroke-miterlimit="10" x1="218" y1="-114" x2="218" y2="-48"/>
<line fill="none" stroke="#4A3E98" stroke-width="6" stroke-linecap="round" stroke-linejoin="round" stroke-miterlimit="10" x1="274" y1="-27" x2="274" y2="-49"/>
<line fill="none" stroke="#4A3E98" stroke-width="6" stroke-linecap="round" stroke-linejoin="round" stroke-miterlimit="10" x1="289" y1="-27" x2="289" y2="-81"/>
<line fill="none" stroke="#4A3E98" stroke-width="6" stroke-linecap="round" stroke-linejoin="round" stroke-miterlimit="10" x1="274" y1="-65" x2="274" y2="-72"/>
<line fill="none" stroke="#4A3E98" stroke-width="5.4022" stroke-linecap="round" stroke-linejoin="round" stroke-miterlimit="10" x1="177.7" y1="-26.1" x2="234.4" y2="117"/>
<line fill="none" stroke="#4A3E98" stroke-width="5.4022" stroke-linecap="round" stroke-linejoin="round" stroke-miterlimit="10" x1="322.2" y1="-26.1" x2="266.1" y2="117"/>
<line fill="none" stroke="#4A3E98" stroke-width="6" stroke-linecap="round" stroke-linejoin="round" stroke-miterlimit="10" x1="250" y1="-27" x2="250" y2="69"/>
<path fill="none" stroke="#4A3E98" stroke-width="5.4022" stroke-linecap="round" stroke-linejoin="round" stroke-miterlimit="10" d="
	M250.9,132.1h-1.4c-8.3,0-15.1-6.8-15.1-15.1v-32c0-8.3,6.8-15.1,15.1-15.1h1.4c8.3,0,15.1,6.8,15.1,15.1v32
	C266.1,125.3,259.3,132.1,250.9,132.1z"/>
<path fill="none" stroke="#4A3E98" stroke-width="5.4022" stroke-linecap="round" stroke-linejoin="round" stroke-miterlimit="10" d="
	M250.9,132.1h-1.4c-8.3,0-15.1-6.8-15.1-15.1h31.7C266.1,125.3,259.3,132.1,250.9,132.1z"/>
<circle fill="#4A3E98" cx="244" cy="85.2" r="2"/>
<circle fill="#4A3E98" cx="256.7" cy="85.2" r="2"/>
<line fill="none" stroke="#4A3E98" stroke-width="6" stroke-linecap="round" stroke-linejoin="round" stroke-miterlimit="10" x1="242" y1="131" x2="242" y2="146"/>
<line fill="none" stroke="#4A3E98" stroke-width="6" stroke-linecap="round" stroke-linejoin="round" stroke-miterlimit="10" x1="257" y1="132" x2="257" y2="146"/>
<line fill="none" stroke="#4A3E98" stroke-width="6" stroke-linecap="round" stroke-linejoin="round" stroke-miterlimit="10" x1="241" y1="147" x2="244" y2="147"/>
<line fill="none" stroke="#4A3E98" stroke-width="6" stroke-linecap="round" stroke-linejoin="round" stroke-miterlimit="10" x1="256" y1="147" x2="258" y2="147"/>
</svg>
