<?xml version="1.0" encoding="utf-8"?>
<!-- Generator: Adobe Illustrator 18.1.1, SVG Export Plug-In . SVG Version: 6.00 Build 0)  -->
<svg version="1.1" id="Layer_1" xmlns="http://www.w3.org/2000/svg" xmlns:xlink="http://www.w3.org/1999/xlink" x="0px" y="0px"
	 viewBox="0 0 424 252" enable-background="new 0 0 424 252" xml:space="preserve">
<g>
	<g>
		<g>
			<g opacity="0.2">
				<g>
					<defs>
						<rect id="SVGID_1_" x="18.6" y="163.7" width="61.8" height="86"/>
					</defs>
					<clipPath id="SVGID_2_">
						<use xlink:href="#SVGID_1_"  overflow="visible"/>
					</clipPath>
					<g opacity="0.5" clip-path="url(#SVGID_2_)">
						<g>
							<defs>
								<rect id="SVGID_3_" x="23.4" y="167.7" width="57.1" height="45.6"/>
							</defs>
							<clipPath id="SVGID_4_">
								<use xlink:href="#SVGID_3_"  overflow="visible"/>
							</clipPath>
						</g>
					</g>
				</g>
			</g>
			<g opacity="0.2">
				<g>
					<defs>
						<rect id="SVGID_5_" x="367" y="167.2" width="64.5" height="81.5"/>
					</defs>
					<clipPath id="SVGID_6_">
						<use xlink:href="#SVGID_5_"  overflow="visible"/>
					</clipPath>
					<g opacity="0.5" clip-path="url(#SVGID_6_)">
						<g>
							<defs>
								<rect id="SVGID_7_" x="372.8" y="171.7" width="58.7" height="46.8"/>
							</defs>
							<clipPath id="SVGID_8_">
								<use xlink:href="#SVGID_7_"  overflow="visible"/>
							</clipPath>
						</g>
					</g>
				</g>
			</g>
			<g opacity="0.2">
				<g>
					<defs>
						<rect id="SVGID_9_" x="81.8" y="221.9" width="37.7" height="25.6"/>
					</defs>
					<clipPath id="SVGID_10_">
						<use xlink:href="#SVGID_9_"  overflow="visible"/>
					</clipPath>
					<g opacity="0.5" clip-path="url(#SVGID_10_)">
						<g>
							<defs>
								<rect id="SVGID_11_" x="84.7" y="225.3" width="34.8" height="22.2"/>
							</defs>
							<clipPath id="SVGID_12_">
								<use xlink:href="#SVGID_11_"  overflow="visible"/>
							</clipPath>
						</g>
					</g>
				</g>
			</g>
		</g>
		<g>
			<path fill="#F8993C" d="M122.9,175.4c0-3.6-3-6.6-6.6-6.6c-0.3,0-0.5,0-0.8,0c-0.4-4.3-1.5-8.4-3.4-12.1c2-1.6,3.3-4.1,3.3-6.9
				c0-4.9-4-8.9-8.9-8.9c-2.5,0-4.7,1-6.3,2.6c-5.1-3.3-11.2-5.2-17.8-5.2c-13.2,0-24.5,7.6-29.9,18.7c-1.2-0.6-2.6-1-4-1
				c-4.9,0-8.9,4-8.9,8.9c0,3.6,2.2,6.7,5.3,8.1c-0.9,0.9-1.5,2.2-1.5,3.7c0,2.9,2.3,5.2,5.2,5.2c0.7,0,1.4-0.2,2.1-0.4
				c4.2,13.5,16.8,23.2,31.7,23.2c9.6,0,18.2-4.1,24.3-10.5c1.6,1.2,3.5,1.8,5.6,1.8c5.3,0,9.6-4.3,9.6-9.6c0-2.1-0.7-4.1-1.9-5.7
				C121.8,179.6,122.9,177.6,122.9,175.4"/>
			<path fill="#F8993C" d="M315,151.4c0-4.3,3.5-7.9,7.9-7.9c0.3,0,0.6,0,0.9,0.1c0.4-5.2,1.8-10,4.1-14.5c-2.4-1.9-3.9-4.9-3.9-8.2
				c0-5.8,4.7-10.6,10.6-10.6c2.9,0,5.6,1.2,7.5,3.1c6.1-3.9,13.4-6.2,21.2-6.2c15.7,0,29.2,9.1,35.6,22.3c1.4-0.7,3.1-1.2,4.8-1.2
				c5.8,0,10.5,4.7,10.5,10.5c0,4.3-2.6,8-6.3,9.7c1.1,1.1,1.8,2.7,1.8,4.4c0,3.4-2.8,6.2-6.2,6.2c-0.9,0-1.7-0.2-2.5-0.5
				c-5,16-20,27.7-37.7,27.7c-11.4,0-21.7-4.8-28.9-12.6c-1.9,1.4-4.2,2.2-6.7,2.2c-6.3,0-11.4-5.1-11.4-11.4c0-2.5,0.8-4.9,2.2-6.8
				C316.3,156.5,315,154.1,315,151.4"/>
			<path fill="#FFFFFF" d="M106.1,89.8c0-2.5-1.9-4.5-4.4-4.5c-1.4,0-2.6,0.6-3.4,1.7c-0.8-2-2.7-3.5-5-3.5c-2.4,0-4.5,1.6-5.1,3.8
				c-0.3-5.3-4.6-9.5-10-9.5c-5.2,0-9.4,3.9-9.9,8.9c-1-0.9-2.4-1.5-3.9-1.5c-3.3,0-6,2.7-6,5.9h47.7V89.8z"/>
			<path fill="#FFFFFF" d="M368.1,39.8c0-9.2-7.6-16.7-16.8-16.7c-7.9,0-14.5,5.4-16.3,12.7c-1.1-1-2.6-1.5-4.2-1.5
				c-3.4,0-6.2,2.6-6.5,5.9c-0.5-0.2-1.1-0.3-1.6-0.3c-2.1,0-3.8,1.9-3.8,3.8h49.4V39.8z"/>
		</g>
		
			<line fill="none" stroke="#4A3E98" stroke-width="5.062" stroke-linecap="round" stroke-linejoin="round" stroke-miterlimit="10" x1="10" y1="247.4" x2="110.6" y2="247.4"/>
		
			<line fill="none" stroke="#4A3E98" stroke-width="5.062" stroke-linecap="round" stroke-linejoin="round" stroke-miterlimit="10" x1="125.8" y1="247.4" x2="145.4" y2="247.4"/>
		
			<line fill="none" stroke="#4A3E98" stroke-width="5.062" stroke-linecap="round" stroke-linejoin="round" stroke-miterlimit="10" x1="161.8" y1="247.4" x2="382" y2="247.4"/>
		
			<line fill="none" stroke="#4A3E98" stroke-width="5.062" stroke-linecap="round" stroke-linejoin="round" stroke-miterlimit="10" x1="392.8" y1="247.4" x2="409.9" y2="247.4"/>
		<g>
			
				<path fill="none" stroke="#4A3E98" stroke-width="5.062" stroke-linecap="round" stroke-linejoin="round" stroke-miterlimit="10" d="
				M117.2,171.6c0-3.6-3-6.6-6.6-6.6c-0.3,0-0.5,0-0.8,0c-0.4-4.3-1.5-8.4-3.4-12.1c2-1.6,3.3-4.1,3.3-6.9c0-4.9-4-8.9-8.9-8.9
				c-2.5,0-4.7,1-6.3,2.6c-5.1-3.3-11.2-5.2-17.8-5.2c-13.2,0-24.5,7.6-29.9,18.7c-1.2-0.6-2.6-1-4-1c-4.9,0-8.9,4-8.9,8.9
				c0,3.6,2.2,6.7,5.3,8.1c-0.9,0.9-1.5,2.2-1.5,3.7c0,2.9,2.3,5.2,5.2,5.2c0.7,0,1.4-0.2,2.1-0.4c4.2,13.5,16.8,23.2,31.7,23.2
				c9.6,0,18.2-4.1,24.3-10.5c1.6,1.2,3.5,1.8,5.6,1.8c5.3,0,9.6-4.3,9.6-9.6c0-2.1-0.7-4.1-1.9-5.7
				C116.1,175.8,117.2,173.8,117.2,171.6z"/>
			
				<path fill="none" stroke="#4A3E98" stroke-width="5.062" stroke-linecap="round" stroke-linejoin="round" stroke-miterlimit="10" d="
				M42.8,152.3c5,0,9,4,9,9"/>
			
				<path fill="none" stroke="#4A3E98" stroke-width="5.062" stroke-linecap="round" stroke-linejoin="round" stroke-miterlimit="10" d="
				M93.3,142c1.3-2.8,4.2-4.8,7.6-4.8"/>
			
				<path fill="none" stroke="#4A3E98" stroke-width="2.4051" stroke-linecap="round" stroke-linejoin="round" stroke-miterlimit="10" d="
				M62.1,150.3c0-2,1.7-3.7,3.7-3.7c2,0,3.7,1.7,3.7,3.7"/>
			
				<path fill="none" stroke="#4A3E98" stroke-width="2.4051" stroke-linecap="round" stroke-linejoin="round" stroke-miterlimit="10" d="
				M69.4,150.3c0-1.4,1.1-2.5,2.5-2.5c1.4,0,2.5,1.1,2.5,2.5"/>
			
				<path fill="none" stroke="#4A3E98" stroke-width="2.4051" stroke-linecap="round" stroke-linejoin="round" stroke-miterlimit="10" d="
				M80.7,173.3c0-0.9,0.8-1.7,1.7-1.7c0.9,0,1.7,0.8,1.7,1.7"/>
			
				<path fill="none" stroke="#4A3E98" stroke-width="2.4051" stroke-linecap="round" stroke-linejoin="round" stroke-miterlimit="10" d="
				M84.3,173.3c0-2.2,1.8-4.1,4.1-4.1c2.2,0,4.1,1.8,4.1,4.1"/>
			
				<path fill="none" stroke="#4A3E98" stroke-width="2.4051" stroke-linecap="round" stroke-linejoin="round" stroke-miterlimit="10" d="
				M92.7,173.4c0-1.3,1-2.3,2.3-2.3s2.3,1,2.3,2.3"/>
			
				<path fill="none" stroke="#4A3E98" stroke-width="5.062" stroke-linecap="round" stroke-linejoin="round" stroke-miterlimit="10" d="
				M309.3,147c0-4.3,3.5-7.9,7.9-7.9c0.3,0,0.6,0,0.9,0.1c0.4-5.2,1.8-10,4.1-14.5c-2.4-1.9-3.9-4.9-3.9-8.2
				c0-5.8,4.7-10.6,10.6-10.6c2.9,0,5.6,1.2,7.5,3.1c6.1-3.9,13.4-6.2,21.2-6.2c15.7,0,29.2,9.1,35.6,22.3c1.4-0.7,3.1-1.2,4.8-1.2
				c5.8,0,10.5,4.7,10.5,10.5c0,4.3-2.6,8-6.3,9.7c1.1,1.1,1.8,2.7,1.8,4.4c0,3.4-2.8,6.2-6.2,6.2c-0.9,0-1.7-0.2-2.5-0.5
				c-5,16-20,27.7-37.7,27.7c-11.4,0-21.7-4.8-28.9-12.6c-1.9,1.4-4.2,2.2-6.7,2.2c-6.3,0-11.4-5.1-11.4-11.4c0-2.5,0.8-4.9,2.2-6.8
				C310.6,152,309.3,149.7,309.3,147z"/>
			
				<path fill="none" stroke="#4A3E98" stroke-width="5.062" stroke-linecap="round" stroke-linejoin="round" stroke-miterlimit="10" d="
				M397.9,124.1c-5.9,0-10.8,4.8-10.8,10.8"/>
			
				<path fill="none" stroke="#4A3E98" stroke-width="5.062" stroke-linecap="round" stroke-linejoin="round" stroke-miterlimit="10" d="
				M337.8,111.7c-1.6-3.4-5-5.7-9-5.7"/>
			
				<path fill="none" stroke="#4A3E98" stroke-width="2.531" stroke-linecap="round" stroke-linejoin="round" stroke-miterlimit="10" d="
				M347.8,158.6c0-2.4-2-4.4-4.4-4.4c-2.4,0-4.4,2-4.4,4.4"/>
			
				<path fill="none" stroke="#4A3E98" stroke-width="2.531" stroke-linecap="round" stroke-linejoin="round" stroke-miterlimit="10" d="
				M339,158.6c0-1.7-1.3-3-3-3c-1.7,0-3,1.3-3,3"/>
			
				<path fill="none" stroke="#4A3E98" stroke-width="2.531" stroke-linecap="round" stroke-linejoin="round" stroke-miterlimit="10" d="
				M376.8,128.7c0-1.1-0.9-2-2-2c-1.1,0-2,0.9-2,2"/>
			
				<path fill="none" stroke="#4A3E98" stroke-width="2.531" stroke-linecap="round" stroke-linejoin="round" stroke-miterlimit="10" d="
				M372.5,128.7c0-2.7-2.2-4.8-4.8-4.8s-4.8,2.2-4.8,4.8"/>
			
				<path fill="none" stroke="#4A3E98" stroke-width="2.531" stroke-linecap="round" stroke-linejoin="round" stroke-miterlimit="10" d="
				M362.6,128.8c0-1.5-1.2-2.7-2.7-2.7c-1.5,0-2.7,1.2-2.7,2.7"/>
			
				<line fill="none" stroke="#4A3E98" stroke-width="5.062" stroke-linecap="round" stroke-linejoin="round" stroke-miterlimit="10" x1="69.4" y1="200.6" x2="69.4" y2="244.9"/>
			
				<line fill="none" stroke="#4A3E98" stroke-width="5.062" stroke-linecap="round" stroke-linejoin="round" stroke-miterlimit="10" x1="84" y1="200.6" x2="84" y2="244.9"/>
			
				<line fill="none" stroke="#4A3E98" stroke-width="5.062" stroke-linecap="round" stroke-linejoin="round" stroke-miterlimit="10" x1="351" y1="182.3" x2="351" y2="246.8"/>
			
				<line fill="none" stroke="#4A3E98" stroke-width="5.062" stroke-linecap="round" stroke-linejoin="round" stroke-miterlimit="10" x1="365.6" y1="183.5" x2="365.6" y2="244.9"/>
			
				<line fill="none" stroke="#4A3E98" stroke-width="2.531" stroke-linecap="round" stroke-linejoin="round" stroke-miterlimit="10" x1="69.4" y1="208.2" x2="73.2" y2="208.2"/>
			
				<line fill="none" stroke="#4A3E98" stroke-width="2.531" stroke-linecap="round" stroke-linejoin="round" stroke-miterlimit="10" x1="69.4" y1="211.4" x2="77.7" y2="211.4"/>
			
				<line fill="none" stroke="#4A3E98" stroke-width="2.531" stroke-linecap="round" stroke-linejoin="round" stroke-miterlimit="10" x1="85.3" y1="229.1" x2="75.8" y2="229.1"/>
			
				<line fill="none" stroke="#4A3E98" stroke-width="2.531" stroke-linecap="round" stroke-linejoin="round" stroke-miterlimit="10" x1="85.3" y1="233.5" x2="78.9" y2="233.5"/>
			
				<line fill="none" stroke="#4A3E98" stroke-width="2.531" stroke-linecap="round" stroke-linejoin="round" stroke-miterlimit="10" x1="351" y1="193" x2="358.6" y2="193"/>
			
				<line fill="none" stroke="#4A3E98" stroke-width="2.531" stroke-linecap="round" stroke-linejoin="round" stroke-miterlimit="10" x1="351" y1="198.1" x2="354.8" y2="198.1"/>
			
				<line fill="none" stroke="#4A3E98" stroke-width="2.531" stroke-linecap="round" stroke-linejoin="round" stroke-miterlimit="10" x1="365.6" y1="233.5" x2="358.6" y2="233.5"/>
			
				<line fill="none" stroke="#4A3E98" stroke-width="2.531" stroke-linecap="round" stroke-linejoin="round" stroke-miterlimit="10" x1="365.6" y1="229.1" x2="359.9" y2="229.1"/>
			
				<path fill="none" stroke="#4A3E98" stroke-width="2.531" stroke-linecap="round" stroke-linejoin="round" stroke-miterlimit="10" d="
				M106.4,86.6c0-2.5-2-4.5-4.5-4.5c-1.4,0-2.7,0.6-3.5,1.7c-0.8-2-2.7-3.5-5-3.5c-2.4,0-4.5,1.6-5.2,3.8c-0.3-5.3-4.6-9.5-10-9.5
				c-5.1,0-9.4,3.9-10,8.9c-1-0.9-2.4-1.4-3.9-1.4c-3.3,0-6,2.7-6,6"/>
			
				<line fill="none" stroke="#4A3E98" stroke-width="2.531" stroke-linecap="round" stroke-linejoin="round" stroke-miterlimit="10" x1="58.7" y1="88.6" x2="50.5" y2="88.6"/>
			
				<line fill="none" stroke="#4A3E98" stroke-width="2.531" stroke-linecap="round" stroke-linejoin="round" stroke-miterlimit="10" x1="66.9" y1="94.3" x2="13.8" y2="94.3"/>
			
				<line fill="none" stroke="#4A3E98" stroke-width="2.531" stroke-linecap="round" stroke-linejoin="round" stroke-miterlimit="10" x1="142.2" y1="86.7" x2="148.5" y2="86.7"/>
			
				<line fill="none" stroke="#4A3E98" stroke-width="2.531" stroke-linecap="round" stroke-linejoin="round" stroke-miterlimit="10" x1="106.8" y1="86.7" x2="136.5" y2="86.7"/>
			
				<path fill="none" stroke="#4A3E98" stroke-width="2.531" stroke-linecap="round" stroke-linejoin="round" stroke-miterlimit="10" d="
				M365.4,37.3c0-9.2-7.5-16.7-16.7-16.7c-7.9,0-14.4,5.4-16.3,12.7c-1.1-1-2.6-1.5-4.2-1.5c-3.4,0-6.2,2.6-6.5,5.9
				c-0.5-0.2-1-0.4-1.6-0.4c-2.1,0-3.8,1.7-3.8,3.8"/>
			
				<line fill="none" stroke="#4A3E98" stroke-width="2.531" stroke-linecap="round" stroke-linejoin="round" stroke-miterlimit="10" x1="365.6" y1="38" x2="385.8" y2="38"/>
			
				<line fill="none" stroke="#4A3E98" stroke-width="2.531" stroke-linecap="round" stroke-linejoin="round" stroke-miterlimit="10" x1="316.2" y1="41.8" x2="309.9" y2="41.8"/>
			
				<line fill="none" stroke="#4A3E98" stroke-width="2.531" stroke-linecap="round" stroke-linejoin="round" stroke-miterlimit="10" x1="308.6" y1="46.2" x2="292.2" y2="46.2"/>
			
				<line fill="none" stroke="#4A3E98" stroke-width="5.062" stroke-linecap="round" stroke-linejoin="round" stroke-miterlimit="10" x1="163.1" y1="201.2" x2="297.9" y2="201.2"/>
			
				<path fill="none" stroke="#4A3E98" stroke-width="5.062" stroke-linecap="round" stroke-linejoin="round" stroke-miterlimit="10" d="
				M287.3,201.6c0,5.1-25.6,14.6-56.8,14.6c-31.1,0-56-9.5-56-14.6"/>
			
				<line fill="none" stroke="#4A3E98" stroke-width="5.062" stroke-linecap="round" stroke-linejoin="round" stroke-miterlimit="10" x1="174.6" y1="201.2" x2="189.6" y2="246.8"/>
			
				<line fill="none" stroke="#4A3E98" stroke-width="5.062" stroke-linecap="round" stroke-linejoin="round" stroke-miterlimit="10" x1="287.3" y1="201.2" x2="272.3" y2="247.4"/>
			
				<line fill="none" stroke="#4A3E98" stroke-width="2.531" stroke-linecap="round" stroke-linejoin="round" stroke-miterlimit="10" x1="182.7" y1="206.3" x2="210.5" y2="206.3"/>
			
				<line fill="none" stroke="#4A3E98" stroke-width="2.531" stroke-linecap="round" stroke-linejoin="round" stroke-miterlimit="10" x1="190.9" y1="210.1" x2="220.7" y2="210.1"/>
		</g>
	</g>
</g>
</svg>
