<?xml version="1.0" encoding="utf-8"?>
<!-- Generator: Adobe Illustrator 18.1.1, SVG Export Plug-In . SVG Version: 6.00 Build 0)  -->
<svg version="1.1" id="Layer_1" xmlns="http://www.w3.org/2000/svg" xmlns:xlink="http://www.w3.org/1999/xlink" x="0px" y="0px"
	 viewBox="0 0 477.6 316.1" enable-background="new 0 0 477.6 316.1" xml:space="preserve">
<path fill="#F12E58" d="M48.9,72c0,0-12.9,3.1-17.9,4.6c-3.5,1.1-10.4,4-12.6,5c-1-7-4-12-9.4-12V106c6.1,0,9.1-6.3,9.7-14.6
	c2.6,1,9.4,3.8,12.3,4.9c3.5,1.4,17.9,6,17.9,6c8,2.5,14.2-6.8,14.2-15.2S56.5,70.8,48.9,72z"/>
<path fill="#F12E58" d="M63,139.7c-3.3-1-11.8-3.6-16.3-5c-6.5-2-23.3-6-23.3-6C13.6,127.2,5,137.6,5,148.5v0c0,10.8,8,23,18.4,19.7
	c0,0,18.7-5.9,23.3-7.8c3.6-1.5,12.2-4.3,15.7-5.4c1,10.3,4.9,18,12.5,18v-47.3C68.4,125.7,64.5,131.4,63,139.7z"/>
<circle fill="#4A3E98" cx="47.7" cy="79.6" r="2.1"/>
<path fill="none" stroke="#4A3E98" stroke-width="6.1567" stroke-linecap="round" stroke-linejoin="round" stroke-miterlimit="10" d="
	M15.8,75.7c0,0,7-2.8,11.2-4.1C32,70,44.9,67,44.9,67c7.6-1.2,14.2,6.8,14.2,15.2v0c0,8.3-6.2,17.7-14.2,15.2c0,0-14.4-4.6-17.9-6
	c-3.5-1.4-10.9-4.5-10.9-4.5"/>
<path fill="none" stroke="#4A3E98" stroke-width="6" stroke-linecap="round" stroke-linejoin="round" stroke-miterlimit="10" d="
	M14.9,82.8c0,10.1-2.9,18.2-9.9,18.2V64.6C11.9,64.6,14.9,72.7,14.9,82.8z"/>
<line fill="none" stroke="#4A3E98" stroke-width="3" stroke-miterlimit="10" x1="5" y1="78.5" x2="12" y2="78.5"/>
<line fill="none" stroke="#4A3E98" stroke-width="3" stroke-miterlimit="10" x1="5" y1="87.5" x2="16" y2="87.5"/>
<circle fill="#4A3E98" cx="19.9" cy="137.1" r="2.8"/>
<path fill="none" stroke="#4A3E98" stroke-width="8" stroke-linecap="round" stroke-linejoin="round" stroke-miterlimit="10" d="
	M61.3,132.1c0,0-9.1-3.7-14.6-5.4c-6.5-2-23.3-6-23.3-6C13.6,119.2,5,129.6,5,140.5v0c0,10.8,8,23,18.4,19.7c0,0,18.7-5.9,23.3-7.8
	c4.6-1.9,14.2-5.9,14.2-5.9"/>
<path fill="none" stroke="#4A3E98" stroke-width="8" stroke-linecap="round" stroke-linejoin="round" stroke-miterlimit="10" d="
	M62.2,141.3C62.2,154.4,66,165,75,165v-47.3C66,117.7,62.2,128.3,62.2,141.3z"/>
<line fill="none" stroke="#4A3E98" stroke-width="4" stroke-miterlimit="10" x1="75" y1="136" x2="66" y2="136"/>
<line fill="none" stroke="#4A3E98" stroke-width="4" stroke-miterlimit="10" x1="75" y1="148" x2="61" y2="148"/>
<path fill="#F12E58" d="M336.4,82c0-39-31.6-70.5-70.5-70.5S195.4,43,195.4,82H336.4z"/>
<path fill="#7B4888" d="M266.3,199.3h-1.1c-6.4,0-11.6-5.2-11.6-11.6h24.2C277.9,194.1,272.7,199.3,266.3,199.3z"/>
<line fill="none" stroke="#4A3E98" stroke-width="4.132" stroke-miterlimit="10" x1="100" y1="286.3" x2="249.2" y2="184.7"/>
<line fill="none" stroke="#4A3E98" stroke-width="4.132" stroke-miterlimit="10" x1="273.5" y1="184.7" x2="413.5" y2="257.7"/>
<path fill="none" stroke="#4A3E98" stroke-width="8.2639" stroke-linecap="round" stroke-linejoin="round" stroke-miterlimit="10" d="
	M189.2,74.9c0-38.9,31.6-70.5,70.5-70.5s70.5,31.6,70.5,70.5"/>
<line fill="none" stroke="#4A3E98" stroke-width="8" stroke-linecap="round" stroke-linejoin="round" stroke-miterlimit="10" x1="172" y1="75" x2="342" y2="75"/>
<line fill="none" stroke="#4A3E98" stroke-width="4" stroke-linecap="round" stroke-linejoin="round" stroke-miterlimit="10" x1="227" y1="11" x2="227" y2="29"/>
<line fill="none" stroke="#4A3E98" stroke-width="4" stroke-linecap="round" stroke-linejoin="round" stroke-miterlimit="10" x1="236" y1="8" x2="236" y2="59"/>
<line fill="none" stroke="#4A3E98" stroke-width="4" stroke-linecap="round" stroke-linejoin="round" stroke-miterlimit="10" x1="279" y1="75" x2="279" y2="58"/>
<line fill="none" stroke="#4A3E98" stroke-width="4" stroke-linecap="round" stroke-linejoin="round" stroke-miterlimit="10" x1="290" y1="75" x2="290" y2="33"/>
<line fill="none" stroke="#4A3E98" stroke-width="4" stroke-linecap="round" stroke-linejoin="round" stroke-miterlimit="10" x1="279" y1="46" x2="279" y2="40"/>
<line fill="none" stroke="#4A3E98" stroke-width="4.132" stroke-linecap="round" stroke-linejoin="round" stroke-miterlimit="10" x1="205.9" y1="75.3" x2="249.2" y2="184.7"/>
<line fill="none" stroke="#4A3E98" stroke-width="4.132" stroke-linecap="round" stroke-linejoin="round" stroke-miterlimit="10" x1="316.4" y1="75.3" x2="273.5" y2="184.7"/>
<line fill="none" stroke="#4A3E98" stroke-width="4" stroke-linecap="round" stroke-linejoin="round" stroke-miterlimit="10" x1="261" y1="75" x2="261" y2="149"/>
<path fill="none" stroke="#4A3E98" stroke-width="4.132" stroke-linecap="round" stroke-linejoin="round" stroke-miterlimit="10" d="
	M261.9,196.2h-1.1c-6.4,0-11.6-5.2-11.6-11.6v-24.5c0-6.4,5.2-11.6,11.6-11.6h1.1c6.4,0,11.6,5.2,11.6,11.6v24.5
	C273.5,191,268.2,196.2,261.9,196.2z"/>
<path fill="none" stroke="#4A3E98" stroke-width="4.132" stroke-linecap="round" stroke-linejoin="round" stroke-miterlimit="10" d="
	M261.9,196.2h-1.1c-6.4,0-11.6-5.2-11.6-11.6h24.2C273.5,191,268.2,196.2,261.9,196.2z"/>
<circle fill="#4A3E98" cx="256.6" cy="160.4" r="1.5"/>
<circle fill="#4A3E98" cx="266.3" cy="160.4" r="1.5"/>
<line fill="none" stroke="#4A3E98" stroke-width="4" stroke-linecap="round" stroke-linejoin="round" stroke-miterlimit="10" x1="256" y1="195" x2="256" y2="206"/>
<line fill="none" stroke="#4A3E98" stroke-width="4" stroke-linecap="round" stroke-linejoin="round" stroke-miterlimit="10" x1="266" y1="196" x2="266" y2="206"/>
<line fill="none" stroke="#4A3E98" stroke-width="4" stroke-linecap="round" stroke-linejoin="round" stroke-miterlimit="10" x1="255" y1="209" x2="257" y2="209"/>
<line fill="none" stroke="#4A3E98" stroke-width="4.132" stroke-linecap="round" stroke-linejoin="round" stroke-miterlimit="10" x1="265.3" y1="208.5" x2="267.3" y2="208.5"/>
<path fill="#FFCA45" d="M60.3,39.6L49.7,17.9l2.3-1.1c0.6-0.3,0.8-1,0.5-1.6l-3.3-6.8c-0.3-0.6-1-0.8-1.6-0.5L16.3,23.2
	c-0.6,0.3-0.8,1-0.5,1.6l3.3,6.8c0.3,0.6,1,0.8,1.6,0.5l2.3-1.1l10.5,21.7c0.3,0.6,1,0.9,1.6,0.6l24.6-12
	C60.3,40.9,60.6,40.2,60.3,39.6z"/>
<g>
	<path fill="none" stroke="#4A3E98" stroke-width="4" stroke-linecap="round" stroke-linejoin="round" stroke-miterlimit="10" d="
		M54.3,37.6L43.7,15.9L16.9,29l10.5,21.7c0.3,0.6,1,0.9,1.6,0.6l24.6-12C54.3,38.9,54.6,38.2,54.3,37.6z"/>
	<path fill="none" stroke="#4A3E98" stroke-width="4" stroke-linecap="round" stroke-linejoin="round" stroke-miterlimit="10" d="
		M43.7,15.9l2.3-1.1c0.6-0.3,0.8-1,0.5-1.6l-3.3-6.8c-0.3-0.6-1-0.8-1.6-0.5L10.3,21.2c-0.6,0.3-0.8,1-0.5,1.6l3.3,6.8
		c0.3,0.6,1,0.8,1.6,0.5l2.3-1.1"/>
</g>
<line fill="none" stroke="#4A3E98" stroke-width="4" stroke-linecap="round" stroke-linejoin="round" stroke-miterlimit="10" x1="3" y1="24.9" x2="47.5" y2="2.6"/>
<circle fill="#FFFFFF" cx="448.4" cy="26.8" r="21.8"/>
<circle fill="#FFFFFF" cx="449.5" cy="149.6" r="21.8"/>
<circle fill="#FFFFFF" cx="448.4" cy="271.3" r="21.8"/>
<path fill="#7CDACC" d="M41.9,196.5c-0.5-0.2-1-0.3-1.5-0.4c0,0-29.9-7.3-30-7.4c-2.2-0.8-4.7,0.3-5.5,2.6c-0.8,2.2,0.2,4.7,2.4,5.5
	l29.5,13.1c3.8,1.4,7.9-0.5,9.3-4.2C47.4,201.9,45.6,197.8,41.9,196.5"/>
<path fill="#7CDACC" d="M7,226.6c0.5-0.2,1-0.3,1.5-0.4c0,0,29.9-7.3,30-7.4c2.2-0.8,4.7,0.3,5.5,2.6c0.8,2.2-0.2,4.7-2.4,5.5
	L12.2,240c-3.8,1.4-7.9-0.5-9.3-4.2C1.5,232.1,3.3,228,7,226.6"/>
<path fill="none" stroke="#4A3E98" stroke-width="3.341" stroke-linecap="round" stroke-linejoin="round" stroke-miterlimit="10" d="
	M41.2,193.6c-0.5-0.2-1-0.3-1.5-0.4c0,0-29.9-7.3-30-7.4c-2.2-0.8-4.7,0.3-5.5,2.6c-0.8,2.2,0.2,4.7,2.4,5.5L36,206.9
	c3.8,1.4,7.9-0.5,9.3-4.2S44.9,194.9,41.2,193.6z"/>
<path fill="#4A3E98" d="M8.9,190.9c-0.6,0.3-1.3,0-1.6-0.6c-0.3-0.6,0-1.3,0.6-1.6c0.6-0.3,1.3,0,1.6,0.6
	C9.7,189.9,9.4,190.6,8.9,190.9"/>
<path fill="none" stroke="#4A3E98" stroke-width="3.341" stroke-linecap="round" stroke-linejoin="round" stroke-miterlimit="10" d="
	M7.8,223.7c0.5-0.2,1-0.3,1.5-0.4c0,0,29.9-7.3,30-7.4c2.2-0.8,4.7,0.3,5.5,2.6c0.8,2.2-0.2,4.7-2.4,5.5l-29.5,13.1
	c-3.8,1.4-7.9-0.5-9.3-4.2S4.1,225.1,7.8,223.7z"/>
<path fill="#4A3E98" d="M40.1,221c0.6,0.3,1.3,0,1.6-0.6c0.3-0.6,0-1.3-0.6-1.6c-0.6-0.3-1.3,0-1.6,0.6
	C39.2,220,39.5,220.7,40.1,221"/>
<path fill="none" stroke="#4A3E98" stroke-width="4" stroke-linecap="round" stroke-linejoin="round" stroke-miterlimit="10" d="
	M232.3,304.7c0-5.3-4.3-9.7-9.7-9.7c-5.3,0-9.7,4.3-9.7,9.7"/>
<path fill="none" stroke="#4A3E98" stroke-width="4" stroke-linecap="round" stroke-linejoin="round" stroke-miterlimit="10" d="
	M245.3,304.6c0-3.6-2.9-6.5-6.5-6.5c-3.6,0-6.5,2.9-6.5,6.5"/>
<path fill="none" stroke="#4A3E98" stroke-width="4" stroke-linecap="round" stroke-linejoin="round" stroke-miterlimit="10" d="
	M13.3,298.1c0-2.8-2.2-5-5-5s-5,2.2-5,5"/>
<path fill="none" stroke="#4A3E98" stroke-width="4" stroke-linecap="round" stroke-linejoin="round" stroke-miterlimit="10" d="
	M30.1,298.7c0-4.6-3.7-8.4-8.4-8.4s-8.4,3.7-8.4,8.4"/>
<path fill="none" stroke="#4A3E98" stroke-width="4" stroke-linecap="round" stroke-linejoin="round" stroke-miterlimit="10" d="
	M106.7,300.2c0-1.8,1.4-3.2,3.2-3.2c1.8,0,3.2,1.4,3.2,3.2"/>
<path fill="none" stroke="#4A3E98" stroke-width="4" stroke-linecap="round" stroke-linejoin="round" stroke-miterlimit="10" d="
	M113.3,300.3c0-3.5,2.9-6.4,6.4-6.4s6.4,2.9,6.4,6.4"/>
<path fill="none" stroke="#4A3E98" stroke-width="4" stroke-linecap="round" stroke-linejoin="round" stroke-miterlimit="10" d="
	M126.2,300.5c0-1.9,1.6-3.5,3.5-3.5c1.9,0,3.5,1.6,3.5,3.5"/>
</svg>
