<?xml version="1.0" encoding="utf-8"?>
<!-- Generator: Adobe Illustrator 18.1.1, SVG Export Plug-In . SVG Version: 6.00 Build 0)  -->
<svg version="1.1" xmlns="http://www.w3.org/2000/svg" xmlns:xlink="http://www.w3.org/1999/xlink" x="0px" y="0px"
	 viewBox="0 0 1000 256" enable-background="new 0 0 1000 256" xml:space="preserve">
<g id="background" display="none">
	<rect x="-6" y="-135.6" display="inline" fill="#F12E58" width="78.9" height="26.3"/>
	<rect x="72.9" y="-135.6" display="inline" fill="#FFCA45" width="78.9" height="26.3"/>
	<rect x="232.2" y="-135.6" display="inline" fill="#7B4888" width="77.4" height="26.3"/>
	<rect x="309.5" y="-135.6" display="inline" fill="#4A3E98" width="77.4" height="26.3"/>
	<rect x="151.8" y="-135.6" display="inline" fill="#F8993C" width="80.4" height="26.3"/>
	<rect x="-6" y="-173.9" display="inline" fill="#7CDACC" width="315.5" height="38.3"/>
	<rect x="-9.4" y="-100.3" display="inline" fill="#7CDACC" width="1011.4" height="510.8"/>
</g>
<g id="back_type">
	<path fill="#F12E58" d="M923.6,169.3c0-3.2,2.6-5.8,5.8-5.8c0.2,0,0.4,0,0.7,0c0.3-3.8,1.4-7.5,3-10.7c-1.8-1.4-2.9-3.6-2.9-6.1
		c0-4.3,3.5-7.9,7.9-7.9c2.2,0,4.2,0.9,5.6,2.3c4.5-2.9,9.9-4.6,15.7-4.6c11.6,0,21.7,6.8,26.4,16.6c1.1-0.5,2.3-0.9,3.6-0.9
		c4.3,0,7.8,3.5,7.8,7.8c0,3.2-1.9,6-4.7,7.2c0.8,0.8,1.3,2,1.3,3.2c0,2.6-2.1,4.6-4.6,4.6c-0.6,0-1.3-0.1-1.8-0.4
		c-3.7,11.9-14.9,20.6-28,20.6c-8.5,0-16.1-3.6-21.5-9.3c-1.4,1-3.1,1.6-5,1.6c-4.7,0-8.5-3.8-8.5-8.5c0-1.9,0.6-3.6,1.7-5
		C924.6,173,923.6,171.3,923.6,169.3z"/>
	
		<path fill="none" stroke="#4A3E98" stroke-width="3.6427" stroke-linecap="round" stroke-linejoin="round" stroke-miterlimit="10" d="
		M919.3,166c0-3.2,2.6-5.8,5.8-5.8c0.2,0,0.4,0,0.7,0c0.3-3.8,1.4-7.5,3-10.7c-1.8-1.4-2.9-3.6-2.9-6.1c0-4.3,3.5-7.9,7.9-7.9
		c2.2,0,4.2,0.9,5.6,2.3c4.5-2.9,9.9-4.6,15.7-4.6c11.6,0,21.7,6.8,26.4,16.6c1.1-0.5,2.3-0.9,3.6-0.9c4.3,0,7.8,3.5,7.8,7.8
		c0,3.2-1.9,6-4.7,7.2c0.8,0.8,1.3,2,1.3,3.2c0,2.6-2.1,4.6-4.6,4.6c-0.6,0-1.3-0.1-1.8-0.4c-3.7,11.9-14.9,20.6-28,20.6
		c-8.5,0-16.1-3.6-21.5-9.3c-1.4,1-3.1,1.6-5,1.6c-4.7,0-8.5-3.8-8.5-8.5c0-1.9,0.6-3.6,1.7-5C920.3,169.7,919.3,168,919.3,166z"/>
	
		<path fill="none" stroke="#4A3E98" stroke-width="3.6427" stroke-linecap="round" stroke-linejoin="round" stroke-miterlimit="10" d="
		M985.2,149c-4.4,0-8,3.6-8,8"/>
	
		<path fill="none" stroke="#4A3E98" stroke-width="3.6427" stroke-linecap="round" stroke-linejoin="round" stroke-miterlimit="10" d="
		M940.5,139.8c-1.2-2.5-3.7-4.2-6.7-4.2"/>
	
		<path fill="none" stroke="#4A3E98" stroke-width="1.8797" stroke-linecap="round" stroke-linejoin="round" stroke-miterlimit="10" d="
		M946.2,174.6c0-1.8-1.5-3.3-3.3-3.3c-1.8,0-3.3,1.5-3.3,3.3"/>
	
		<path fill="none" stroke="#4A3E98" stroke-width="1.8797" stroke-linecap="round" stroke-linejoin="round" stroke-miterlimit="10" d="
		M939.6,174.6c0-1.2-1-2.2-2.2-2.2c-1.2,0-2.2,1-2.2,2.2"/>
	
		<path fill="none" stroke="#4A3E98" stroke-width="1.8797" stroke-linecap="round" stroke-linejoin="round" stroke-miterlimit="10" d="
		M969.5,152.4c0-0.8-0.7-1.5-1.5-1.5s-1.5,0.7-1.5,1.5"/>
	
		<path fill="none" stroke="#4A3E98" stroke-width="1.8797" stroke-linecap="round" stroke-linejoin="round" stroke-miterlimit="10" d="
		M966.4,152.4c0-2-1.6-3.6-3.6-3.6c-2,0-3.6,1.6-3.6,3.6"/>
	
		<path fill="none" stroke="#4A3E98" stroke-width="1.8797" stroke-linecap="round" stroke-linejoin="round" stroke-miterlimit="10" d="
		M959,152.5c0-1.1-0.9-2-2-2c-1.1,0-2,0.9-2,2"/>
	
		<line fill="none" stroke="#4A3E98" stroke-width="3" stroke-linecap="round" stroke-linejoin="round" stroke-miterlimit="10" x1="950.5" y1="192.5" x2="950.5" y2="244.5"/>
	
		<line fill="none" stroke="#4A3E98" stroke-width="3" stroke-linecap="round" stroke-linejoin="round" stroke-miterlimit="10" x1="960.5" y1="192.5" x2="960.5" y2="246.5"/>
	<path fill="#F12E58" d="M58.7,163.4c-4.2-2.6-9.1-4.2-14.4-4.2c-10.7,0-19.9,6.2-24.2,15.2c-1-0.5-2.1-0.8-3.3-0.8
		c-4,0-7.2,3.2-7.2,7.2c0,2.9,1.8,5.5,4.3,6.6c-0.7,0.8-1.2,1.8-1.2,3c0,2.3,1.9,4.2,4.2,4.2c0.6,0,1.2-0.1,1.7-0.3
		c3.4,10.9,13.6,18.8,25.7,18.8c7.8,0,14.7-3.3,19.7-8.5"/>
	
		<path fill="none" stroke="#4A3E98" stroke-width="4.0994" stroke-linecap="round" stroke-linejoin="round" stroke-miterlimit="10" d="
		M54.1,160.3c-4.2-2.6-9.1-4.2-14.4-4.2c-10.7,0-19.9,6.2-24.2,15.2c-1-0.5-2.1-0.8-3.3-0.8c-4,0-7.2,3.2-7.2,7.2
		c0,2.9,1.8,5.5,4.3,6.6c-0.7,0.8-1.2,1.8-1.2,3c0,2.3,1.9,4.2,4.2,4.2c0.6,0,1.2-0.1,1.7-0.3c3.4,10.9,13.6,18.8,25.7,18.8
		c7.8,0,14.7-3.3,19.7-8.5"/>
	
		<path fill="none" stroke="#4A3E98" stroke-width="4.0994" stroke-linecap="round" stroke-linejoin="round" stroke-miterlimit="10" d="
		M67.1,180.7"/>
	
		<path fill="none" stroke="#4A3E98" stroke-width="4.0994" stroke-linecap="round" stroke-linejoin="round" stroke-miterlimit="10" d="
		M12.2,170.5c4,0,7.3,3.3,7.3,7.3"/>
	
		<path fill="none" stroke="#4A3E98" stroke-width="4.0994" stroke-linecap="round" stroke-linejoin="round" stroke-miterlimit="10" d="
		M53.1,162.1c1.1-2.3,3.4-3.9,6.1-3.9"/>
	
		<path fill="none" stroke="#4A3E98" stroke-width="1.9477" stroke-linecap="round" stroke-linejoin="round" stroke-miterlimit="10" d="
		M27.8,168.9c0-1.7,1.3-3,3-3c1.7,0,3,1.3,3,3"/>
	
		<path fill="none" stroke="#4A3E98" stroke-width="1.9477" stroke-linecap="round" stroke-linejoin="round" stroke-miterlimit="10" d="
		M33.8,168.9c0-1.1,0.9-2,2-2c1.1,0,2,0.9,2,2"/>
	
		<path fill="none" stroke="#4A3E98" stroke-width="1.9477" stroke-linecap="round" stroke-linejoin="round" stroke-miterlimit="10" d="
		M42.9,187.5c0-0.8,0.6-1.4,1.4-1.4c0.8,0,1.4,0.6,1.4,1.4"/>
	
		<path fill="none" stroke="#4A3E98" stroke-width="1.9477" stroke-linecap="round" stroke-linejoin="round" stroke-miterlimit="10" d="
		M45.8,187.5c0-1.8,1.5-3.3,3.3-3.3c1.8,0,3.3,1.5,3.3,3.3"/>
	
		<path fill="none" stroke="#4A3E98" stroke-width="1.9477" stroke-linecap="round" stroke-linejoin="round" stroke-miterlimit="10" d="
		M52.6,187.5c0-1,0.8-1.8,1.8-1.8c1,0,1.8,0.8,1.8,1.8"/>
	
		<line fill="none" stroke="#4A3E98" stroke-width="4" stroke-linecap="round" stroke-linejoin="round" stroke-miterlimit="10" x1="34" y1="210.5" x2="34" y2="245.5"/>
	
		<line fill="none" stroke="#4A3E98" stroke-width="4" stroke-linecap="round" stroke-linejoin="round" stroke-miterlimit="10" x1="45" y1="210.5" x2="45" y2="245.5"/>
	
		<line fill="none" stroke="#4A3E98" stroke-width="2" stroke-linecap="round" stroke-linejoin="round" stroke-miterlimit="10" x1="36" y1="215.5" x2="37" y2="215.5"/>
	
		<line fill="none" stroke="#4A3E98" stroke-width="2" stroke-linecap="round" stroke-linejoin="round" stroke-miterlimit="10" x1="35" y1="218.5" x2="39" y2="218.5"/>
	
		<line fill="none" stroke="#4A3E98" stroke-width="2" stroke-linecap="round" stroke-linejoin="round" stroke-miterlimit="10" x1="46" y1="232.5" x2="39" y2="232.5"/>
	
		<line fill="none" stroke="#4A3E98" stroke-width="2" stroke-linecap="round" stroke-linejoin="round" stroke-miterlimit="10" x1="40" y1="238.5" x2="34" y2="238.5"/>
	
		<line fill="none" stroke="#4A3E98" stroke-width="2" stroke-linecap="round" stroke-linejoin="round" stroke-miterlimit="10" x1="951" y1="200.5" x2="956" y2="200.5"/>
	
		<line fill="none" stroke="#4A3E98" stroke-width="2" stroke-linecap="round" stroke-linejoin="round" stroke-miterlimit="10" x1="951" y1="205.5" x2="953" y2="205.5"/>
	
		<line fill="none" stroke="#4A3E98" stroke-width="2" stroke-linecap="round" stroke-linejoin="round" stroke-miterlimit="10" x1="961" y1="237.5" x2="954" y2="237.5"/>
	
		<line fill="none" stroke="#4A3E98" stroke-width="2" stroke-linecap="round" stroke-linejoin="round" stroke-miterlimit="10" x1="961" y1="232.5" x2="956" y2="232.5"/>
	<g>
		<path fill="#FFFFFF" d="M378,73.3c0-4.2-3-7.6-7.1-7.6c-2.4,0-4.3,1.1-5.7,2.8c-1.3-3.4-4.5-5.8-8.4-5.8c-4.1,0-7.5,2.7-8.7,6.5
			c-0.5-8.9-7.8-16-16.8-16c-8.7,0-15.8,6.6-16.8,15c-1.8-1.5-4-2.6-6.5-2.6c-5.6,0-10.1,4.9-10.1,9.9H378V73.3z"/>
		
			<path fill="none" stroke="#4A3E98" stroke-width="4.2741" stroke-linecap="round" stroke-linejoin="round" stroke-miterlimit="10" d="
			M378.9,68c0-4.2-3.4-7.6-7.6-7.6c-2.4,0-4.5,1.1-5.9,2.8c-1.3-3.4-4.6-5.8-8.5-5.8c-4.1,0-7.6,2.7-8.7,6.5
			c-0.5-8.9-7.8-16-16.9-16c-8.7,0-15.9,6.6-16.8,15c-1.8-1.5-4-2.4-6.5-2.4c-5.6,0-10.1,4.5-10.1,10.1"/>
		
			<line fill="none" stroke="#4A3E98" stroke-width="4" stroke-linecap="round" stroke-linejoin="round" stroke-miterlimit="10" x1="298" y1="71.5" x2="285" y2="71.5"/>
		
			<line fill="none" stroke="#4A3E98" stroke-width="4" stroke-linecap="round" stroke-linejoin="round" stroke-miterlimit="10" x1="313" y1="80.5" x2="222" y2="80.5"/>
		
			<line fill="none" stroke="#4A3E98" stroke-width="4" stroke-linecap="round" stroke-linejoin="round" stroke-miterlimit="10" x1="439" y1="68.5" x2="450" y2="68.5"/>
		
			<line fill="none" stroke="#4A3E98" stroke-width="4" stroke-linecap="round" stroke-linejoin="round" stroke-miterlimit="10" x1="379" y1="68.5" x2="430" y2="68.5"/>
	</g>
	<g>
		<path fill="#FFFFFF" d="M964,55.2c0-15.6-13-28.3-28.6-28.3c-13.3,0-24.6,9.1-27.6,21.5c-1.9-1.6-4.5-2.6-7.2-2.6
			c-5.8,0-10.5,4.4-11.1,10c-0.8-0.4-1.8-0.2-2.8-0.2c-3.6,0-6.5,1.9-6.5,6.9H964V55.2z"/>
		
			<path fill="none" stroke="#4A3E98" stroke-width="4.2741" stroke-linecap="round" stroke-linejoin="round" stroke-miterlimit="10" d="
			M959,50.9c0-15.6-12.7-28.3-28.3-28.3c-13.3,0-24.4,9.1-27.4,21.5c-1.9-1.6-4.4-2.6-7.1-2.6c-5.8,0-10.5,4.4-11,10
			c-0.8-0.4-1.8-0.6-2.8-0.6c-3.6,0-6.4,2.9-6.4,6.4"/>
		
			<line fill="none" stroke="#4A3E98" stroke-width="4" stroke-linecap="round" stroke-linejoin="round" stroke-miterlimit="10" x1="959" y1="51.5" x2="994" y2="51.5"/>
		
			<line fill="none" stroke="#4A3E98" stroke-width="4" stroke-linecap="round" stroke-linejoin="round" stroke-miterlimit="10" x1="876" y1="57.5" x2="865" y2="57.5"/>
		
			<line fill="none" stroke="#4A3E98" stroke-width="4" stroke-linecap="round" stroke-linejoin="round" stroke-miterlimit="10" x1="863" y1="66.5" x2="835" y2="66.5"/>
	</g>
	<g>
		
			<path fill="none" stroke="#4A3E98" stroke-width="1.3776" stroke-linecap="round" stroke-linejoin="round" stroke-miterlimit="10" d="
			M390,209.7c0-1.8-1.5-3.3-3.3-3.3c-1.8,0-3.3,1.5-3.3,3.3"/>
		
			<path fill="none" stroke="#4A3E98" stroke-width="1.3776" stroke-linecap="round" stroke-linejoin="round" stroke-miterlimit="10" d="
			M394.5,209.7c0-1.2-1-2.3-2.3-2.3s-2.3,1-2.3,2.3"/>
	</g>
	<g>
		
			<path fill="none" stroke="#4A3E98" stroke-width="1.3776" stroke-linecap="round" stroke-linejoin="round" stroke-miterlimit="10" d="
			M304.9,188.9c0-1-0.8-1.7-1.7-1.7s-1.7,0.8-1.7,1.7"/>
		
			<path fill="none" stroke="#4A3E98" stroke-width="1.3776" stroke-linecap="round" stroke-linejoin="round" stroke-miterlimit="10" d="
			M310.6,189.1c0-1.6-1.3-2.9-2.9-2.9s-2.9,1.3-2.9,2.9"/>
	</g>
	<g>
		
			<path fill="none" stroke="#4A3E98" stroke-width="1.3776" stroke-linecap="round" stroke-linejoin="round" stroke-miterlimit="10" d="
			M594.2,240.9c0-0.6,0.5-1.1,1.1-1.1c0.6,0,1.1,0.5,1.1,1.1"/>
		
			<path fill="none" stroke="#4A3E98" stroke-width="1.3776" stroke-linecap="round" stroke-linejoin="round" stroke-miterlimit="10" d="
			M596.5,240.9c0-1.2,1-2.2,2.2-2.2c1.2,0,2.2,1,2.2,2.2"/>
		
			<path fill="none" stroke="#4A3E98" stroke-width="1.3776" stroke-linecap="round" stroke-linejoin="round" stroke-miterlimit="10" d="
			M601,241c0-0.7,0.5-1.2,1.2-1.2c0.7,0,1.2,0.5,1.2,1.2"/>
	</g>
	<g>
		
			<path fill="none" stroke="#4A3E98" stroke-width="1.3776" stroke-linecap="round" stroke-linejoin="round" stroke-miterlimit="10" d="
			M405.1,178.9c0-0.6,0.5-1.1,1.1-1.1s1.1,0.5,1.1,1.1"/>
		
			<path fill="none" stroke="#4A3E98" stroke-width="1.3776" stroke-linecap="round" stroke-linejoin="round" stroke-miterlimit="10" d="
			M407.4,179c0-1.2,1-2.2,2.2-2.2c1.2,0,2.2,1,2.2,2.2"/>
		
			<path fill="none" stroke="#4A3E98" stroke-width="1.3776" stroke-linecap="round" stroke-linejoin="round" stroke-miterlimit="10" d="
			M411.8,179c0-0.7,0.5-1.2,1.2-1.2c0.7,0,1.2,0.5,1.2,1.2"/>
	</g>
	<path fill="#F12E58" d="M620.8,151.9h-11c-0.8,0-1.5-0.7-1.5-1.5v-1.2c0-0.8,0.7-1.5,1.5-1.5h11c0.8,0,1.5,0.7,1.5,1.5v1.2
		C622.3,151.2,621.6,151.9,620.8,151.9z"/>
	<path fill="#F12E58" d="M629.1,155.9l-7.6-8c-0.6-0.6-0.5-1.6,0.1-2.1l0.9-0.8c0.6-0.6,1.6-0.5,2.1,0.1l7.6,8
		c0.6,0.6,0.5,1.6-0.1,2.1l-0.9,0.8C630.6,156.6,629.6,156.5,629.1,155.9z"/>
	<path fill="none" stroke="#4A3E98" stroke-width="1.8677" stroke-miterlimit="10" d="M619.5,154.7h-11c-0.8,0-1.5-0.7-1.5-1.5V152
		c0-0.8,0.7-1.5,1.5-1.5h11c0.8,0,1.5,0.7,1.5,1.5v1.2C621,154,620.3,154.7,619.5,154.7z"/>
	<path fill="none" stroke="#4A3E98" stroke-width="1.8677" stroke-miterlimit="10" d="M619.5,150.5h-11c-0.8,0-1.5-0.7-1.5-1.5v-1.2
		c0-0.8,0.7-1.5,1.5-1.5h11c0.8,0,1.5,0.7,1.5,1.5v1.2C621,149.8,620.3,150.5,619.5,150.5z"/>
	<path fill="none" stroke="#4A3E98" stroke-width="1.8677" stroke-miterlimit="10" d="M619.5,146.3h-11c-0.8,0-1.5-0.7-1.5-1.5v-1.2
		c0-0.8,0.7-1.5,1.5-1.5h11c0.8,0,1.5,0.7,1.5,1.5v1.2C621,145.6,620.3,146.3,619.5,146.3z"/>
	<path fill="none" stroke="#4A3E98" stroke-width="1.8677" stroke-miterlimit="10" d="M629.2,153.8l-7.7-7.9c-0.6-0.6-0.6-1.5,0-2.1
		l0.9-0.8c0.6-0.6,1.5-0.6,2.1,0l7.7,7.9c0.6,0.6,0.6,1.5,0,2.1l-0.9,0.8C630.7,154.4,629.7,154.4,629.2,153.8z"/>
	<line fill="none" stroke="#4A3E98" stroke-miterlimit="10" x1="610.5" y1="151.5" x2="610.5" y2="154.5"/>
	<line fill="none" stroke="#4A3E98" stroke-miterlimit="10" x1="612.5" y1="151.5" x2="612.5" y2="154.5"/>
	<line fill="none" stroke="#4A3E98" stroke-miterlimit="10" x1="615.5" y1="151.5" x2="615.5" y2="154.5"/>
	<line fill="none" stroke="#4A3E98" stroke-miterlimit="10" x1="617.5" y1="151.5" x2="617.5" y2="154.5"/>
	<line fill="none" stroke="#4A3E98" stroke-miterlimit="10" x1="610.5" y1="141.5" x2="610.5" y2="145.5"/>
	<line fill="none" stroke="#4A3E98" stroke-miterlimit="10" x1="612.5" y1="141.5" x2="612.5" y2="145.5"/>
	<line fill="none" stroke="#4A3E98" stroke-miterlimit="10" x1="615.5" y1="141.5" x2="615.5" y2="145.5"/>
	<line fill="none" stroke="#4A3E98" stroke-miterlimit="10" x1="617.5" y1="141.5" x2="617.5" y2="145.5"/>
	
		<path fill="none" stroke="#4A3E98" stroke-width="4.2741" stroke-linecap="round" stroke-linejoin="round" stroke-miterlimit="10" d="
		M658.8,209.8l19.9-22c0.2-0.2,0.5-0.2,0.8,0l16,14.6c0.2,0.2,0.2,0.5,0,0.8L673,228C672.8,228.2,658.8,209.8,658.8,209.8z"/>
	
		<path fill="none" stroke="#4A3E98" stroke-width="2.137" stroke-linecap="round" stroke-linejoin="round" stroke-miterlimit="10" d="
		M673,227.9l4.1,6.1c0.1,0.2,0.4,0.3,0.6,0.2l24.2-12.6c0.2-0.1,0.3-0.4,0.2-0.6l-8.4-16"/>
	<g>
		<path fill="#4A3E98" d="M674.4,210c-0.1-0.1-0.1-0.1-0.1-0.2L674,206c0,0,0-0.1,0-0.2c0-0.1,0-0.2,0-0.4s0-0.4,0.1-0.5
			c0-0.2,0.1-0.4,0.2-0.6c0.1-0.2,0.2-0.4,0.3-0.5c0.4-0.5,0.9-0.7,1.4-0.8c0.5,0,1,0.2,1.5,0.6c0.1,0.1,0.3,0.3,0.4,0.4
			c0.1,0.2,0.2,0.4,0.2,0.5c0.1,0.2,0.1,0.4,0.1,0.5c0,0.1,0,0.3,0.1,0.4c0.2,0,0.3,0,0.5,0c0.2,0,0.3,0,0.5,0.1
			c0.2,0,0.4,0.1,0.6,0.2c0.2,0.1,0.3,0.2,0.5,0.3c0.5,0.4,0.8,0.9,0.8,1.4c0,0.5-0.2,1-0.6,1.5c-0.4,0.5-1.1,0.8-2.1,0.8l-3.8,0.2
			C674.5,210.1,674.5,210,674.4,210z"/>
	</g>
	
		<rect x="683.1" y="216.3" transform="matrix(0.955 0.2966 -0.2966 0.955 95.9263 -193.6441)" fill="#4A3E98" width="5.9" height="5.9"/>
	
		<line fill="none" stroke="#4A3E98" stroke-width="4" stroke-linecap="round" stroke-linejoin="round" stroke-miterlimit="10" x1="975" y1="246.5" x2="992" y2="246.5"/>
	
		<line fill="none" stroke="#4A3E98" stroke-width="4" stroke-linecap="round" stroke-linejoin="round" stroke-miterlimit="10" x1="19" y1="246.5" x2="6" y2="246.5"/>
	<g>
		<path fill="#4A3E98" d="M428.2,159.9H289.3c-1.2,0-2.1-1-2.1-2.1s1-2.1,2.1-2.1h138.9c1.2,0,2.1,1,2.1,2.1
			S429.4,159.9,428.2,159.9z"/>
	</g>
	
		<line fill="none" stroke="#4A3E98" stroke-width="4.2741" stroke-linecap="round" stroke-linejoin="round" stroke-miterlimit="10" x1="487.3" y1="244.9" x2="523.6" y2="147.7"/>
	
		<line fill="none" stroke="#4A3E98" stroke-width="4.2741" stroke-linecap="round" stroke-linejoin="round" stroke-miterlimit="10" x1="533.7" y1="155.6" x2="533.7" y2="148.3"/>
	
		<line fill="none" stroke="#4A3E98" stroke-width="4.2741" stroke-linecap="round" stroke-linejoin="round" stroke-miterlimit="10" x1="549.9" y1="155.6" x2="549.9" y2="148.3"/>
	
		<line fill="none" stroke="#4A3E98" stroke-width="4.2741" stroke-linecap="round" stroke-linejoin="round" stroke-miterlimit="10" x1="523.6" y1="147.7" x2="549.7" y2="147.7"/>
	
		<line fill="none" stroke="#4A3E98" stroke-width="4.2741" stroke-linecap="round" stroke-linejoin="round" stroke-miterlimit="10" x1="518.5" y1="161.3" x2="528.7" y2="166.7"/>
	
		<line fill="none" stroke="#4A3E98" stroke-width="4.2741" stroke-linecap="round" stroke-linejoin="round" stroke-miterlimit="10" x1="510.5" y1="182.7" x2="521.7" y2="187.5"/>
	
		<line fill="none" stroke="#4A3E98" stroke-width="4.2741" stroke-linecap="round" stroke-linejoin="round" stroke-miterlimit="10" x1="502.5" y1="206.5" x2="512.1" y2="210.1"/>
	
		<line fill="none" stroke="#4A3E98" stroke-width="4.2741" stroke-linecap="round" stroke-linejoin="round" stroke-miterlimit="10" x1="494.7" y1="225.2" x2="504.4" y2="229"/>
	
		<line fill="none" stroke="#4A3E98" stroke-width="4.2741" stroke-linecap="round" stroke-linejoin="round" stroke-miterlimit="10" x1="549.9" y1="214.5" x2="611.1" y2="214.5"/>
	<g>
		
			<path fill="none" stroke="#4A3E98" stroke-width="1.3776" stroke-linecap="round" stroke-linejoin="round" stroke-miterlimit="10" d="
			M587,226.3c0-1-0.8-1.7-1.7-1.7c-1,0-1.7,0.8-1.7,1.7"/>
		
			<path fill="none" stroke="#4A3E98" stroke-width="1.3776" stroke-linecap="round" stroke-linejoin="round" stroke-miterlimit="10" d="
			M592.7,226.5c0-1.6-1.3-2.9-2.9-2.9s-2.9,1.3-2.9,2.9"/>
	</g>
	
		<path fill="none" stroke="#4A3E98" stroke-width="4.2741" stroke-linecap="round" stroke-linejoin="round" stroke-miterlimit="10" d="
		M718,137.9c23.2-27.7,22.6-77.4,64-77.1c33.7,0.3,42.5,49.4,54.8,77.6"/>
	
		<line fill="none" stroke="#4A3E98" stroke-width="4.2741" stroke-linecap="round" stroke-linejoin="round" stroke-miterlimit="10" x1="724.5" y1="128.6" x2="736.9" y2="132"/>
	
		<line fill="none" stroke="#4A3E98" stroke-width="4.2741" stroke-linecap="round" stroke-linejoin="round" stroke-miterlimit="10" x1="736.2" y1="104.3" x2="750.1" y2="107.8"/>
	
		<line fill="none" stroke="#4A3E98" stroke-width="4.2741" stroke-linecap="round" stroke-linejoin="round" stroke-miterlimit="10" x1="750.1" y1="77.1" x2="762.6" y2="84.8"/>
	
		<line fill="none" stroke="#4A3E98" stroke-width="4.2741" stroke-linecap="round" stroke-linejoin="round" stroke-miterlimit="10" x1="782" y1="60.7" x2="781.6" y2="74.6"/>
	
		<line fill="none" stroke="#4A3E98" stroke-width="4.2741" stroke-linecap="round" stroke-linejoin="round" stroke-miterlimit="10" x1="808.3" y1="74.6" x2="799.5" y2="84.8"/>
	
		<line fill="none" stroke="#4A3E98" stroke-width="4.2741" stroke-linecap="round" stroke-linejoin="round" stroke-miterlimit="10" x1="821.5" y1="98.9" x2="812" y2="104.3"/>
	
		<line fill="none" stroke="#4A3E98" stroke-width="4.2741" stroke-linecap="round" stroke-linejoin="round" stroke-miterlimit="10" x1="831.1" y1="125.3" x2="819.3" y2="132"/>
	
		<path fill="none" stroke="#4A3E98" stroke-width="8.5482" stroke-linecap="round" stroke-linejoin="round" stroke-miterlimit="10" d="
		M729.2,147.1c22-28.2,25.4-72.5,52.3-72.5c25.2,0,30.4,44.2,43.8,72.4"/>
	<g>
		<path fill="#FFFFFF" d="M709.2,33.9c-0.5,0-1.1,0-1.6,0.1c0-0.5,0.1-1.1,0.1-1.6c0-12-9.7-21.7-21.7-21.7
			c-6.4,0-12.1,2.7-16.1,7.1c-2.6-1.5-5.6-2.4-8.8-2.4c-9.4,0-17.1,7.6-17.1,17.1v1.5C644,33.9,718.7,33.9,709.2,33.9z"/>
		
			<path fill="none" stroke="#4A3E98" stroke-width="4.2741" stroke-linecap="round" stroke-linejoin="round" stroke-miterlimit="10" d="
			M724.2,45.7c0-9.4-7.6-17.1-17.1-17.1c-0.5,0-1.1,0-1.6,0.1c0-0.5,0.1-1.1,0.1-1.6c0-12-9.7-21.7-21.7-21.7
			c-6.4,0-12.1,2.7-16.1,7.1c-2.6-1.5-5.6-2.4-8.8-2.4c-9.4,0-17.1,7.6-17.1,17.1"/>
		
			<line fill="none" stroke="#4A3E98" stroke-width="4" stroke-linecap="round" stroke-linejoin="round" stroke-miterlimit="10" x1="599" y1="29.5" x2="653" y2="29.5"/>
		
			<line fill="none" stroke="#4A3E98" stroke-width="4" stroke-linecap="round" stroke-linejoin="round" stroke-miterlimit="10" x1="601" y1="39.5" x2="572" y2="39.5"/>
	</g>
	<rect x="272.8" y="171" opacity="0.1" fill="#4A3E98" width="163" height="83.6"/>
	<polygon opacity="0.1" fill="#4A3E98" points="577.5,217.7 613.8,217.7 613.8,249.7 589.1,249.7 	"/>
	<path fill="#F12E58" d="M801.9,246.5c3-11,5.7-28.9-8.1-28.9c-15.6,0-7.7,24.9-6.1,28.9H801.9z"/>
	
		<path fill="none" stroke="#4A3E98" stroke-width="2.137" stroke-linecap="round" stroke-linejoin="round" stroke-miterlimit="10" d="
		M785.5,244.1c-1.6-4.4-9.5-28.9,6.1-28.9c13.8,0,11.1,17.4,8.1,28.9"/>
	
		<path fill="none" stroke="#4A3E98" stroke-width="2.137" stroke-linecap="round" stroke-linejoin="round" stroke-miterlimit="10" d="
		M785.7,216.8l-1.6-2.8c-0.1-0.2-0.5-0.3-0.7-0.2l4.7-2.7c0.3-0.2,0.3-0.5,0.2-0.7l-5.1-8.9c-0.2-0.3-0.5-0.3-0.7-0.2l-13.2,7.7
		c-0.3,0.2-0.3,0.5-0.2,0.7l5.1,8.9c0.2,0.3,0.5,0.3,0.7,0.2l4.7-2.7c-0.2,0.1-0.3,0.5-0.2,0.7l3.1,5.4"/>
	
		<line fill="none" stroke="#4A3E98" stroke-width="1.0685" stroke-linecap="round" stroke-linejoin="round" stroke-miterlimit="10" x1="774.3" y1="211.1" x2="776.3" y2="210"/>
	
		<line fill="none" stroke="#4A3E98" stroke-width="1.0685" stroke-linecap="round" stroke-linejoin="round" stroke-miterlimit="10" x1="779.7" y1="208" x2="781.8" y2="206.9"/>
	
		<line fill="none" stroke="#4A3E98" stroke-width="2.137" stroke-linecap="round" stroke-linejoin="round" stroke-miterlimit="10" x1="788.3" y1="224.6" x2="788.3" y2="224.6"/>
	
		<line fill="none" stroke="#4A3E98" stroke-width="2.137" stroke-linecap="round" stroke-linejoin="round" stroke-miterlimit="10" x1="795.8" y1="224.6" x2="795.8" y2="224.6"/>
	
		<path fill="none" stroke="#4A3E98" stroke-width="2.137" stroke-linecap="round" stroke-linejoin="round" stroke-miterlimit="10" d="
		M790.7,214.9l6.5-9.8c0.1-0.1,0.1-0.2,0.2-0.3c0.4-0.4,1-0.2,1.2,0.2c0.2,0.5,14.3,39.2,14.3,39.2"/>
	
		<line fill="none" stroke="#4A3E98" stroke-linecap="round" stroke-linejoin="round" stroke-miterlimit="10" x1="795.5" y1="210.5" x2="795.5" y2="212.5"/>
	
		<line fill="none" stroke="#4A3E98" stroke-linecap="round" stroke-linejoin="round" stroke-miterlimit="10" x1="798.5" y1="210.5" x2="798.5" y2="212.5"/>
	
		<line fill="none" stroke="#4A3E98" stroke-linecap="round" stroke-linejoin="round" stroke-miterlimit="10" x1="784" y1="241" x2="790" y2="241"/>
	
		<line fill="none" stroke="#4A3E98" stroke-linecap="round" stroke-linejoin="round" stroke-miterlimit="10" x1="784" y1="239" x2="786" y2="239"/>
	
		<line fill="none" stroke="#4A3E98" stroke-linecap="round" stroke-linejoin="round" stroke-miterlimit="10" x1="801" y1="236" x2="795" y2="236"/>
	
		<line fill="none" stroke="#4A3E98" stroke-linecap="round" stroke-linejoin="round" stroke-miterlimit="10" x1="793" y1="236" x2="791" y2="236"/>
	
		<line fill="none" stroke="#4A3E98" stroke-width="4" stroke-linecap="round" stroke-linejoin="round" stroke-miterlimit="10" x1="31" y1="246.5" x2="965" y2="246.5"/>
</g>
<g id="type">
	<g>
		<path fill="#4A3E98" d="M46.1,246.6v-91h39.2c4.4,0,8.5,0.9,12.3,2.8c3.8,1.8,7,4.2,9.7,7.2c2.7,2.9,4.8,6.3,6.3,10.1
			c1.5,3.8,2.3,7.6,2.3,11.5c0,4-0.7,7.9-2.2,11.7c-1.5,3.8-3.5,7.2-6.1,10.1c-2.6,2.9-5.8,5.3-9.5,7.1c-3.7,1.8-7.8,2.6-12.2,2.6
			H71.1v28H46.1z M71.1,196.9h13.2c1.5,0,3-0.7,4.3-2.1c1.3-1.4,2-4,2-7.6c0-3.8-0.8-6.3-2.3-7.7c-1.5-1.4-3.1-2.1-4.6-2.1H71.1
			V196.9z"/>
		<path fill="#4A3E98" d="M138.4,246.6v-91h41.8c4.4,0,8.5,0.9,12.3,2.8c3.8,1.8,7,4.2,9.7,7.2s4.8,6.3,6.3,10.1
			c1.5,3.8,2.3,7.6,2.3,11.5c0,5.3-1.2,10.2-3.5,14.8c-2.3,4.6-5.5,8.3-9.6,11.2l20.5,33.5h-28.2l-17.3-28h-9.4v28H138.4z
			 M163.4,196.9h15.8c1.5,0,3-0.9,4.3-2.6c1.3-1.7,2-4.1,2-7.2c0-3.2-0.8-5.6-2.3-7.2c-1.5-1.7-3.1-2.5-4.6-2.5h-15.1V196.9z"/>
		<path fill="#4A3E98" d="M304.1,224.8v21.8h-64.9v-91h63.7v21.8h-38.7v12.8h33.1v20.3h-33.1v14.4H304.1z"/>
		<path fill="#4A3E98" d="M399.4,177.4h-26.2v69.2h-25v-69.2H322v-21.8h77.4V177.4z"/>
		<path fill="#4A3E98" d="M421.4,246.6v-91h39.2c4.4,0,8.5,0.9,12.3,2.8c3.8,1.8,7,4.2,9.7,7.2c2.7,2.9,4.8,6.3,6.3,10.1
			c1.5,3.8,2.3,7.6,2.3,11.5c0,4-0.7,7.9-2.2,11.7c-1.5,3.8-3.5,7.2-6.1,10.1c-2.6,2.9-5.8,5.3-9.5,7.1c-3.7,1.8-7.8,2.6-12.2,2.6
			h-14.9v28H421.4z M446.4,196.9h13.2c1.5,0,3-0.7,4.3-2.1c1.3-1.4,2-4,2-7.6c0-3.8-0.8-6.3-2.3-7.7c-1.5-1.4-3.1-2.1-4.6-2.1h-12.6
			V196.9z"/>
		<path fill="#4A3E98" d="M497.8,246.6l34-91H552l33.9,91h-26.4l-5.5-17.8h-24.2l-5.4,17.8H497.8z M541.9,181.6l-8.5,30.5H550
			L541.9,181.6z"/>
		<path fill="#4A3E98" d="M605.5,246.6v-91h25v37.2l30.3-37.2h25.6l-33.1,40.8l35.4,50.3h-26.2l-24-36.3l-8.1,9.2v27.1H605.5z"/>
		<path fill="#4A3E98" d="M706.7,246.6v-91h25v37.2l30.3-37.2h25.6l-33.1,40.8l35.4,50.3h-26.2l-24-36.3l-8.1,9.2v27.1H706.7z"/>
		<path fill="#4A3E98" d="M872.7,224.8v21.8h-64.9v-91h63.7v21.8h-38.7v12.8h33.1v20.3h-33.1v14.4H872.7z"/>
		<path fill="#4A3E98" d="M968.1,177.4H942v69.2h-25v-69.2h-26.3v-21.8h77.4V177.4z"/>
	</g>
</g>
</svg>
