<?xml version="1.0" encoding="utf-8"?>
<!-- Generator: Adobe Illustrator 18.1.1, SVG Export Plug-In . SVG Version: 6.00 Build 0)  -->
<svg version="1.1" xmlns="http://www.w3.org/2000/svg" xmlns:xlink="http://www.w3.org/1999/xlink" x="0px" y="0px"
	 viewBox="0 0 60 60" enable-background="new 0 0 60 60" xml:space="preserve">
<g id="Layer_2">
</g>
<g id="Layer_1">
	<g opacity="0.7">
		<g>
			<path fill="#FFFFFF" d="M17.6,18.7C17.6,18.7,17.6,18.7,17.6,18.7H2c-0.3,0-0.5-0.1-0.7-0.3C1.1,18.2,1,17.9,1,17.6L2.2,5.8
				c0-0.5,0.5-0.9,1-0.9h13.1c0.5,0,0.9,0.4,1,0.9l1.3,11.7c0,0.1,0,0.2,0,0.3C18.6,18.3,18.1,18.7,17.6,18.7z M3.1,16.8h13.4
				l-1.1-9.9H4.1L3.1,16.8z"/>
		</g>
		<g>
			<path fill="#FFFFFF" d="M12.5,9.7c-0.5,0-1-0.4-1-1V2.7H7.7v6.1c0,0.5-0.4,1-1,1s-1-0.4-1-1v-7c0-0.5,0.4-1,1-1h5.8
				c0.5,0,1,0.4,1,1v7C13.4,9.3,13,9.7,12.5,9.7z"/>
		</g>
	</g>
	<g opacity="0.7">
		<g>
			<path fill="#FFFFFF" d="M27.2,14c-3.7,0-6.6-3-6.6-6.6s3-6.6,6.6-6.6s6.6,3,6.6,6.6S30.8,14,27.2,14z M27.2,3.3
				c-2.3,0-4.1,1.8-4.1,4.1s1.8,4.1,4.1,4.1s4.1-1.8,4.1-4.1S29.4,3.3,27.2,3.3z"/>
		</g>
		<g>
			<path fill="#FFFFFF" d="M34.6,15.7c-0.3,0-0.6-0.1-0.9-0.4l-2.6-2.6c-0.5-0.5-0.5-1.3,0-1.8c0.5-0.5,1.3-0.5,1.8,0l2.6,2.6
				c0.5,0.5,0.5,1.3,0,1.8C35.3,15.6,35,15.7,34.6,15.7z"/>
		</g>
		<g>
			<path fill="#FFFFFF" d="M38.3,19.3c-0.3,0-0.6-0.1-0.9-0.4L36,17.5c-0.5-0.5-0.5-1.3,0-1.8c0.5-0.5,1.3-0.5,1.8,0l1.4,1.4
				c0.5,0.5,0.5,1.3,0,1.8C38.9,19.1,38.6,19.3,38.3,19.3z"/>
		</g>
	</g>
	<g>
		<g>
			<path fill="#4A3E98" d="M27.2,34c-3.7,0-6.6-3-6.6-6.6s3-6.6,6.6-6.6s6.6,3,6.6,6.6S30.8,34,27.2,34z M27.2,23.3
				c-2.3,0-4.1,1.8-4.1,4.1s1.8,4.1,4.1,4.1s4.1-1.8,4.1-4.1S29.4,23.3,27.2,23.3z"/>
		</g>
		<g>
			<path fill="#4A3E98" d="M34.6,35.7c-0.3,0-0.6-0.1-0.9-0.4l-2.6-2.6c-0.5-0.5-0.5-1.3,0-1.8c0.5-0.5,1.3-0.5,1.8,0l2.6,2.6
				c0.5,0.5,0.5,1.3,0,1.8C35.3,35.6,35,35.7,34.6,35.7z"/>
		</g>
		<g>
			<path fill="#4A3E98" d="M38.3,39.3c-0.3,0-0.6-0.1-0.9-0.4L36,37.5c-0.5-0.5-0.5-1.3,0-1.8c0.5-0.5,1.3-0.5,1.8,0l1.4,1.4
				c0.5,0.5,0.5,1.3,0,1.8C38.9,39.1,38.6,39.3,38.3,39.3z"/>
		</g>
	</g>
	<g>
		<path fill="#FFFFFF" d="M48.6,11.1h-6.2c-0.7,0-1.2-0.2-1.7-0.7C40.2,9.9,40,9.3,40,8.7V2.4c0-0.7,0.2-1.3,0.7-1.7
			C41.2,0.2,41.8,0,42.4,0h6.2c0.7,0,1.3,0.2,1.7,0.7c0.5,0.5,0.7,1.1,0.7,1.7v6.2c0,0.7-0.2,1.3-0.7,1.7
			C49.9,10.9,49.3,11.1,48.6,11.1z M42.4,1.2c-0.4,0-0.6,0.1-0.9,0.4s-0.4,0.5-0.4,0.9v6.2c0,0.4,0.1,0.7,0.4,0.9
			c0.3,0.3,0.5,0.4,0.9,0.4h6.2c0.4,0,0.6-0.1,0.9-0.4c0.3-0.3,0.4-0.5,0.4-0.9V2.4c0-0.4-0.1-0.6-0.4-0.9S49,1.2,48.6,1.2H42.4z"/>
	</g>
	<path opacity="0.3" fill="#FFFFFF" d="M53.1,4.8V11c0,0.5-0.2,1-0.5,1.3c-0.4,0.4-0.8,0.5-1.3,0.5H45c-0.5,0-1-0.2-1.3-0.5
		s-0.5-0.8-0.5-1.3V4.8c0-0.5,0.2-1,0.5-1.3s0.8-0.5,1.3-0.5h6.2c0.5,0,1,0.2,1.3,0.5C52.9,3.8,53.1,4.2,53.1,4.8z"/>
	<g>
		<path fill="#FFFFFF" d="M48.6,31.1h-6.2c-0.7,0-1.2-0.2-1.7-0.7c-0.5-0.5-0.7-1.1-0.7-1.7v-6.2c0-0.7,0.2-1.3,0.7-1.7
			c0.5-0.5,1.1-0.7,1.7-0.7h6.2c0.7,0,1.3,0.2,1.7,0.7c0.5,0.5,0.7,1.1,0.7,1.7v6.2c0,0.7-0.2,1.3-0.7,1.7
			C49.9,30.9,49.3,31.1,48.6,31.1z M42.4,21.2c-0.4,0-0.6,0.1-0.9,0.4s-0.4,0.5-0.4,0.9v6.2c0,0.4,0.1,0.7,0.4,0.9
			c0.3,0.3,0.5,0.4,0.9,0.4h6.2c0.4,0,0.6-0.1,0.9-0.4c0.3-0.3,0.4-0.5,0.4-0.9v-6.2c0-0.4-0.1-0.6-0.4-0.9s-0.5-0.4-0.9-0.4H42.4z"
			/>
	</g>
	<g>
		<path fill="#FFFFFF" d="M48.6,51.1h-6.2c-0.7,0-1.2-0.2-1.7-0.7c-0.5-0.5-0.7-1.1-0.7-1.7v-6.2c0-0.7,0.2-1.3,0.7-1.7
			c0.5-0.5,1.1-0.7,1.7-0.7h6.2c0.7,0,1.3,0.2,1.7,0.7c0.5,0.5,0.7,1.1,0.7,1.7v6.2c0,0.7-0.2,1.3-0.7,1.7
			C49.9,50.9,49.3,51.1,48.6,51.1z M42.4,41.2c-0.4,0-0.6,0.1-0.9,0.4s-0.4,0.5-0.4,0.9v6.2c0,0.4,0.1,0.7,0.4,0.9
			c0.3,0.3,0.5,0.4,0.9,0.4h6.2c0.4,0,0.6-0.1,0.9-0.4c0.3-0.3,0.4-0.5,0.4-0.9v-6.2c0-0.4-0.1-0.6-0.4-0.9s-0.5-0.4-0.9-0.4H42.4z"
			/>
	</g>
	<g>
		<g>
			<path fill="#4A3E98" d="M17.6,39C17.6,39,17.6,39,17.6,39H2c-0.3,0-0.5-0.1-0.7-0.3C1.1,38.5,1,38.3,1,38l1.2-11.9
				c0-0.5,0.5-0.9,1-0.9h13.1c0.5,0,0.9,0.4,1,0.9l1.3,11.7c0,0.1,0,0.2,0,0.3C18.6,38.6,18.1,39,17.6,39z M3.1,37.1h13.4l-1.1-9.9
				H4.1L3.1,37.1z"/>
		</g>
		<g>
			<path fill="#4A3E98" d="M12.5,30.1c-0.5,0-1-0.4-1-1V23H7.7v6.1c0,0.5-0.4,1-1,1s-1-0.4-1-1v-7c0-0.5,0.4-1,1-1h5.8
				c0.5,0,1,0.4,1,1v7C13.4,29.6,13,30.1,12.5,30.1z"/>
		</g>
	</g>
	<g>
		<path fill="#4A3E98" d="M48.6,44.4c0,0.1,0,0.2-0.1,0.3l-2.8,2.8L45.1,48c-0.1,0.1-0.2,0.1-0.3,0.1s-0.2,0-0.3-0.1L44,47.5
			L42.6,46c-0.1-0.1-0.1-0.2-0.1-0.3s0-0.2,0.1-0.3l0.5-0.5c0.1-0.1,0.2-0.1,0.3-0.1s0.2,0,0.3,0.1l1.1,1.2l2.6-2.6
			c0.1-0.1,0.2-0.1,0.3-0.1s0.2,0,0.3,0.1l0.5,0.5C48.5,44.2,48.6,44.3,48.6,44.4z"/>
	</g>
</g>
</svg>
