<?xml version="1.0" encoding="utf-8"?>
<!-- Generator: Adobe Illustrator 18.1.1, SVG Export Plug-In . SVG Version: 6.00 Build 0)  -->
<svg version="1.1" id="Layer_1" xmlns="http://www.w3.org/2000/svg" xmlns:xlink="http://www.w3.org/1999/xlink" x="0px" y="0px"
	 viewBox="0 0 20 27.5" enable-background="new 0 0 20 27.5" xml:space="preserve">
<g>
	<path fill="#7CDACC" d="M18.2,20H1.8c-1,0-1.8-0.8-1.8-1.8V1.8C0,0.8,0.8,0,1.8,0h16.5c1,0,1.8,0.8,1.8,1.8v16.5
		C20,19.2,19.2,20,18.2,20z"/>
	<g>
		<path fill="#4A3E98" d="M6.9,14.3V4.8h4.1c0.5,0,0.9,0.1,1.3,0.3c0.4,0.2,0.7,0.4,1,0.7c0.3,0.3,0.5,0.7,0.7,1.1
			c0.2,0.4,0.2,0.8,0.2,1.2c0,0.4-0.1,0.8-0.2,1.2c-0.2,0.4-0.4,0.7-0.6,1.1c-0.3,0.3-0.6,0.6-1,0.7c-0.4,0.2-0.8,0.3-1.3,0.3H9.5
			v2.9H6.9z M9.5,9.1h1.4c0.2,0,0.3-0.1,0.4-0.2c0.1-0.1,0.2-0.4,0.2-0.8c0-0.4-0.1-0.7-0.2-0.8c-0.2-0.1-0.3-0.2-0.5-0.2H9.5V9.1z"
			/>
	</g>
	<path fill="#7CDACC" d="M9.9,27.4c0.1-0.1,4.8-8.4,4.8-8.4h-5h-5c0,0,4.7,8.1,4.8,8.2C9.6,27.4,9.9,27.5,9.9,27.4z"/>
</g>
</svg>
